<svg xmlns="http://www.w3.org/2000/svg" xmlns:xlink="http://www.w3.org/1999/xlink" viewBox="0 0 1280 300"><defs><style>.cls-1{fill:none;}.cls-2{fill:#fff;}.cls-3{fill:#e96bbc;}.cls-4{fill:#f86048;}.cls-5{fill:#443880;}.cls-6{fill:url(#New_Pattern_16);}.cls-7{fill:url(#New_Pattern_2);}</style><pattern id="New_Pattern_16" data-name="New Pattern 16" width="59.55" height="68.16" patternTransform="translate(-34.99 -72.91)" patternUnits="userSpaceOnUse" viewBox="0 0 59.55 68.16"><rect class="cls-1" width="59.55" height="68.16"/><path class="cls-2" d="M119.6,134.57c-15.62-22-43.43-49.11-60-70.34-1.93-2.46-5,4.07-3.23,6.34,16.63,21.22,44.05,47,59.67,69C117.77,142.08,121.3,137,119.6,134.57Z"/><path class="cls-2" d="M60.05,134.57c-15.62-22-43.42-49.11-60-70.34-1.93-2.46-5,4.07-3.23,6.34,16.63,21.22,44.05,47,59.67,69C58.22,142.08,61.76,137,60.05,134.57Z"/><path class="cls-2" d="M.5,134.57c-15.61-22-43.42-49.11-60-70.34-1.93-2.46-5,4.07-3.22,6.34,16.62,21.22,44.05,47,59.66,69C-1.33,142.08,2.21,137,.5,134.57Z"/><path class="cls-2" d="M119.6,66.41c-15.62-22-43.43-49.11-60-70.33-1.93-2.46-5,4.06-3.23,6.33,16.63,21.22,44.05,47,59.67,69C117.77,73.92,121.3,68.82,119.6,66.41Z"/><path class="cls-2" d="M60.05,66.41C44.43,44.38,16.63,17.3,0-3.92-1.93-6.38-5,.14-3.23,2.41c16.63,21.22,44.05,47,59.67,69C58.22,73.92,61.76,68.82,60.05,66.41Z"/><path class="cls-2" d="M.5,66.41c-15.61-22-43.42-49.11-60-70.33-1.93-2.46-5,4.06-3.22,6.33,16.62,21.22,44.05,47,59.66,69C-1.33,73.92,2.21,68.82.5,66.41Z"/><path class="cls-2" d="M119.6-1.74c-15.62-22-43.43-49.12-60-70.34-1.93-2.46-5,4.07-3.23,6.34,16.63,21.22,44.05,47,59.67,69C117.77,5.77,121.3.66,119.6-1.74Z"/><path class="cls-2" d="M60.05-1.74c-15.62-22-43.42-49.12-60-70.34C-1.93-74.54-5-68-3.23-65.74c16.63,21.22,44.05,47,59.67,69C58.22,5.77,61.76.66,60.05-1.74Z"/><path class="cls-2" d="M.5-1.74c-15.61-22-43.42-49.12-60-70.34-1.93-2.46-5,4.07-3.22,6.34,16.62,21.22,44.05,47,59.66,69C-1.33,5.77,2.21.66.5-1.74Z"/></pattern><pattern id="New_Pattern_2" data-name="New Pattern 2" width="300" height="300" patternTransform="translate(-90 -250)" patternUnits="userSpaceOnUse" viewBox="0 0 300 300"><rect class="cls-1" width="300" height="300"/><path class="cls-3" d="M318.58,260.12c-3,4.69-7.73,8.11-12.19,11.27-5.77,4.09-11.8,7.79-17.62,11.82-9.57,6.62-22.11,15.79-21.9,28.79.05,3.55,2.61,7.69,4.24,10.69a28.89,28.89,0,0,0,3,4.73c.08.09,1.35,1.6,1.33.39-.2-12.84,12.77-21.8,22.17-28.3,5.62-3.88,11.43-7.47,17-11.4,4.47-3.14,9.21-6.6,12.19-11.27,1.19-1.88-2.16-7.37-2.94-8.95C323.69,267.49,319,259.47,318.58,260.12Z"/><path class="cls-4" d="M324.63,271.76c-3,4.69-7.72,8.11-12.19,11.27-5.77,4.09-11.8,7.79-17.62,11.81-9.57,6.62-22.11,15.8-21.9,28.8.05,3.55,2.61,7.68,4.24,10.69a28.47,28.47,0,0,0,3,4.73c.08.09,1.35,1.6,1.33.39-.2-12.84,12.77-21.8,22.17-28.3,5.62-3.88,11.43-7.47,17-11.4,4.47-3.14,9.21-6.6,12.19-11.27,1.2-1.88-2.16-7.37-2.94-9C329.75,279.13,325,271.11,324.63,271.76Z"/><path class="cls-3" d="M18.58,260.12c-3,4.69-7.73,8.11-12.19,11.27-5.77,4.09-11.8,7.79-17.62,11.82C-20.8,289.83-33.34,299-33.13,312c.05,3.55,2.61,7.69,4.24,10.69a28.89,28.89,0,0,0,3,4.73c.08.09,1.35,1.6,1.33.39-.2-12.84,12.77-21.8,22.17-28.3,5.62-3.88,11.43-7.47,17-11.4,4.47-3.14,9.21-6.6,12.19-11.27,1.19-1.88-2.16-7.37-2.94-8.95C23.69,267.49,19,259.47,18.58,260.12Z"/><path class="cls-4" d="M24.63,271.76c-3,4.69-7.72,8.11-12.19,11.27-5.77,4.09-11.8,7.79-17.62,11.81-9.57,6.62-22.11,15.8-21.9,28.8,0,3.55,2.61,7.68,4.24,10.69a28.47,28.47,0,0,0,3,4.73c.08.09,1.35,1.6,1.33.39-.2-12.84,12.77-21.8,22.17-28.3,5.62-3.88,11.43-7.47,17-11.4,4.47-3.14,9.21-6.6,12.19-11.27,1.2-1.88-2.16-7.37-2.94-9C29.75,279.13,25,271.11,24.63,271.76Z"/><path class="cls-3" d="M168.58,110.12c-3,4.69-7.73,8.11-12.19,11.27-5.77,4.09-11.8,7.79-17.62,11.82-9.57,6.62-22.11,15.79-21.9,28.79,0,3.55,2.61,7.69,4.24,10.69a28.89,28.89,0,0,0,3,4.73c.08.09,1.35,1.6,1.33.39-.2-12.84,12.77-21.8,22.17-28.3,5.62-3.88,11.43-7.47,17-11.4,4.47-3.14,9.21-6.6,12.19-11.27,1.19-1.88-2.16-7.37-2.94-9C173.69,117.49,169,109.47,168.58,110.12Z"/><path class="cls-4" d="M174.63,121.76c-3,4.69-7.72,8.11-12.19,11.27-5.77,4.09-11.8,7.79-17.62,11.81-9.57,6.62-22.11,15.8-21.9,28.8,0,3.55,2.61,7.68,4.24,10.69a28.47,28.47,0,0,0,3,4.73c.08.09,1.35,1.6,1.33.39-.2-12.84,12.77-21.8,22.17-28.3,5.62-3.88,11.43-7.47,17-11.4,4.47-3.14,9.21-6.6,12.19-11.27,1.2-1.88-2.16-7.37-2.94-8.95C179.75,129.13,175,121.11,174.63,121.76Z"/><path class="cls-3" d="M318.58-39.88c-3,4.69-7.73,8.11-12.19,11.27-5.77,4.09-11.8,7.79-17.62,11.82C279.2-10.17,266.66-1,266.87,12c.05,3.55,2.61,7.69,4.24,10.69a28.89,28.89,0,0,0,3,4.73c.08.09,1.35,1.6,1.33.39C275.25,15,288.22,6,297.62-.49c5.62-3.88,11.43-7.47,17-11.4,4.47-3.14,9.21-6.6,12.19-11.27,1.19-1.88-2.16-7.37-2.94-8.95C323.69-32.51,319-40.53,318.58-39.88Z"/><path class="cls-4" d="M324.63-28.24c-3,4.69-7.72,8.11-12.19,11.27-5.77,4.09-11.8,7.79-17.62,11.81-9.57,6.62-22.11,15.8-21.9,28.8.05,3.55,2.61,7.68,4.24,10.69a28.47,28.47,0,0,0,3,4.73c.08.09,1.35,1.6,1.33.39-.2-12.84,12.77-21.8,22.17-28.3,5.62-3.88,11.43-7.47,17-11.4,4.47-3.14,9.21-6.6,12.19-11.27,1.2-1.88-2.16-7.37-2.94-8.95C329.75-20.87,325-28.89,324.63-28.24Z"/><path class="cls-3" d="M18.58-39.88c-3,4.69-7.73,8.11-12.19,11.27C.62-24.52-5.41-20.82-11.23-16.79-20.8-10.17-33.34-1-33.13,12c.05,3.55,2.61,7.69,4.24,10.69a28.89,28.89,0,0,0,3,4.73c.08.09,1.35,1.6,1.33.39C-24.75,15-11.78,6-2.38-.49,3.24-4.37,9.05-8,14.64-11.89c4.47-3.14,9.21-6.6,12.19-11.27C28-25,24.67-30.53,23.89-32.11,23.69-32.51,19-40.53,18.58-39.88Z"/><path class="cls-4" d="M24.63-28.24c-3,4.69-7.72,8.11-12.19,11.27C6.67-12.88.64-9.18-5.18-5.16c-9.57,6.62-22.11,15.8-21.9,28.8,0,3.55,2.61,7.68,4.24,10.69a28.47,28.47,0,0,0,3,4.73c.08.09,1.35,1.6,1.33.39-.2-12.84,12.77-21.8,22.17-28.3,5.62-3.88,11.43-7.47,17-11.4,4.47-3.14,9.21-6.6,12.19-11.27,1.2-1.88-2.16-7.37-2.94-8.95C29.75-20.87,25-28.89,24.63-28.24Z"/></pattern></defs><title>Top</title><g id="Layer_2" data-name="Layer 2"><g id="Layer_1-2" data-name="Layer 1"><rect class="cls-5" width="1280" height="300"/><rect class="cls-6" width="1280" height="300"/><rect class="cls-7" width="1280" height="300"/></g></g></svg>