<svg xmlns="http://www.w3.org/2000/svg" viewBox="0 0 490.44 437.53"><defs><style>.cls-1{fill:#f83c2d;}.cls-2{fill:#e4d91b;}.cls-3{fill:#e96bbc;}.cls-4{fill:#1ab687;}</style></defs><title>Tucan</title><g id="Layer_2" data-name="Layer 2"><g id="tucan_jungle" data-name="tucan jungle"><path class="cls-1" d="M488,322.62c-1.86,7.48-1.68,23.62-13.73,21.9,4,14.58-8.28,37.41-23.36,41.34-6.4,1.66-7.91,5.07-13.66,7.47-5.21,2.17-11.53-.6-16.9,2.12-6.37,3.25-7.45,6.78-16,5.67a31.55,31.55,0,0,1-14.46-6c-5.24-4.32-21.18-22.57-30.79-33.78-3.46-4-6.1-7.13-7.15-8.37-.32-.39-.5-.59-.5-.59-7.79,5.15-14.11,7.85-22.06,9.38-3.15,6.06-11.58,7.13-17.92,7.46-1.35,10.07-3.83,12.16-13.82,10.91-.09,5,.07,9.4-3.56,13.15-4.11,4.25-6.92,2.15-11.81,4.15-4.07,1.66-6.5,6.65-10.34,8.6-6.31,3.19-7.81-1.07-13.65-1.15-6.26-.09-5.89,4.6-10.93,6.38s-7.94-2.8-13.08-2.18c-10.61,1.28-10.29,14.82-23.11,7.4-3.93,6.56-20.3,9.62-21.23-.62-.76,4-7.37,11.31-10.94,13.44-6.9,4.14-10.89,0-13.6-6.86-5,5.67-13,16.49-21.88,14.91,1.06-5.12,3.36-13.44,2.64-18.73-8.22,6.18-19,17-30.12,18,3.22-5,13-9.6,12.71-15.75-14,0-26.32,17.7-41.93,11.39.24-1.17-.46-2.93-.24-4.12-9.72-.5-17.16-.83-26.23-3.56-3.56-1.08-10.28-1.1-12.92-3.78-4.46-4.55-1.86-7.14,3.64-7.35,7.07-.27,17.53,5.24,24.7,6.6,8.66,1.65,15.11,1.79,23.44-2,10.14-4.63,22-8.38,31.88-14,10.61-6,15-15.67,21.79-24.7a228.93,228.93,0,0,1,18.86-22.57C176.42,352,193,336.14,195,333.7a22.89,22.89,0,0,1-2.88-.05c-14.88-.88-77-8.83-81.48-7.19,1.81-11.68,13.91-11.12,18.07-20.74,4.48-10.37-8-15.44-8-24.57,0-1.12,1.3-2,3.58-2.7a50.25,50.25,0,0,1,9.74-1.59c4.58-.4,10.06-.59,16-.64,27.74-.28,65.22,2.58,65.36,2.54,5.33-3.86,13.75-18.5,16.93-23,6-8.59,12.67-17.69,15.25-27.47,5.74-21.8,18.23-41.79,17.29-64.87-.3-7.28-10.44-29.46-5.09-34.24,4.49,4.34,4.59,15.67,8,21.62-.16-9.65-8.81-59.45-8-64.48a47.86,47.86,0,0,1,4.92-13.73c2.14,9.45,8.28,42,9.06,50.78,2.33-7.07-1-21.16-2.51-28.86-1.68-8.55-4-16-4.93-24.88-1.68-16.14-9.35-35.11-14.95-50.09,12,8.53,18.36,30.13,22.05,43.55,2.22,8.1,3.78,16.61,6,24.71,1.88,6.92,2,16.64,5.13,23-.3-18.63,0-90.37-4.25-106.81,4.6,14.64,15.22,26.91,18,42.34,3.16,17.33.43,34.14,2.16,51.42C300.29,89.19,309,16.1,310,0c6.22,10.35,8,30.65,8.58,42.86.82,16-3.5,29.76-5.55,44.78,8.71-2.46,30.14-64,34.48-67.43,3.76,10.14-.76,23.71-2.92,33.37-2.69,12-7.89,22.78-10.81,34.68,3.52-7.17,38-61,39.9-65.16,1.5,10.66-.06,20.31-3.28,30.48-3.53,11.21-5.15,23.16-11.72,33.19,10.18-12.2,15.85-24.9,28.11-35.3,1,16.15-7.38,24.54-12.86,38.37,6.84-1.23,15.36-14.15,23.9-18.23-1.87,9.29-9.51,22.72-12.26,31.28,6.32-.46,13-6.41,14.49,3,1.14,7.09-5.66,11.28-7.22,17.31,19.25,11.4-1.09,18.51-11.46,25.63,8.75,1.23,16.78-9.71,26.63-4.62,12.45,6.44-5.28,16.33-4.95,24.09,17.14,3.33-4.66,19.25-8,22.66,5.17,4,18.8,4.34,12.13,14.38-4,6-4.74,2.85-5.66,9.59-.58,4.24,1.28,9.38-5,8.86-1.07,6.1,1.7,10.51-1.37,16-3.19,5.78-6.89,5.78-5.87,12.18,1,6,5.18,9.5-1.41,14.75-4.83,3.86-8.86,2.84-11.78,8.59-3.25,6.42-7.07,17.46-14.24,22.05a26.87,26.87,0,0,0,12,4.09c11.82.7,83.73-21.9,93.76-26.21,14.85-6.36,13.56,7.12,4.46,15.16,8.73-.28,18.55-1.09,16.55,11.66a59.32,59.32,0,0,0-12.89-.49c2.4,5.27,8.49,2.25,12.11,5.12C492.89,310.72,489.22,317.84,488,322.62Z"/><path class="cls-1" d="M280.24,4c-.28-1.08-.58-2.16-.91-3.23C279.59,1.81,279.9,2.89,280.24,4Z"/><path class="cls-2" d="M192.1,333.65c-9.84-.58-40.26-4.25-61.09-6.2-6.44-.61-11.95-1-15.66-1.17a17.68,17.68,0,0,0-4.73.18c1.81-11.68,13.91-11.12,18.07-20.74,4.48-10.37-8-15.44-8-24.57,0-1,1.1-1.86,3-2.54a47,47,0,0,1,9.92-1.71l.35,0c28.47,4.68,63.52,14.62,74.43,33.47C214.28,320.44,205.76,331.32,192.1,333.65Z"/><path class="cls-3" d="M399.84,346.56c-2.54.44-4.63-1.51-6.59-1.57a52.9,52.9,0,0,0-6.42,2.19c-2.21,1.41-3.11,4.6-5.45,6.05-1.33.82-4.84,1.6-6.53,2.28-5,2.06-9,5.78-14.75,5.86h-1c-3.46-4-5.71-7.13-6.77-8.37,10.38-10,16.7-20,19.95-48.35v.55c6.49-2.43,24,9.07,24.1,17.91-2.31.14-4.31-.76-6.56-.89C394.54,330.51,400.37,336.23,399.84,346.56Z"/><path class="cls-2" d="M128.12,327.18c-2.58,3.18-25.37-3.5-51.87-.48s-58,13.6-71.39,22C-.5,340.19-.55,334.49.6,324.24c1.26-11.29,15-21.36,24.07-26.18C56.93,281,96.82,276.92,133.34,276.92,133.34,276.92,142.06,310,128.12,327.18Z"/><path class="cls-3" d="M139.86,315.66c-3.23,4.44-4.85,7.74-8.85,11.79-5.64,2.31-5,3-17.8-.25,2.61-1.58,7.11-4.08,7.66-4.92,2.95-4.48,3.79-10.38,8.1-14.52,1.74-1.68,6.35-2.73,7.43-3.92,1.92-2.12-1.05-4.73-2.35-6.48-3.53-4.73-5.12-9.61-8.09-14.5a55.64,55.64,0,0,1-3-5.82c2.26-.77,6.45-.82,10.65-.14.14.63.24,1.3.4,2a25.91,25.91,0,0,0,3.5,7.3C143.94,296.61,147.55,305.06,139.86,315.66Z"/><path class="cls-3" d="M131.58,299.17c-1.07-1.07-1-4.38-1.35-5.75a27,27,0,0,0-2.39-5.72c-1.21-2.09-3.88-6.2-3.58-9.25a50.25,50.25,0,0,1,9.74-1.59c4.58-.4,10.06-.59,16-.64,4.21,2.53,8.15,5.14,9.41,6.06C162,284.17,135.09,302.68,131.58,299.17Z"/><path class="cls-4" d="M336.07,328.6c2.67-2.71,7,3.69,8.74,5.1s4.25,2.84,6.53,2.71,4.86-1.15,4.59-3.45c-.71-6.35-22.94-13.89-26.76-14.54-3.33-.58-7.4-2-10.36.54a6.92,6.92,0,0,0-2.36,4.91c-.08,2.11,1.09,1.95,2.4,3.46,2.28,2.61,1.53,8.52,6,8.72,2,.1,2.11-1.24,3.48-2.13s2.94-.53,4.5-.6,3.11-.14,4.19-1.59C337.74,330.71,336.07,328.6,336.07,328.6Z"/><path class="cls-4" d="M331.62,349.77c2.66-2.71,7,3.69,8.73,5.1s4.25,2.84,6.53,2.71,4.86-1.15,4.6-3.45c-.71-6.35-23-13.89-26.77-14.54-3.33-.58-7.39-2-10.36.54A7,7,0,0,0,312,345c-.08,2.11,1.09,1.95,2.4,3.45,2.29,2.62,1.54,8.53,6,8.73,2,.1,2.12-1.24,3.49-2.14s2.94-.52,4.5-.59,3.11-.14,4.18-1.59C333.28,351.88,331.62,349.77,331.62,349.77Z"/><path class="cls-4" d="M7,317.78c3.09-5.36,19.33-15.46,25.48-12.56,2,.95,7.22,9.64,5.23,12-2.41,2.88-24.8,22.63-32.79,29C4.91,346.23-2.11,333.61,7,317.78Z"/><path class="cls-4" d="M140.4,282.35a12.21,12.21,0,0,0-6.45-4.17c-6.6-1.7-7.83,2.07-8.36,6.15-.51,3.9,2.91,7.92,6.24,9.38a8.16,8.16,0,0,0,10.13-2.6C143.82,288.33,142.3,284.64,140.4,282.35Z"/><path class="cls-3" d="M130.92,281.78c-.37.14-1.3,2.65-1.08,4.16a4.31,4.31,0,0,0,2.83,3.26c1.67.67,3.39-.3,4.63-1.34C138.76,286.64,139.05,278.64,130.92,281.78Z"/><path class="cls-4" d="M128.6,290.2c-.77-2.71-2.11-5.42-2.83-8.17-.38-2,.63-5.38.7-5.57.15-.41-2.82.17-3.47.58,0,0,.28,1.88.46,3a26.2,26.2,0,0,0,1.73,7.76c1.88,5.16,1.71,10.79,3.62,15.95.18.48,2.13.76,2.11.17A55.28,55.28,0,0,0,128.6,290.2Z"/><path class="cls-4" d="M123.77,288.33c-1.19-2.92-1.94-9.5-2.83-11.24-.24-.49-2.87-.53-3,.09-.4,1.79.58,7,2.13,9.76,3,5.44,4.14,10.63,4.85,16.79.08.64,2.19.72,2.18.12A42.21,42.21,0,0,0,123.77,288.33Z"/></g></g></svg>