<svg xmlns="http://www.w3.org/2000/svg" xmlns:xlink="http://www.w3.org/1999/xlink" viewBox="0 0 1280 603"><defs><style>.cls-1{fill:none;}.cls-2{fill:#e4d91b;}.cls-3{fill:#f83c2d;}.cls-4{fill:url(#pink_petal);}</style><pattern id="pink_petal" data-name="pink petal" width="287.58" height="213.9" patternUnits="userSpaceOnUse" viewBox="0 0 287.58 213.9"><rect class="cls-1" width="287.58" height="213.9"/><path class="cls-2" d="M0,0C58.18,21.2,99.18,65.54,152.46,93.65c14.21,7.49,24,9.74,34.33,22.46,11.76,14.46,21.93,28.37,37.25,39.9,20.26,15.25,58.24,24.84,63.54,53.87-13.77,8-30.46,2.63-43.16-3.59-18.18-8.9-29.62-7-49.83-9.06-18.62-1.88-36-3.28-49.36-16.95-13.15-13.47-21-30.27-36-42-15.5-12.1-38.33-12.88-52-27.35C46.1,99.27,39.51,81.54,32.5,67.57,26.66,55.93,19.37,45.1,14.3,33,9.64,21.86,0,0,0,0Z"/></pattern></defs><title>Background</title><g id="Layer_2" data-name="Layer 2"><g id="b"><rect class="cls-3" width="1280" height="600"/><rect class="cls-4" y="3" width="1280" height="600"/></g></g></svg>