<svg xmlns="http://www.w3.org/2000/svg" xmlns:xlink="http://www.w3.org/1999/xlink" viewBox="0 0 751.41 708.49"><defs><style>.cls-1{fill:none;}.cls-18,.cls-2{fill:#443880;}.cls-15,.cls-3{fill:#f83c2d;}.cls-10,.cls-4{fill:#fff;}.cls-14,.cls-5{fill:#274490;}.cls-6{fill:url(#New_Pattern_62);}.cls-13,.cls-7{fill:#e4d91b;}.cls-8{fill:url(#New_Pattern_14);}.cls-19,.cls-9{fill:#e96bbc;}.cls-10{font-size:40.87px;font-family:Montserrat-SemiBold, Montserrat;font-weight:600;}.cls-11{fill:#b47ae8;}.cls-11,.cls-12,.cls-13,.cls-14,.cls-15,.cls-16,.cls-17,.cls-18,.cls-19,.cls-20{fill-rule:evenodd;}.cls-12{fill:#f48051;}.cls-16{fill:#feb7c9;}.cls-17{fill:url(#New_Pattern_10);}.cls-20{fill:url(#New_Pattern_15);}</style><pattern id="New_Pattern_62" data-name="New Pattern 62" width="590.05" height="581.65" patternUnits="userSpaceOnUse" viewBox="0 0 590.05 581.65"><rect class="cls-1" width="590.05" height="581.65"/><path class="cls-4" d="M381.08,562c-1.5-.23-4.84,4.89-3.81,5.05,18.22,2.81,36.66-.22,44.91,16.27,5.8,11.62,8.12,31.58,23.76,33.94,1.51.23,4.84-4.89,3.81-5-15.85-2.39-18.28-23.12-24.21-35C417.71,561.56,398.31,564.68,381.08,562Z"/><path class="cls-4" d="M466.05,517.06c-.68,1.36,3.13,6.14,3.6,5.21,8.4-16.41,11.31-34.87,29.56-37.52,12.85-1.86,32.54,2.22,39.69-11.89.69-1.36-3.13-6.14-3.6-5.21-7.25,14.3-27.69,10.09-40.83,12C477.13,482.16,474,501.54,466.05,517.06Z"/><path class="cls-4" d="M483.87,569.93c-1.5-.23-4.84,4.89-3.81,5.05,18.22,2.81,36.66-.22,44.9,16.28,5.81,11.61,8.12,31.58,23.76,33.93,1.51.23,4.85-4.89,3.82-5.05-15.86-2.38-18.28-23.12-24.21-35C520.49,569.47,501.1,572.59,483.87,569.93Z"/><path class="cls-4" d="M335.17,469.7c-.31-1.49-6.28-2.83-6.07-1.81,3.73,18.05,13,34.27.44,47.76-8.85,9.5-26.75,18.64-23.5,34.12.32,1.5,6.28,2.83,6.07,1.81-3.3-15.69,15.27-25.2,24.33-34.91C348.39,503.85,338.69,486.77,335.17,469.7Z"/><path class="cls-4" d="M86.06,562c-1.5-.23-4.85,4.89-3.81,5.05,18.21,2.81,36.66-.22,44.9,16.27,5.8,11.62,8.12,31.58,23.76,33.94,1.51.23,4.84-4.89,3.82-5-15.86-2.39-18.28-23.12-24.22-35C122.68,561.56,103.29,564.68,86.06,562Z"/><path class="cls-4" d="M171,517.06c-.69,1.36,3.12,6.14,3.6,5.21,8.39-16.41,11.3-34.87,29.56-37.52,12.85-1.86,32.53,2.22,39.68-11.89.69-1.36-3.12-6.14-3.6-5.21-7.24,14.3-27.69,10.09-40.82,12C182.1,482.16,179,501.54,171,517.06Z"/><path class="cls-4" d="M188.84,569.93c-1.5-.23-4.84,4.89-3.81,5.05,18.22,2.81,36.66-.22,44.91,16.28,5.8,11.61,8.12,31.58,23.76,33.93,1.5.23,4.84-4.89,3.81-5.05-15.85-2.38-18.28-23.12-24.21-35C225.46,569.47,206.07,572.59,188.84,569.93Z"/><path class="cls-4" d="M40.14,469.7c-.31-1.49-6.28-2.83-6.07-1.81,3.74,18.05,13,34.27.44,47.76-8.85,9.5-26.75,18.64-23.49,34.12.31,1.5,6.28,2.83,6.07,1.81-3.31-15.69,15.27-25.2,24.32-34.91C53.36,503.85,43.67,486.77,40.14,469.7Z"/><path class="cls-4" d="M528.6,271.19c-1.51-.23-4.85,4.89-3.82,5.05,18.22,2.81,36.66-.22,44.91,16.28,5.8,11.61,8.12,31.58,23.76,33.94,1.51.22,4.84-4.9,3.82-5.06-15.86-2.38-18.28-23.11-24.22-35C565.22,270.74,545.83,273.85,528.6,271.19Z"/><path class="cls-4" d="M461.65,407.86c-.75,1.32,2.82,6.28,3.34,5.37,9.18-16,13-34.28,31.34-36,12.92-1.24,32.39,3.77,40.21-10,.76-1.33-2.82-6.28-3.34-5.38-7.93,13.94-28.15,8.74-41.36,10C474.4,373.53,470.33,392.74,461.65,407.86Z"/><path class="cls-4" d="M482.68,178.87c-.31-1.49-6.28-2.83-6.07-1.81,3.73,18.06,13,34.27.44,47.77-8.85,9.49-26.75,18.64-23.49,34.12.31,1.49,6.27,2.82,6.06,1.81-3.3-15.69,15.28-25.21,24.33-34.92C495.9,213,486.2,196,482.68,178.87Z"/><path class="cls-4" d="M233.57,271.19c-1.5-.23-4.84,4.89-3.81,5.05,18.22,2.81,36.66-.22,44.9,16.28,5.81,11.61,8.13,31.58,23.77,33.94,1.5.22,4.84-4.9,3.81-5.06C286.38,319,284,298.29,278,286.41,270.19,270.74,250.8,273.85,233.57,271.19Z"/><path class="cls-4" d="M318.54,226.24c-.69,1.35,3.12,6.13,3.6,5.21,8.39-16.42,11.31-34.88,29.56-37.52,12.85-1.86,32.53,2.21,39.68-11.9.69-1.36-3.12-6.13-3.59-5.21-7.25,14.31-27.69,10.09-40.83,12C329.62,191.33,326.48,210.72,318.54,226.24Z"/><path class="cls-4" d="M295.35,413.84c-1.1,1.05.91,6.82,1.67,6.1,13.36-12.69,22.24-29.14,40.33-25.57,12.74,2.51,30,12.88,41.39,1.95,1.1-1.05-.91-6.82-1.67-6.11-11.58,11.09-29.47.33-42.49-2.24C317.38,384.58,308,401.83,295.35,413.84Z"/><path class="cls-4" d="M336.36,279.1c-1.51-.23-4.85,4.89-3.82,5,18.22,2.82,36.66-.22,44.91,16.28,5.8,11.61,8.12,31.58,23.76,33.94,1.51.23,4.84-4.9,3.82-5.05-15.86-2.39-18.28-23.12-24.22-35C373,278.65,353.59,281.77,336.36,279.1Z"/><path class="cls-4" d="M166.62,407.86c-.75,1.32,2.83,6.28,3.35,5.37,9.17-16,13-34.28,31.33-36,12.93-1.24,32.39,3.77,40.22-10,.75-1.33-2.83-6.28-3.35-5.38-7.93,13.94-28.14,8.74-41.35,10C179.37,373.53,175.3,392.74,166.62,407.86Z"/><path class="cls-4" d="M187.65,178.87c-.31-1.49-6.27-2.83-6.06-1.81,3.73,18.06,13,34.27.44,47.77-8.86,9.49-26.75,18.64-23.5,34.12.32,1.49,6.28,2.82,6.07,1.81-3.31-15.69,15.27-25.21,24.32-34.92C200.87,213,191.18,196,187.65,178.87Z"/><path class="cls-4" d="M-61.46,271.19c-1.5-.23-4.84,4.89-3.81,5.05,18.22,2.81,36.66-.22,44.91,16.28,5.8,11.61,8.12,31.58,23.76,33.94,1.51.22,4.84-4.9,3.81-5.06C-8.64,319-11.06,298.29-17,286.41-24.83,270.74-44.22,273.85-61.46,271.19Z"/><path class="cls-4" d="M23.52,226.24c-.69,1.35,3.12,6.13,3.59,5.21,8.4-16.42,11.31-34.88,29.56-37.52,12.85-1.86,32.54,2.21,39.69-11.9.69-1.36-3.13-6.13-3.6-5.21-7.24,14.31-27.69,10.09-40.82,12C34.59,191.33,31.46,210.72,23.52,226.24Z"/><path class="cls-4" d="M.32,413.84c-1.1,1.05.91,6.82,1.67,6.1,13.37-12.69,22.24-29.14,40.34-25.57,12.74,2.51,30,12.88,41.38,1.95,1.1-1.05-.91-6.82-1.66-6.11-11.59,11.09-29.47.33-42.5-2.24C22.36,384.58,13,401.83.32,413.84Z"/><path class="cls-4" d="M41.33,279.1c-1.5-.23-4.84,4.89-3.81,5,18.22,2.82,36.66-.22,44.9,16.28C88.23,312,90.54,332,106.19,334.37c1.5.23,4.84-4.9,3.81-5.05-15.86-2.39-18.28-23.12-24.21-35C78,278.65,58.56,281.77,41.33,279.1Z"/><path class="cls-4" d="M381.08-19.63c-1.5-.23-4.84,4.89-3.81,5,18.22,2.81,36.66-.23,44.91,16.27,5.8,11.62,8.12,31.58,23.76,33.94,1.51.23,4.84-4.89,3.81-5.05-15.85-2.39-18.28-23.12-24.21-35C417.71-20.09,398.31-17,381.08-19.63Z"/><path class="cls-4" d="M442.86,123c-1.1,1,.91,6.83,1.67,6.11,13.36-12.7,22.24-29.14,40.34-25.58,12.74,2.51,30,12.89,41.38,1.95,1.1-1-.91-6.82-1.66-6.1-11.59,11.08-29.47.32-42.5-2.24C464.9,93.76,455.51,111,442.86,123Z"/><path class="cls-4" d="M483.87-11.72c-1.5-.23-4.84,4.89-3.81,5.05,18.22,2.81,36.66-.22,44.9,16.28,5.81,11.61,8.12,31.58,23.76,33.93,1.51.23,4.85-4.89,3.82-5-15.86-2.38-18.28-23.12-24.21-35C520.49-12.18,501.1-9.06,483.87-11.72Z"/><path class="cls-4" d="M314.14,117c-.76,1.32,2.82,6.28,3.34,5.38,9.18-16,13-34.29,31.34-36,12.92-1.24,32.38,3.78,40.21-10,.75-1.32-2.83-6.27-3.34-5.37-7.93,13.93-28.15,8.74-41.36,10C326.88,82.7,322.82,101.91,314.14,117Z"/><path class="cls-4" d="M86.06-19.63c-1.5-.23-4.85,4.89-3.81,5,18.21,2.81,36.66-.23,44.9,16.27,5.8,11.62,8.12,31.58,23.76,33.94,1.51.23,4.84-4.89,3.82-5.05-15.86-2.39-18.28-23.12-24.22-35C122.68-20.09,103.29-17,86.06-19.63Z"/><path class="cls-4" d="M147.84,123c-1.1,1,.91,6.83,1.66,6.11,13.37-12.7,22.25-29.14,40.34-25.58,12.74,2.51,29.95,12.89,41.39,1.95,1.1-1-.92-6.82-1.67-6.1-11.58,11.08-29.47.32-42.49-2.24C169.87,93.76,160.48,111,147.84,123Z"/><path class="cls-4" d="M188.84-11.72c-1.5-.23-4.84,4.89-3.81,5.05,18.22,2.81,36.66-.22,44.91,16.28,5.8,11.61,8.12,31.58,23.76,33.93,1.5.23,4.84-4.89,3.81-5-15.85-2.38-18.28-23.12-24.21-35C225.46-12.18,206.07-9.06,188.84-11.72Z"/><path class="cls-4" d="M19.11,117c-.75,1.32,2.82,6.28,3.34,5.38,9.18-16,13-34.29,31.34-36,12.92-1.24,32.39,3.78,40.21-10,.76-1.32-2.82-6.27-3.34-5.37C82.73,85,62.51,79.76,49.3,81,31.86,82.7,27.79,101.91,19.11,117Z"/></pattern><pattern id="New_Pattern_14" data-name="New Pattern 14" width="276.93" height="108" patternUnits="userSpaceOnUse" viewBox="0 0 276.93 108"><rect class="cls-1" width="276.93" height="108"/><path class="cls-3" d="M543.33,93.85H270.15c-14,0-14.3,6.7-.25,6.7H543.33C557.38,100.55,557.38,93.85,543.33,93.85Z"/><path class="cls-3" d="M266.39,93.85H-6.78c-14.06,0-14.31,6.7-.25,6.7H266.39C280.45,100.55,280.45,93.85,266.39,93.85Z"/><path class="cls-3" d="M543.33,72.25H270.15c-14,0-14.3,6.7-.25,6.7H543.33C557.38,79,557.38,72.25,543.33,72.25Z"/><path class="cls-3" d="M266.39,72.25H-6.78C-20.84,72.25-21.09,79-7,79H266.39C280.45,79,280.45,72.25,266.39,72.25Z"/><path class="cls-3" d="M543.33,50.65H270.15c-14,0-14.3,6.7-.25,6.7H543.33C557.38,57.35,557.38,50.65,543.33,50.65Z"/><path class="cls-3" d="M266.39,50.65H-6.78c-14.06,0-14.31,6.7-.25,6.7H266.39C280.45,57.35,280.45,50.65,266.39,50.65Z"/><path class="cls-3" d="M543.33,29.05H270.15c-14,0-14.3,6.7-.25,6.7H543.33C557.38,35.75,557.38,29.05,543.33,29.05Z"/><path class="cls-3" d="M266.39,29.05H-6.78c-14.06,0-14.31,6.7-.25,6.7H266.39C280.45,35.75,280.45,29.05,266.39,29.05Z"/><path class="cls-3" d="M543.33,7.45H270.15c-14,0-14.3,6.7-.25,6.7H543.33C557.38,14.15,557.38,7.45,543.33,7.45Z"/><path class="cls-3" d="M266.39,7.45H-6.78c-14.06,0-14.31,6.7-.25,6.7H266.39C280.45,14.15,280.45,7.45,266.39,7.45Z"/></pattern><pattern id="New_Pattern_10" data-name="New Pattern 10" width="360.04" height="337.26" patternUnits="userSpaceOnUse" viewBox="0 0 360.04 337.26"><rect class="cls-1" width="360.04" height="337.26"/><path class="cls-2" d="M288.37,270.22c-5.88,0-10.8,6.87-10.8,15.12s4.92,15.12,10.8,15.12,10.81-6.88,10.81-15.12S294.26,270.22,288.37,270.22Z"/><path class="cls-2" d="M259.23,260.22c-5.89,0-10.81,6.87-10.81,15.12s4.92,15.12,10.81,15.12,10.8-6.88,10.8-15.12S265.12,260.22,259.23,260.22Z"/><path class="cls-2" d="M256.51,332.94c-5.89,0-10.8,6.89-10.8,15.13s4.91,15.12,10.8,15.12,10.8-6.88,10.8-15.12S262.4,332.94,256.51,332.94Z"/><path class="cls-2" d="M206.69,322.14c-5.89,0-10.8,6.88-10.8,15.12s4.91,15.13,10.8,15.13,10.8-6.88,10.8-15.13S212.58,322.14,206.69,322.14Z"/><path class="cls-2" d="M234.9,281.72c-5.88,0-10.8,6.88-10.8,15.12S229,312,234.9,312s10.81-6.88,10.81-15.12S240.79,281.72,234.9,281.72Z"/><path class="cls-2" d="M251.19,296.84c-5.89,0-10.8,6.88-10.8,15.12s4.91,15.13,10.8,15.13S262,320.21,262,312,257.08,296.84,251.19,296.84Z"/><path class="cls-2" d="M299.18,317.82c-5.89,0-10.81,6.88-10.81,15.12s4.92,15.13,10.81,15.13,10.8-6.88,10.8-15.13S305.07,317.82,299.18,317.82Z"/><path class="cls-2" d="M316.83,284c-5.89,0-10.81,6.88-10.81,15.12s4.92,15.12,10.81,15.12,10.8-6.87,10.8-15.12S322.72,284,316.83,284Z"/><path class="cls-2" d="M338.43,312c-5.89,0-10.8,6.88-10.8,15.13s4.91,15.12,10.8,15.12,10.81-6.88,10.81-15.12S344.32,312,338.43,312Z"/><path class="cls-2" d="M299.18,240c-5.89,0-10.81,6.88-10.81,15.12s4.92,15.13,10.81,15.13,10.8-6.89,10.8-15.13S305.07,240,299.18,240Z"/><path class="cls-2" d="M226.82,236c-5.89,0-10.8,6.88-10.8,15.12s4.91,15.13,10.8,15.13,10.81-6.89,10.81-15.13S232.71,236,226.82,236Z"/><path class="cls-2" d="M349.24,268.82c-5.89,0-10.81,6.88-10.81,15.13s4.92,15.12,10.81,15.12S360,292.19,360,284,355.13,268.82,349.24,268.82Z"/><path class="cls-2" d="M270,169.84c-5.89,0-10.8,6.88-10.8,15.13s4.91,15.12,10.8,15.12,10.8-6.88,10.8-15.12S275.92,169.84,270,169.84Z"/><path class="cls-2" d="M262,224.84c-5.88,0-10.8,6.88-10.8,15.13s4.92,15.12,10.8,15.12S272.8,248.21,272.8,240,267.88,224.84,262,224.84Z"/><path class="cls-2" d="M195.89,284c-5.89,0-10.81,6.88-10.81,15.12s4.92,15.12,10.81,15.12,10.8-6.87,10.8-15.12S201.78,284,195.89,284Z"/><path class="cls-2" d="M108.35,270.22c-5.88,0-10.8,6.87-10.8,15.12s4.92,15.12,10.8,15.12,10.81-6.88,10.81-15.12S114.24,270.22,108.35,270.22Z"/><path class="cls-2" d="M79.21,260.22c-5.89,0-10.81,6.87-10.81,15.12s4.92,15.12,10.81,15.12S90,283.58,90,275.34,85.1,260.22,79.21,260.22Z"/><path class="cls-2" d="M76.49,332.94c-5.89,0-10.8,6.89-10.8,15.13s4.91,15.12,10.8,15.12,10.8-6.88,10.8-15.12S82.38,332.94,76.49,332.94Z"/><path class="cls-2" d="M26.67,322.14c-5.89,0-10.8,6.88-10.8,15.12s4.91,15.13,10.8,15.13,10.8-6.88,10.8-15.13S32.56,322.14,26.67,322.14Z"/><path class="cls-2" d="M54.88,281.72c-5.89,0-10.8,6.88-10.8,15.12S49,312,54.88,312s10.81-6.88,10.81-15.12S60.77,281.72,54.88,281.72Z"/><path class="cls-2" d="M71.17,296.84c-5.89,0-10.8,6.88-10.8,15.12s4.91,15.13,10.8,15.13S82,320.21,82,312,77.06,296.84,71.17,296.84Z"/><path class="cls-2" d="M119.16,317.82c-5.89,0-10.81,6.88-10.81,15.12s4.92,15.13,10.81,15.13,10.8-6.88,10.8-15.13S125.05,317.82,119.16,317.82Z"/><path class="cls-2" d="M136.81,284c-5.89,0-10.81,6.88-10.81,15.12s4.92,15.12,10.81,15.12,10.8-6.87,10.8-15.12S142.69,284,136.81,284Z"/><path class="cls-2" d="M158.41,312c-5.89,0-10.8,6.88-10.8,15.13s4.91,15.12,10.8,15.12,10.81-6.88,10.81-15.12S164.3,312,158.41,312Z"/><path class="cls-2" d="M119.16,240c-5.89,0-10.81,6.88-10.81,15.12s4.92,15.13,10.81,15.13,10.8-6.89,10.8-15.13S125.05,240,119.16,240Z"/><path class="cls-2" d="M46.8,236c-5.89,0-10.8,6.88-10.8,15.12s4.91,15.13,10.8,15.13,10.8-6.89,10.8-15.13S52.69,236,46.8,236Z"/><path class="cls-2" d="M169.22,268.82c-5.89,0-10.81,6.88-10.81,15.13s4.92,15.12,10.81,15.12S180,292.19,180,284,175.11,268.82,169.22,268.82Z"/><path class="cls-2" d="M90,169.84c-5.89,0-10.8,6.88-10.8,15.13s4.91,15.12,10.8,15.12,10.8-6.88,10.8-15.12S95.9,169.84,90,169.84Z"/><path class="cls-2" d="M82,224.84c-5.88,0-10.8,6.88-10.8,15.13s4.92,15.12,10.8,15.12S92.78,248.21,92.78,240,87.86,224.84,82,224.84Z"/><path class="cls-2" d="M15.87,284C10,284,5.06,290.83,5.06,299.07S10,314.19,15.87,314.19s10.8-6.87,10.8-15.12S21.76,284,15.87,284Z"/><path class="cls-2" d="M349.24,91.58c-5.89,0-10.81,6.88-10.81,15.13s4.92,15.12,10.81,15.12S360,115,360,106.71,355.13,91.58,349.24,91.58Z"/><path class="cls-2" d="M346.52,164.31c-5.89,0-10.8,6.88-10.8,15.13s4.91,15.12,10.8,15.12,10.8-6.88,10.8-15.12S352.41,164.31,346.52,164.31Z"/><path class="cls-2" d="M296.7,153.51c-5.89,0-10.8,6.88-10.8,15.12s4.91,15.13,10.8,15.13,10.8-6.89,10.8-15.13S302.59,153.51,296.7,153.51Z"/><path class="cls-2" d="M324.91,113.08c-5.88,0-10.8,6.88-10.8,15.13s4.92,15.12,10.8,15.12,10.81-6.88,10.81-15.12S330.8,113.08,324.91,113.08Z"/><path class="cls-2" d="M341.2,128.21c-5.89,0-10.8,6.88-10.8,15.12s4.91,15.13,10.8,15.13S352,151.58,352,143.33,347.09,128.21,341.2,128.21Z"/><path class="cls-2" d="M314.11,196.45c-5.89,0-10.8,6.88-10.8,15.12s4.91,15.12,10.8,15.12,10.8-6.88,10.8-15.12S320,196.45,314.11,196.45Z"/><path class="cls-2" d="M296.7,203.33c-5.89,0-10.8,6.88-10.8,15.13s4.91,15.12,10.8,15.12,10.8-6.88,10.8-15.12S302.59,203.33,296.7,203.33Z"/><path class="cls-2" d="M357.32,233.58c-5.88,0-10.8,6.88-10.8,15.12s4.92,15.13,10.8,15.13,10.81-6.88,10.81-15.13S363.21,233.58,357.32,233.58Z"/><path class="cls-2" d="M327.64,250.8c-5.89,0-10.81,6.88-10.81,15.13s4.92,15.12,10.81,15.12,10.8-6.88,10.8-15.12S333.53,250.8,327.64,250.8Z"/><path class="cls-2" d="M357.32,196.45c-5.89,0-10.8,6.88-10.8,15.12s4.91,15.12,10.8,15.12,10.81-6.88,10.81-15.12S363.21,196.45,357.32,196.45Z"/><path class="cls-2" d="M316.83,67.33c-5.89,0-10.8,6.88-10.8,15.13s4.91,15.12,10.8,15.12,10.81-6.88,10.81-15.12S322.72,67.33,316.83,67.33Z"/><path class="cls-2" d="M360,1.21c-5.89,0-10.8,6.88-10.8,15.12s4.91,15.13,10.8,15.13,10.8-6.88,10.8-15.13S365.93,1.21,360,1.21Z"/><path class="cls-2" d="M352,56.21c-5.88,0-10.8,6.88-10.8,15.12s4.92,15.13,10.8,15.13,10.81-6.88,10.81-15.13S357.89,56.21,352,56.21Z"/><path class="cls-2" d="M285.9,115.31c-5.89,0-10.81,6.88-10.81,15.13s4.92,15.12,10.81,15.12,10.8-6.88,10.8-15.12S291.79,115.31,285.9,115.31Z"/><path class="cls-2" d="M198.36,101.58c-5.88,0-10.8,6.88-10.8,15.13s4.92,15.12,10.8,15.12,10.81-6.88,10.81-15.12S204.25,101.58,198.36,101.58Z"/><path class="cls-2" d="M169.22,91.58c-5.89,0-10.81,6.88-10.81,15.13s4.92,15.12,10.81,15.12S180,115,180,106.71,175.11,91.58,169.22,91.58Z"/><path class="cls-2" d="M166.5,164.31c-5.89,0-10.8,6.88-10.8,15.13s4.91,15.12,10.8,15.12,10.8-6.88,10.8-15.12S172.39,164.31,166.5,164.31Z"/><path class="cls-2" d="M116.68,153.51c-5.89,0-10.8,6.88-10.8,15.12s4.91,15.13,10.8,15.13,10.8-6.89,10.8-15.13S122.57,153.51,116.68,153.51Z"/><path class="cls-2" d="M237.62,194.56c-5.89,0-10.8,6.88-10.8,15.13s4.91,15.12,10.8,15.12,10.8-6.88,10.8-15.12S243.51,194.56,237.62,194.56Z"/><path class="cls-2" d="M144.89,113.08c-5.89,0-10.8,6.88-10.8,15.13s4.91,15.12,10.8,15.12,10.81-6.88,10.81-15.12S150.78,113.08,144.89,113.08Z"/><path class="cls-2" d="M161.18,128.21c-5.89,0-10.8,6.88-10.8,15.12s4.91,15.13,10.8,15.13S172,151.58,172,143.33,167.07,128.21,161.18,128.21Z"/><path class="cls-2" d="M134.09,196.45c-5.89,0-10.8,6.88-10.8,15.12s4.91,15.12,10.8,15.12,10.8-6.88,10.8-15.12S140,196.45,134.09,196.45Z"/><path class="cls-2" d="M116.68,203.33c-5.89,0-10.8,6.88-10.8,15.13s4.91,15.12,10.8,15.12,10.8-6.88,10.8-15.12S122.57,203.33,116.68,203.33Z"/><path class="cls-2" d="M177.3,233.58c-5.89,0-10.8,6.88-10.8,15.12s4.91,15.13,10.8,15.13,10.81-6.88,10.81-15.13S183.19,233.58,177.3,233.58Z"/><path class="cls-2" d="M147.62,250.8c-5.89,0-10.81,6.88-10.81,15.13s4.92,15.12,10.81,15.12,10.8-6.88,10.8-15.12S153.5,250.8,147.62,250.8Z"/><path class="cls-2" d="M177.3,196.45c-5.89,0-10.8,6.88-10.8,15.12s4.91,15.12,10.8,15.12,10.81-6.88,10.81-15.12S183.19,196.45,177.3,196.45Z"/><path class="cls-2" d="M209.17,196.45c-5.89,0-10.81,6.88-10.81,15.12s4.92,15.12,10.81,15.12,10.8-6.88,10.8-15.12S215.06,196.45,209.17,196.45Z"/><path class="cls-2" d="M209.17,149.19c-5.89,0-10.81,6.88-10.81,15.12s4.92,15.13,10.81,15.13,10.8-6.88,10.8-15.13S215.06,149.19,209.17,149.19Z"/><path class="cls-2" d="M226.82,115.31c-5.89,0-10.81,6.88-10.81,15.13s4.92,15.12,10.81,15.12,10.8-6.88,10.8-15.12S232.7,115.31,226.82,115.31Z"/><path class="cls-2" d="M248.42,143.33c-5.89,0-10.8,6.88-10.8,15.13s4.91,15.12,10.8,15.12,10.81-6.88,10.81-15.12S254.31,143.33,248.42,143.33Z"/><path class="cls-2" d="M209.17,71.33c-5.89,0-10.81,6.88-10.81,15.13s4.92,15.12,10.81,15.12S220,94.7,220,86.46,215.06,71.33,209.17,71.33Z"/><path class="cls-2" d="M136.81,67.33c-5.89,0-10.8,6.88-10.8,15.13s4.91,15.12,10.8,15.12,10.81-6.88,10.81-15.12S142.7,67.33,136.81,67.33Z"/><path class="cls-2" d="M259.23,100.19c-5.89,0-10.81,6.88-10.81,15.12s4.92,15.13,10.81,15.13,10.8-6.88,10.8-15.13S265.12,100.19,259.23,100.19Z"/><path class="cls-2" d="M180,1.21c-5.89,0-10.8,6.88-10.8,15.12s4.91,15.13,10.8,15.13,10.8-6.88,10.8-15.13S185.91,1.21,180,1.21Z"/><path class="cls-2" d="M172,56.21c-5.88,0-10.8,6.88-10.8,15.12S166.1,86.46,172,86.46s10.81-6.88,10.81-15.13S177.87,56.21,172,56.21Z"/><path class="cls-2" d="M105.88,115.31c-5.89,0-10.81,6.88-10.81,15.13s4.92,15.12,10.81,15.12,10.8-6.88,10.8-15.12S111.77,115.31,105.88,115.31Z"/><path class="cls-2" d="M18.34,101.58c-5.89,0-10.8,6.88-10.8,15.13s4.91,15.12,10.8,15.12S29.15,125,29.15,116.71,24.23,101.58,18.34,101.58Z"/><path class="cls-2" d="M57.6,194.56c-5.89,0-10.8,6.88-10.8,15.13s4.91,15.12,10.8,15.12,10.8-6.88,10.8-15.12S63.49,194.56,57.6,194.56Z"/><path class="cls-2" d="M-2.72,233.58c-5.89,0-10.8,6.88-10.8,15.12s4.91,15.13,10.8,15.13S8.09,257,8.09,248.7,3.17,233.58-2.72,233.58Z"/><path class="cls-2" d="M-2.72,196.45c-5.89,0-10.8,6.88-10.8,15.12s4.91,15.12,10.8,15.12,10.81-6.88,10.81-15.12S3.17,196.45-2.72,196.45Z"/><path class="cls-2" d="M29.15,196.45c-5.89,0-10.81,6.88-10.81,15.12s4.92,15.12,10.81,15.12S40,219.81,40,211.57,35,196.45,29.15,196.45Z"/><path class="cls-2" d="M29.15,149.19c-5.89,0-10.81,6.88-10.81,15.12s4.92,15.13,10.81,15.13S40,172.56,40,164.31,35,149.19,29.15,149.19Z"/><path class="cls-2" d="M46.79,115.31c-5.88,0-10.8,6.88-10.8,15.13s4.92,15.12,10.8,15.12,10.81-6.88,10.81-15.12S52.68,115.31,46.79,115.31Z"/><path class="cls-2" d="M68.4,143.33c-5.89,0-10.8,6.88-10.8,15.13s4.91,15.12,10.8,15.12,10.81-6.88,10.81-15.12S74.29,143.33,68.4,143.33Z"/><path class="cls-2" d="M29.15,71.33c-5.89,0-10.81,6.88-10.81,15.13s4.92,15.12,10.81,15.12S40,94.7,40,86.46,35,71.33,29.15,71.33Z"/><path class="cls-2" d="M79.21,100.19c-5.89,0-10.81,6.88-10.81,15.12s4.92,15.13,10.81,15.13S90,123.56,90,115.31,85.1,100.19,79.21,100.19Z"/><path class="cls-2" d="M0,1.21c-5.89,0-10.8,6.88-10.8,15.12S-5.89,31.46,0,31.46s10.8-6.88,10.8-15.13S5.89,1.21,0,1.21Z"/><path class="cls-2" d="M-8,56.21c-5.88,0-10.8,6.88-10.8,15.12S-13.92,86.46-8,86.46,2.77,79.58,2.77,71.33-2.15,56.21-8,56.21Z"/><path class="cls-2" d="M256.51-4.32c-5.89,0-10.8,6.88-10.8,15.13s4.91,15.12,10.8,15.12,10.8-6.88,10.8-15.12S262.4-4.32,256.51-4.32Z"/><path class="cls-2" d="M206.69-15.12c-5.89,0-10.8,6.87-10.8,15.12s4.91,15.12,10.8,15.12S217.49,8.24,217.49,0,212.58-15.12,206.69-15.12Z"/><path class="cls-2" d="M327.63,25.93c-5.89,0-10.8,6.88-10.8,15.12s4.91,15.13,10.8,15.13,10.8-6.88,10.8-15.13S333.52,25.93,327.63,25.93Z"/><path class="cls-2" d="M224.1,27.81c-5.89,0-10.8,6.88-10.8,15.13s4.91,15.12,10.8,15.12,10.8-6.88,10.8-15.12S230,27.81,224.1,27.81Z"/><path class="cls-2" d="M206.69,34.7c-5.89,0-10.8,6.88-10.8,15.12S200.8,65,206.69,65s10.8-6.88,10.8-15.13S212.58,34.7,206.69,34.7Z"/><path class="cls-2" d="M267.31,65c-5.88,0-10.8,6.88-10.8,15.12s4.92,15.13,10.8,15.13,10.81-6.88,10.81-15.13S273.2,65,267.31,65Z"/><path class="cls-2" d="M237.63,82.17c-5.89,0-10.81,6.88-10.81,15.13s4.92,15.12,10.81,15.12,10.8-6.88,10.8-15.12S243.52,82.17,237.63,82.17Z"/><path class="cls-2" d="M267.31,27.81c-5.89,0-10.8,6.88-10.8,15.13s4.91,15.12,10.8,15.12,10.81-6.88,10.81-15.12S273.2,27.81,267.31,27.81Z"/><path class="cls-2" d="M299.18,27.81c-5.89,0-10.81,6.88-10.81,15.13s4.92,15.12,10.81,15.12S310,51.18,310,42.94,305.07,27.81,299.18,27.81Z"/><path class="cls-2" d="M299.18-19.44c-5.89,0-10.81,6.88-10.81,15.12s4.92,15.13,10.81,15.13S310,3.92,310-4.32,305.07-19.44,299.18-19.44Z"/><path class="cls-2" d="M338.43-25.3c-5.89,0-10.8,6.88-10.8,15.13S332.54,5,338.43,5s10.81-6.88,10.81-15.12S344.32-25.3,338.43-25.3Z"/><path class="cls-2" d="M76.49-4.32c-5.89,0-10.8,6.88-10.8,15.13s4.91,15.12,10.8,15.12,10.8-6.88,10.8-15.12S82.38-4.32,76.49-4.32Z"/><path class="cls-2" d="M26.67-15.12c-5.89,0-10.8,6.87-10.8,15.12s4.91,15.12,10.8,15.12S37.47,8.24,37.47,0,32.56-15.12,26.67-15.12Z"/><path class="cls-2" d="M147.61,25.93c-5.89,0-10.8,6.88-10.8,15.12s4.91,15.13,10.8,15.13,10.8-6.88,10.8-15.13S153.5,25.93,147.61,25.93Z"/><path class="cls-2" d="M44.08,27.81c-5.89,0-10.8,6.88-10.8,15.13s4.91,15.12,10.8,15.12,10.8-6.88,10.8-15.12S50,27.81,44.08,27.81Z"/><path class="cls-2" d="M26.67,34.7c-5.89,0-10.8,6.88-10.8,15.12S20.78,65,26.67,65s10.8-6.88,10.8-15.13S32.56,34.7,26.67,34.7Z"/><path class="cls-2" d="M87.29,65c-5.89,0-10.8,6.88-10.8,15.12S81.4,95.2,87.29,95.2,98.1,88.32,98.1,80.07,93.18,65,87.29,65Z"/><path class="cls-2" d="M57.6,82.17c-5.88,0-10.8,6.88-10.8,15.13s4.92,15.12,10.8,15.12,10.81-6.88,10.81-15.12S63.49,82.17,57.6,82.17Z"/><path class="cls-2" d="M87.29,27.81c-5.89,0-10.8,6.88-10.8,15.13s4.91,15.12,10.8,15.12S98.1,51.18,98.1,42.94,93.18,27.81,87.29,27.81Z"/><path class="cls-2" d="M119.16,27.81c-5.89,0-10.81,6.88-10.81,15.13s4.92,15.12,10.81,15.12S130,51.18,130,42.94,125.05,27.81,119.16,27.81Z"/><path class="cls-2" d="M119.16-19.44c-5.89,0-10.81,6.88-10.81,15.12s4.92,15.13,10.81,15.13S130,3.92,130-4.32,125.05-19.44,119.16-19.44Z"/><path class="cls-2" d="M158.41-25.3c-5.89,0-10.8,6.88-10.8,15.13S152.52,5,158.41,5s10.81-6.88,10.81-15.12S164.3-25.3,158.41-25.3Z"/></pattern><pattern id="New_Pattern_15" data-name="New Pattern 15" width="172.8" height="224.87" patternUnits="userSpaceOnUse" viewBox="0 0 172.8 224.87"><rect class="cls-1" width="172.8" height="224.87"/><path class="cls-2" d="M146.25,451.56c-1.19-66.32,1.19-158.66.41-225.24-.12-10.86-6.88-3-6.83,1.24.77,66.57-.8,157.68.39,224C140.42,462.43,146.32,455.7,146.25,451.56Z"/><path class="cls-2" d="M88.65,451.56c-1.19-66.32,1.19-158.66.41-225.24-.12-10.86-6.88-3-6.83,1.24.77,66.57-.8,157.68.39,224C82.82,462.43,88.72,455.7,88.65,451.56Z"/><path class="cls-2" d="M31.05,451.56c-1.19-66.32,1.19-158.66.41-225.24-.12-10.86-6.88-3-6.83,1.24.77,66.57-.8,157.68.39,224C25.22,462.43,31.12,455.7,31.05,451.56Z"/><path class="cls-2" d="M146.25,226.69c-1.19-66.32,1.19-158.66.41-225.24-.12-10.86-6.88-3-6.83,1.24.77,66.57-.8,157.68.39,224C140.42,237.56,146.32,230.83,146.25,226.69Z"/><path class="cls-2" d="M88.65,226.69C87.46,160.37,89.84,68,89.06,1.45c-.12-10.86-6.88-3-6.83,1.24.77,66.57-.8,157.68.39,224C82.82,237.56,88.72,230.83,88.65,226.69Z"/><path class="cls-2" d="M31.05,226.69C29.86,160.37,32.24,68,31.46,1.45c-.12-10.86-6.88-3-6.83,1.24.77,66.57-.8,157.68.39,224C25.22,237.56,31.12,230.83,31.05,226.69Z"/><path class="cls-2" d="M146.25,1.82c-1.19-66.32,1.19-158.66.41-225.24-.12-10.86-6.88-3-6.83,1.24.77,66.57-.8,157.68.39,224C140.42,12.69,146.32,6,146.25,1.82Z"/><path class="cls-2" d="M88.65,1.82c-1.19-66.32,1.19-158.66.41-225.24-.12-10.86-6.88-3-6.83,1.24.77,66.57-.8,157.68.39,224C82.82,12.69,88.72,6,88.65,1.82Z"/><path class="cls-2" d="M31.05,1.82c-1.19-66.32,1.19-158.66.41-225.24-.12-10.86-6.88-3-6.83,1.24.77,66.57-.8,157.68.39,224C25.22,12.69,31.12,6,31.05,1.82Z"/></pattern></defs><title>Left</title><g id="Layer_2" data-name="Layer 2"><g id="b2"><rect class="cls-5" x="48.41" y="16.66" width="703" height="600"/><rect class="cls-6" x="42.41" y="19.66" width="703" height="600"/><rect class="cls-7" x="5.41" y="14.66" width="54" height="600"/><rect class="cls-8" x="0.41" y="14.66" width="54" height="600"/></g><g id="image"><circle class="cls-9" cx="77.86" cy="279.55" r="19.25"/></g><g id="txt"><text class="cls-10" transform="translate(188.68 156.81)">h<tspan x="1.29" y="49.05">e</tspan><tspan x="8.09" y="98.1">l</tspan><tspan x="8.09" y="147.14">l</tspan><tspan x="0.82" y="196.19">o</tspan></text><path class="cls-11" d="M362.74,557.42q-18.36,4.26-36.68,8.55c-62.93,24.93-91.72,60.6-47.46,142.52L144.78,649l50-39.7c-2.4-3.94-4.81-7.89-7.19-11.84L58.31,646.86c-7.06-40.67-13.12-75.46-23.56-135.48,70.38-7.27,149-15.42,228.16-23.24,33.72,10.05,66.82,19.8,100,29.54Q362.81,537.54,362.74,557.42Z"/><path class="cls-12" d="M135.09,522.32,168.37,549,67.21,555.44q-1-7.31-2-14.62Z"/><path class="cls-13" d="M189.08,559.56q37.72,14.88,75.46,29.77l-41.24,6.85,3.8-.91q-19-8.78-38-17.51Z"/><path class="cls-14" d="M157.13,395.35q26.7,15.5,53.41,31-26.7,16.78-53.41,33.51Z"/><path class="cls-15" d="M412,527.35c-47,9.47-93.57,21.16-141.13,27.52-24.4,3.27-50.57-3-75.94-4.88V522Q303.5,524.65,412,527.35Z"/><path class="cls-16" d="M126.78,348.62c7.41-34,11.27-69.37,23.23-101.59,11.33-30.53,31.15-57.74,49.7-90.8,88.22,69.22,56.54,131.08-73.22,192.25C126.37,348.47,126.78,348.62,126.78,348.62Z"/><path class="cls-17" d="M126.78,348.62C134.19,314.61,138,279.25,150,247c11.33-30.53,31.15-57.74,49.69-90.8,88.22,69.22,56.54,131.08-73.21,192.25C126.37,348.47,126.78,348.62,126.78,348.62Z"/><path class="cls-18" d="M0,12.82C119.08,8.78,238.16,4.73,377.92,0,224.56,191.13,224.56,191.13,0,12.82Z"/><path class="cls-19" d="M326.45,191.37c-6.28-5.72-12.88-11.71-23.89-21.72-3.59,16.77-6.08,28.48-8.57,40.2l-10,2.07c-3.2-11.77-6.42-23.53-11.74-43l-14.56-6.25Q271.82,115.26,283.24,77l82,25.67L339,113.2c16.77,15.26,32.11,29.2,47.45,43.14Z"/><path class="cls-20" d="M326.45,191.37c-6.28-5.72-12.88-11.71-23.89-21.72-3.59,16.77-6.08,28.48-8.57,40.2l-10,2.07c-3.2-11.77-6.42-23.53-11.74-43l-14.56-6.25Q271.82,115.26,283.24,77l82,25.67L339,113.2c16.77,15.26,32.11,29.2,47.45,43.14Z"/><path class="cls-11" d="M265.13,94.36l5.77,6.93,47-10.71c-7.24,20.18-37,47.89-67.19,60.07Z"/><polygon class="cls-7" points="254.14 296.43 252.98 175.32 271.15 169.85 323.41 251.37 323.41 118.03 342 112.97 392.09 197.37 394.04 56.62 412.52 51.69 483.73 171.79 466.65 181.91 413.44 92.16 411.52 232.92 393 237.85 343.41 154.26 343.41 285.18 325.18 290.55 273.15 209.55 273.99 296.24 254.14 296.43"/><path class="cls-14" d="M163.56,137.36l-17.11,18,26.6,13.81L66.9,211.75c-1.47-.95-3-1.88-4.43-2.83,24.92-25.8,49.83-51.61,76.51-79.25Z"/><path class="cls-15" d="M218.55,139.66,161,106.77c.2-1.31.41-2.61.61-3.91l36.34,2.6-68.79-79.8C175.39,28.38,219.8,85,218.55,139.66Z"/></g></g></svg>