<svg xmlns="http://www.w3.org/2000/svg" viewBox="0 0 835.14 670.28"><defs><style>.cls-1{fill:#e96bbc;}.cls-2{fill:#b47ae8;}.cls-2,.cls-3{fill-rule:evenodd;}.cls-3{fill:#feb1b7;}.cls-4{fill:#274490;}.cls-5{fill:#fff;}</style></defs><title>Pink</title><g id="Layer_2" data-name="Layer 2"><g id="Layer_5" data-name="Layer 5"><polygon class="cls-1" points="556.86 641.73 500.36 648.47 365 664.55 316.41 670.28 49.03 639.12 36.07 412.79 90.56 330.43 212.37 146.32 283.53 114.43 538.87 0 649.36 105.93 690.45 150.23 812.89 256.14 773.15 365.49 835.14 495.24 556.86 641.73"/></g><g id="txt"><path class="cls-2" d="M103.68,317.81Q73.5,319,43.33,320.2q-13.9-9.37-27.78-18.75,25.66-43.5,51.3-87l29.63,25.28q15.34-36,30.67-72,18.22,10.55,36.48,21.12Q133.68,253.32,103.68,317.81Z"/><path class="cls-3" d="M153,283.08q16.45,35,33,70.09l-48.63,7.58Q145.17,321.89,153,283.08Z"/><path class="cls-4" d="M33.89,342.42a28.75,28.75,0,0,1-7.59,1c-32.29,0-34.85-46-7.68-53.32a29.46,29.46,0,0,1,7.68-1C58.07,289.11,60.6,335.1,33.89,342.42Z"/><path class="cls-5" d="M33.89,342.42a28.75,28.75,0,0,1-7.59,1c-32.29,0-34.85-46-7.68-53.32Z"/></g></g></svg>