<svg xmlns="http://www.w3.org/2000/svg" xmlns:xlink="http://www.w3.org/1999/xlink" viewBox="0 0 784.6 705.15"><defs><style>.cls-1{fill:none;}.cls-15,.cls-2{fill:#443880;}.cls-10,.cls-3{fill:#b47ae8;}.cls-4{fill:#b1d3d3;}.cls-5{fill:#e96bbc;}.cls-10,.cls-15,.cls-5,.cls-6,.cls-7,.cls-8,.cls-9{fill-rule:evenodd;}.cls-12,.cls-6{fill:#f83c2d;}.cls-7{fill:url(#New_Pattern_10);}.cls-8{fill:#feb7c9;}.cls-9{fill:url(#New_Pattern_12);}.cls-11{fill:#f48051;}.cls-13{fill:url(#sunset);}.cls-14{fill:#e4d91b;}</style><pattern id="New_Pattern_10" data-name="New Pattern 10" width="360.04" height="337.26" patternUnits="userSpaceOnUse" viewBox="0 0 360.04 337.26"><rect class="cls-1" width="360.04" height="337.26"/><path class="cls-2" d="M288.37,270.22c-5.88,0-10.8,6.87-10.8,15.12s4.92,15.12,10.8,15.12,10.81-6.88,10.81-15.12S294.26,270.22,288.37,270.22Z"/><path class="cls-2" d="M259.23,260.22c-5.89,0-10.81,6.87-10.81,15.12s4.92,15.12,10.81,15.12,10.8-6.88,10.8-15.12S265.12,260.22,259.23,260.22Z"/><path class="cls-2" d="M256.51,332.94c-5.89,0-10.8,6.89-10.8,15.13s4.91,15.12,10.8,15.12,10.8-6.88,10.8-15.12S262.4,332.94,256.51,332.94Z"/><path class="cls-2" d="M206.69,322.14c-5.89,0-10.8,6.88-10.8,15.12s4.91,15.13,10.8,15.13,10.8-6.88,10.8-15.13S212.58,322.14,206.69,322.14Z"/><path class="cls-2" d="M234.9,281.72c-5.88,0-10.8,6.88-10.8,15.12S229,312,234.9,312s10.81-6.88,10.81-15.12S240.79,281.72,234.9,281.72Z"/><path class="cls-2" d="M251.19,296.84c-5.89,0-10.8,6.88-10.8,15.12s4.91,15.13,10.8,15.13S262,320.21,262,312,257.08,296.84,251.19,296.84Z"/><path class="cls-2" d="M299.18,317.82c-5.89,0-10.81,6.88-10.81,15.12s4.92,15.13,10.81,15.13,10.8-6.88,10.8-15.13S305.07,317.82,299.18,317.82Z"/><path class="cls-2" d="M316.83,284c-5.89,0-10.81,6.88-10.81,15.12s4.92,15.12,10.81,15.12,10.8-6.87,10.8-15.12S322.72,284,316.83,284Z"/><path class="cls-2" d="M338.43,312c-5.89,0-10.8,6.88-10.8,15.13s4.91,15.12,10.8,15.12,10.81-6.88,10.81-15.12S344.32,312,338.43,312Z"/><path class="cls-2" d="M299.18,240c-5.89,0-10.81,6.88-10.81,15.12s4.92,15.13,10.81,15.13,10.8-6.89,10.8-15.13S305.07,240,299.18,240Z"/><path class="cls-2" d="M226.82,236c-5.89,0-10.8,6.88-10.8,15.12s4.91,15.13,10.8,15.13,10.81-6.89,10.81-15.13S232.71,236,226.82,236Z"/><path class="cls-2" d="M349.24,268.82c-5.89,0-10.81,6.88-10.81,15.13s4.92,15.12,10.81,15.12S360,292.19,360,284,355.13,268.82,349.24,268.82Z"/><path class="cls-2" d="M270,169.84c-5.89,0-10.8,6.88-10.8,15.13s4.91,15.12,10.8,15.12,10.8-6.88,10.8-15.12S275.92,169.84,270,169.84Z"/><path class="cls-2" d="M262,224.84c-5.88,0-10.8,6.88-10.8,15.13s4.92,15.12,10.8,15.12S272.8,248.21,272.8,240,267.88,224.84,262,224.84Z"/><path class="cls-2" d="M195.89,284c-5.89,0-10.81,6.88-10.81,15.12s4.92,15.12,10.81,15.12,10.8-6.87,10.8-15.12S201.78,284,195.89,284Z"/><path class="cls-2" d="M108.35,270.22c-5.88,0-10.8,6.87-10.8,15.12s4.92,15.12,10.8,15.12,10.81-6.88,10.81-15.12S114.24,270.22,108.35,270.22Z"/><path class="cls-2" d="M79.21,260.22c-5.89,0-10.81,6.87-10.81,15.12s4.92,15.12,10.81,15.12S90,283.58,90,275.34,85.1,260.22,79.21,260.22Z"/><path class="cls-2" d="M76.49,332.94c-5.89,0-10.8,6.89-10.8,15.13s4.91,15.12,10.8,15.12,10.8-6.88,10.8-15.12S82.38,332.94,76.49,332.94Z"/><path class="cls-2" d="M26.67,322.14c-5.89,0-10.8,6.88-10.8,15.12s4.91,15.13,10.8,15.13,10.8-6.88,10.8-15.13S32.56,322.14,26.67,322.14Z"/><path class="cls-2" d="M54.88,281.72c-5.89,0-10.8,6.88-10.8,15.12S49,312,54.88,312s10.81-6.88,10.81-15.12S60.77,281.72,54.88,281.72Z"/><path class="cls-2" d="M71.17,296.84c-5.89,0-10.8,6.88-10.8,15.12s4.91,15.13,10.8,15.13S82,320.21,82,312,77.06,296.84,71.17,296.84Z"/><path class="cls-2" d="M119.16,317.82c-5.89,0-10.81,6.88-10.81,15.12s4.92,15.13,10.81,15.13,10.8-6.88,10.8-15.13S125.05,317.82,119.16,317.82Z"/><path class="cls-2" d="M136.81,284c-5.89,0-10.81,6.88-10.81,15.12s4.92,15.12,10.81,15.12,10.8-6.87,10.8-15.12S142.69,284,136.81,284Z"/><path class="cls-2" d="M158.41,312c-5.89,0-10.8,6.88-10.8,15.13s4.91,15.12,10.8,15.12,10.81-6.88,10.81-15.12S164.3,312,158.41,312Z"/><path class="cls-2" d="M119.16,240c-5.89,0-10.81,6.88-10.81,15.12s4.92,15.13,10.81,15.13,10.8-6.89,10.8-15.13S125.05,240,119.16,240Z"/><path class="cls-2" d="M46.8,236c-5.89,0-10.8,6.88-10.8,15.12s4.91,15.13,10.8,15.13,10.8-6.89,10.8-15.13S52.69,236,46.8,236Z"/><path class="cls-2" d="M169.22,268.82c-5.89,0-10.81,6.88-10.81,15.13s4.92,15.12,10.81,15.12S180,292.19,180,284,175.11,268.82,169.22,268.82Z"/><path class="cls-2" d="M90,169.84c-5.89,0-10.8,6.88-10.8,15.13s4.91,15.12,10.8,15.12,10.8-6.88,10.8-15.12S95.9,169.84,90,169.84Z"/><path class="cls-2" d="M82,224.84c-5.88,0-10.8,6.88-10.8,15.13s4.92,15.12,10.8,15.12S92.78,248.21,92.78,240,87.86,224.84,82,224.84Z"/><path class="cls-2" d="M15.87,284C10,284,5.06,290.83,5.06,299.07S10,314.19,15.87,314.19s10.8-6.87,10.8-15.12S21.76,284,15.87,284Z"/><path class="cls-2" d="M349.24,91.58c-5.89,0-10.81,6.88-10.81,15.13s4.92,15.12,10.81,15.12S360,115,360,106.71,355.13,91.58,349.24,91.58Z"/><path class="cls-2" d="M346.52,164.31c-5.89,0-10.8,6.88-10.8,15.13s4.91,15.12,10.8,15.12,10.8-6.88,10.8-15.12S352.41,164.31,346.52,164.31Z"/><path class="cls-2" d="M296.7,153.51c-5.89,0-10.8,6.88-10.8,15.12s4.91,15.13,10.8,15.13,10.8-6.89,10.8-15.13S302.59,153.51,296.7,153.51Z"/><path class="cls-2" d="M324.91,113.08c-5.88,0-10.8,6.88-10.8,15.13s4.92,15.12,10.8,15.12,10.81-6.88,10.81-15.12S330.8,113.08,324.91,113.08Z"/><path class="cls-2" d="M341.2,128.21c-5.89,0-10.8,6.88-10.8,15.12s4.91,15.13,10.8,15.13S352,151.58,352,143.33,347.09,128.21,341.2,128.21Z"/><path class="cls-2" d="M314.11,196.45c-5.89,0-10.8,6.88-10.8,15.12s4.91,15.12,10.8,15.12,10.8-6.88,10.8-15.12S320,196.45,314.11,196.45Z"/><path class="cls-2" d="M296.7,203.33c-5.89,0-10.8,6.88-10.8,15.13s4.91,15.12,10.8,15.12,10.8-6.88,10.8-15.12S302.59,203.33,296.7,203.33Z"/><path class="cls-2" d="M357.32,233.58c-5.88,0-10.8,6.88-10.8,15.12s4.92,15.13,10.8,15.13,10.81-6.88,10.81-15.13S363.21,233.58,357.32,233.58Z"/><path class="cls-2" d="M327.64,250.8c-5.89,0-10.81,6.88-10.81,15.13s4.92,15.12,10.81,15.12,10.8-6.88,10.8-15.12S333.53,250.8,327.64,250.8Z"/><path class="cls-2" d="M357.32,196.45c-5.89,0-10.8,6.88-10.8,15.12s4.91,15.12,10.8,15.12,10.81-6.88,10.81-15.12S363.21,196.45,357.32,196.45Z"/><path class="cls-2" d="M316.83,67.33c-5.89,0-10.8,6.88-10.8,15.13s4.91,15.12,10.8,15.12,10.81-6.88,10.81-15.12S322.72,67.33,316.83,67.33Z"/><path class="cls-2" d="M360,1.21c-5.89,0-10.8,6.88-10.8,15.12s4.91,15.13,10.8,15.13,10.8-6.88,10.8-15.13S365.93,1.21,360,1.21Z"/><path class="cls-2" d="M352,56.21c-5.88,0-10.8,6.88-10.8,15.12s4.92,15.13,10.8,15.13,10.81-6.88,10.81-15.13S357.89,56.21,352,56.21Z"/><path class="cls-2" d="M285.9,115.31c-5.89,0-10.81,6.88-10.81,15.13s4.92,15.12,10.81,15.12,10.8-6.88,10.8-15.12S291.79,115.31,285.9,115.31Z"/><path class="cls-2" d="M198.36,101.58c-5.88,0-10.8,6.88-10.8,15.13s4.92,15.12,10.8,15.12,10.81-6.88,10.81-15.12S204.25,101.58,198.36,101.58Z"/><path class="cls-2" d="M169.22,91.58c-5.89,0-10.81,6.88-10.81,15.13s4.92,15.12,10.81,15.12S180,115,180,106.71,175.11,91.58,169.22,91.58Z"/><path class="cls-2" d="M166.5,164.31c-5.89,0-10.8,6.88-10.8,15.13s4.91,15.12,10.8,15.12,10.8-6.88,10.8-15.12S172.39,164.31,166.5,164.31Z"/><path class="cls-2" d="M116.68,153.51c-5.89,0-10.8,6.88-10.8,15.12s4.91,15.13,10.8,15.13,10.8-6.89,10.8-15.13S122.57,153.51,116.68,153.51Z"/><path class="cls-2" d="M237.62,194.56c-5.89,0-10.8,6.88-10.8,15.13s4.91,15.12,10.8,15.12,10.8-6.88,10.8-15.12S243.51,194.56,237.62,194.56Z"/><path class="cls-2" d="M144.89,113.08c-5.89,0-10.8,6.88-10.8,15.13s4.91,15.12,10.8,15.12,10.81-6.88,10.81-15.12S150.78,113.08,144.89,113.08Z"/><path class="cls-2" d="M161.18,128.21c-5.89,0-10.8,6.88-10.8,15.12s4.91,15.13,10.8,15.13S172,151.58,172,143.33,167.07,128.21,161.18,128.21Z"/><path class="cls-2" d="M134.09,196.45c-5.89,0-10.8,6.88-10.8,15.12s4.91,15.12,10.8,15.12,10.8-6.88,10.8-15.12S140,196.45,134.09,196.45Z"/><path class="cls-2" d="M116.68,203.33c-5.89,0-10.8,6.88-10.8,15.13s4.91,15.12,10.8,15.12,10.8-6.88,10.8-15.12S122.57,203.33,116.68,203.33Z"/><path class="cls-2" d="M177.3,233.58c-5.89,0-10.8,6.88-10.8,15.12s4.91,15.13,10.8,15.13,10.81-6.88,10.81-15.13S183.19,233.58,177.3,233.58Z"/><path class="cls-2" d="M147.62,250.8c-5.89,0-10.81,6.88-10.81,15.13s4.92,15.12,10.81,15.12,10.8-6.88,10.8-15.12S153.5,250.8,147.62,250.8Z"/><path class="cls-2" d="M177.3,196.45c-5.89,0-10.8,6.88-10.8,15.12s4.91,15.12,10.8,15.12,10.81-6.88,10.81-15.12S183.19,196.45,177.3,196.45Z"/><path class="cls-2" d="M209.17,196.45c-5.89,0-10.81,6.88-10.81,15.12s4.92,15.12,10.81,15.12,10.8-6.88,10.8-15.12S215.06,196.45,209.17,196.45Z"/><path class="cls-2" d="M209.17,149.19c-5.89,0-10.81,6.88-10.81,15.12s4.92,15.13,10.81,15.13,10.8-6.88,10.8-15.13S215.06,149.19,209.17,149.19Z"/><path class="cls-2" d="M226.82,115.31c-5.89,0-10.81,6.88-10.81,15.13s4.92,15.12,10.81,15.12,10.8-6.88,10.8-15.12S232.7,115.31,226.82,115.31Z"/><path class="cls-2" d="M248.42,143.33c-5.89,0-10.8,6.88-10.8,15.13s4.91,15.12,10.8,15.12,10.81-6.88,10.81-15.12S254.31,143.33,248.42,143.33Z"/><path class="cls-2" d="M209.17,71.33c-5.89,0-10.81,6.88-10.81,15.13s4.92,15.12,10.81,15.12S220,94.7,220,86.46,215.06,71.33,209.17,71.33Z"/><path class="cls-2" d="M136.81,67.33c-5.89,0-10.8,6.88-10.8,15.13s4.91,15.12,10.8,15.12,10.81-6.88,10.81-15.12S142.7,67.33,136.81,67.33Z"/><path class="cls-2" d="M259.23,100.19c-5.89,0-10.81,6.88-10.81,15.12s4.92,15.13,10.81,15.13,10.8-6.88,10.8-15.13S265.12,100.19,259.23,100.19Z"/><path class="cls-2" d="M180,1.21c-5.89,0-10.8,6.88-10.8,15.12s4.91,15.13,10.8,15.13,10.8-6.88,10.8-15.13S185.91,1.21,180,1.21Z"/><path class="cls-2" d="M172,56.21c-5.88,0-10.8,6.88-10.8,15.12S166.1,86.46,172,86.46s10.81-6.88,10.81-15.13S177.87,56.21,172,56.21Z"/><path class="cls-2" d="M105.88,115.31c-5.89,0-10.81,6.88-10.81,15.13s4.92,15.12,10.81,15.12,10.8-6.88,10.8-15.12S111.77,115.31,105.88,115.31Z"/><path class="cls-2" d="M18.34,101.58c-5.89,0-10.8,6.88-10.8,15.13s4.91,15.12,10.8,15.12S29.15,125,29.15,116.71,24.23,101.58,18.34,101.58Z"/><path class="cls-2" d="M57.6,194.56c-5.89,0-10.8,6.88-10.8,15.13s4.91,15.12,10.8,15.12,10.8-6.88,10.8-15.12S63.49,194.56,57.6,194.56Z"/><path class="cls-2" d="M-2.72,233.58c-5.89,0-10.8,6.88-10.8,15.12s4.91,15.13,10.8,15.13S8.09,257,8.09,248.7,3.17,233.58-2.72,233.58Z"/><path class="cls-2" d="M-2.72,196.45c-5.89,0-10.8,6.88-10.8,15.12s4.91,15.12,10.8,15.12,10.81-6.88,10.81-15.12S3.17,196.45-2.72,196.45Z"/><path class="cls-2" d="M29.15,196.45c-5.89,0-10.81,6.88-10.81,15.12s4.92,15.12,10.81,15.12S40,219.81,40,211.57,35,196.45,29.15,196.45Z"/><path class="cls-2" d="M29.15,149.19c-5.89,0-10.81,6.88-10.81,15.12s4.92,15.13,10.81,15.13S40,172.56,40,164.31,35,149.19,29.15,149.19Z"/><path class="cls-2" d="M46.79,115.31c-5.88,0-10.8,6.88-10.8,15.13s4.92,15.12,10.8,15.12,10.81-6.88,10.81-15.12S52.68,115.31,46.79,115.31Z"/><path class="cls-2" d="M68.4,143.33c-5.89,0-10.8,6.88-10.8,15.13s4.91,15.12,10.8,15.12,10.81-6.88,10.81-15.12S74.29,143.33,68.4,143.33Z"/><path class="cls-2" d="M29.15,71.33c-5.89,0-10.81,6.88-10.81,15.13s4.92,15.12,10.81,15.12S40,94.7,40,86.46,35,71.33,29.15,71.33Z"/><path class="cls-2" d="M79.21,100.19c-5.89,0-10.81,6.88-10.81,15.12s4.92,15.13,10.81,15.13S90,123.56,90,115.31,85.1,100.19,79.21,100.19Z"/><path class="cls-2" d="M0,1.21c-5.89,0-10.8,6.88-10.8,15.12S-5.89,31.46,0,31.46s10.8-6.88,10.8-15.13S5.89,1.21,0,1.21Z"/><path class="cls-2" d="M-8,56.21c-5.88,0-10.8,6.88-10.8,15.12S-13.92,86.46-8,86.46,2.77,79.58,2.77,71.33-2.15,56.21-8,56.21Z"/><path class="cls-2" d="M256.51-4.32c-5.89,0-10.8,6.88-10.8,15.13s4.91,15.12,10.8,15.12,10.8-6.88,10.8-15.12S262.4-4.32,256.51-4.32Z"/><path class="cls-2" d="M206.69-15.12c-5.89,0-10.8,6.87-10.8,15.12s4.91,15.12,10.8,15.12S217.49,8.24,217.49,0,212.58-15.12,206.69-15.12Z"/><path class="cls-2" d="M327.63,25.93c-5.89,0-10.8,6.88-10.8,15.12s4.91,15.13,10.8,15.13,10.8-6.88,10.8-15.13S333.52,25.93,327.63,25.93Z"/><path class="cls-2" d="M224.1,27.81c-5.89,0-10.8,6.88-10.8,15.13s4.91,15.12,10.8,15.12,10.8-6.88,10.8-15.12S230,27.81,224.1,27.81Z"/><path class="cls-2" d="M206.69,34.7c-5.89,0-10.8,6.88-10.8,15.12S200.8,65,206.69,65s10.8-6.88,10.8-15.13S212.58,34.7,206.69,34.7Z"/><path class="cls-2" d="M267.31,65c-5.88,0-10.8,6.88-10.8,15.12s4.92,15.13,10.8,15.13,10.81-6.88,10.81-15.13S273.2,65,267.31,65Z"/><path class="cls-2" d="M237.63,82.17c-5.89,0-10.81,6.88-10.81,15.13s4.92,15.12,10.81,15.12,10.8-6.88,10.8-15.12S243.52,82.17,237.63,82.17Z"/><path class="cls-2" d="M267.31,27.81c-5.89,0-10.8,6.88-10.8,15.13s4.91,15.12,10.8,15.12,10.81-6.88,10.81-15.12S273.2,27.81,267.31,27.81Z"/><path class="cls-2" d="M299.18,27.81c-5.89,0-10.81,6.88-10.81,15.13s4.92,15.12,10.81,15.12S310,51.18,310,42.94,305.07,27.81,299.18,27.81Z"/><path class="cls-2" d="M299.18-19.44c-5.89,0-10.81,6.88-10.81,15.12s4.92,15.13,10.81,15.13S310,3.92,310-4.32,305.07-19.44,299.18-19.44Z"/><path class="cls-2" d="M338.43-25.3c-5.89,0-10.8,6.88-10.8,15.13S332.54,5,338.43,5s10.81-6.88,10.81-15.12S344.32-25.3,338.43-25.3Z"/><path class="cls-2" d="M76.49-4.32c-5.89,0-10.8,6.88-10.8,15.13s4.91,15.12,10.8,15.12,10.8-6.88,10.8-15.12S82.38-4.32,76.49-4.32Z"/><path class="cls-2" d="M26.67-15.12c-5.89,0-10.8,6.87-10.8,15.12s4.91,15.12,10.8,15.12S37.47,8.24,37.47,0,32.56-15.12,26.67-15.12Z"/><path class="cls-2" d="M147.61,25.93c-5.89,0-10.8,6.88-10.8,15.12s4.91,15.13,10.8,15.13,10.8-6.88,10.8-15.13S153.5,25.93,147.61,25.93Z"/><path class="cls-2" d="M44.08,27.81c-5.89,0-10.8,6.88-10.8,15.13s4.91,15.12,10.8,15.12,10.8-6.88,10.8-15.12S50,27.81,44.08,27.81Z"/><path class="cls-2" d="M26.67,34.7c-5.89,0-10.8,6.88-10.8,15.12S20.78,65,26.67,65s10.8-6.88,10.8-15.13S32.56,34.7,26.67,34.7Z"/><path class="cls-2" d="M87.29,65c-5.89,0-10.8,6.88-10.8,15.12S81.4,95.2,87.29,95.2,98.1,88.32,98.1,80.07,93.18,65,87.29,65Z"/><path class="cls-2" d="M57.6,82.17c-5.88,0-10.8,6.88-10.8,15.13s4.92,15.12,10.8,15.12,10.81-6.88,10.81-15.12S63.49,82.17,57.6,82.17Z"/><path class="cls-2" d="M87.29,27.81c-5.89,0-10.8,6.88-10.8,15.13s4.91,15.12,10.8,15.12S98.1,51.18,98.1,42.94,93.18,27.81,87.29,27.81Z"/><path class="cls-2" d="M119.16,27.81c-5.89,0-10.81,6.88-10.81,15.13s4.92,15.12,10.81,15.12S130,51.18,130,42.94,125.05,27.81,119.16,27.81Z"/><path class="cls-2" d="M119.16-19.44c-5.89,0-10.81,6.88-10.81,15.12s4.92,15.13,10.81,15.13S130,3.92,130-4.32,125.05-19.44,119.16-19.44Z"/><path class="cls-2" d="M158.41-25.3c-5.89,0-10.8,6.88-10.8,15.13S152.52,5,158.41,5s10.81-6.88,10.81-15.12S164.3-25.3,158.41-25.3Z"/></pattern><pattern id="New_Pattern_12" data-name="New Pattern 12" width="276.93" height="108" patternUnits="userSpaceOnUse" viewBox="0 0 276.93 108"><rect class="cls-1" width="276.93" height="108"/><path class="cls-3" d="M543.33,93.85H270.15c-14,0-14.3,6.7-.25,6.7H543.33C557.38,100.55,557.38,93.85,543.33,93.85Z"/><path class="cls-3" d="M266.39,93.85H-6.78c-14,0-14.3,6.7-.25,6.7H266.39C280.45,100.55,280.45,93.85,266.39,93.85Z"/><path class="cls-3" d="M543.33,72.25H270.15c-14,0-14.3,6.7-.25,6.7H543.33C557.38,79,557.38,72.25,543.33,72.25Z"/><path class="cls-3" d="M266.39,72.25H-6.78c-14,0-14.3,6.7-.25,6.7H266.39C280.45,79,280.45,72.25,266.39,72.25Z"/><path class="cls-3" d="M543.33,50.65H270.15c-14,0-14.3,6.7-.25,6.7H543.33C557.38,57.35,557.38,50.65,543.33,50.65Z"/><path class="cls-3" d="M266.39,50.65H-6.78c-14,0-14.3,6.7-.25,6.7H266.39C280.45,57.35,280.45,50.65,266.39,50.65Z"/><path class="cls-3" d="M543.33,29.05H270.15c-14,0-14.3,6.7-.25,6.7H543.33C557.38,35.75,557.38,29.05,543.33,29.05Z"/><path class="cls-3" d="M266.39,29.05H-6.78c-14,0-14.3,6.7-.25,6.7H266.39C280.45,35.75,280.45,29.05,266.39,29.05Z"/><path class="cls-3" d="M543.33,7.45H270.15c-14,0-14.3,6.7-.25,6.7H543.33C557.38,14.15,557.38,7.45,543.33,7.45Z"/><path class="cls-3" d="M266.39,7.45H-6.78c-14,0-14.3,6.7-.25,6.7H266.39C280.45,14.15,280.45,7.45,266.39,7.45Z"/></pattern><pattern id="sunset" data-name="sunset" width="1125" height="750" patternUnits="userSpaceOnUse" viewBox="0 0 1125 750"><rect class="cls-1" width="1125" height="750"/><circle class="cls-4" cx="1125" cy="750" r="188.94" transform="translate(-200.83 1015.17) rotate(-45)"/><circle class="cls-4" cy="750" r="188.94" transform="translate(-530.33 219.67) rotate(-45)"/><circle class="cls-4" cx="1125" r="188.94"/><circle class="cls-4" cx="562.5" cy="375" r="188.94" transform="translate(-100.41 507.58) rotate(-45)"/><circle class="cls-4" r="188.94"/></pattern></defs><title>Right</title><g id="Layer_2" data-name="Layer 2"><g id="photo"><path class="cls-5" d="M661.73,207.23l97.35,18.22c-35.63,25-64.27,66.39-128,24.82-4.42-2.24-8.94-4.56-13.48-6.89Z"/><path class="cls-6" d="M458,351.6C401.75,627.76,251.07,734,0,698.54Z"/><path class="cls-7" d="M458,351.6C401.75,627.76,251.07,734,0,698.54Z"/></g><g id="txt"><path class="cls-8" d="M784.6,440.62Q713.8,447.32,643,454c64.45-57.22,10.67-179.26,109.53-209.38Q768.57,342.63,784.6,440.62Z"/><path class="cls-9" d="M784.6,440.62Q713.8,447.32,643,454c64.45-57.22,10.67-179.26,109.53-209.38Q768.57,342.63,784.6,440.62Z"/><path class="cls-10" d="M751.85,403.07c-7,17.61-17.9,34.67-20.4,52.87-7.39,53.77-11.5,108-17.25,165.54,7.75,6.34,27.48,22.5,58.38,47.77L493,704.11c10-60.07,19.61-117.18,31.74-189.73-1.6-1.08-24.18-16.78-46.77-32.5q5.92-12.56,11.86-25.09l102.67,44.42c-2.84,8.11-5.66,16.2-8.52,24.31l113-11.85q1.8-8.73,3.62-17.49L591.27,474.57C643.39,432.44,579.61,330,700.81,329.29c-13,23.58-23.3,42-34.77,62.73,32.6,4.72,60.06,8.69,87.69,12.82C753.94,405,751.85,403.07,751.85,403.07Z"/><path class="cls-11" d="M668.44,189.42C660.63,209.35,644.26,227,619.77,242l-10.48-17.16c39.4-24,53.21-55.17,37.89-85.37-6.77-13.34-18.89-25.78-35.32-36.33q-3.89-2.5-8.09-4.85c-22.52-12.61-51.35-21.59-83.37-26-25.54-3.51-59-5-100-.35-45.61,5.17-100.45,18-163.83,44.07L248.9,97.4c51.48-21.21,102.21-35.67,150.79-43q19.08-2.86,37.53-4.24a407.31,407.31,0,0,1,85.92,2.16c38.11,5.24,71.37,16.5,96.87,32.16,20.62,12.68,36.17,28.24,45.1,45.84C674.88,149.6,676,170,668.44,189.42Z"/><path class="cls-12" d="M591.08,223.31c-29,0-29,45.24,0,45.24S620.08,223.31,591.08,223.31Z"/><path class="cls-13" d="M601.08,233.64c-22,0-22,33.73,0,33.73C622.08,267.37,622.08,233.64,601.08,233.64Z"/><path class="cls-14" d="M620,84.51l-8.15,18.61q-3.89-2.5-8.09-4.85c-22.52-12.61-51.35-21.59-83.37-26-25.54-3.51-59-5-100-.35l16.83-21.73a407.31,407.31,0,0,1,85.92,2.16C561.25,57.59,594.51,68.85,620,84.51Z"/><path class="cls-6" d="M759.08,275.09c-4.54,12.16-30.7,65-39.23,79.23q-25.23-.06-50.44-.14c.1-16.51.2-33,.31-52.4-9.42-8-23.84-20.18-38.25-32.4q2.76-5.69,5.53-11.38l31.18,14.6c5.3-11.82,10.74-24,16.19-36.17l7.94,1.4c.86,24.76,1.72,49.51,2.48,71.44Z"/><path class="cls-15" d="M697.86,0c-.75,26.46-1.47,52.91-2.46,88.2,4.65,7.84,16,26.92,27.32,46,0,0-.35,3-.3,2.95-23.86-21.14-47.26-49.22-75.14-3.86-.86,1.37-13.87-4.74-21.21-7.41q20.64-56,41.29-111.82Q682.62,7.05,697.86,0Z"/></g></g></svg>