<?xml version="1.0" encoding="utf-8"?>
<!-- Generator: Adobe Illustrator 23.0.1, SVG Export Plug-In . SVG Version: 6.00 Build 0)  -->
<svg version="1.1" id="Capa_1" xmlns="http://www.w3.org/2000/svg" xmlns:xlink="http://www.w3.org/1999/xlink" x="0px" y="0px"
	 viewBox="0 0 55 55" style="enable-background:new 0 0 55 55;" xml:space="preserve">
<style type="text/css">
	.st0{fill:#FFFFFF;}
</style>
<g>
	<g>
		<path class="st0" d="M27.5,0C12.3,0,0,12.3,0,27.5C0,42.7,12.3,55,27.5,55S55,42.7,55,27.5C55,12.3,42.7,0,27.5,0z M27.5,53
			C13.4,53,2,41.6,2,27.5S13.4,2,27.5,2S53,13.4,53,27.5S41.6,53,27.5,53z"/>
		<path class="st0" d="M42.9,28c-0.5-0.1-1.1,0.3-1.2,0.8C40.4,35.9,34.2,41,27,41c-7.5,0-13.9-5.6-14.9-13
			c-0.1-0.5-0.6-0.9-1.1-0.9c-0.5,0.1-0.9,0.6-0.9,1.1C11.3,36.7,18.5,43,27,43c8.2,0,15.2-5.8,16.7-13.9
			C43.8,28.6,43.5,28.1,42.9,28z"/>
	</g>
</g>
</svg>
