<svg xmlns="http://www.w3.org/2000/svg" viewBox="0 0 523.66 676.09"><defs><style>.cls-1{fill:#e96bbc;}.cls-2{fill:#f83c2d;}.cls-3{fill:#1ab687;}.cls-4{fill:#443880;}.cls-5{fill:#b1d3d3;}.cls-6{fill:#e4d91b;}.cls-7{fill:#fff;}.cls-8{fill:#b47ae8;}.cls-9{fill:#ffe701;}</style></defs><title>LeftContact</title><g id="Layer_2" data-name="Layer 2"><g id="image"><polygon class="cls-1" points="277.34 89.99 248.68 89.99 263.01 108.77 277.34 89.99"/><circle class="cls-2" cx="128.01" cy="188.18" r="10.15"/><path class="cls-1" d="M505.41,549.55a87.14,87.14,0,0,0-6.34-6.41c-2.18-2-2.82-4-4-6.55a4.25,4.25,0,0,0-2.43-2.5c-3.34-.9-5.16-2.62-7.44-5.09-3.07-3.33-6.13-6.35-10.26-8.33-3.36-1.61-6.59-1.12-10.19-.91-5.19.3-4.5-4.23-7.77-6.46-3.44-2.33-8.35-2.2-12.32-2A107.6,107.6,0,0,0,431.39,513c-5.35.88-10.25,4-15,6.34-3.08,1.51-6.53,3.08-10,2.42-2-.38-3.88-1.36-6-1.48-5.14-.31-10.19,3.57-14.51,5.91s-8.5,2-13.08,3-8.21,4.76-11.4,8.09c-7.32,7.61-18.29,10-23.46,19.67-4.31,8-3.64,17.38-.7,26-1.92,5.69.13,19.28.62,18.34.86-1.68,11.26-17.88,14.66-21.39,6-6.15,13.75-12.73,22.81-10.18,3.38.95,6.48,2.3,10,2.73,4.45.54,9.14-.35,13.55-.83a44.69,44.69,0,0,1,14.95.62c4.67,1.06,9.14,2.88,13.74,4.19,9,2.57,18.37,3.37,27.46,5.52s17.06,7.16,26.06,9.47c15.29,3.94,27.78-10.54,42.55-11.51.5,0-10.44-21.58-18.23-30.36"/><path class="cls-1" d="M510.67,573.05a89.59,89.59,0,0,0-36.29-2.2c7.81-6.09,27.32-14.5,26.3-14.47-9.44.25-17.85,4.48-26.63,7.49-7.54,2.59-14.93.12-22.58,0,5-5.68,12.74-8.36,19.84-10.29,7.43-2,23.43-5.77,22.49-5.77-10.81,0-21.42.76-31.89,3.57-5.21,1.41-10.09,3-15.52,3.46a83.16,83.16,0,0,1-13.84-.44c-1.7-.15-3.38-.2-5.05-.22,13.91-5.31,38.86-23.91,37.95-23.56-13.52,5.24-48.71,22-53.26,24-.27.12-14.84,1.46-17,1.35,1-.63,2-1.26,2.92-1.86,5.1-3.3,59.93-37.33,58.94-37.27C438,517.93,402,546.41,397.78,549a28.41,28.41,0,0,0-7.76,6.52c-1.94-.15-3.88-.29-5.82-.36-2.32-.08-4.64-.17-6.94-.33,0-.06,5.23-8.76,8.26-11.77,4-4,8.34-7.59,12.63-11.22,2.93-2.49,8.45-9.39,7.84-9.35-8.8.51-14.42,7.44-19.26,14.05-4.39,6-9.26,14.39-16.82,16.13,1-5.19,3.61-16.7,2.93-16.29-6,3.58-9.46,10-11.57,16.49-5.14.17-15,5.88-14.16,5.74a71.79,71.79,0,0,1,22.38-.31c6.81,1,12.24,4.2,18.42,6.92,4.82,2.12,9.43,1.44,14.44.6,7.74-1.29,14.91,1.74,21.76,5,5,2.38,48.78,20.68,58.78,19.95.78,0-9.68-8.16-12.87-13.18,13.65.2,41.52-4.34,40.65-4.58"/><path class="cls-3" d="M453.88,581.22c-10.09-2.83-35.74-10.78-45.73-14-5.8-1.88-13.46-5.41-19.86-4.37.41-3.9.43-9.28-4.53-9.43-3.68-.12-11.11,5.15-12.26-.62a.88.88,0,0,0-1.27-.52c-3.94,2.12-8.87,7.39-13.3,3.58-2.14-1.84-1.9-6.1-2.19-8.64-.47-4.15-1.92-7.86-6.3-9-3.92-1-8,1.93-10.84,4.2-4.73,3.77-8.55,8.79-12,13.71-5.24,7.47-12.75,18.62-8.72,28,2.75,6.39,13.83,13,18.9,20.39-2,5.58-6.29,17-6.51,21.49,0,.79,3.93,1.84,4.45,1.35,1.34-1.25,10.34-24.28,15.19-28.29a35.52,35.52,0,0,0,9.3-12.3c1.92-3.9,4.51-12.48,9.09-14,1.2-.39,2.91.33,4.08.62a38.81,38.81,0,0,0,6.62.94c6.78.56,13.61.41,20.41.52a109,109,0,0,1,20.12,2.27c6.37,1.3,36.32,4.38,35.34,4.11"/><path class="cls-4" d="M248.45,573.11c11.14-7.05,39.61-20.15,48.43-30,49.61-55.37,38.33-119.59,24.77-116.36-71.24,17-68.16,111.38-89.57,133.46,12.12-41.42,30.81-90.17,1.07-128.14-12.15-15.51-86.65-85.65-86.88-84.7-7.44,31.31-17.8,78.52-1.16,107.92,9.38,16.58,22.85,30.59,34,45.93,10.64,14.62,20.27,30.24,27.5,46.85-12-12.53-26.11-22.49-38.44-34.84-12.59-12.6-23.08-26.43-39.41-34.44-14.54-7.14-31.89-8.11-47.8-8.27-18.68-.18-57.93,4.11-57.56,5.21,2.4,7.14,23.86,29.66,29.18,36.35,11.7,14.74,30.94,20.71,46.12,31.2,7.85,5.42,14.51,12.39,23.58,15.88,8.11,3.13,16.35,4.26,25,4.42,19,.36,37.41-3.58,55.85,1.18-5.78,1.35-11.64,2.25-17.44,3.57-7.57,1.71-14.26,5.92-20.76,10-7.37,4.61-14.4,9.75-21.7,14.44-6.18,4-95.87,83.3-94.61,83.33,7.3.15,33.5-6.69,39.79-10.09,10.21-5.51,21.91-7.45,33.32-8.71,18.64-2,36.37-10.15,52.91-18.62,14.51-7.43,20.8-22.84,32.43-33.46,3.44-3.14,9-7.56,12.88-12.58,9.27,8.6,18.58,17.13,29.22,24.06C262,625.06,276,628,291.12,627.81c27.41-.4,59.79-7.68,80.82-26.23.84-.75-82.16-37.35-123.49-28.47"/><path class="cls-3" d="M362.06,602.91c-5.38-8.29-13.42-8-22.36-9.54C325,590.92,313.5,580.09,300.44,574c-7.9-3.71-16.43-1.75-24.58-.21-11.11,2.09-23.3,9.58-34.86,7.8,15.65-20.42,38.8-34.13,51.82-56.82,6-10.51,6.24-20.51,5-32.22-.88-8.44,4.45-15.79,7.94-23.06a41.16,41.16,0,0,0,4.11-20.35c-.06-1.39-25.71,12.36-35.6,21.63-8.5,8-6.35,21.44-14.54,29.87-3.3,3.4-8,5.05-11.56,8.1-3.85,3.27-5.86,7-7.59,11.68-4.77,12.89-8.42,38.44-8.58,38,1.5-11.16.49-40-7.38-55.91-6.42-12.94-19.45-14.61-22.56-12.52.42-7.21-2-13.85-5-20.58-5.33-12-10-21.77-9.5-35.18a27.56,27.56,0,0,0-1.8-11.61c-4.69-20.67-30.48-56.39-31.15-55.43-11.79,17,3.06,28.61,7.14,45.06,2.34,9.44-7.81,17.19-2.16,27.06a26.31,26.31,0,0,0,6.06,7c6.15,5.35,5,11.63,2.32,18.47-6.53,17,8.9,31.67,19.08,43.52,10.53,12.26,29.88,28.21,31.48,45.76a208.12,208.12,0,0,0-83.13-36.68c-17.56-3.48-32.78-10.22-47.92-19.72s-52.4-21.12-50.59-19.92c15.79,10.57,16.58,33.3,33.59,42.7,7,3.85,14.91.21,21.9-1.37,14.41-3.26,16.56,14.72,23.85,22.87,11.16,12.51,29.41,17.05,45.25,19.73,16.8,2.85,33.88,3.12,50.82,4.7-9.06,8.4-21.33,12.66-31.53,19.49C167.2,594.79,57.44,673.48,59.3,673c17-4.26,33-11.78,49.7-16.92a157.18,157.18,0,0,0,20.61-7.73c8.84-4.12,16.41-9.57,26-12.19,7.13-2,14.59-2.61,21.55-5.17,5.59-2,10.31-6.29,14.56-10.31,9.31-8.79,16.42-18.78,24.53-28.57,3.24-3.92,8.31-10.77,13.95-7.67,4.82,2.65,8.56,8.33,12,12.48,7,8.48,14.21,18.4,26,19.82,7.78.93,14.9-.8,22.36-2.91a99,99,0,0,1,26-3.32c15.24-.22,46-6.9,45.57-7.61"/><path class="cls-1" d="M503.41,332.35c-11.05,6.31-21.94,12.9-32.88,19.41-11.16,6.66-21.72,13.4-34.61,16.07-9.92,2.06-20.09,2.54-29.75,5.79a29.39,29.39,0,0,0-11,6.43c-3.84,3.52-7.14,7.73-12,9.95-8.68,4-13.44-5.62-19.33-9.73-5.36-3.74-12-1.91-17.47.62a75.11,75.11,0,0,0-6.84,3.67c-7.31-2.29-14.91-2.49-22.73,1.76-6.73,3.65-10.57,10.6-14.6,16.79a40.9,40.9,0,0,1-7.57,9c-4.47,3.81-10.4,5.26-16,6.35a76.78,76.78,0,0,0-12.52,3.07c-4.59,1.72-8.05,4.85-11.29,8.43-6,6.62-8.85,15.74-11.41,24.12-2.79,9.16-5.71,18.21-7.86,27.55-.83,3.61-1.27,8.17.14,11.68s3.56,6.49,5.37,9.63c2.23,3.86,3.08,6.32,1.61,10.69-1.18,3.49-3.7,6.35-6.21,9-4.25,4.44-8.76,8.51-9.7,14.9-.37,2.53-.41,6.29,1.4,8.28a8.13,8.13,0,0,0,3.16,1.75c.82.32,1.66.59,2.48.91,2.52,1,2.85,2.89,3.19,5.38.61,4.53.13,9.27.55,13.84.39,4.13.49,8.3,1.4,12.35,1.4,6.2,4.6,11.79,11.66,11.53,6-.23,11.28-5.49,15.46-9.18S277,571.18,283,573.82c6.57,2.84,5.21,16.31,5.31,21.95.06,3.23,0,6.63,1,9.74.14.42,9.32-1.11,13.39,1.21,2.82,1.6,17,12.41,19.33,13.88,7,4.4,15.82-.6,16.62-8.49,1-9.65-13-45-13.07-45.89-.69-8.75-1.18-17.55.36-26.24,1.73-9.8,7.19-18.1,13.16-25.86,12.81-16.63,29.17-30.2,44.27-44.65,16.73-16,30.52-34.18,45.27-52,13.82-16.65,30-30.75,45.35-45.86,7.42-7.28,30.08-39.73,29.35-39.31"/><path class="cls-2" d="M296.37,563.19c-7-8.68-12.75-17.92-18.72-27.33A177.26,177.26,0,0,1,265,512.23c-3-6.82-12.27-19.85-12.2-19.11a120,120,0,0,0,19.57,54.38,91,91,0,0,0,11.05,13c-12.47-8.94-41.53-22.05-41.64-21.66-4.88,17.68,18.21,24.11,30.5,28.78A63.42,63.42,0,0,1,289.93,578c2,1.62,7,5.64,9.8,9.72-2.16.36-6.93.4-6.78.92,1.93,6.94,15.74,21.44,22.81,23.69.35.12-5-12.51-5.55-15.58,8.71-7.06-9.36-28-13.84-33.53"/><path class="cls-2" d="M290.13,513.38c-5.87-28.83-6.69-59-6.69-88.38,0-.78-7.25,31.26-8.86,47.12A108.63,108.63,0,0,0,277,508.2a137.06,137.06,0,0,0,10.81,30.88c3.29,6.44,8.25,14.49,15.72,16.52.23,3,.6,6,2.45,8.59.26.36,5.59-6,4.6-9.43-1-3.29-18.27-30.58-20.48-41.38"/><path class="cls-2" d="M313.34,414.18c-2.58,9.43-8.42,17.51-11.44,26.78s-3.79,19.84-3.84,29.57c-.13,21.84,16,68.08,16.55,68.2a7.25,7.25,0,0,0,4.81-6.06c1.55-10.89.37-31.28,0-34.7-.33-3-.73-6.06-.92-9.1-.51-7.93,1.56-16.07,2.37-23.93.84-8.12-.43-15.56-2-23.51-1.8-9-5.33-28-5.53-27.25"/><path class="cls-2" d="M328.9,443.63c-.32-.75-9.11,41.19,1.21,58.7a18.29,18.29,0,0,1,2.51-.37c9-18,4.06-40.29-3.72-58.33"/><path class="cls-2" d="M400.57,401.45c-9.56,8.38-22,12-32.58,18.76-8.66,5.5-13.7,13.43-17.49,22.72-4.73,11.58-11.51,33.9-.13,43.62a22.22,22.22,0,0,0,3.17-.05c11.39-6.8,17.3-21,21.84-32.77,6.91-17.91,25.82-52.83,25.19-52.28"/><path class="cls-5" d="M408.44,422.69c-7.82,11.75-15.82,23.4-26.23,33q-11.76,10.78-24.3,20.66c-6.89,5.44-14.39,10.22-20.73,16.32-11.29,10.87-19.54,25.08-25.43,39.48-5.73,14-9.41,29.64-7.73,44.84.29,2.62,11.61,48.79,22.69,49,.31,0-15.22-80.37-.68-108,9.21-17.51,27.06-28,42.13-39.81,14.74-11.6,93.49-97.65,95.74-100.82.51-.72-52,39.82-55.46,45.35"/><polygon class="cls-6" points="161.14 465.61 0 252.75 14.7 241.62 163.44 438.1 371.98 241.5 384.63 254.92 161.14 465.61"/><path class="cls-2" d="M84.47,445.26c8-3.64,13.56-9.9,18.48-16.8.88-.67,63.86-72.77,70.65-80.87,7.23-8.62,3.25-8.82,2.63-8.62-6.19,2-76.8,84.1-77.91,86a85.44,85.44,0,0,1-10.27,5.77C83.43,433,78.5,434.56,74,437c-8.59,4.51-14.84,12.17-20.84,19.58-.5.62,21.32-6.7,31.35-11.27"/><path class="cls-2" d="M108,512c-.08.69,11.72-7,12.31-8.58.83-2.2,15.31-30.12,14.3-34.7,6.46-12.64,31.51-65,33.19-70.16.39-.3,4.75-3.41,4.8-5.48,2.76-1.66,43.72-23.74,43.89-23.8a7.91,7.91,0,0,1-2.17-5.4A239.94,239.94,0,0,0,171,390.09c-2.16-1.27-5.95-.59-7.63.93-2,1.84-2.2,5.73-.29,7.51-12,21.33-24.66,42.62-33.38,65.52-2.32,1-13.86,16.41-15,18.07-5.5,8.33-5.59,20.27-6.76,29.88"/><path class="cls-7" d="M137.81,349a89.54,89.54,0,0,0,10,1.86c1.59-.31-16.24,5.22-15.86,5.84,2.08,3.38,8,4.58,11.76,4.36,3.26-.2,7.53-5.06,7.53-5.06,1.56-1.48,25.8-31.7,25.14-31.78a78.56,78.56,0,0,0-23.85,1.07c-4.78.87-9.07.83-12.79-2.62a21.53,21.53,0,0,1-5.29-9c-4.74-14.31,6.72-44,6.1-43.5A38.83,38.83,0,0,0,135,325.8c-18.77-11.06-23.7-56-24.11-55.16-16.28,35.53,18.25,75.62,27,78.38"/><path class="cls-4" d="M197.53,364.28s.85-.58,1.48-1.09c0,.32,7.34,4.38,10,4,2.41-.32,15.83-8.07,15.54-9.32-.42-1.86-8.41-7.79-12.48-7.46-2.78.22-20.53,8.83-23.78,11.68-.58.51,8.66,2.35,9.26,2.18"/><path class="cls-4" d="M148.1,369.2c2.1-.9,4.22-2.07,6.58-2,2.11.05,4.1,1.06,6.24,1,6.71-.31,56.18-49.38,55.61-49.59-5.83-2.1-31.94-10.14-34.25-10.07-4.25.14-16.24,15.26-17.55,20a.76.76,0,0,0,.13.64,18.34,18.34,0,0,0-7.42,7c-2.51,4.38-2.35,10.72-6.89,13.68-.6.39,2.82,1.3,2.82,1.3l-5.59,7.21c-.36.46,2.69,1.14,2.69,1.14A35.69,35.69,0,0,0,139.56,369c-.34.44,5.82,1.33,8.54.17"/><path class="cls-7" d="M156.75,378.75c.19.35,3-1.35,3.46-2.55,3.46,3.61-.06,13-.82,17-.13.67,16.57-16.18,25.42-23.38a151.24,151.24,0,0,1,14.72-10.69,26.75,26.75,0,0,1,18.27-4.39c-3.63,4.91-12.71,14.07-12.43,14.33,4.88,4.54,11.74,2.57,17.29.43C231.71,366,313.35,353,313.53,353a38.08,38.08,0,0,0,13,5.05c20.43,2.87,58.18-17.49,65.61-27.47,4.91-6.59,5-13.34,3.05-21.36-.75-3.17-4.43-10.58-3.05-13.73,1.1-2.52,33-12.14,43-13.34,7-.85,31.71-3.78,31.33-4-13.1-8.08-28.58-18.71-44.26-18.33-23.94.6-44.89,20.13-50.6,28.34-6.1,8.78,3.71,19.15.72,28.71-3.06,9.81-17.83,16.66-27.7,18.11a37.25,37.25,0,0,1-14.58-.87l-.11-.09c-.15-.16-8.26-8.58-11.77-12.11C312.24,316,306,310.3,298.81,306.1c-6.85-4-15.05-7.15-23.07-5.57-5.59,1.11-10.45,4.17-14.9,7.71-7.26.24-53.4,4.65-57.3,6.57s-6.87,5.15-9.88,8.12c-3.63,3.58-7.25,7.19-10.67,11-6.83,7.57-22.32,32.09-25.17,36.08-1.91,2.69-2.65,5.76-1.07,8.76"/><path class="cls-2" d="M447.91,280.22a79.94,79.94,0,0,1-8.42,1.41c-1,.1,59.47-1,58.63-1.16C486.44,278.29,419.56,268,419.56,268c-.86-.08,24,7.8,28.35,12.19"/><path class="cls-7" d="M178.27,304.89a12.44,12.44,0,0,0,.51,7.42c.13,1,6.81,5.65,8.32,6,5.5,1.37,20.7,1,22.81,1,5.25,0,9.57-1.91,14.26-4,12.29-5.48,25.7-3.69,38.75-3.82,8.65-.08,20.17-.74,25.39-8.91,2.25-3.54,6.46-42.2,20.67-48.68,4.86-2.22,10-3.6,13.47-8a17,17,0,0,0,2.82-5.45c7.91-3.46,14.33-11.22,18.74-18.58,6-10.09,16.79-35,17.4-36.45,2.21-5.33,4-13.4-2.3-16.88a6.07,6.07,0,0,0-8.53,2.94,10.07,10.07,0,0,0-2.48-4.24c-3.31-3-11.56-4.35-12.49.28-2.51-4.57-6.62-10-11.44-9.68-3.67.21-5.54,2.73-6.46,5.8-.45-1.23-3.43-7.06-9.81-7.51-2.87.35-6.19.78-7.82,3.36-.19.31-.35.64-.51,1-1.57-3.76-5.26-14.66-14.29-13-1.25.22-5.82,4.14-5.36,6.53h0c-8.36-6.53-19.29,6.52-20.11,9a12.34,12.34,0,0,0-.61,4.89c-.06,0-6-4-9.34-2.62-1.93.78-7.87,7.7-8.38,9.26a8,8,0,0,0-.4,2.69,6.08,6.08,0,0,0-1.92,1.13A35.89,35.89,0,0,0,234,184a6.47,6.47,0,0,0-1.21,3c-1,0-9.56,3.24-10,4.7-1.53,4.57-.26,5.26.84,8.26-1.2-.71-10.42,1.48-11.61,2.8-1.78,2,1,7.5,1.33,7.89a50.69,50.69,0,0,0-5.38-.68c-3.74-.26-7.09-.33-9.31,3-3,4.56-2.64,9.85-.61,14.57a6.65,6.65,0,0,0-2.11,7.73,4.85,4.85,0,0,0-4.22,2c-1.64,2.1-1.43,4.9-1,7.42a6.34,6.34,0,0,0-5.85,3.76c-1.86,3.66-.23,7.75,1.38,11.23a6.56,6.56,0,0,0-4,3.59c-.79,1.79-.49,3.37-1.41,5.07-1.83,3.39-2,7,.32,10-2.78,2.1-3.74,5.3-4.06,8.78-.35,3.81-.46,8.13,1.79,11.36-2.34,1.69-1.88,4.15-.54,6.31"/><path class="cls-4" d="M430,275.12c1.93,2.06,6.37,2.51,7.48-.71.38-1.12-2.63-7.91-8.74-8.13-3.66-.13-.17,7.3,1.26,8.84"/><path class="cls-2" d="M429.09,269.82a2.07,2.07,0,0,1,1.47-1.67,1.77,1.77,0,0,1,1.55.23,1.41,1.41,0,0,1,.31.14,5.91,5.91,0,0,1,2.38,3.28,1.8,1.8,0,0,1-1.09,2.37,2.69,2.69,0,0,1-2.27-.57c-1.13-.82-2.56-2.26-2.35-3.78"/><rect class="cls-8" x="227.51" y="-17.43" width="11.52" height="91.24" transform="translate(90.22 214.59) rotate(-59.39)"/><path class="cls-9" d="M329.19,61.16A20.15,20.15,0,1,1,309,41a20.16,20.16,0,0,1,20.15,20.15"/><path class="cls-1" d="M158.71,122.14a26.2,26.2,0,1,1-26.2-26.2,26.2,26.2,0,0,1,26.2,26.2"/><polygon class="cls-3" points="73.32 49.82 83.11 41.19 90.02 49.82 73.32 49.82"/><polygon class="cls-7" points="355.63 12.04 342.39 21.82 358.51 21.82 355.63 12.04"/></g></g></svg>