<?xml version="1.0" encoding="utf-8"?>
<!-- Generator: Adobe Illustrator 16.0.0, SVG Export Plug-In . SVG Version: 6.00 Build 0)  -->
<!DOCTYPE svg PUBLIC "-//W3C//DTD SVG 1.1//EN" "http://www.w3.org/Graphics/SVG/1.1/DTD/svg11.dtd">
<svg version="1.1" id="Layer_1" xmlns="http://www.w3.org/2000/svg" xmlns:xlink="http://www.w3.org/1999/xlink" x="0px" y="0px"
	 width="1600px" height="600px" viewBox="0 0 1600 600" enable-background="new 0 0 1600 600" xml:space="preserve">
<g>
	<path fill="#E4D91B" d="M1308.323,524.794c-6.271-4.651-15.255-6.428-22.975-7.021c-20.488-1.577-40.137,3.372-58.762,12.02
		c-4.018,1.866-14.629,6.031-15.592,11.285c-1.027,5.601,54.985,13.614,75.426,9.715c4.844-0.923,29.441-3.369,27.6-11.514
		C1314.021,539.278,1310.261,526.227,1308.323,524.794z"/>
	<g>
		<path fill="#443880" d="M1192.883,176.05c-8.485-5.596-8.745-11.952-8.006-20.864c0.735-8.822,2.925-17.571,5.011-26.188
			c3.165-13.077,11.859-27.932,3.361-40.577c-1.157-1.722-2.878-3.148-4.439-4.541c-3.793-3.39-4.526-7.682-5.572-12.244
			c-0.369-1.6-0.712-3.198-1.061-4.797c0.996-7.557,1.782-15.136,1.907-22.752c0.116-7.388-0.055-16.47-5-22.704
			c-3.703-4.669-11.851-5.47-16.891-2.078c-3.177,2.136-4.28,6.714-5.203,9.983c-1.933,6.845-2.681,13.994-3.795,20.974
			c-2.778,17.371-14.7,31.945-23.064,47.504c-9.741,18.128-20.19,36.666-26.986,55.94c-2.959,8.384-4.771,17.365-4.201,26.19
			c0.511,7.911,3.937,15.381,7.006,22.674c8.544,20.281,7.858,42.344,8.343,63.786c0.486,21.542,3.419,41.883,9.102,62.77
			c9.649,35.446,22.674,72.972,48.479,101.465c1.081,1.194,2.871-0.117,2.599-1.391c-4.062-18.809-4.363-38.298-4.93-57.438
			c-0.571-19.258-0.272-38.531,0.94-57.761c1.201-19.097,3.572-38.125,7.26-56.951c3.455-17.64,7.333-37.278,16.263-53.34
			C1199.081,194.579,1203.66,183.162,1192.883,176.05z"/>
		<g>
			<path fill="#1AB687" d="M1123.973,170.882c7.186,4.033,15.628,3.328,22.609-0.716c5.495-3.183,4.919-11.56-1.856-13.079
				c-4.234-0.955-8.582-1.618-12.945-1.692c-1.108-0.016-6.771,0.407-9.075,3.157
				C1119.605,162.257,1120.237,168.791,1123.973,170.882z"/>
			<path fill="#1AB687" d="M1153.935,116.098c1.884-4.818,0.634-9.97-3.313-13.849c-2.103-2.068-7.844-0.22-8.966,3.747
				c-0.969,3.418,2.532,8.802,2.558,10.027c0.048,1.955,1.473,3.365,3.192,3.948c-1.083,2.075-1.002,4.599,0.202,6.823
				c0.141,0.261,4.136,7.841,8.264,7.841c4.066,0,7.997-3.259,7.773-7.158c-0.17-2.915-1.222-5.325-2.616-7.908
				C1159.716,117.141,1156.771,115.975,1153.935,116.098z"/>
			<path fill="#1AB687" d="M1156.203,93.312c3.015,1.839,7.181,1.576,9.829-0.864c2.979-2.746,3.012-7.379,0-10.124
				c-1.999-1.823-4.213-2.785-7.051-2.812c-4.237-0.044-7.771,3.287-7.771,7.157C1151.21,89.697,1153.312,92.263,1156.203,93.312z"
				/>
			<path fill="#1AB687" d="M1150.932,211.705c0.772-3.832-1.089-7.705-5.43-8.804c-0.932-0.237-1.932-0.286-2.926-0.169
				c-2.248-0.2-4.569,0.421-6.188,2.011c-4.258,4.177-6.761,10.091-6.938,15.801c-0.197,6.252,8.611,9.466,13.268,5.062
				C1146.778,221.765,1149.863,217.019,1150.932,211.705z"/>
			<path fill="#1AB687" d="M1143.718,291.889c1.767,4.887,8.799,7.294,12.987,3.156c3.749-3.708,5.315-8.562,4.276-13.541
				c-1.019-4.879-5.455-9.063-10.816-9.881c-4.585-0.696-10.264,1.858-9.837,6.906
				C1140.454,279.984,1142.631,288.887,1143.718,291.889z"/>
			<path fill="#1AB687" d="M1159.052,316.857c0.705-3.038,0.617-6.982-1.131-9.727c-1.179-1.852-3.497-3.493-5.795-3.925
				c-1.725-0.33-2.687-0.253-4.409,0.045c-0.72,0.246-1.426,0.523-2.115,0.84c-0.075,0.038-0.117,0.07-0.179,0.1
				c-1.621,0.577-6.559,5.113-7.147,6.797c-1.242,3.54-1.856,7.316-0.776,10.965c1.198,4.057,5.392,5.638,9.559,5.002
				C1152.769,326.081,1157.821,322.17,1159.052,316.857z"/>
			<path fill="#1AB687" d="M1156.012,182.579c-1.528-3.308-6.238-2.234-8.052,0c-3.75,4.622-4.588,10.726-2.802,16.194
				c1.071,3.285,5.123,3.96,7.794,1.896c1.523-1.177,2.787-2.667,3.134-4.513C1156.243,195.335,1157.841,186.525,1156.012,182.579z"
				/>
			<path fill="#1AB687" d="M1174.715,159.865c4.427-3.47,3.643-18.199,3.697-19.503c0.175-4.123-5.03-5.18-7.961-3.037
				c-6.645,4.855-6.455,13.995-3.531,20.645C1168.278,161.058,1171.856,162.108,1174.715,159.865z"/>
			<path fill="#1AB687" d="M1132.417,143.96c1.952,3.462,7.366,2.33,8.522-1.025c0.829-2.404,1.08-4.649-0.016-7.006
				c-0.651-1.405-2.026-2.349-3.214-3.365c-0.635-1.687-2.303-2.94-4.376-2.94c-2.52,0-4.692,1.951-4.663,4.296
				C1128.701,136.258,1131.731,142.751,1132.417,143.96z"/>
			<path fill="#1AB687" d="M1123.041,199.954c2.1,1.549,5.988,1.896,7.324-0.871c1.352-2.793,2.92-13.804,2.969-16.484
				c0.074-3.987-5.011-5.36-7.959-3.037C1119.314,184.335,1115.876,194.664,1123.041,199.954z"/>
			<path fill="#1AB687" d="M1179.801,199.356c-0.841-2.453-4.292-4.24-6.851-2.569c-3.694,2.417-6.423,5.946-6.813,10.196
				c-0.404,4.425,2.663,7.894,7.15,9.109c2.586,0.701,7.075-4.896,7.29-5.866C1181.391,206.582,1181.011,202.897,1179.801,199.356z"
				/>
			<path fill="#1AB687" d="M1152.691,233.684c-3.963-0.462-6.044,4.467-6.755,7.192c-0.947,3.63,0.088,7.284,2.023,10.469
				c1.774,2.919,6.214,2.642,8.052,0c2.132-3.062,2.912-6.44,2.97-10.042C1159.007,239.904,1155.42,234.007,1152.691,233.684z"/>
			<path fill="#1AB687" d="M1123.867,234.125c-1.158,2.213-2.248,4.571-1.997,7.087c0.242,2.425,1.439,4.495,2.776,6.551
				c1.888,2.915,6.098,2.627,8.05,0c2.532-3.399,2.122-12.432-1.15-14.108C1129.019,232.36,1124.795,232.355,1123.867,234.125z"/>
			<path fill="#1AB687" d="M1119.983,260.611c-3.532,5.114-4.811,10.993-1.556,16.505c1.572,2.665,6.564,2.937,8.05,0
				c1.396-2.753,2.415-5.815,3.098-8.776c0.155-0.684,1.656-6.026,0.012-7.952C1127.282,257.685,1121.412,258.54,1119.983,260.611z"
				/>
			<path fill="#1AB687" d="M1120.143,216.116c-1.256-0.675-4.885-0.587-5.46-0.587c-1.702,0-3.323,0.951-4.131,2.309
				c0.683,2.332,2.424,11.141,2.247,12.748c1.789,0.196,4.086-1.402,5.131-2.867c1.348-1.882,2.543-3.845,3.886-5.727
				C1123.22,220.036,1122.249,217.253,1120.143,216.116z"/>
			<path fill="#1AB687" d="M1160.536,355.128c-0.156-1.278-2.029-5.686-2.499-6.868c-0.566-1.443-1.589-2.577-3.257-3.002
				c-1.857-0.468-4.414,0.246-5.264,1.977c-1.464,2.963-1.294,11.625-0.487,12.538c0.008,0.023,0.009,0.053,0.018,0.074
				c0.401,1.858,2.531,3.155,4.495,3.155h3.106c2.419,0,4.829-1.956,4.664-4.293
				C1161.258,357.916,1160.412,354.118,1160.536,355.128z"/>
		</g>
	</g>
	<g>
		<path fill="#1AB687" d="M199.788,286.429c7.735-7.555,14.167-16.914,23.4-22.771c1.553,4.723,0.656,10.223-0.078,14.986
			c-1.137,7.357-3.027,14.597-4.558,21.878c-1.619,7.714-5.732,22.035,2.037,27.857c3.188,2.39,8.425,1.667,11.894,0.498
			c6.728-2.258,11.5-7.616,15.576-13.192c5.419-7.406,9.468-15.795,13.729-23.886c3.032-5.757,6.101-11.98,10.36-17.039
			c-10.936,46.696-37.309,97.733-2.359,140.628c0.542,0.667,21.943-18.542,34.505-24.526c11.095-5.285,22.778-9.229,33.974-14.298
			c24.278-10.992,55.231-54.67,54.722-54.978c-29.344-17.903-58.901-42.747-75.912-73.217c11.595,4.57,20.319,25.786,35.295,32.45
			c25.38,11.292,55.919,7.833,55.816,7.318c-4.796-24.537-10.475-58.34-35.022-71.143c-13.293-6.934-27.18,0.52-41.034-2.331
			c-14.878-3.062-28.821-15.231-39.134-26.375c11.027,1.375,22.045,1.106,33.144,0.387c11.597-0.752,23.459-2.217,35.038-0.592
			c15.256,2.142,36.6,10.865,48.794-3.049c0.435-0.493,0.58-1.151,0.109-1.694c-16.06-18.475-28.624-39.614-42.547-59.668
			c-12.707-18.306-27.586-38.344-47.615-49.177c-15.397-8.331-33.605-10.693-49.567-2.643c-8.407,4.242-14.787,11.13-19.168,19.36
			c-2.276,4.275-4.032,8.775-5.952,13.176c-4.404,2.061-16.188,4.568-16.188,4.568c-0.026,0.374-19.483,5.112-28.8,7.024
			c-11.051,2.266-22.048,4.97-32.383,9.568c-10.235,4.56-19.051,12.051-26.914,19.908c-8.591,8.582-18.491,21.897-11.796,34.35
			c5.942,11.046,29.839,15.469,42.624,17.992c-5.064-0.114-19.299-0.62-24.444-0.321c-6.072,0.353-9.496,4.037-10.923,9.755
			c-4.81,19.287,8.261,37.177,17.729,52.614c4.949,8.076,6.947,17.017,10.554,25.684c2.622,6.298,6.875,11.214,13.986,11.67
			C187.106,297.744,194.173,291.914,199.788,286.429z"/>
		<path fill="#F83C2D" d="M305.474,301.67c1.117-6.38-0.729-28.388-12.12-54.079c5.935,7.054,37.263,51.12,37.064,50.292
			c-2.864-12.083-50.55-87.626-52.227-91.186c0.656,0.254,31.848,20.625,37.731,24.67c9.914,6.817,66.857,38.286,65.722,37.306
			c-11.076-9.524-84.381-64.217-93.134-67.124c-4.221-1.4-8.465-2.728-12.763-3.878c-5.551-9.555-11.722-18.805-18.21-27.712
			c10.088,1.258,22.637-5.307,31.196-7.5c18.523-4.747,66.195,10.699,64.771,10.125c-2.51-1.02-36.308-18.692-52.287-22.404
			c-17.656-4.096-52.783,7.681-54.773,5.168c-4.598-5.806-9.076-11.905-12.573-18.476c12.728-13.841,40.712-29.467,98.919,4.372
			c0.897,0.521,1.942-0.812,1.458-1.663c-11.048-19.43-34.888-36.057-58.101-30.136c-9.903,2.53-19.951,4.102-29.64,7.489
			c-5.985,2.095-13.98,5.674-16.162,12.078c-0.758-2.051-4.128-18.594-7.983-22.95c-3.564-4.021-7.771,1.339-9.133,4.515
			c-2.664,6.21,8.62,17.91,8.477,18.18c-0.464,0.877-16.613,10.143-20.862,12.306c-7.076,3.596-35.858,25.41-43.106,32.279
			c-0.94,0.887,57.107-36.645,66.479-42.213c0.214,0.391-41.614,72.866-40.972,71.96c15.24-21.468,29.552-43.623,45.552-64.548
			c0.912,1.37,18.543,36.671,21.228,43.351c4.596,11.442,6.813,24.782,8.511,36.968c1.291,9.244,1.739,21.213,8.453,28.448
			c0.667,0.713-0.864-37.818-4.173-49.618c3.071,2.312,40.802,91.144,40.063,95.91c-2.452,15.831-7.605,31.587-7.121,47.738
			C295.804,342.859,303.171,314.849,305.474,301.67z"/>
	</g>
	<g>
		<path fill="#F83C2D" d="M1204.404,128.128c8.892-2.921,18.253-4.711,27.54-2.693c4.058,0.879,7.735,2.408,10.799,5.253
			c2.284,2.122,3.973,4.829,5.898,7.259c1.917,2.421,4.184,4.428,6.796,6.066c3.162,1.982,6.866,2.523,10.369,3.613
			c3.947,1.229,7.543,4.732,9.75,8.107c2.399,3.666,4.63,6.549,7.994,9.413c14.555,12.396,31.407,21.925,47.9,31.457
			c15.187,8.773,30.688,18.322,47.527,23.583c9.072,2.833,18.142,3.019,27.478,4.067c7.598,0.854,15.219,2.212,22.865,1.099
			c7.188-1.048,13.319-5.741,15.475-12.783c0.921-3.007,1.04-6.221,1.291-9.385c8.518,2.43,18.977-0.149,25.855-5.079
			c6.164-4.417,10.137-10.568,11.938-17.883c1.761-7.155,2.265-15.302,1.725-22.63c-0.301-4.083-1.563-7.758-4.485-10.685
			c-3.562-3.569-7.972-6.228-11.6-9.762c-10.836-10.558-10.293-26.64-18.988-38.472c-4.624-6.292-11.773-10.96-18.396-14.885
			c-7.82-4.632-16.219-8.264-24.655-11.609c-7.621-3.019-15.427-5.542-23.026-8.61c-6.685-2.699-13.261-5.656-20.06-8.06
			c-12.608-4.457-26.047-6.127-38.163,0.63c-3.098,1.723-5.81,3.767-8.247,6.333c-3.232,3.403-6.758,5.218-11.396,5.993
			c-4.287,0.715-8.69,0.579-13.005,1.042c-4.559,0.487-9.12,1.56-13.57,2.628c-15.558,3.738-29.035,11.196-41.767,20.733
			c-13.012,9.75-24.714,21.375-34.577,34.292C1203.318,127.617,1203.893,128.296,1204.404,128.128z"/>
		<path fill="#443880" d="M1302.343,119.83c3.116,1.819,6.143,3.786,9.549,5.028c3.221,1.174,6.688,1.328,10.091,1.145
			c-6.595,3.918-15.274,3.732-22.648,4.324c-6.998,0.565-20.058,8.1-19.47,7.988c8.508-1.603,17.197,0.371,25.781-0.128
			c8.084-0.469,15.639-3.926,23.695-4.588c4.837-0.398,9.869,0.526,14.667,1.73c0.226,0.204,0.459,0.397,0.682,0.603
			c0.341,0.312,0.784,0.125,0.948-0.184c0.874,0.232,1.742,0.469,2.595,0.706c6,1.661,12.181,3.774,17.511,7.08
			c-9.805,7.801-21.951,5.378-33.636,5.894c-6.771,0.299-13.214,2.846-19.829,4.092c-3.445,0.646-20.756,1.524-20.092,1.554
			c16.104,0.739,31.418,6.379,47.37,8.191c7.266,0.825,13.787,0.413,20.634-2.197c6.212-2.371,12.363-5.902,19.218-5.563
			c5.423,0.269,11.361,2.802,16.252,4.946c2.318,1.018,4.7,2.199,6.572,3.933c1.352,1.249-8.587,5.063-9.76,5.445
			c-3.115,1.016-6.188,2.011-9.179,3.363c-3.302,1.495-6.335,3.533-9.544,5.207c-7.523,3.925-16.317,3.126-24.551,3.123
			c-7.33-0.005-22.339,2.862-21.78,3c9.416,2.288,18.408,6.419,28.124,7.403c4.429,0.449,8.932-0.404,13.269-1.205
			c4.952-0.911,9.757-1.536,14.795-1.429c7.615,0.162,14.336-0.002,20.983-4.177c3.229-2.029,6.208-4.45,9.646-6.131
			c3.823-1.87,7.53-1.225,11.036,0.746c-7.172,3.724-11.619,10.613-18.356,14.915c-6.064,3.872-17.673,12.694-17.322,12.754
			c5.991,1.05,12.019-1.268,17.3-3.954c1.864-0.562,3.745-1.076,5.571-1.753c2.608-0.965,4.74-2.47,6.836-4.26
			c3.93-3.361,6.831-11.051,12.861-10.714c-2.212,10.603-16.929,14.042-16.771,26.02c0.007,0.396,8.563-6.1,12.418-9.368
			c3.636-3.086,9.152-8.257,14.274-5.951c5.669,2.554,12.662,12.053,18.208,4.138c0.149-0.21-20.224-8.811-23.088-12.897
			c-1.483-2.119,0.601-3.392,2.275-4.354c2.681-1.535,5.447-2.766,8.021-4.497c11.997-8.068,21.448-19.847,23.336-34.489
			c0.066-0.524-22.351,23.784-33.768,35.199c4.071-8.971,10.921-16.324,15.823-24.841c4.373-7.596,5.813-15.667,4.287-24.257
			c-2.894-16.287-12.813-31.555-22.521-44.608c-0.385-0.515,3.446,17.624,5.567,26.249c2.265,9.208,4.421,19.114,2.896,28.612
			c-2.069,12.912-17.161,24.875-12.188,38.681c-4.217-2.501-7.953-5.692-10.035-10.253c-1.981-4.337-1.663-9.341-0.796-13.903
			c1.768-9.313,5.928-17.997,6.975-27.481c1.311-11.872-3.441-24.349-9.188-34.497c-5.877-10.378-14.8-20.632-26.615-24.083
			c-0.522-0.152,8.067,14.381,11.678,21.61c3.798,7.602,5.337,16.013,6.25,24.386c0.923,8.438,1.243,16.803,2.761,25.186
			c0.64,3.548,1.378,6.991,2.564,10.397c1.131,3.247,2.335,6.454,2.997,9.837c0.367,1.865,0.405,3.762,0.103,5.636
			c-0.146,0.915-0.486,1.794-0.863,2.632c-0.261,0.578-1.074-0.162-1.439-0.339c-1.933-0.942-4.919-33.091-6.917-41.328
			c-0.92-3.787-3.197-6.908-6.654-8.736c-0.414-0.221-3.147,18.391-0.31,26.899c1.231,3.69,7.528,18.822,7.452,19.305
			c-2.957-1.079-5.475-4.829-7.272-7.084c-3.129-3.923-5.925-8.143-8.486-12.455c-2.23-3.761-3.725-7.372-3.74-11.839
			c-0.014-4.681,1.578-9.172,2.162-13.78c0.528-4.18,0.105-8.095-2.016-11.792c-1.606-2.803-4.166-5.06-6.454-7.285
			c-2.74-2.667-5.649-5.187-8.675-7.528c-12.736-9.854-27.308-16.689-42.831-20.859c-0.618-0.169,11.474,8.647,16.622,13.382
			c5.601,5.152,10.805,10.941,14.813,17.431c4.653,7.534,6.751,16.571,9.556,24.886c1.352,4.007,3.117,7.349,5.541,10.814
			c2.406,3.441,5.026,6.812,6.386,10.818c-5.368-0.24-10.276-2.631-14.729-5.527c-4.635-3.017-9.164-6.845-12.205-11.501
			c-5.285-8.099-6.309-18.042-12.464-25.737c-6.473-8.097-15.682-15.014-25.223-19.009c-9.371-3.922-30.478-3.31-30.078-2.944
			c9.444,8.635,21.817,13.137,31.128,21.935c6.825,6.453,11.717,14.555,17.637,21.775c-4.857-3.701-10.015-6.971-15.421-9.909
			c-6.861-3.728-14.012-6.843-20.756-10.786c-9.43-5.509-21.24-11.595-31.128-3.658
			C1270.951,105.217,1292.495,114.078,1302.343,119.83z"/>
	</g>
	<g>
		<path fill="#F83C2D" d="M695.074,428.469c-1.441-10.544,1.24-23.828,1.509-32.688c0.297-9.685-2.659-14.736-7.398-16.6
			c-0.963-17.65-1.508-37.979-11.303-43.641c0.081-11.212-0.246-22.52-3.499-33.029c-2.913-9.413-8.797-15.499-15.839-19.42
			c0.74-10.194,1.183-20.712-2.03-29.53c-2.413-6.625-5.893-12.033-10.876-16.096c-2.27-1.851-4.743-3.178-7.226-4.468
			c-1.22-5.708-2.537-11.397-4.418-16.792c-1.144-3.261-2.688-6.166-5.553-7.433c-3.006-1.33-6.963,0.443-9.848,1.374
			c-2.698,0.874-5.397,1.644-8.1,2.357c-5.731-8.452-11.776-16.118-21.478-13.47c-17.255,4.7-18.694,28.108-23.078,45.038
			c-4.65,17.964-17.344,37.262-14.497,57.041c1.961,13.603,10.365,14.59,19.398,11.704c-3.318,12.578-5.9,25.416-5.87,38.412
			c0.019,7.507,1.721,15.167,7.107,19.595c2.836,2.33,6.265,3.052,9.82,2.896c-6.693,16.147-13.568,33.643-3.724,47.844
			c7.694,11.097,21.735,15.435,34.549,14.371c-0.39,3.303-0.439,6.652,0.022,10.036c1.297,9.505,8.681,15.24,15.402,18.964
			c11.167,6.19,23.505,8.553,34.757,14.496c15.628,8.264,28.068,22.867,38.294,38.894
			C702.091,519.725,729.155,429.864,695.074,428.469z"/>
		<path fill="#443880" d="M600.062,251.038c-0.235-1.589-6.999-16.043-11.205-19.032c-4.439-3.153-11.724-2.8-13.266,3.406
			c-1.081,4.356,3.239,8.036,6.728,10.261c-0.469,0.123-1.997-0.288-2.541-0.333c-7.67-0.639-15.533,4.434-18.332,11.548
			c-3.326,8.446,6.831,14.398,13.84,14.932c3.952,0.302,9.017-2.355,13.375-6.224C595.286,262.915,601.066,257.799,600.062,251.038z
			"/>
		<path fill="#443880" d="M603.669,252.825c-6.491,5.107,2.483,12.407,8.583,12.568c5.355,0.141,17.855-2.014,17.248-9.531
			C628.905,248.512,612.891,245.565,603.669,252.825z"/>
		<path fill="#443880" d="M648.435,290.553c-2.056-7.801-13.723-8.286-20.027-8.159c-1.021,0.019-2.061,0.074-3.106,0.154
			c-0.86,0.042-1.714,0.13-2.573,0.274c-2.489,0.319-4.992,0.828-7.433,1.53c2.271-0.973,6.163-2.068,5.882-4.833
			c-1.724-16.769-22.4-5.126-22.809-4.86c-2.924-2.019-7.353-3.882-10.473-3.731c-5.392,0.26-11.768,5.952-6.669,11.47
			c4.465,4.831,13.698,4.095,19.359,2.273c0.486-0.158,1.02-0.354,1.548-0.595c3.387,1.397,7.058,1.85,10.427,1.156
			c-2.772,1-5.41,2.268-7.749,3.868c-0.66,0.452-1.231,0.916-1.737,1.386c-10.301-9.298-38.823,6.258-25.157,19.654
			c5.456,5.349,15.07,2.926,21.605-0.337c-2.021,1.249-3.657,2.781-4.355,4.387c-5.334,12.262,20.236,12.462,26.329,11.642
			c8.489-1.14,16.776-7.986,8.785-14.797c2.636-0.808,4.86-2.346,6.229-4.925C643.866,303.574,650.252,297.464,648.435,290.553z
			 M602.18,308.336c1.436-0.88,2.706-1.943,3.751-3.1c0.733,0.595,1.527,1.122,2.32,1.631c-2.12,0.131-4.512,0.807-6.692,1.831
			C601.765,308.579,601.982,308.456,602.18,308.336z"/>
		<path fill="#443880" d="M658.021,329.29c-8.141-6.118-17.938-3.573-26.491,0.247c-1.737,0.773-4.292,1.987-6.524,3.532
			c-2.45-1.072-5.672-1.204-8.944-0.722c-0.216-3.95-5.076-5.124-9.541-5.293c-7.542-0.289-12.747,6.92-16.092,12.682
			c-6.559,11.293-4.695,28.288,12.203,23.214c0.517-0.151,1.116-0.372,1.693-0.575c1.55,2.995,5.978,3.474,8.936,3.432
			c4.596-0.062,9.653-1.636,12.883-5.019c0.596-0.621,0.527-1.467,0-2.099c-0.407-0.489-0.847-0.926-1.296-1.333
			c0.425-0.176,0.79-0.503,0.931-0.938c0.631,1.712,1.839,3.181,3.715,3.966c4.352,1.821,15.381-0.342,14.261-6.753
			c-0.154-0.888-0.511-1.7-0.993-2.455c3.875,0.562,7.827,0.462,11.571-0.472c4.903-1.221,8.771-4.977,10.161-9.768
			C665.896,336.094,661.404,331.828,658.021,329.29z M626.435,349.21c-1.023,1.753-1.354,3.829-1.041,5.753
			c-0.809-1.243-1.883-2.174-3.118-2.849c1.607-1.414,3.08-2.9,4.219-4.483c0.221,0.144,0.479,0.247,0.828,0.223
			c0.031-0.003,0.068,0.002,0.102,0C627.073,348.267,626.729,348.701,626.435,349.21z"/>
		<path fill="#443880" d="M676.105,369.182c-5.078-5.216-28.192,2.806-29.404,4.497c-1.341,1.871-0.629,3.783,0.633,5.321
			c-3.973-1.253-8.187-1.039-12.248,0.066c-8.065-5.875-18.05-2.955-25.251,3.526c-5.918,5.328-10.674,17.873-2.925,23.645
			c6.848,5.099,19.233-2.102,25.027-5.653c6.822-4.181,16.36-11.28,16.927-20.043c0-0.011-0.007-0.021-0.007-0.032
			c0.203,0.165,0.407,0.33,0.605,0.47c3.88,2.78,8.562,2.303,13.029,1.688C667.5,381.978,683.567,376.845,676.105,369.182z"/>
		<path fill="#443880" d="M683.427,414.022c-0.021-0.008-0.042-0.015-0.063-0.021c6.931-3.293,11.447-10.141,7.211-19.216
			c-3.831-8.207-17.854-11.934-25.657-7.867c-7.514,3.919-6.63,7.688-7.641,11.148c-1.449-0.782-3.257-1.222-5.439-1.187
			c-0.256,0.008-9.808,0.179-14.024,3.232c-5.608,4.064-9.862,12.975-2.939,18.015c4.54,3.303,9.805,4.128,14.539,2.829
			c0.824,6.096,11.146,4.64,15.134,3.306c2.432-0.814,5.964-2.298,6.411-5.213c0.187-1.202-0.186-2.252-0.819-3.164
			c0.704,0.119,1.422,0.193,2.143,0.239c-0.976,1.886-0.593,4.284,0.262,6.18c1.297,2.874,4.206,4.904,7.21,5.602
			c4.588,1.061,11.621,0.4,12.506-3.973C694.868,411.018,684.352,414.304,683.427,414.022z"/>
		<path fill="#FFFFFF" d="M694.865,470.772c0.003,0,0.003,0,0.003,0c0-0.003-4.875-24.943-11.781-35.943
			c-1.963-3.125-12.071-18.982-15.112-23.841c-5.551-8.867-13.502-16.697-20.107-24.787c-7.465-9.145-14.646-18.622-19.834-29.273
			c-5.65-11.6-1.638-24.387-5.965-36.213c-0.86-2.349-3.123-3.961-5.061-5.366c-4.685-3.4-8.536-4.59-10.736-10.55
			c-1.972-5.35,3.734-91.983,1.467-96.208c-0.595-1.102-11.81-5.679-12.083-4.425c-3.963,18.329-4.391,54.721-1.776,73.031
			c1.515,10.599,3.629,21.366,7.757,31.289c1.935,4.66,4.919,10.346,9.984,12.169c-3.871,29.143,16.983,56.722,34.703,77.53
			C655.336,408.769,694.882,470.905,694.865,470.772z"/>
	</g>
	<g>
		<path fill="#E4D91B" d="M800.861,425.522c-5.98-2.062-12.765-1.474-17.679,2.648c-3.925,3.29-5.844,8.413-6.719,13.46
			c-0.012-0.009-0.025-0.013-0.037-0.021c-4.32-5.849-12.975-6.387-20.528-4.41c-12.615,3.3-20.943,13.238-24.564,25.467
			c-4.187,14.129-1.748,28.934,6.488,41.032c4.687,6.888,10.689,12.872,16.949,18.328c5.629,4.911,11.706,9.813,18.59,12.825
			c11.28,4.936,24.066,4.777,35.82,8.031c14.773,4.09,25.063,15.644,37.331,24.055c0.114,0.08,0.278-0.015,0.256-0.156
			c-1.529-9.849-5.045-19.14-8.022-28.606c-1.618-5.149-2.924-10.37-3.69-15.714c-0.746-5.216-0.571-10.58-0.715-15.835
			c-0.497-18.124-2.235-35.723-9.3-52.58C820.359,442.881,813.013,429.712,800.861,425.522z M803.378,531.755
			c0.028,0.068,0.011,0.144-0.047,0.191c-11.302,9.552-24.722-3.963-28.839-14.531c-2.735-7.021-2.113-15.46-0.941-22.74
			c1.154-7.167,2.928-15.002,7.374-20.916c0.056-0.077,0.194-0.098,0.256-0.009C783.782,477.576,797.376,516.687,803.378,531.755z
			 M777.028,466.529c-2.044,6.69-18.102,30.555-23.934,32.77c-0.09,0.034-0.17-0.001-0.215-0.082
			c-8.405-14.938,17.65-38.395,17.976-38.138c0.719-0.378,1.442-0.693,2.147-0.92C777.741,458.638,778.152,462.854,777.028,466.529z
			 M821.833,490.573c-4.11,8.154-17.613-4.639-20.82-7.726c-3.992-3.844-8.227-7.978-10.07-13.325
			c-1.903-5.516,0.798-10.797,4.294-14.97c0.086-0.104,0.222-0.054,0.274,0.034c2.312-4.582,22.976,15.129,25.36,21.016
			C822.779,480.313,824.269,485.742,821.833,490.573z"/>
		<path fill="#443880" d="M816.844,517.116c-5.398-7.969-12.222-14.744-17.903-22.47c-4.745-6.451-8.953-13.373-12.182-20.705
			c-2.805-6.38-2.235-21.642-2.292-21.679c-0.136-0.099-0.06-4.471-1.879-6.155c-1.866-1.727-5.043-1.809-6.725,0.168
			c-1.052,1.235-0.964,3.086-0.716,4.571c0.229,1.353,0.805,2.646,1.381,3.874c0.555,1.188,0.158,1.137-1.056,0.958
			c-1.336-0.193-19.628,3.532-23.448,10.954c-0.092,0.178,0.172,0.285,0.283,0.154c4.489-5.185,10.021-7.38,16.676-8.339
			c2.837-0.408,5.7-0.641,8.542-1.025c2.255-0.307,1.408,5.861,1.246,7.052c-1.153,8.39-7.097,15.26-7.885,23.8
			c-0.017,0.167,0.193,0.237,0.292,0.113c2.268-2.84,4.096-5.908,5.694-9.161c0.921-1.864,1.713-3.792,2.491-5.717
			c0.376-0.928,0.734-1.86,1.096-2.794c0.192-0.498,1.58,2.443,1.611,2.506c3.877,8.299,8.505,16.232,13.392,23.973
			c10.438,16.528,22.392,32.036,33.005,48.447c0.095,0.144,0.308,0.021,0.289-0.128C827.372,535.1,822.68,525.731,816.844,517.116z"
			/>
	</g>
	<g>
		<path fill="#274490" d="M1517.458,291.198c-10.821-11.096-27.544-14.152-40.226-22.521c-3.944-2.603-7.474-6.022-11.166-8.97
			c-3.337-2.664-6.755-5.217-10.314-7.576c-7.461-4.947-15.682-8.477-24.604-9.579c-0.373-0.047-0.662,0.34-0.672,0.671
			c-0.474,14.117,8.061,26.91,11.704,40.149c2.167,7.868,4.402,15.437,7.608,22.971c3.437,8.073,7.359,15.931,10.636,24.074
			c4.223,10.497,6.451,22.993,13.694,31.94c3.311,4.084,8.23,6.022,13.415,5.193c5.015-0.802,9.274-3.919,13.842-6.173
			c17.894-2.845,26.118-24.609,26.243-41.713C1527.692,309.233,1524.872,298.8,1517.458,291.198z M1483.929,327.527
			c-7.535-0.163-14.944-4.382-20.761-8.849c-5.327-4.09-10.985-10.175-10.814-17.35c0.01-0.288,0.199-0.583,0.495-0.648
			c6.853-1.522,29.119,18.279,31.725,25.996C1484.714,327.089,1484.347,327.537,1483.929,327.527z M1507.112,322.998
			c-0.59,2.012-1.883,7.444-4.906,7.365c-2.666-0.068-4.063-3.242-4.996-5.294c-3.989-8.76-5.404-18.429-7.956-27.713
			c-3.347-3.988-5.473-8.944-4.343-14.006c0.068-0.305,0.358-0.472,0.648-0.494c8.971-0.642,18.025-0.494,22.074,9.066
			C1511.608,301.308,1509.903,313.481,1507.112,322.998z"/>
		<path fill="#1AB687" d="M1502.482,352.985c-0.005-0.005-0.017-0.01-0.021-0.015c-4.021-20.796-14.804-40.174-26.339-57.621
			c-3.149-4.762-6.301-9.543-9.82-14.043c-3.526-4.509-7.587-8.463-11.325-12.778c-6.053-6.992-11.665-16.287-20.965-19.234
			c-0.565-0.179-1.06,0.493-0.76,0.986c11.886,19.542,30.26,34.106,41.898,53.821c5.863,9.931,12.604,20.798,15.318,32.101
			c2.102,8.76,1.688,19.085,6.599,26.931c0.284,0.454,0.868,0.41,1.161,0C1500.775,359.573,1505.434,356.371,1502.482,352.985z"/>
	</g>
	<g>
		<path fill="#FFFFFF" d="M672.411,71.735c-6.747-3.541-15.553-1.335-22.019,1.863c-6.823,3.375-12.27,9.61-15.418,16.453
			c-2.466,5.354-2.894,10.852-1.446,15.82c-6.715,2.584-8.367,12.521-8.175,20.553c0.36,15.196,6.653,30.228,16.591,41.629
			c5.535,6.351,12.265,11.606,18.842,16.82c8.447,6.705,16.373,12.566,26.249,17.078c10.697,4.885,21.455,9.333,31.538,15.452
			c10.445,6.346,20.201,13.75,30.712,19.996c0.602,0.358,1.412-0.078,1.407-0.791c-0.082-12.573-2.857-24.898-3.764-37.41
			c-0.997-13.818,2.836-27.077,3.47-40.785c0.501-10.904-1.964-22.58-4.994-33c-2.772-9.532-7.107-18.621-13.444-26.295
			c-6.764-8.192-16.115-13.605-26.483-15.663c-6.81-1.35-13.716-1.731-20.092-4.727C680.902,76.623,676.785,74.029,672.411,71.735z
			 M689.319,194.994c-0.017,0.971-0.912,1.64-1.746,1.435c-15.623-3.795-17.027-47.606-16.52-50.247
			C671.408,144.329,689.627,177.955,689.319,194.994z M709.872,150.313c0.061,0.057,4.945,2.025,6.815,3.4
			c6.05,4.438,10.394,10.282,13.695,16.975c0.411,0.837-0.46,1.707-1.289,1.25c-8.289-4.556-21.706-20.769-20.766-21.251
			C708.55,150.137,709.306,149.773,709.872,150.313z M726.26,138.579c0.528,0.836,0.11,2.49-0.979,2.475
			c-8.423-0.107-16.853-1.907-24.677-4.691c-6.688-2.385-14.602-5.321-18.857-12.201c-1.121-1.811-4.103-6.578-3.495-9.956
			C677.536,114.238,719.272,127.479,726.26,138.579z M698.993,102.735c-4.346,4.733-12.416,5.215-18.396,4.805
			c-5.897-0.404-12.98-1.426-17.354-5.822c-0.383-0.384-0.348-1.228,0.213-1.454c5.078-2.051,28.77-0.843,35.145,0.907
			C699.312,101.368,699.459,102.227,698.993,102.735z"/>
		<path fill="#443880" d="M633.792,93.391c0.28,4.335,2.378,7.659,5.228,10.495c-0.261-0.228-0.515-0.466-0.779-0.692
			c-0.899-0.778-2.24,0.508-1.334,1.29c9.314,8.052,18.154,16.646,26.537,25.664c8.958,9.635,16.502,20.077,23.818,30.976
			c12.739,18.965,26.584,40.418,48.611,49.396c0.755,0.311,1.466-0.703,1.059-1.347c-15.815-25.037-36.373-46.637-52.593-71.422
			c-12.762-19.505-25.417-39.059-49.368-45.249C634.419,92.359,633.753,92.77,633.792,93.391z"/>
		<path fill="#274490" d="M709.705,153.243"/>
	</g>
	<g>
		<path fill="#FFFFFF" d="M1196.999,480.867c-20.221-2.79-39.681,5.427-59.793,5.581c-12.803,0.097-23.715-5.405-34.677-11.455
			c-10.612-5.856-21.028-11.774-32.758-15.129c-21.032-6.011-89.756,12.59-96.075,22.73c-3.752,4.815-5.073,10.813-1.802,18.365
			c1.016,2.342,2.591,4.438,4.516,6.145c-5.313,4.078-2.919,11.341-0.076,16.636c5.939,11.059,15.613,20.34,24.765,28.729
			c9.867,9.048,20.499,17.478,31.869,24.563c3.742,2.333,7.648,4.579,11.82,6.063c6.76,2.403,15.135,1.029,21.885-0.739
			c11.398-2.991,21.462-9.862,30.937-16.61c11.169-7.953,22.377-15.693,33.971-23.023c11.308-7.155,21.859-14.907,30.715-25.027
			c5.568-6.364,10.522-13.015,16.55-18.999c5.981-5.935,12.276-11.531,18.253-17.466
			C1197.204,481.127,1197.168,480.89,1196.999,480.867z M1024.778,548.983c0.129,0.155-0.053,0.364-0.22,0.336
			c-7.576-1.177-15.195-5.862-21.425-10.075c-5.482-3.711-13.287-8.716-13.129-16.162
			C990.124,517.758,1019.557,542.782,1024.778,548.983z M1048.734,550.711c0.063,0.129,0.005,0.275-0.133,0.318
			c-2.29,0.734-4.972-0.423-7.025-1.383c-4.056-1.896-7.86-4.347-11.429-7.044c-3.739-2.821-14.652-21.525-14.323-21.674
			c1.095-1.083,3.029-1.089,5.694,0.205c2.716,1.315,15.687,9.547,18.947,12.816C1043.696,537.189,1047.61,548.39,1048.734,550.711z
			 M1007.487,492.381c-4.211,3.412-9.505,6.97-15.172,6.645c-7.645-0.437-2.233-19.666,1.48-21.439
			c9.991-4.763,20.808-0.96,31.206-3.806c0.217-0.062,0.353,0.223,0.202,0.369C1019.129,480.021,1014.066,487.048,1007.487,492.381z
			 M1042.512,503.374c-0.524-1.091,0.753-12.813,1.384-14.494c0.964-6.221,3.257-11.845,11.011-12.595
			c11.833-1.141,23.48,4.963,35.267,2.682c0.208-0.042,0.367,0.203,0.208,0.364c-7.131,7.255-13.207,15.569-22.8,19.672
			c-8.035,3.437-17.094-0.444-24.771,4.452C1042.715,503.515,1042.562,503.477,1042.512,503.374z M1128.684,530.292
			c-11.165,3.631-23.18,10.243-35.193,6.365c-2.239-0.726-4.677-1.504-6.595-2.916c-1.81-1.331-3.309-3.05-5.225-3.949
			c-1.039,0.011-2.076-0.023-3.104-0.173c-2.984-0.438-9.007-6.715-9.399-8.065c-0.029-0.087,0.021-0.172,0.103-0.199
			c9.836-3.368,19.574-4.628,29.804-2.173c10.295,2.475,18.916,9.63,29.599,10.801
			C1128.843,530.001,1128.826,530.245,1128.684,530.292z M1123.534,492.927c-0.1,4.378-10.089,7.442-13.173,8.442
			c-5.971,1.942-14.715,4.319-20.413,0.397c-0.097-0.069-0.144-0.188-0.081-0.299
			C1093.44,494.965,1123.634,488.555,1123.534,492.927z"/>
		<path fill="#1AB687" d="M1179.558,498.179c-17.376,9.434-124.633,9.445-130.146,9.269c-0.156-0.008-13.593,1.452-20.898,1.485
			c-9.073,0.041-18.677,1.091-27.561-1.202c-0.588-0.148,11.977-14.002,14.693-17.852c0.14-0.2-0.188-0.454-0.346-0.263
			c-3.222,3.924-17.367,13.716-21.243,13.229c-2.433-0.911-4.869-1.776-7.399-2.365c-3.46-0.807-7.327-0.781-9.462,2.441
			c-5.305,8.027,13.154,11.248,17.303,12.169c5.358,1.191,31.34,3.604,39.074,3.156c4.85-0.279,9.564-0.056,14.328,0.957
			c3.863,0.82,7.335,3.376,10.473,5.643c5.216,3.765,10.703,8.877,17.591,8.336c0.191-0.013,0.285-0.223,0.155-0.37
			c-6.802-7.563-15.635-12.844-22.605-20.23c-0.521-0.553,79.517,6.186,91.877,4.013c13.162-2.317,24.938-8.731,34.427-18.073
			C1179.996,498.349,1179.772,498.061,1179.558,498.179z"/>
	</g>
	<g>
		<path fill="#F83C2D" d="M439.995,573.423c1.921,4.24,30.541-9.111,35.528-10.915c13.135-4.747,23.99-8.648,28.771-22.393
			c8.847-25.421,40.861-28.144,46.66-54.922c1.252-5.784,5.113-9.756,7.183-15.378c2.369-6.433,2.425-13.569,4.142-20.085
			c2.813-10.678,4.036-20.394,4.046-32.051c0.011-7.283-2.35-12.276-3.504-19.348c-0.915-5.595-0.661-11.981-1.192-17.398
			c-0.521-5.35,0.398-12.311-1.45-17.381c-2.66-7.299-7.769-14.648-13.407-19.551c-13.297-11.57-28.894-23.095-34.456-39.951
			c-2.424-7.347-3.252-12.177-8.187-18.567c-4.33-5.608-9.542-9.928-14.358-15.508c-5.979-6.924-9.158-11.393-17.725-15.388
			c-4.619-2.152-12.092-7.836-16.674-6.718c-4.548,1.111-12.083,8.628-16.18,11.229c-8.031,5.101-13.865,12.427-20.571,19.211
			c-11.123,11.25-26.623,26.247-30.781,41.928c-5.357,20.213-1.609,41.989-7.496,61.893c-2.139,7.219-2.895,15.054-1.038,22.452
			c2.638,10.515,10.271,19.115,13.746,29.189c3.092,8.958-4.972,13.274-9.023,21.342c-5.271,10.498-5.231,18.302,0.485,28.223
			c6.213,10.781,14.18,19.575,22.173,28.743c7.67,8.808,5.801,18.057,10.077,28.615c2.75,6.789,5.196,17.463,9.342,23.207
			c3.546,4.908,10.077,7.423,15.271,9.97c-0.352-2.28,0.049-4.32,0.625-6.464"/>
		<g>
			<path fill="#1AB687" d="M459.526,247.132c-2.466,6.528,0.188,14.166,0.521,20.817c0.148,2.98,0.324,5.972,0.478,8.961
				c0.074-1.011,0.144-2.032,0.192-3.077C461.028,267.276,465.261,252.171,459.526,247.132z"/>
			<path fill="#1AB687" d="M436.584,531.257c8.686,4.065,10.095-9.471,10.095-9.471c-2.313-7.231-17.235-15.769-23.346-20.574
				c-11.545-9.088-24.591-16.686-36.189-25.965c4.21,7.367,9.946,18.048,16.853,23.858c7.391,6.219,17.697,11.485,23.162,20.04
				C430.384,524.188,430.935,528.615,436.584,531.257z"/>
			<path fill="#1AB687" d="M536.353,471.553c-0.318-1.403-0.214-2.563,0.156-3.57c-7.349,4.743-17.012,7.122-24.307,10.357
				c-9.603,4.263-18.768,8.042-28.621,11.542c-6.786,2.412-13.795,4.966-20.337,7.692c-0.758,0.317-1.968,0.631-3.166,1.051
				c-0.01-0.523-0.031-1.054-0.031-1.569c0-6.117,0.596-12.106,1.454-18.027c0.704,1.06,1.712,2.022,3.21,2.814
				c6.923,3.655,19.191-0.999,25.418-3.507c9.141-3.678,17.107-9.524,26.218-13.367c3.513-1.481,36.876-14.479,32.013-19.383
				c1.708-2.878,4.854-4.88,4.497-8.591c-4.353-0.212-8.854,0.092-13.197-0.233c3.714-5.322,9.588-10.925,11.909-17.01
				c-6.229,0.419-13.231,9.821-19.331,12.479c-8.511,3.712-17.491,6.099-26.1,9.895c-7.56,3.333-16.134,5.008-24.048,7.506
				c-3.629,1.144-6.126,1.778-9.491,3.824c-2.521,1.536-5.12,4.165-7.748,6.06c0.891-5.063,1.686-10.134,2.194-15.247
				c2.706-0.802,5.497-2.134,7.072-2.711c11.247-4.125,22.812-9.761,33.36-15.847c18.845-10.868,55.868-20.438,54.036-47.565
				c-2.616,3.193-7.368,4.06-11.229,5.458c-4.596,1.662-8.773,4.229-13.301,6.216c3.923-5.828,26.323-21.154,16.12-29.738
				c-4.012,8.505-11.025,15.049-18.833,19.967c-8.982,5.659-18.702,12.074-28.304,16.239c-9.92,4.305-20.688,8.366-29.911,14.392
				c-2.276,1.488-6.306,5.118-9.425,9.197c-1.019-8.726-2.366-17.51-3.563-26.346c1.729,5.413,5.454,4.714,9.844,2.091
				c8.752-5.229,16.528-8.695,26.05-12.737c8.801-3.735,17.057-8.842,25.773-12.979c8.26-3.916,18.414-13.402,15.521-24.583
				c-0.24-0.942-0.021-2.273-0.098-3.242c-7.043-0.504-15.173,8.204-20.665,12.123c-6.341,4.526-12.695,10.105-20.576,11.592
				c-1.341-13.299,13.181-24.207,20.454-33.504c3.678-4.693,16.817-28.243,0.168-24.399c0,0-7.243,6.939-10.811,10.682
				c-5.732,6.019-10.727,12.793-16.612,18.561c-6.875,6.729-15.69,9.888-23.509,15.509c-1.915,1.377-5.167,3.267-8.343,5.457
				c0.027-4.028,0.205-8.063,0.601-12.105c0.109-1.157,0.238-2.331,0.368-3.51c12.219,1.253,22.781-13.648,31.399-20.722
				c10.933-8.977,16.706-25.931,12.065-39.889c-4.768,5.262-9.256,11.293-14.514,16.033c3.052-4.977,0.799-23.699-1.878-26.728
				c-3.998,9.208-5.575,16.011-14.007,23.159c-4.512,3.829,8.382-29.406-4.228-40.667c-6.48,6.995-12.646,33.526-13.431,35.236
				c-0.879-2.446-1.734-4.526-2.093-5.579c-2.42-7.087-5.549-14.57-5.967-22.125c-6.269-1.473-13.468,5.705-12.599,11.931
				c0,0,12.014,34.916,21.422,30.806c0.592-0.259,1.009-0.706,1.306-1.273l-1.69,9.622c-0.063,0.337-0.124,0.694-0.186,1.052
				l-0.011,0.069v-0.005c-0.359,2.182-0.618,4.678-0.747,7.29c-3.243-5.013-7.143-9.682-10.567-14.29
				c-5.699-7.667-11.437-18.058-18.883-23.245c0,0-2.66-0.924-3.913-0.572c-0.545,2.864,0.145,5.865,0.453,8.503
				c-5.727-3.625-14.713-6.737-11.277,4.1c2.139,6.762,8.644,11.388,13.249,16.207c8.53,8.921,17.832,19.704,30.949,17.42
				c0.078,1.458,0.207,2.862,0.381,4.179c-0.963,7.886-0.491,15.989-1.621,23.853c-0.006,0.055-0.016,0.113-0.024,0.171
				c-1.882-3.571-4.457-6.688-8.013-9.021c-7.322-4.803-12.905-8.815-19.513-14.873c-6.306-5.776-17.252-17.683-25.404-19.22
				l-1.337,1.337c-3.465,2.057,3.792,11.71,6.838,14.727c7.758,7.69,13.955,16.207,19.165,25.843
				c-6.648-10.282-23.809-15.272-33.955-21.766c4.263,12.776,17.59,22.772,28.671,29.973c6.67,4.331,12.541,9.203,18.72,14.038
				c2.958,2.316,7.457,6.711,11.904,9.313c-0.17,6.41-0.214,12.836-0.152,19.269c-2.072-5.741-5.105-11.113-9.602-15.863
				c-9.07-9.583-19.287-17.114-30.893-23.393c-12.315-6.659-19.206-15.925-29.442-25.169c0.196,5.61,5.435,13.172,8.554,17.798
				c2.942,4.367,19.065,19.264,4.965,17.949c-0.561-0.74-1.59-1.45-1.908-1.818c10.343,15.773,26.374,25.955,37.011,41.337
				c4.852,7.011,9.317,14.498,14.909,20.752c0.963,1.075,3.911,3.681,6.831,5.538c0.083,4.01,0.17,8.039,0.167,12.057
				c-1.125-1.284-2.355-2.515-3.624-3.686c-8.021-7.4-15.672-13.171-20.102-23.279c-3.549-8.093-9.012-16.05-16.049-21.912
				c-10.209-8.511-27.506-24.086-25.524-20.703c2.707,4.617,3.07,7.119,3.492,12.401c0.681,8.606,1.691,18.979,7.335,26.051
				c7.906,9.904,20.702,15.387,29.944,24.077c4.49,4.223,8.316,8.779,12.724,12.874c2.675,2.485,6.796,8.161,10.947,10.417
				c-0.323,2.737-0.72,5.456-1.314,8.128c-0.674,3.054-1.04,6.147-1.277,9.261c-0.46-0.81-24.596-21.08-33.477-30.026
				c-6.811-6.858-15.188-15.191-23.413-20.457c-1.26,6.485,5.712,13.084,9.988,16.658c-3.131,2.121-9.203,1.733-12.69,0.738
				c2.013,8.364,20.34,17.405,26.663,22.789c6.23,5.303,8.95,13.35,15.344,18.566c4.087,3.336,11.927,8.729,16.891,5.51
				c0.107-0.068,0.19-0.148,0.29-0.22c-0.025,6.772-0.07,13.534-1.286,20.111c-2.146,11.586-8.374,22.746-11.755,34.087
				c-1.038,3.486-3.479,9.492-2.133,13.368c1.43,4.121,8.316,6.773,10.023,0.671c0,0,1.77-6.956,3.41-10.487
				c3.08-0.486,6.299-2.37,8.618-3.42c8.854-4,24.619-10.436,29.328-19.282c-4.866,3.737-11.14,3.376-16.813,5.621
				c-6.142,2.426-12.256,5.516-17.726,9.222c0.237-0.579,2.974-9.859,3.529-13.885c3.105-0.46,5.604-2.65,9.038-3.194
				c3.693-0.585,7.708,0.674,11.376,0.034c6.978-1.212,15.763-6.581,22.08-9.877c15.018-7.826,34.685-18.465,45.871-31.516
				c-7.451,2.509-12.736,7.399-21.027,9.236c-6.576,1.459-13.076,3.653-19.496,5.406c-7.819,2.129-15.816,2.098-23.414,5.345
				c-4.666,1.992-9.608,4.211-13.921,7.367c-2.714,1.986-6.121,6.368-8.535,7.647c1.555-5.005,3.791-10.025,4.389-15.734
				c0.256-2.438,0.27-4.957,0.221-7.487c16.522-6.647,37.306-8.1,54.608-11.848c10.991-2.379,24.352-6.501,31.233-16.062
				c4.423-6.139,8.681-14.42,11.612-21.168C555.144,462.856,542.452,471.478,536.353,471.553z"/>
			<path fill="#1AB687" d="M544.217,460.493c-2.474,2.633-6.518,4.248-7.708,7.489C539.604,465.986,542.299,463.575,544.217,460.493
				z"/>
		</g>
		<path fill="none" stroke="#EBC2B8" stroke-miterlimit="10" d="M445.664,519.652"/>
	</g>
	<g>
		<g>
			<path fill="#274490" d="M612.275,133.994c-10.352-8.076-18.016-20.283-28.33-28.441c-4.735-3.747-7.252-7.319-9.005-13.239
				c-1.159-3.93-1.813-9.53-5.188-12.394c-8.097-6.875-19.995-3.217-28.629-7.986c-4.317-7.074-9.689-13.897-15.572-19.939
				c0.212-2.475-0.745-32.476-0.791-34.968c-0.057-3.257-14.104-0.245-13.52,2.623c1.048,5.134,6.579,46.118,4.754,51.955
				c-7.397,19.26-22.678,34.832-40.646,45.956c-7.819,2.956-14.893,7.134-22.721,10.04c-3.709,1.377-7.067,2.67-10.148,4.529
				c-5.434,1.518-10.933,2.669-16.706,3.586c-8.297,1.314-17.257,2.702-24.643,6.974c-1.24,0.715-3.825,2.049-6.548,3.735
				c1.888,0.892,3.759,1.811,5.591,2.821c1.127-0.744,2.008-1.312,2.373-1.53c8.187-4.953,18.237-6.133,27.517-7.604
				c1.5-0.237,3.003-0.515,4.498-0.811c-7.656,9.93-17.513,33.02-24.013,43.601c-1.71,2.781,4.351,7.834,6.051,5.069
				c6.365-10.366,14.933-34.524,21.5-44.801c1.708-2.669,3.806-4.621,6.16-6.174c11.099-3.099,21.921-7.675,31.903-13.336
				c-0.694,14.683-15.912,28.628-23.161,40.127c-9.575,15.18-24.282,28.513-30.691,45.709c-0.854,2.292,2.561,8.022,4.35,7.193
				c1.428-0.537,13.387-28.25,19.175-35.273c4.299-5.22,8.146-10.652,12.012-16.122c-0.821,5.261-2.201,10.376-3.75,15.452
				c-1.342,0.939-2.679,1.895-4.005,2.886c-1.918,1.432-6.968,4.669-6.731,7.528c0.164,1.984,2,3.04,3.797,2.179
				c0.2-0.096,3.499-3.616,4.332-4.344c-1.772,5.566-3.492,11.153-4.635,16.907c-0.627,3.175,4.235,4.53,4.869,1.34
				c1.597-8.064,4.262-15.806,6.669-23.596c1.311-0.895,2.635-1.765,3.985-2.596c10.042-6.172,21.564-9.232,32.433-13.534
				c12.01-4.75,20.805-18.77,27.602-30.079c1.029,1.908,5.38,9.373,6.339,11.301c-2.956,2.583-6.235,5.091-9.755,7.852
				c-11.666,9.162-23.808,20.694-26.726,35.854c-0.614,3.177,4.246,4.534,4.863,1.341c3.255-16.895,18.246-27.788,30.871-37.897
				c1.097-0.877,2.14-1.733,3.141-2.582c1.177,2.138,2.438,4.229,3.866,6.226c-0.527,3.448-3.672,9.087-3.122,12.82
				c0.59,4.041,9.73,3.022,10.374-0.735c2.291-13.322,4.613-27.389,5.322-40.902c0.645-4.225,0.776-8.548,0.503-12.844
				c0.094-0.107,0.179-0.223,0.253-0.34c7.242,6.15,14.491,12.979,17.37,21.871c0.844,2.601,5.167,2.283,4.957-0.672
				c-0.969-13.733-14.065-25.512-24.463-33.451c-0.408-8.817,2.2-18.09-1.472-26.709c9.115,1.594,20.075-0.232,23.675,9.028
				c3.506,9.016,4.433,14.986,11.969,21.521c9.875,8.563,16.045,20.557,26.352,28.593
				C609.261,139.688,614.84,135.992,612.275,133.994z M503.257,154.724c-8.042,8.725-18.959,11.068-29.609,15.234
				c-4.676,1.829-9.015,4.076-13.188,6.616c1.562-5.748,2.779-11.583,3.127-17.659c0.027-0.504-0.078-0.92-0.263-1.266
				c7.973-10.785,18.409-22.96,17.738-36.903c0.577-0.358,1.157-0.711,1.727-1.078c9.058-5.805,17.269-13.348,24.043-22.025
				c-0.78,3.958-0.922,7.988,0.149,12.091c2.126,8.158,7.896,15.471,12.671,22.473C514.784,140.155,509.593,147.85,503.257,154.724z
				 M542.667,126.523c-1.76,7.919-5.155,13.397-9.668,18.16c-0.838-1.135-8.27-14.202-8.605-14.499
				c-4.576-7.042-9.732-13.797-12.552-21.792c-3.371-9.573,3.951-21.64,7.367-30.312c1.314-3.328,2.414-6.854,3.335-10.46
				c0.834-2.786,1.518-5.608,2.042-8.456c3.46,5.16,14.328,19.11,15.032,20.291C544.375,87.462,543.08,121.958,542.667,126.523z"/>
			<path fill="#274490" d="M531.742,180.068c-6.297,12.922-7.729,27.463-14.018,40.364c-1.42,2.914,2.934,5.472,4.356,2.55
				c6.296-12.924,7.729-27.464,14.015-40.368C537.514,179.703,533.165,177.144,531.742,180.068z"/>
		</g>
		<path fill="#E4D91B" d="M404.138,194.794v0.562c0,1.088,1.684,1.088,1.684,0v-0.562
			C405.821,193.709,404.138,193.709,404.138,194.794z"/>
		<path fill="#E4D91B" d="M630.208,143.742c-4.537-4.697-10.111-3.079-15.572-5.682c-4.645-2.218-7.901-7.232-13.497-7.011
			c-3.577,0.145-6.557,3.03-8.75,5.551c-0.704,0.809-2.618,4.248-4.285,6.517c0.104-3.747-2.77-7.899-3.025-11.62
			c-0.288-4.044-2.274-7.526-4.182-11.031c-2.959-5.46-6.335-10.671-8.865-16.36c-0.229-0.519-12.913,17.645-17.714,27.23
			c-0.563-0.84-1.087-1.714-1.482-2.686c-0.957-2.361,2.091-4.786,2.463-7.075c0.218-1.367-0.429-2.755-0.996-3.944
			c-1.173-2.445-2.054-5.001-3.203-7.463c-1.153-2.472-2.478-4.86-3.09-7.543c-0.709-3.101-0.515-6.367-0.541-9.523
			c-0.036-4.775-5.547-12.458-5.91-12.151c-2.119,1.781-3.028,4.177-3.165,6.706c-5.345,6.601-11.36,12.537-17.953,17.902
			c-5.766,4.695-11.835,8.144-16.335,14.189c-2.946,3.962-4.633,8.471-1.177,12.534c2.603,3.063,7.565,6.047,11.894,5.851
			c-2.214,4.508-1.98,8.506,1.595,12.637c2.313,2.667,5.3,4.683,7.813,7.146c0.343,0.336,0.635,0.707,0.959,1.059
			c-1.003,1.087-1.845,2.267-2.349,3.641c-1.284,3.49-2.092,9.956,1.218,12.394c0.938,0.693,2.403,0.782,3.499,0.932
			c2.376,0.323,2.561,4.488,2.742,6.295c0.4,3.948,0.015,7.918,0.583,11.862c0.585,4.045,1.701,7.945,3.382,11.573
			c-3.602,2.839-7.495,5.163-11.318,7.772c-0.042-3.137-0.33-6.282-0.76-9.272c-2.491-17.151-9.345-33.191-15.103-49.406
			c-0.287-0.809-1.329-0.787-1.625,0c-1.761,4.726-3.892,9.16-6.782,13.3c-3.374,4.834-8.266,7.502-13.217,10.425
			c-5.166,3.049-8.206,6.316-9.916,12.049c-1.73,5.785-1.349,13.533,3.101,16.073c-2.929,2.727-5.858,5.464-8.342,8.611
			c-1.071,1.354-1.856,2.702-2.373,4.018c-2.438-3.75-7.399-37.503-7.795-36.642c-0.032,0.064-0.052,0.134-0.083,0.201
			c0-0.003,0-0.003-0.004-0.003c-4.102,10.017-15.394,8.124-24.194,9.284c-5.31,0.701-8.962,3.034-11.3,6.561
			c-2.167,0.216-4.205,1.093-5.469,2.929c-0.188,0.273-0.368,0.564-0.545,0.863c0.506-1.608,1.322-3.169,1.844-4.759
			c0.855-2.583,0.341-4.649-0.838-6.957c-1.068-2.106-2.256-4.076-3.042-6.319c-1.001-2.857-0.245-6.152,0.314-9.002
			c0.166-0.852-11.273,8.758-15.222,14.435c-0.053-0.709,0.451-1.492,0.828-2.511c0.58-1.581,1.222-3.138,1.863-4.695
			c1.381-3.348,2.82-6.667,4.052-10.078c1.872-5.183,3.125-10.84,1.334-16.212c-1.984-5.938-7.885-9.357-13.385-11.686
			c-2.612-3.713-5.701-6.898-9.795-7.332c-3.499-0.369-7.242,1.34-8.591,4.747c-1.546,3.898-2.629,6.869-6.579,9.054
			c-2.813,1.553-6.068,2.109-8.884,3.718c-8.373,4.776-17.771,12.526-12.37,22.952c3.307,6.381,10.156,9.777,17.203,10.701
			c-2.355,3.306-3.552,7.856-3.846,12.285c-0.655,9.963,6.496,19.681,14.801,25.492c-1.748,1.214-3.392,2.445-4.763,3.77
			c-7.604,7.361-5.974,17.863-1.354,26.294c0.216,0.397,8.541-3.15,13.327-0.619c3.55,1.878,6.998,3.205,11.062,3.135
			c7.062-0.125,12.034-4.468,14.581-10.634c1.091-2.654,1.907-6.813,4.863-8.042c3.833-1.588,7.51,2.7,9.436,5.308
			c0.208,0.281,0.466,0.65,0.753,1.056c-4.012,4.436-8.021,8.919-10.297,14.334c-2.258,5.358-4.886,17.076,0.549,21.595
			c3.521,2.919,8.705-1.94,11.118-4.143c0.241-0.219,0.468-0.449,0.706-0.673c-0.945,2.167-0.91,8.195-0.428,8.255
			c7.434,0.881,18.111,6.091,23.415-2.084c3.189-4.914,1.311-14.098-2.056-19.15c5.518-0.864,9.789,8.01,12.107,11.778
			c2.904,4.72,5.363,8.596,10.799,10.497c5.747,2.005,12.534-3.813,15.04-8.504c1.946-3.641-3.873-5.647-4.083-9.08
			c-0.413-6.744,10.227-9.224,9.469-16.448c-0.401-3.757-4.485-8.746-0.411-11.792c2.124-1.59,3.161-0.492,3.617,1.746
			c0.979,4.84-0.14,10.412-0.814,15.223c-0.418,3.005-1.653,6.76-1.179,9.815c0.072,0.47,7.346-2.939,10.909-3.685
			c-1.436,5.83-4.211,11.139-6.9,16.492c-0.411,0.815,7.23-5.471,11.031-7.75c3.915-2.346,8.611-2.935,13.073-3.249
			c4.812-0.341,10.411-0.383,15.071-1.521c2.931-0.714,4.255-2.549,7.01,0.65c1.08,1.25,1.944,2.276,3.494,2.899
			c7.519,3.007,16.306,2.326,23.027-2.275c3.309-2.264,5.013-5.392,6.018-8.861c1.453,0.336,2.985,0.485,4.591,0.394
			c7.629-0.427,12.832-6.975,14.938-13.75c1.613-5.19,1.553-10.65,0.183-15.779c1.229-1.242,2.444-2.41,3.533-3.482
			c4.262-4.202,9.177-7.584,13.726-11.45c2.55-2.166,6.184-5.194,6.184-8.873c0-3.511-4.957-4.61-7.89-5.119
			c1.54-4.21,4.631-7.776,4.863-12.442c0.23-4.664-0.826-9.496-1.543-14.086c-1.22-7.835-5.259-10.719-11.812-13.897
			C611.826,155.802,630.523,144.067,630.208,143.742z M579.455,206.813c-2.575-2.034-8.466-13.622-8.807-17.065
			c-0.072-0.768-9.556,11.062-12.544,17.552c-0.092-0.851-0.201-1.701-0.329-2.553c0.772-0.759,1.653-2.877,1.664-2.902
			c0.017-0.05,1.843-16.565-0.04-20.896c6.305,1.197,13.324-1.559,17.494-6.884c2.375,5.892,4.637,26.828,5.648,30.845
			c1.927,7.663,8.318,0.091,11.684-3.59c-0.178,5.172-2.154,9.898-3.915,14.666C586.943,212.665,583.086,209.685,579.455,206.813z"
			/>
		<path fill="#1AB687" d="M544.302,106.774c-0.036-0.435-0.356-0.875-0.843-0.841c-2.822,0.183-4.943,1.41-6.486,3.21
			c-5.78,5.61-9.313,13.925-5.449,21.6c0.224,0.453,0.986,0.585,1.318,0.172C538.288,124.116,545.115,116.063,544.302,106.774z"/>
		<path fill="#1AB687" d="M558.462,150.338c-0.257-0.138-6.465,5.649-7.432,12.488c-0.877,6.217,3.376,13.309,5.074,17.615
			c0.179,0.446,7.389-6.022,9.32-13.186C567.229,160.568,563.987,153.284,558.462,150.338z"/>
		<path fill="#1AB687" d="M584.074,121.127c-0.096-0.363-10.662,4.893-13.058,13.148c-1.868,6.431,4.072,15.76,5.271,18.693
			c0.183,0.436,7.438-4.606,9.821-12.406C588.003,134.36,585.353,125.828,584.074,121.127z"/>
		<path fill="#1AB687" d="M596.613,162.835c-0.191-0.284-6.059,6.402-7.292,14.06c-1.13,7.033,2.233,14.921,4.722,18.186
			c0.187,0.245,5.478-7.89,6.458-16.124C601.331,171.974,598.036,164.917,596.613,162.835z"/>
		<path fill="#1AB687" d="M609.58,137.014c-5.926,5.175-6.354,15.173-6.409,22.459c-0.002,0.629,1.608,0.643,2.974,0.335
			c0.22,1.301,2.409,4.686,2.604,3.815C610.618,155.171,610.148,136.522,609.58,137.014z"/>
		<path fill="#1AB687" d="M552.768,213.607c-2.803,0.576-10.764,3.841-11.798,9.121c-0.955,4.889,4.935,11.727,4.483,14.453
			c-0.121,0.732,8.825-4.165,9.914-7.744C556.739,224.909,553.294,213.5,552.768,213.607z"/>
		<path fill="#1AB687" d="M508.074,185.155c-3.9-4.251-13.671,32.18-9.771,38.719c0.344,0.576,9.383-12.898,11.479-19.525
			C511.2,199.853,511.962,189.39,508.074,185.155z"/>
		<path fill="#1AB687" d="M448.117,249.772c0.342,0.404,8.596-21.694,10.376-32.889c0.056-0.329-13.322,0.608-16.602,7.246
			C438.106,231.786,444.548,245.558,448.117,249.772z"/>
		<path fill="#1AB687" d="M397.454,160.938c-1.115-3.285-5.575-4.013-7.578-1.096c-0.821,1.193-4.654,13.42-4.991,16.78
			c-0.559,5.502-1.118,11.688,0.247,17.113c0.981,3.888,3.74,1.995,5.162-0.431c2.701-4.603,4.217-10.224,5.614-15.321
			C397.309,172.853,399.23,166.197,397.454,160.938z"/>
		<path fill="#1AB687" d="M592.199,182.761"/>
	</g>
	<g>
		<path fill="#274490" d="M1131.212,329.425c-0.322-3.337-2.458-6.472-4.203-9.193c-3.443-5.368-5.967-9.964-6.142-16.554
			c-0.31-11.652,0.539-23.399,0.421-35.072c-0.203-20.285-1.602-39.675-10.269-58.319c-7.299-15.688-20.291-27.7-33.229-38.744
			c-17.282-14.758-35.537-27.744-55.376-38.877c-17.732-9.952-39.411-22.052-59.945-24.369c-22.623-2.552-44.45,4.933-65.304,12.857
			c-18.352,6.969-37.689,12.521-54.049,23.674c-7.418,5.056-13.929,11.331-20.096,17.816c-8.295,8.727-17.002,16.688-26.112,24.561
			c-7.414,6.406-15.563,13.003-21.194,21.095c-5.569,7.991-9.148,17.561-12.311,26.698c-4.026,11.617-8.03,24.302-4.248,36.442
			c4.306,13.842,17.548,24.642,8.797,39.917c-6.002,10.48-9.916,18.141-2.311,29.244c3.494,5.094,8.741,8.985,13.244,13.129
			c7.422,6.824,12.981,16.083,18.973,24.153c7.272,9.806,15.065,21.157,26.653,26.042c17.263,7.276,16.404,33.371,18.23,48.985
			c0.483,4.188,2.438,8.188,5.939,10.689c5.935,4.239,11.611,5.961,16.775,11.504c5.234,5.612,9.702,10.392,15.09,14.138
			c-1.487,8.53,10.166,16.299,19.634,17.036c8.438,0.658,16.953-5.268,24.143-8.792c8.839-4.33,16.923-3.452,26.154-5.14
			c15.704-2.87,20.91-21.01,26.714-33.682c9.247-20.197,30.239-27.261,50.392-32.71c22.274-6.024,45.276-8.763,66.809-17.418
			c14.909-5.994,18.412-19.515,21.866-33.788c2.079-8.583,5.923-16.484,9.416-24.555
			C1128.499,343.677,1131.911,336.676,1131.212,329.425z"/>
		<path fill="#F83C2D" d="M991.473,118.613c-0.401-2.132-36.021,91.256-51.823,137.877c-3.045-45.52-13.243-143.474-13.007-145.08
			c0.255-1.685-26.901,8.666-27.592,9.366c-17.688,17.928,1.497,32.053,6.507,53.35c8.844,37.586,18.396,73.943,19.94,112.817
			c0.055,1.362,44.513-63.42,54.359-77.745C998.321,182.334,997.226,149.282,991.473,118.613z"/>
		<path fill="#F83C2D" d="M1126.886,321.006c-43.604,27.85-89.215,52.928-136.979,72.872c-11.974,5.001-63.603,16.663-63.603,16.663
			c7.455-3.929,14.384-8.779,21.352-13.636c11.618-8.093,23.951-14.363,37.226-19.3c22.308-8.288,45.784-11.582,66.604-23.639
			c36.809-21.313,65.044-62.625,62.041-106.194c-0.126-1.886-26.481,66.166-53.881,86.879c-7.869,5.95-17.374,10.308-27.229,11.242
			c-10.781,1.021-21.66-1.829-32.488-1.311c-13.014,0.62-24.348,5.436-35.038,11.871c9.479-10.383,50.336-39.407,59.761-44.017
			c9.823-4.803,18.691-10.902,27.18-17.752c27.888-22.5,47.496-56.239,44.908-92.804c-0.11-1.56-40.625,81.515-79.138,105.027
			c-18.409,11.241-39.852,15.485-58.739,25.589c-8.237,4.408-15.504,10.506-22.343,16.805c-3.193,2.938-6.259,6.019-9.317,9.096
			c-2.592-10.223-1.254-35.34-1.504-38.245c34.259,14.296,78.256-16.75,104.762-38.491c17.454-14.312,29.86-35.918,37.61-56.788
			c7.785-20.966,11.255-43.165-3.157-61.896c-0.684-0.886-42.354,91.844-55.27,105.881c-9.361,10.171-19.935,19.366-30.926,27.728
			c-11.064,8.414-23.58,16.841-37.359,19.827c-2.399,0.52-17.286-0.39-14.614-3.345c7.485-8.269,59.229-44.188,75.09-56.928
			c15.282-12.271,26.32-26.796,32.974-45.277c6.658-18.488,8.127-38.732,8.21-58.226c0.008-2.184-33.752,80.296-66.66,107.343
			c12.643-13.637,41.286-83.113,50.286-99.717c13.965-25.756-20.59-36.699-20.642-34.992
			c-0.629,21.285-74.438,168.526-79.739,174.272c-5.254-23.818-47.776-171.146-48.525-171.307
			c-4.793-1.032-23.086,9.061-23.157,9.824c-6.032,64.226,67.348,166.511,67.212,166.676c-3.948-9.885-10.067-19.336-15.125-27.169
			c-13.082-20.272-36.972-29.919-49.588-50.222c-6.209-9.99-25.478-73.696-25.593-70.232c-0.071,2.009,0.037,61.535,19.013,88.109
			c18.586,26.02,43.562,46.656,63.131,71.823c-1.699,3.321-2.896,6.662-3.621,10.003c-11.19-13.604-25.264-25.705-36.142-37.801
			c-25.73-28.608-67.418-102.025-66.796-100.215c1.968,5.712,15.036,48.606,20.182,60.582c9.061,21.074,19.765,41.446,36.853,57.052
			c12.642,11.549,49.271,47.161,50.722,49.851c-0.715,1.904-1.319,3.817-1.812,5.748c-13.548-14.717-37.615-22.063-55.342-30.181
			c-7.564-3.46-14.999-7.452-21.262-12.98c-10.298-9.089-17.339-22.493-23.515-34.557c-6.233-12.184-12.151-24.391-16.81-37.274
			c-4.217-11.667-18.29-34.815-18.325-33.079c-0.816,39.752,9.133,82.061,39.146,110.032c7.012,6.533,15.031,11.564,23.94,15.064
			c9.657,3.793,19.991,5.147,29.417,9.641c11.357,5.416,19.986,16.404,27.233,26.366c6.079,8.359,10.276,17.618,12.279,27.571
			c-3.118,9.019-10.481,28.912-10.567,29.044c-2.244-4.094-5.258-7.864-9.167-11.265c-11.111-9.656-113.788-100.132-113.342-98.565
			c9.034,31.978,83.193,98.258,93.896,109.897c10.729,11.674,20.977,25.737,20.431,42.102c-7.482-5.418-14.675-11.239-21.624-17.325
			c-7.539-6.596-24.258-26.138-24.491-24.315c-4.074,32.177,38.454,39.418,45.3,66.645c0.951,3.785-0.304,10.045,2.529,13.205
			c3.188,3.559,8.401,1.462,12.163,0.08c13.079-4.805,15.927-19.076,20.222-31c1.915,3.483,4.882,7.363,8.747,5.979
			c5.419-1.94,8.195-8.215,10.76-12.911c9.952-18.241,29.953-26.946,47.188-37.189c1.502-0.895-29.273-1.561-40.691,6.424
			c-9.456,6.617-20.933,24.455-34.143,18.208c-7.851-3.716,14.908-15.912,17.896-17.463c12.073-6.259,24.64-11.602,36.885-17.524
			c32.361-15.651,66.566-28.261,96.471-48.523c12.343-8.356,24.179-17.863,35.963-26.984c9.581-7.417,19.124-15.26,26.505-24.892
			C1129.717,324.466,1128.321,322.727,1126.886,321.006z"/>
		<path fill="#274490" d="M956.659,111.69c-0.352-1.364-68.882,400.123-70.605,414.707c-0.392,3.299,13.517,7.194,17.369,0.533
			c6.459-11.166,43.158-269.618,47.387-314.322C951.646,203.781,963.498,138.187,956.659,111.69z"/>
	</g>
	<path fill="#1AB687" d="M1371.035,538c-7.421,18-20.803,0.863-25.86-8.66c-6.227-11.725-15.541-25.402-28.837-30.996
		c-17.893-7.512-42.622,1.113-59.79,6.283c-13.583,4.086-11.952,4.617-20.939-3.59c-4.647-4.246-9.343-10.359-8.891-16.572
		c27.78-1.431,62.44-6.662,89.039,1.405c-11.182-18.696-43.803-21.365-62.299-28.662c-13.067-5.153-22.266-14.699-34.169-21.721
		c-16.022-9.456-31.476-11.437-45.721-24.394c-6.562-5.966-18.353-15.533-10.69-25.528c8.064-10.504,21.077-0.908,30.139,2.402
		c15.009,5.484,30.096,8.002,45.305,12.473c11.133,3.273,21.517,11.043,33.656,8.864c-17.617-15.518-36.179-38.009-48.614-59.005
		c-12.393-20.913-43.142-45.506-35.292-71.549c18.773-62.295,58.963,33.677,80.824,40.925c-3.458-18.298-17.762-33.9-21.183-52.762
		c-3.699-20.339-4.139-42.98-4.566-63.781c4.216,11.049,36.376,35.687,48.771,37.985c13.433,2.499,14.568-7.726,25.525-11.43
		c9.413-3.177,15.234,4.593,25.974,5.17c2.318,24.573-28.424,51.75-23.811,77.212c12.146-7.829,13.232-25.568,19.478-37.621
		c7.055-13.613,16.235-20.248,15.448-36.553c31.931-5.875,51.735,44.041,63.757,65.577c9.294,16.643,20.574,32.76,31.952,48.306
		c7.137,9.759,18.375,21.194,18.166,35.001c-0.319,22.256-28.285,48.464-41.447,65.054c-8.992,11.328-20.355,21.044-29.979,32.101
		c-11.369,13.041-26.767,50.066-41.16,54.066H1371.035z"/>
	<g>
		<path fill="#F83C2D" d="M848.442,91.583c-5.728-11.923-24.728-6.947-35.042-7.379c-6.453-0.272-25.821-18.089-30.089-22.556
			c-3.193-3.34-9.232-5.584-13.442-2.794c-3.481,2.306-2.629,8.101-2.278,11.545c0.264,2.601,0.633,5.193,0.543,7.813
			c-0.012,0.325-3.607,2.091-4.073,2.48c-1.123,0.929-2.059,1.934-2.896,3.121c-6.671,9.461,2.952,23.682,6.79,32.341
			c8.209,18.521,6.112,39.597,11.766,58.805c0.157,0.545,0.882,0.774,1.291,0.343c6.998-7.367,9.036-17.872,15.431-25.645
			c6.73-8.182,14.429-16.15,18.77-25.953c2.947-6.654,1.04-14.401,6.946-19.559c4.354-3.802,9.515-5.722,15.04-7.047
			c3.938-0.943,8.033-1.798,11.123-4.579C848.594,92.274,848.589,91.886,848.442,91.583z"/>
		<path fill="#274490" d="M820.938,84.021c-7.889-1.907-23.365,26.888-28.096,35.29c-6.914,12.284-11.583,53.205-11.088,52.865
			c4.522-3.09,11.157-39.208,13.733-45.546c6.252-15.379,20.206-26.033,25.989-41.656C821.623,84.585,821.321,84.116,820.938,84.021
			z"/>
	</g>
	<path fill="#F83C2D" d="M1490.531,489.944c-9.856,8.741-12.824,20.19-27.78,25.128c-9.733,3.213-24.744,3.134-35.987,2.576
		c-14.307-0.709-22.04-5.373-33.446-11.616c-13.488-7.381-17.787-13.987-24.616-24.923c7.094,0.809,12.411-2.58,18.647-4.09
		c6.928-1.682,15.174-2.518,22.253-3.283c11.586-1.25,17.787,2.447,28.047,4.304c6.788,1.228,10.83-0.742,17.089-1.333
		c7.005-0.662,13.044,1.055,19.811,2.755c11.409,2.87,17.639-1.781,28.909-2.773c-1.331,5.872-10.288,11.203-14.982,15.715"/>
	<g>
		<path fill="#443880" d="M238.813,464.551c-4.062-4.082-8.298-7.897-12.669-11.512c-2.204-6.089-5.225-11.932-8.47-17.438
			c-6.753-11.467-15.284-22.077-24.884-31.281c-17.357-16.637-40.334-24.732-61.855-34.941c-4.654-7.291-9.679-14.319-16.085-20.211
			c-0.126-0.117-0.308-0.062-0.362,0.094c-4.375,12.39-4.718,25.328-4.532,38.333c0.199,13.91,0.178,27.815,0.178,41.726
			c0,6.295-0.665,12.284-1.634,18.516c-0.747,4.801-1.557,9.829-0.859,14.683c1.339,9.335,5.783,17.984,10.391,26.087
			c5.273,9.271,11.423,18.021,17.471,26.791c5.286,7.665,10.537,14.323,17.911,20.156c7.834,6.195,16.715,11.106,25.944,14.875
			c7.324,2.989,15.626,5.541,23.628,5.119c6.32-0.332,36.375-3.066,36.244-13.589c11.554-5.433,20.945-14.477,23.312-27.908
			C265.988,494.485,251.637,477.438,238.813,464.551z M155.802,406.318c2.479-0.725,9.531,29.811,9.045,33.436
			c-0.021,0.153-0.171,0.285-0.326,0.186c-5.9-3.745-9.327-12.601-11.03-19.04C152.577,417.445,150.417,407.893,155.802,406.318z
			 M195.823,500.56c-8.419,5.141-17.835,7.596-27.549,5.081c-8.709-2.257-16.158-8.808-21.002-16.206
			c-6.398-9.772-22.461-55.509-22.775-67.663c-0.004-0.12,0.065-0.225,0.19-0.241c9.625-1.247,63.866,63.543,71.209,78.774
			C195.933,500.385,195.902,500.514,195.823,500.56z M219.571,490.869c-4.406,11.95-19.071-4.542-22.694-8.738
			c-4.532-5.248-9.438-10.937-12.596-17.139c-0.724-1.422-4.211-18.237-1.751-24.534c1.688-4.316,5.635-7.281,10.34-5.577
			c6.408,2.319,10.515,7.932,14.092,13.451c4.688,7.236,8.859,15.034,11.692,23.2C220.873,477.943,221.99,484.303,219.571,490.869z"
			/>
		<path fill="#F83C2D" d="M228.746,518.641c-3.901-7.781-4.383-16.627-6.015-25.031c-0.036-0.177-2.249,6.059-2.479,9.362
			c-0.127,1.903,2.438,13.134,2.271,15.036c-0.183,2.048-52.407-67.01-54.629-69.709c-0.135-0.166-0.447,0.008-0.363,0.208
			c5.071,12.136,40.974,63.257,42.319,68.043c0.913,3.257-9.725-0.102-11.949-0.328c-9.067-0.935-19.878,0.138-25.968,7.726
			c-0.114,0.143-0.049,0.364,0.155,0.373c12.347,0.354,24.681-1.813,37.02-0.739c5.981,0.52,11.987,2.163,16.553,6.229
			c5.439,4.852,6.83,12.59,7.08,19.506c0.003,0.128,0.094,0.21,0.216,0.219c3.51,0.256,8.009,0.129,9.011-3.979
			C242.907,541.686,231.438,524.015,228.746,518.641z"/>
	</g>
	<g>
		<path fill="#FFFFFF" d="M827.285,349.05c-4.269-4.407-6.222-9.831-9.486-14.873c-2.839-4.383-7.389-5.686-12.396-5.721
			c-12.904-0.088-22.731,9.117-33.337,15.148c1.4-6.469,4.365-12.356,6.893-18.455c2.643-6.371,3.943-12.851,3.015-19.734
			c-0.844-6.289-2.666-12.585-4.534-18.632c-1.779-5.763-8.072-17.193-8.297-16.782c-7.646,14.151-22.205,22.727-31.166,35.85
			c-1.337-0.916-2.804-1.478-4.341-1.401c-1.506,0.078-2.776,1.18-3.814,2.159c-2.129,2.002-3.903,4.225-6.314,5.924
			c-3.061,2.158-6.456,2.541-10.08,2.207c-2.194-0.203-4.92-0.873-7.005,0.211c-3.671,1.911-5.255,7.868-3.625,11.571
			c1.89,4.299,6.422,6.465,9.189,10.093c1.583,2.074,2.512,5.13,2.417,7.722c-0.092,2.391-1.89,4.173-3.507,5.719
			c-3.123,2.982-5.067,5.879-4.541,10.384c0.601,5.131,4.915,7.247,9.319,8.647c2.294,0.729,5.264,1.4,6.189,3.916
			c0.792,2.152-2.913,5.649-4.067,7.107c-1.643,2.07-3.401,4.124-4.679,6.451c-1.667,3.042-1.973,6.819-2.051,10.218
			c-0.114,5.137-1.828,10.265-3.023,15.239c-1.074,4.448-2.013,8.923-2.471,13.479c-0.036,0.34,19.86-2.883,27.294-10.014
			c7.189-6.896,12.654-15.421,20.18-21.984c2.838,4.862,5.286,10.05,8.736,14.513c3.613,4.679,8.3,8.105,13.787,10.312
			c6.28,2.523,12.884,4.503,19.368,6.439c5.997,1.794,19.312,3.29,19.173,2.932c-5.142-13.565-4.364-32.051-16.306-41.962
			c3.32,0.45,6.669,0.239,9.645-1.549c3.215-1.936,5.038-5.512,6.419-8.855C817.489,366.56,827.563,349.335,827.285,349.05z"/>
		<path fill="#F83C2D" d="M779.384,360.06c-1.245-1.331-8.223-11.968-16.722-12.81c-8.496-0.841-18.516,8.116-19.813,10.743
			c-4.804,9.739-2.492,25.319,6.063,32.456c4.239,3.537,32.078-21.967,32.764-24.886
			C782.188,363.373,780.783,361.552,779.384,360.06z"/>
		<path fill="#1AB687" d="M766.004,370.073c-3.019-0.753-9.565,7.56-10.356,8.174c-0.863-3.426-0.899-11.382-5.809-8.722
			c-3.893,2.111-7.146,6.033-6.398,8.431c1.858,5.951,8.335,7.369,9.49,7.714c4.184,1.251,14.733-3.493,16.191-11.28
			C769.58,371.94,768.285,370.642,766.004,370.073z"/>
		<path fill="#1AB687" d="M773.087,350.588c-2.952-2.959-11.976-4.964-12.674-5.113c-4.303-0.92-8.135,1.656-11.273,4.261
			c-2.541,2.112-7.25,6.584-5.191,10.409c1.412,2.621,5.175-1.548,7.067-3.487c-0.531,2.29-1.826,7.319,0.051,8.492
			c2.353,1.47,6.411-1.078,8.473-2.834c-0.579,2.566-1.539,6.157,1.483,6.983c3.438,0.943,5.926-2.258,6.919-5.197
			c1.326,1.791,0.344,4.887,4.475,5.768C779.738,371.431,778.905,356.424,773.087,350.588z"/>
	</g>
	<g>
		<path fill="#443880" d="M374.526,396.307c-0.295-0.3-7.481-4.823-11.195-5.103c-0.031-0.186-0.14-0.356-0.365-0.471
			c-10.584-5.351-24.026-0.579-33.965,4.098c-11.772,5.541-21.113,14.995-27.583,26.214c-7.661,13.29-8.278,27.672-6.576,42.571
			c1.997,17.501,6.975,34.646,13.457,50.983c0.208,0.527,46.298-45.776,51.981-57.563c5.38-11.159,8.878-23.07,12.482-34.883
			C375.03,414.728,381.199,403.1,374.526,396.307z"/>
		<path fill="#E4D91B" d="M366.636,391.918c-0.057-0.089-0.118-0.162-0.176-0.246c-1.233-0.361-5.116-1.829-5.828-2.171
			c-5.831,1.031-13.236,7.802-16.021,10.032c-11.216,8.982-21.978,18.618-31.37,29.506c-8.49,9.839-16.139,21.264-18.688,34.181
			c-0.146,0.739,0.345,5.938,0.932,5.329c6.465-6.724,13.003-18.318,19.288-25.209c-3.37,4.788-6.442,9.783-9.22,14.882
			c-3.321,6.097-6.287,12.563-8.563,19.25c1.232,5.167,2.836,10.258,4.169,15.398c0.984-1.592,1.932-3.208,2.84-4.85
			c-0.926,2.142-1.754,4.292-2.428,6.457c0.197,0.809,0.39,1.619,0.568,2.432c0.772,3.509,1.39,7.033,2.921,10.313
			c0.651,1.394,1.343,2.768,2.021,4.149c9.843-10.71,12.856-27.536,17.055-40.774c6.236-19.665,11.759-40.151,23.204-57.563
			c-0.957,7.977-3.811,15.429-6.981,22.832c-2.581,6.026-4.931,12.125-7.429,18.184c-3.867,9.381-10.792,22.905-5.91,33.048
			c0.244,0.508,6.837-5.922,8.665-9.704c-0.741,3.886-1.221,7.801-1.321,11.733c4.2-5.178,7.961-10.732,13.053-15.071
			c3.081-7.053,4.885-14.786,6.262-22.189c2.555-13.728,3.207-27.814,5.972-41.503c0.477-0.532,0.964-1.082,1.452-1.643
			c1.083,3.773,1.378,12.893,1.805,12.275C366.881,415.238,368.586,395.031,366.636,391.918z"/>
	</g>
	<polygon fill="#E4D91B" points="1170.885,421.162 1143.743,430.839 1123.99,397.459 1090.608,421.162 1113.09,466.546 
		1140.768,441.265 1148.512,473.755 1185.98,451.957 	"/>
	<path fill="#E4D91B" d="M733.568,256.654c0,17.775-16.417,32.188-36.663,32.188c-20.252,0-36.667-14.413-36.667-32.188
		c0-17.779,16.415-32.192,36.667-32.192C717.151,224.462,733.568,238.875,733.568,256.654z"/>
	<g>
		<path fill="#FFFFFF" d="M1086,121.749c-19,0-19,28.836,0,28.836C1101,150.584,1101,121.749,1086,121.749z"/>
	</g>
	<polygon fill="#FFFFFF" points="1228.977,216.631 1211.108,171.613 1264.481,156.824 	"/>
	<polygon fill="#443880" points="464.142,46.958 439.554,99.52 388.858,85.704 	"/>
	<polygon fill="#FFFFFF" points="591.322,486.024 644.519,514.594 607.435,558.823 573.002,541.773 	"/>
	<polygon fill="#FFFFFF" points="200.625,313.198 236.927,405.424 132.928,351.462 	"/>
	<polygon fill="#F83C2D" points="357.604,503.535 308.549,562.403 382.133,548.667 	"/>
	<polygon fill="#274490" points="1421.632,436.654 1483.271,410.78 1471.407,457.075 	"/>
	<polygon fill="#274490" points="324.283,438.481 323.53,452.218 236.351,447.458 237.104,433.723 	"/>
	<polygon fill="#274490" points="1353.895,181.741 1358.09,194.842 1274.944,221.487 1270.75,208.386 	"/>
	<polygon fill="#274490" points="956.03,498.894 967.11,507.045 915.385,577.383 904.304,569.229 	"/>
	
		<rect x="70.937" y="288.743" transform="matrix(-0.9328 -0.3604 0.3604 -0.9328 125.9638 611.246)" fill="#E4D91B" width="98.067" height="10.271"/>
</g>
</svg>
