<svg xmlns="http://www.w3.org/2000/svg" viewBox="0 0 730.98 737.08"><defs><style>.cls-1{fill:#274490;}.cls-2{fill:#b47ae8;}.cls-3{fill:#e4d91b;}.cls-4{fill:#443880;}.cls-5{fill:#e96bbc;}.cls-6{fill:#1ab687;}.cls-7{fill:#b1d3d3;}.cls-8{fill:#f86048;}.cls-9{fill:#004a38;}.cls-10{fill:#f83c2d;}.cls-11{fill:#ffe701;}.cls-12{fill:#8f8fc2;}.cls-13{fill:#fff;}</style></defs><title>RightContact</title><g id="Layer_2" data-name="Layer 2"><g id="b2"><rect class="cls-1" x="426.88" y="41.15" width="218" height="619"/></g><g id="image"><polygon class="cls-2" points="329.5 246.79 315.52 274.2 345.85 266.65 348.52 288.2 360.38 266.65 329.5 246.79"/><rect class="cls-1" x="192.54" y="344.36" width="40.93" height="6" transform="translate(-165.29 195.95) rotate(-36.67)"/><polygon class="cls-3" points="276.1 416.96 276.1 443.16 292.1 424.37 276.1 416.96"/><polygon class="cls-4" points="380.77 56.87 364.44 70.46 388.77 70.46 380.77 56.87"/><path class="cls-3" d="M599.74,196a180.7,180.7,0,0,1-6.57-17.81c.2-6.74,2.78-13.52,1.34-20.16-1.31-6.06-9.59-8.06-14.82-7.25-5.9.91-11.23,3.23-17.28,1.91-2.83-.61-5.49-2.47-8.43-2.55-7.62-.21-16.27,5.22-20.76,11.12-6.29,8.26-8.6,18.26-12.08,27.84-2.15,5.9-5.72,16.13-.4,21.54,2.59,2.64,5,3.16,8.64,3.28a54,54,0,0,1,8,.45c3.27.58,7.24,5.81,9.87,7.87,7,5.51,21,2.27,24.35,12,.21.62,19.91-4.41,28.61-8.19,3.94-1.71,6.85-4.43,6.92-8.88.09-6.95-4.84-15-7.42-21.21"/><path class="cls-5" d="M501.27,226.89c-.59-6.52-1.32-14.71-6-19.85-3-3.28-7.26-1.25-10.55.47-16.85,8.78-31.3,23.63-45.11,36.18s-28.12,24.84-41.08,38.09c-21.68,22.17-31.74,51.61-39.21,80.64-4,15.46-7.37,31.05-11.69,46.43-4.8,17.08-9.14,34-11.06,51.61a238.72,238.72,0,0,0-1.26,24.79c-.05,8.62-2.32,47-.58,57.44,3.67,22,58.4-19.63,67.21-24.22A205.21,205.21,0,0,0,429,502.14c8.09-5.95,12.22-13.86,16.6-22.69,14.51-29.19,20.57-61.67,28.56-92.9,8.42-32.92,19.57-65.4,24.6-99.05,3-19.84,4.29-40.61,2.48-60.61"/><path class="cls-6" d="M408.67,444.14c19.76-31.65,44.85-61.46,54.62-98.06-12.79,17.91-28.75,33.6-38.87,53.31a.84.84,0,0,1-.29.35,115.09,115.09,0,0,1,1.05-21c.27-.55.56-1.1.86-1.64a34.42,34.42,0,0,1,6.07-7.54c4.37-4.31,9.33-8.05,12.76-13.23s4.31-11.94,5.05-18.11A144.4,144.4,0,0,0,448,294.85c-2.58-13.78-17.06-43.32-17.12-43.05-1.59,8.09-6.71,14.79-9.82,22.28-3.25,7.84-3.63,16.85-3.86,25.22-.12,4.49-.19,9,0,13.51.15,4.73-2.33,70.72-2.44,73.67-15.1-27.16-10.42-62-10.67-92.3-7.14,18.88-7.6,40.34-5.77,60.16,2,21.66,6.72,43.56,15.84,63.4a1.16,1.16,0,0,1-1.58,1.57c-38.26-17-31.72-66-34.21-101.74-5.29,29.57-8.87,61.29-3.42,90.78,2.86,15.48,14.65,27.11,18.23,42.27,3.79,16.05-6.38,47.14-7,46.74C360.4,480.31,361.44,443.8,358.42,416c-8.83,15.4-11.58,34.6-10.95,52,.55,15.47,3.46,35,15.63,46,14.33,12.94,35.48,3.66,47.8-7.78,9-8.37,13.37-20.69,16.93-32.16,3.86-12.44,6.75-25.23,11.22-37.48,4.78-13.11,12.45-24.78,18.93-37.07,7.25-13.75,13.38-27.91,16.28-43.15-21.33,29.86-66.17,88.67-65.59,87.74"/><path class="cls-6" d="M722.89,403.64c-2.84-17.23-10.35-37.12-22.23-52.58-10-13.07-29.21-19.49-49.9-17.21-20.3,2.22-32,14.86-28.25,28.24a124.09,124.09,0,0,0-14.82,7c-36.81,20.75-52.65,53.14-45.82,85.39,3.88,18.33,39,97.29,45.13,119.6,12.22,44.57,45.91,135.68,47.3,133.6,28.47-42.47,40.05-90,50.64-135.92,6.29-27.3,22.64-139.7,17.95-168.16"/><path class="cls-4" d="M675.06,379.05c1.27-2.68-17.93-5.52-17.7-2.73,1.9,23-7.36,84.83-14.76,91.65-16.09-10.45-35.79-18.48-51.77-29,1.59-13.91-6.62-43.83-7.87-42.11-43.62,59.92,87.79,232.91,88.54,230.85,8.56-23.46-6.12-228,3.56-248.65"/><path class="cls-4" d="M590.17,7.5c-15.35-.89-24.24,12.37-32.31,23.64-11.08,15.49-21.3,30.64-33.75,45.11C510,92.66,496.36,109.51,485.06,128c-22.84,37.42-31.37,81.31-22.63,124.4,2.19,10.83-1.13,74.24,14,72.24,13.17-1.73,31.83-62.33,37.22-72,20.25-36.4,38-73.72,55.64-111.43,9-19.16,18.08-38.41,28.75-56.71C607.5,68.33,617.74,52.9,624,35.11c.76-2.19-18-26.7-33.78-27.61"/><path class="cls-6" d="M602.09,11.46c-18.4,6.9-31.47,24.53-42.47,40-15.25,21.4-27.71,44.74-40,67.92-12.66,23.92-25.51,47.24-33.47,73.28-9.86,32.25-17,87.54-11.55,120.82.27,1.65,10.48-77.64,19-102.1,4.43-12.76,29.83-13.14,36.09-25,4.31-8.13.57-50.68,2.2-59.54,2.19-11.91,76.17-102.37,78.64-105.2,3.64-4.17-7-10.73-8.42-10.18"/><path class="cls-3" d="M552.15,608.41c-.9-13,1.94-30.12-3.75-42.23-4.16-8.86-19.47,1.61-24.66,4.4-13.87,7.46-27.68,15.74-41,24.13-10.22,6.43-19.81,13.8-29.94,20.36-10.31,6.67-22.26,10.18-32.33,17-9.14,6.23-14,16.4-17.61,26.51-2.66,7.52-4.13,15.12-7.88,22.24-3.36,6.37-7.4,12.14-9.93,18.93a1.87,1.87,0,0,0,1.3,2.28c10.67,4.16,26.93,2.53,38.88-3a14.09,14.09,0,0,1,6.62,5.13c4.68,6,9.89,11.44,17.54,12.67,2.61.41,5.07-1.58,7-3,5.1-3.69,8.57-.21,13.4,1.11,7.3,2,18.61-5.53,23.76-9.68,9.94-8,18.57-17.58,27.88-26.31,9-8.47,20.08-15.79,27.51-25.77,11.31-15.22,4.37-27.95,3.21-44.88"/><path class="cls-5" d="M471,667.07c2.4-3.51,75.3-102.37,74.23-101.78-9.81,5.38-66,82.47-66.43,83.11-1-6.85,9.46-57.17,8.83-54.82-1.67,6.21-9.75,28-12.42,35.77a83.23,83.23,0,0,0-4.71,19.19c-.15,1.53-.24,3.05-.31,4.56-8.47,7.42-17.68,13.93-26.22,21.77-7.81,7.16-22.47,25-21.43,25.35,2.59.77,9.25,3.84,10.44,1.93.92-1.5,21-21.41,25-24.45,1.74.87,3.53,2.84,5,3.73,3.4,2,7.5,2.79,11.34,3.36,8.06,1.21,16.5-.1,24.3-2.19,1.55-.41-28.91-4.73-37-9.56,32.84-3.37,73.58-25.19,82.76-59.42.51-1.88-72.65,53.94-73.42,53.45"/><path class="cls-3" d="M729.33,60.59c-2-2.43-5.85-6-8.51-7.3-3-1.49-6.43-1.68-6.66-6.78-.15-3.47,2.25-7.32,3.52-10.38,2-4.79,6.81-14.87.32-18-7.35-3.52-15.52-1.54-23,.42-4.87,1.28-9.67,2.82-14.51,4.23-9.9-6.58-18.95-26.5-33.67-22.2a49.08,49.08,0,0,0-8.7,4c-4.73,2.45-11.62,1.53-16.84,2-8,.78-17.42,2.23-25.11,4.72-12.87,4.17-21.35,23.53-26.55,34.6-3.38,7.18-7.2,14.14-8.81,22-1.45,7.1.32,14.39,2.1,21.25,2.51,9.73,7,18.27,10.79,27.51,3.49,8.5,2.53,17,2.56,26,0,9.55,3.44,22.76,15.63,20.86,4.39-.69,8.29-4.2,11.87-6.55,9.24-6,13.08,2.91,16.77,10.44,4.14,8.44,7.26,17.1,17.49,11.46,6.08-3.35,11.52-7.84,17.38-11.53,6.35-4,12.75-7.77,18.65-12.41,10.78-8.46,17-23.23,23.86-34.69,7-11.76,16.43-21.84,24-33.23,3.56-5.35,12.74-19.81,7.36-26.43"/><path class="cls-5" d="M709,48.91c-5.59-8-15.41-11-25.12-12,.39-2.11,2-7.25.73-10.62-.29-.78-8.36-4.84-9.17-4.59-6.8,2-5.52,14.51-5.73,15l-.72,0c-15.42,1-30.91,5.17-45.37,10.88-12.43,4.91-27,12.09-33.67,25.17-.39.77,66.62-25.1,72.48-25.7-30.17,26.77-70.26,45.22-82.62,88.55-.27,1,28-34.21,53.26-56.76,18.68-16.66,36.34-22.44,36.33-22.41-.28.67-11.83,20.07-14.6,29-3.22,5.62-48.27,57-51.27,63.73-.68,1.51,32.4-31.29,36.38-35.95a90.93,90.93,0,0,0-1.58,24.38c0,.38,11.09-28.22,14.44-38,2.93,3.54,15.51,49.11,16.08,48,10.39-19.79-10.35-51.5-10.78-51.6,3.09-9.19,6.38-18.28,10.91-26.78,0-.08,1.4-6.58,1.44-6.66,4.09,4.47,22.85,51.3,22.91,49.55.61-18.73.21-48.06-17-55.9.86-1.6,4.53-13,5.34-14.71,8.63-1.79,19.69-5.43,26.1,56.71C709.29,113.57,718,61.79,709,48.91"/><path class="cls-4" d="M599.62,211.89c-11.11-6.45-22.19-8.47-34.42-8.93-6.82-.26-13.55-.59-20.23-2.4-5.94-1.62-11.69-3.84-17.8-4.43s-18.57.94-21.22,9.48c-2,6.38,2.11,13.06,4.9,18.08,2.12,3.84,6,9.32,6.12,14.49-4.8-1.52-10.24-1.52-15-1.67-7.57-.25-15.53.14-22.8,2.9-4.67,1.77-8.29,5.15-8,11.47.28,6.71,5.37,11.85,9.49,15.47,12,10.6,27.1,15.81,41,21.77,25.09,10.78,48.06,27.68,73.55,37.34,13.91,5.27,28.12,6.85,42.51,9.13,12.15,1.92,37.59,7.46,37.56,6.81-2.13-55.13-35.32-106.13-75.62-129.51"/><path class="cls-7" d="M598.77,243.23c-4.51-7.11-8.91-14.34-14-21-2.94-3.84-7.37-9.72-12.36-9.49-.43,0,1.44,16,2.58,23.52-8.21-18.14-27-38.25-44.81-29.32-.56.29,13.12,47.57,16.35,49.84,5.47,3.83,20.75,14.51,26.74,17,10.22,4.27,21.71-2.75,30.81,3.88s12.38,31.3,20.71,23.49c9.92-9.3-15.17-40.81-26-58"/><path class="cls-8" d="M662.26,337c-2.16-7.35-4.5-14.68-8.89-20.74-3.52-4.87-9-6.72-13.82-9.44-6.24-3.54-9.07-10.69-12.69-17a28.54,28.54,0,0,0-13.14-12.34c-6.13-2.63-12.68-4.22-19-6.29-7.52-2.46-15-5.23-22.31-8.25a216.86,216.86,0,0,1-29.27-14.58c-7-9.9-27.14-19.3-27.15-18.75-.16,5.66,3.55,10,7.07,13.42,5.27,5.17,11.48,9.05,17.3,13.35s10.87,10.28,16.65,15c6.4,5.19,13.91,9,21.75,10.13,8.35,1.23,16.79-3.16,24.05,3.36,5.78,5.2,9.43,13.26,13.9,19.8,5,7.3,13.4,12.57,20.33,17.13,8.07,5.31,25.42,16,25.19,15.25"/><path class="cls-5" d="M539.22,118.57c0,.36,0,.72,0,1.08-.15,0-11.74,3.29-2.54,16.86-13,10.71-6.45,18.2-6.33,27.09a33.26,33.26,0,0,0-1.34,7.86c-.25,4.86.09,9.71-1.18,14.46-.76,2.82-2.33,5.47-3.37,8.2-1.32,3.52-1.26,7,1.17,9.38-.28.59-.54,1.18-.8,1.76-1.47,3.44-5.09,11.61-1.36,14.83a5.47,5.47,0,0,0,8.1-1c4.23-.15,8.58-3.27,11.23-6.49.23-.29.43-.58.63-.86a22.1,22.1,0,0,0,7.73,4.23c-3.24,11.22-.13,32,13.32,26.7,6.32-2.48,1.7-7.29,2.5-10.59.86-3.5,3-5.33,5.28-7.91a9.08,9.08,0,0,0,2.6-5.88,15.3,15.3,0,0,0-.79-4,3.13,3.13,0,0,1,2.17,1.46,27.66,27.66,0,0,1,1.28,3.72c1.57,4.34,5,7.18,9,9.22,5.09,2.56,17.28,6.53,19-2.12.35-1.79-.51-3.53-1.16-5.16a9.3,9.3,0,0,1-1-4.73c.2-1.91.88-3.67,1-5.6.24-4.49-2.45-8-6.05-9.91,4.91-.37,12.6-.81,13.3-5.53,1.42-9.66-8-6.62-12.86-7.57A30.22,30.22,0,0,0,611,182.76c2.74-1.89,4.92-5.57,7.18-8,2.65-2.87,4-5.16,2.37-7.63-5-7.4-8.92-7.23-13.84-9.3-.74-.31-1.51-.61-2.29-.9a9.46,9.46,0,0,0,3-5.66A5.88,5.88,0,0,0,605,146c5.88.15,11.45-3.86,11.76-10.22.49-10-10.37-10.25-17.63-12,7.89-3.32,27.3.49,24.41-7.69-5.93-16.78-20.5-1.51-30.66-2.92-5.79-.81-10.45.37-15.53,2.47,3.42-4.33,9.92-7.76,9.65-13.35-.73-15.61-9.56-.42-14.07-1.64-2.59-.71-5.5-1.73-8.22-1.46a3.2,3.2,0,0,0-1.67.69c-.12-.85.44-4.1,0-4-8.62,2.33-17.3,6.58-22.35,14.23-1.52,2.31-1.41,5.79-1.46,8.41m-2.5,47.5c.89-3.3,1.66-6.62,2.38-9.95.88-1.65,1.79-3.28,2.8-4.85,4.51-4.71,10.11-8.74,15.28-12.71a82.21,82.21,0,0,0-6.59,10.35c-2.16,3.89-4.2,8.35-2.55,12.78a10.14,10.14,0,0,0,1.87,3.08,32.11,32.11,0,0,1-12.92,1.3h-.27m-.62,3.76a2.33,2.33,0,0,0,.58.16,35.71,35.71,0,0,0,16.6-2.26,32,32,0,0,0,6.15,3.26,17.18,17.18,0,0,0,8.52,1.09,12.63,12.63,0,0,0-2.25,3.22c-2.08,4.27-2.66,9.17-5.49,12.82-8.51,2.83-18.62-2.44-23.86-5.82a92.52,92.52,0,0,1-.25-12.47m-4.94,18.47a20.52,20.52,0,0,0,1-3.54,63.5,63.5,0,0,0,1.67,10,12.3,12.3,0,0,0-5.94,4.78c-1.19-3.29,2.08-8.37,3.24-11.26m14,19.41a12.8,12.8,0,0,0-.29-5c-.87-3.82-1.08-8.91-6.57-8.64a68.55,68.55,0,0,1-1.34-6.83,40.48,40.48,0,0,0,19.37,4.93,7.69,7.69,0,0,1,.68,1.74c.77,2.93-.24,6.25-.37,9.21a10.49,10.49,0,0,0,.07,1.75,32.48,32.48,0,0,0-4.22,7.4,17.39,17.39,0,0,1-7.33-4.54m16.1-90.15a16.06,16.06,0,0,0-2.87,3.15c-.11-.17-.22-.34-.34-.5a97.53,97.53,0,0,1,3-11.62,51.27,51.27,0,0,1,1.77-5.94,10,10,0,0,0,1.43,1.4c2.31,1.88,4,4,2.94,7.17-.9,2.62-3.93,4.59-5.93,6.34"/><path class="cls-4" d="M554.46,211.5c-.81,1.58,0,3.13,1.34,4.32a2.76,2.76,0,0,0-.39,1c-.3,1.57,1.36,2.95,2.47,3.72,2.69,1.85,8.61,3.79,11.11.62a5.77,5.77,0,0,0,.34-5.94c-1.64-2.56-5.42-4.1-8.11-5.22s-5.25-1.43-6.76,1.52"/><path class="cls-4" d="M566,184.87c-1.22,2.67-.06,4.82,1.93,6.17a6.47,6.47,0,0,0,6.27,5,3.85,3.85,0,0,0,3.78-2.47c.85-2.24-.43-4.86-1.67-6.87,2.33-.45,4.82-1.74,4.35-4.49-.44-2.6-3.55-3.89-5.89-3.7a11.26,11.26,0,0,0-8.77,6.36"/><path class="cls-4" d="M579.53,198.13c.08,4.9,6.34,6.66,10.19,6.17a.56.56,0,0,0,.52-.53,15.43,15.43,0,0,0,3.89,2.51c2.17,1.1,4.52.84,5.19-1.76,1.7-6.63-8.45-13.29-13.62-8.57a.66.66,0,0,0-.2.68c-2.8-1.36-6-2.1-6,1.5"/><path class="cls-4" d="M591.32,173.8a18.25,18.25,0,0,0,1.88,2.26,16.64,16.64,0,0,0,7.16,5.57.67.67,0,0,0,.83-.4c1.21-2.53,3.44-4.61,4-7.42.5-2.54-1.94-3.86-4.14-4.58a.64.64,0,0,0,.11-.71c-2.08-4-7.72-5.15-10.37-1-1.24,1.94-.72,4.45.53,6.26"/><path class="cls-4" d="M666.83,620.31C663.67,605,628.69,598.6,628,599a24.47,24.47,0,0,0-5-16.53c-6-8-15.82-11.53-25.39-12.62-20.71-2.36-41.92,13.47-53.24,29.56-11.68,16.61-13.71,38-14.52,57.7-.44,10.73-15.43,80.27-14.65,80,12.5-4.31,63.06-14.84,75.56-17.54a89.38,89.38,0,0,0,31.73-13.65c8.69-6,15.36-14.34,21.51-22.81,11.72-16.16,27.14-42,22.84-62.77"/><path class="cls-7" d="M651.36,609.17c-7.54-5.78-19-4.33-26.79.66,3.47-6.16,7.52-11.94,6.35-19.41-.52-3.27-12.18-12.77-16.87-13.66-11.92-2.27-27.8.47-37.1,8.67-.79.71,23.66-2.39,29.48,2.08-10.58.62-29,1.85-39.1,5.17-10.72,3.52-22.11,8.56-29,17.43-.71.91,13.42-5.76,19.39-8.29-7.91,3.56-22.31,13.28-23.89,21.68-.14.75,36.67-25.48,48.74-15.11-10.82,3.26-45.86,33.45-52.43,43.53-.66,1,23-22.2,37.54-27.09-17.12,9.48-29.83,34.29-40.7,50.79-.58.87,32.42-37,51.54-40.29-2.82,1.52-51.43,41.28-53.82,52.35-.25,1.18,39.48-40.68,43.52-43.12-10.32,8.33-50.72,82.37-53,92.52-.17.77,60.32-52.44,82.11-82.48-3,11.32-70,79.59-69.12,78.88,5.19-4.07,72.7-64.43,78.48-86.56,3.38,11.21-53.83,81.18-53.09,80.66,9.19-6.41,40.11-32.94,45.8-41.87-2.57,5.37-31.5,39-30.86,38.6,7.31-4.22,36.9-30.79,51.24-55.7,7.88-13.69,5-31.57,5.67-34,20.35,10.5-31.26,84.67-30.38,83.87,1.74-1.58,35.48-44.26,39-53.3,4.12-10.75,5-22.39,4.25-33.8,5.82,6.65,5.21,18.78,4.72,26.76-.52,8.26-7.56,36.07-6.89,35.1.85-1.22,23.22-50.64,18.29-70.65,1.07,2.76,9.74,24.76,9.78,23.76.42-9.6-4.7-31-12.78-37.2"/><path class="cls-7" d="M623.78,450.66c-15.85,4.77-27.93,16.19-39.92,27a154.11,154.11,0,0,1-20,15.89c-8,5.14-16.81,7.85-26,9.86-8.63,1.88-17.7,3.22-25.66,7.23-7.37,3.7-33.4,25.36-40.93,29.83-7.14,4.23-14,8.85-20.73,13.72-27.29,19.85-50.56,44.62-72.06,70.47-5.44,6.53-90.59,95.22-90.24,95.07,14.4-6.22,56.88-26.58,64.51-27.9,9-1.56,18-1.14,27.1-1.46,35-1.22,69.5-11.29,98.1-31.85,26.92-19.36,47.74-45.83,74.32-65.62a141.7,141.7,0,0,1,22-13.54c8.68-4.29,18-7.19,27.08-10.48,14.73-5.32,29.41-11.87,38.46-25.22,6.89-10.16,10.34-22.16,18.32-31.67,7-8.4,16.88-14.59,25.73-20.88,17.33-12.32,37-26.6,39.67-49.43,0-.25-82.49,3.73-99.77,8.94"/><path class="cls-9" d="M664.21,445.37c-14.45,6.51-85,36.61-87,37.64C574,488,552.79,499.49,547.56,501c-3.5,2.36-13.17,4.13-16.58,6.63-7.52,5.49-6.61,10.85-14.06,16.43-7.78,5.83-15.8,11.32-23.85,16.76-13.18,8.88-26.5,17.55-39.35,26.9a168.22,168.22,0,0,0-17.18,13.72,113.83,113.83,0,0,0-12.44,14.32C412.55,611.11,334.44,671,333,671.77c-6.86,4.84-22.46,22.76-19.47,22.06,10.64-2.52,128.33-42,137.65-43.48,16.55-2.56,32.68-10.26,47.3-18.11,10.5-5.64,13.14-5.94,23.09-12.5,13.64-12.26,27.63-27.74,50.32-37.17,22.46-9.33,18.26-9.73,21.66-10.9.74-.26-44.74,3.81-51.79,4.39-22.08,1.81-42.39,10.39-63.18,17.3a186,186,0,0,1,43.93-28.06c7.56-3.53,33.5-6,48.54-24.36,9.18-11.21-1.5-27.64,3.24-33.12,9.77-11.29,99.71-57.16,111.34-64.06-1.08,0-20.37,1.74-21.46,1.61"/><path class="cls-5" d="M687.37,321.83c-3.86-6.34-46.17-7.23-52.79-7.68-13.4-.92-27-1.18-40.24,1.47a66,66,0,0,0-17.79,6.21c-6.12,3.2-11.59,7.59-16.82,12.07-5.68,4.87-11.08,10.05-16.73,15a137.48,137.48,0,0,1-18.71,13.55c-11.79,7.18-24.07,13.56-34,23.34-8.87,8.73-15.88,19.15-23.06,29.25-7.53,10.62-15.41,20.48-25.37,28.91A388.55,388.55,0,0,0,410.29,474c-10,10.64-20,21.67-28.94,33.22a88.72,88.72,0,0,0-9.15,13.66,46.3,46.3,0,0,0-2.78,6.77c-2.16,1.36-4.31,2.75-6.38,4.27a39.21,39.21,0,0,0-11,12.15c-2.9,5.08-4.51,11.24-6.15,16.82-7.45,25.42-7.63,52.58-6.64,78.86a255,255,0,0,0,2.16,25.9c.06.42,42.88-43.95,67.21-62.52,11.63-8.87,23.91-16.84,35.5-25.77a139.53,139.53,0,0,0,15.35-13.27,103.31,103.31,0,0,0,11.21-14.31c6.87-10.28,12.49-21.35,19.87-31.28,8.52-11.47,20.24-19.27,31.89-27.26,12.85-8.82,25.93-17.4,39.18-25.61,8.05-5,16-10.64,21.55-18.5a47.63,47.63,0,0,0,6.87-16.06,151.8,151.8,0,0,0,18.34-9.84c15.53-9.88,28.46-24.23,29.87-43.31.27-3.64,1-12.21.75-17.28,1.21-.46,34.47-14.52,41.56-20.83,4.85-4.32,10.91-11.18,6.77-18"/><path class="cls-7" d="M360.38,648.86c.07.25,28.07-27.59,28.66-28.53-.22-1.93-14-25.82-13.89-34.63.14-10,11.06-54.81,12.17-56.77.11-.21-10.52,8.7-16.15,24.13-10.25,28-17.65,73.51-10.79,95.8"/><path class="cls-7" d="M548.14,341.73c-4.35,5.59-9.25,10.93-15.32,14.69-6.71,4.15-14.28,6.75-20.86,11.15-14.2,9.49-25.87,22.75-38.43,34.21a.48.48,0,0,1-.28.13c-7.49,10.81-13.9,22.65-22.51,32.61-3.43,4-8.3,9.53-13.74,12.24-4.48,8.3-9,16.57-13.53,24.86-13.7,25.27-26.81,51.22-34,79.4a182,182,0,0,0-4.94,29c-.95,10.78-2.3,21.37,1.9,31.64.09.21,26.6-18.53,26.68-18.58,3-1.76,40-31.11,49.37-43a123.87,123.87,0,0,0,19.77-36.31c5.13-14.74,8.24-30.14,12.17-45.24,3.72-14.29,9.13-27.86,14-41.75,2.56-7.3,14.66-34.8,18.4-41.1,13.51-22.77,33.42-40.65,46.73-63.52-9.39,5.13-16.81,13.13-25.4,19.56"/><path class="cls-7" d="M637.36,313.48c-18.59,4.63-35.66,14.35-50.62,26.51a209.14,209.14,0,0,0-28.26,28.35c-8.75,10.5-16.91,21.5-22.29,34.13C529.76,417.54,503.8,501,500.81,507c-.2.41,62.76-55.22,94.76-82.1.46-.39-23.94,4.31-35.94,4.24,9.26-9.64,16-21.2,23.06-32.48,6.9-11.07,14.59-21.48,24.29-30.25,16.27-14.71,37.57-25.81,47.07-46.58a45.82,45.82,0,0,0,2-5.41c-6.25-.44-12.49-1.44-18.73-.91"/><path class="cls-7" d="M661.27,316.3c-.64.51-10.81,12.48-13.87,18.81-3.24,6.71-5.82,13.75-8.68,20.62-16.68,15.31-39.79,25-47,48.37-.13.41,28.8-13.05,47.23-26.18-.35-4-.18-16.92,1.51-17.89,3.15-1.81,7.2-2.42,10.6-3.8a67.22,67.22,0,0,0,11.48-6.12c5.22-10.4,9-21.75,13.59-32.49-4.82-1.49-11.07-2.12-14.89-1.32"/><path class="cls-10" d="M491.46,507.44c-5.29,2.95-10.55,5.89-15.56,9.31a86.26,86.26,0,0,0-20.68,20.07c-7.37,10-12.49,21.29-21.12,30.31-8.3,8.7-101.78,96-113.42,118.69.39.37,9.42,7.81,9.83,8.17,10.74-2.71,22.25-27.67,30.55-34.73,9.67-8.21,79.75-71.25,88.47-82.59,6.7-8.72,12.09-17.94,17.38-27.57s11.14-18.65,19.66-25.69c4.19-3.47,9-6,13.52-9a79.88,79.88,0,0,0,11.52-9.22c4.26-4.17,12.3-10.6,14-16.07-1.58-1.45-28.29,15.08-34.17,18.36"/><path class="cls-11" d="M541.7,152.76c-2.08-5.57-3.29-11.12-9.34-13.42-9.05-3.44-21.26,1.19-30.07,3.31-10.75,2.59-29.55-1.67-29.86-1.83s-17.74-11.72-21.48-13c-7.87-2.76-15.89-2.92-24.16-2.85-13.34.11-25.67,2.76-38,6,6.72-4.15,13.51-8.21,19.66-13.18,13.8-11.13,23.66-23.2,42.79-24,11.08-.47,25.77,2.3,34.67-6.39,10.06-9.82,11.7-24.69,20.59-35.3.83-1-19,.94-28,.45-8.78-.46-17.8-.58-26.49-1.84-6.9-1-12.28.25-17.9,4.49-5.46,4.13-5.78,11.4-9,16.93C420.77,79.43,412.81,78.27,406,81c-7.68,3.07-13.28,10.72-19.28,16.06s-13.69,8.22-19.61,13.73c-5.74,5.35-9.08,12.36-13.52,18.68,0-5.91,2.59-11.72,1.8-17.89-.73-5.76-3.24-11.27-5.38-16.62a210.78,210.78,0,0,1-8-24.53c-1.81-6.89-2.66-14.08-5.1-20.79-2.91-8-11-10.6-18.12-13.74C304.5,29.61,279.19,6.75,279.47,8.29c1.77,9.72,3.48,19.44,4.58,29.27.56,5,.65,10.27,2.42,15,2.18,5.84,10.29,5.71,15.27,7.4C313.24,63.89,322,74.65,329,84.11c6.48,8.87,14.51,21.48,13.51,33.15-6.31-4.05-10.34-10.89-15.44-16.27-8.14-8.6-15.78-17.77-25-25.28C291.11,66.83,279,66.26,265.56,65c-11-1-20.75-5-30.75-9.5a181.69,181.69,0,0,0-29.28-9.88C183.38,39.84,139.07,23,139.26,24c3.27,17.16,18.17,31.14,31,41.82,6.5,5.41,13.72,11,21.41,14.5,9.3,4.27,19.71,4.83,28.77,9.9,8.35,4.67,14.32,9.36,24.35,8.14,6.17-.74,11.74-2.75,18.06-1.76,5.29.83,10.55,5.5,14.78,8.53,8.49,6.07,17.89,9.81,27.51,13.72,3.68,1.5,7.4,2.94,11.14,4.29-7.37-1.74-14.67-3.82-21.93-5.86-13.7-3.84-27-7.67-40.44-12.45-10.34-3.7-18.75-5-27.46,2.58-9.19,8-15.24,19.56-29.47,15.86-14.59-3.78-25.89-24.46-42.84-17-12.25,5.41-64.77,52.12-63.47,52.12,13.12.09,26.86.73,39.41,4.77,9.07,2.91,18.91,7.51,28.64,6C167,167.83,173,158.63,178,152.85c4.84-5.62,9.92-9,17.62-9.55s16.48,2.7,24.07,4.33c10.81,2.32,19.9,2.17,30.25-2a152.09,152.09,0,0,1,14.62-5.49c5.88-1.7,12.09-1.2,18.13-1.26,20-.19,42.89-7.92,62.57-2.05-16,10.22-36.88,11.55-55,15.68-10.71,2.45-21.07,6.7-31.22,10.85-8.21,3.36-20,7-25.77,14.22-3.88,4.92,2,6.91,7.13,7.74-15.27,7.39-30.53,13.32-47.86,13.41-10.87.07-27.35-1.83-34.62,8.57-8.57,12.24,2.17,25.45,3.77,38.13,2.12,16.78-27.58,44.92-26.15,44.18,12.12-6.18,23.75-14,37.21-17,11.7-2.53,21.72-3.08,29.66-13,3.45-4.32,6-9.23,9.65-13.41,4-4.54,9.5-7.51,14.62-10.55,9.08-5.39,12.43-14.33,19.16-21.91,1.5-1.68,3.48-1.28,5.51-1.24a46.14,46.14,0,0,0,10.33-1.21c8.44-1.74,16.37-9.91,22.85-15.13,18-14.56,37.23-29.33,58.31-39.35a357.2,357.2,0,0,1-26.38,31.25C307.91,197,297.83,203.9,289,212.4c-4.93,4.76-4.09,11.83-3.72,18.07.33,5.51,1.76,11.07.42,16.53-1.57,6.36-6.68,11.82-11,16.44C262,276.86,244.26,288.35,248,309.27c1.69,9.42,8.51,14.66,15.74,20,12.33,9.15,2.69,21.84-.93,33.15-.43,1.34,15.79-8.68,21.28-14.71a193.52,193.52,0,0,0,20.76-27.51c4.94-7.91,8.1-15.26,8.8-24.61,1.22-16.28-3.53-32.09,3.35-47.11a94.82,94.82,0,0,0,18.07-34.33c3.09-10.81,5.7-21.65,9.07-32.4,2.76-8.77,4.58-17.55,4.29-26.62,4,3.38,6.87,8.35,9.39,12.81,3.83,6.75,7.44,14.64,8.06,22.47,1.18,15-12.2,27-8.94,42.38a1.44,1.44,0,0,0,1.42,1.08,18.65,18.65,0,0,0,11.33-5.6c.13,10.12.56,20.24.24,30.36-.36,11.32-3.74,21.53-7.46,32.11-4.32,12.29-13,33.61.51,43.29,4.87,3.48,12.18,3.2,17.84,3.26,9,.09,16.83.9,24.38,6.21,11.92,8.39,18.07,23.85,33.17,27.59.9.23,11.16-46.41,5.62-68.72-1.36-5.49-3.43-13.83-9.29-16.08-8.24-3.15-16.87,4.73-25.47,2.93,3.38-11.72,8.91-22.76,8.45-35.25a1.5,1.5,0,0,0-1.86-1.41c-4.61.66-9.2.19-13.81,0,.36-8.91,7.18-16.51,8.25-25.54.8-6.73-.54-11-5.4-15.61-8.26-7.91-15-17.41-21.81-26.56a323.27,323.27,0,0,1-18.77-28.06c16.37,9.72,27.09,26.18,38.75,40.9,5.29,6.68,10.35,14.14,18,18.19,4.51,2.41,8.85-.71,13.39,3.2,4.72,4.06,5.31,11.93,6.4,17.64,3.48,18.34,16.48,26.53,31.28,35.44,9.84,5.92,56.44,47.81,56.43,46.52-.2-13.66-3.19-26.71-6.65-39.87-3-11.55-4.77-22.93-6.48-34.72-2.46-16.94-26-17.59-38.94-20.3-8.06-1.7-13-6.56-11.14-15.5,1.06-5.18,2.36-9.3.8-14.54-2.53-8.47-10.94-12.18-18.39-15.29-21.87-9.15-42.9-20.08-66.17-23.73,30.3-1.64,60.49,8.51,89.82,14.86,18,3.9,35.6,9.27,53.32,14.22,14.23,4,29.32,6,43.93,2.94,1.39-.29-21.51-19.69-26.87-34"/><path class="cls-7" d="M501.26,159.59c-22.37-10.14-46.56-16.27-70.82-19.76-13.9-2-63-7.26-63.12-7.44,19.45-15.53,55-51.24,55-51.24l-.1,0a165.52,165.52,0,0,0-44.38,27.63c-7.44,6.48-22.51,23.62-23.08,24-.34-.84-2.91-17.66-9.89-35.37-9-22.72-23.45-48.23-31.57-57.31-.95-1.06,14.84,32.28,23.33,48,1.4,2.59,9.89,27.44,12.52,37.11a27.2,27.2,0,0,0-8.16.45C326.56,105.59,206.7,40,174.57,54.22c-1,.43,122.38,44.89,131.53,49.29,7.85,3.78,24.29,20,25.82,23-11,.49-22.05,1.39-33.05,2.45-3.88.13-28.23-7.08-48.37-4.95C209.74,128.3,158.82,144.66,138,153.7c-.8.35,60.23-16,115.5-21.15,38.7-3.61,76.63,3.35,79.78,3.61-10.43,6.56-147.73,106.06-158.32,119.75-1,1.24,162.83-108.5,167.74-109.54-1.63,4-59.13,141.21-59.13,141.21S344,154.28,347.06,145.75c.1,0,9.46,7.53,16,25.84,19,53.14,51.76,162.65,60.93,171.7.86.85-63.41-189.11-65.51-194.58,18.7,16.94,51.78,38.76,69,57.26,22,23.69,42.53,49.72,70.38,67,1.21.75,2.86-.78,2-2-20.14-29.26-46.91-54.69-73.09-78.53-13.22-12-62.56-48.31-67.77-53.07,5.17-1.08,57.42,7.22,69.11,8.45,24.49,2.57,74.7,12.51,73.18,11.83"/><path class="cls-9" d="M380.74,269.29a34.55,34.55,0,1,0,34.55-34.55,34.55,34.55,0,0,0-34.55,34.55"/><rect class="cls-10" x="306.41" y="564.71" width="94.84" height="11.97" transform="translate(-100.9 76.62) rotate(-10.83)"/><rect class="cls-10" x="585.92" y="242.7" width="94.84" height="11.97" transform="translate(-35.43 123.33) rotate(-10.82)"/><rect class="cls-2" x="86.29" y="46.22" width="11.52" height="91.24" transform="translate(-20.43 157.08) rotate(-75.05)"/><path class="cls-7" d="M422.66,386.65a30.82,30.82,0,1,1-30.82-30.83,30.82,30.82,0,0,1,30.82,30.83"/><path class="cls-5" d="M708.16,416a43.4,43.4,0,1,1-43.39-43.39A43.4,43.4,0,0,1,708.16,416"/><path class="cls-7" d="M530.41,297a49.89,49.89,0,0,1-6,8.62,107.08,107.08,0,0,1-9.31,8.66,104.37,104.37,0,0,0-10.07,9.45C517.26,302.05,532,280,530.48,256.11c0-.33-11.1,13.88-15.48,21.14a60.79,60.79,0,0,0-5.66,10.94,67.33,67.33,0,0,1-3.8,9.57c1.38-5.57,1-11.37,1.14-17,.24-8.14-1.47-24.75-1.64-24.41-5.23,9.77-7.57,20.31-9,30.74-3.82-10-8.57-30.66-8.57-30.66s2.89,26.84.32,32.69c-4.3-6.31-7.59-35.71-7.76-35.36-4,8.25-3.06,17.42-3.28,26-.11,4.24-1,8.61-1.45,13-6.4-10.91-19.4-33.06-19.43-32.77-.44,4.78,9.17,41.26,10.5,44.37-.4-.29-28.86-42.5-28.92-42.19-.88,4.39-.25,8.74.87,13.07,1.23,4.77,2.79,9.52,4.24,14.26a57.29,57.29,0,0,0,15.05,24.22c2.9,2.81,6.75,4.91,10.33,7.2a28.64,28.64,0,0,1,4.95,3.87,22.14,22.14,0,0,1,3.8,5.85c2.26,4.28,6.81,6.19,12.09,7.05a23.75,23.75,0,0,1,2.66,4.31c2.44,5,.7,11.11,4.87,15.61.16.17,4-6.2,4.42-9.61a11.61,11.61,0,0,1,2.45-6,23.09,23.09,0,0,1,5.72-4.43c8.46-5.3,14.65-11.78,18.35-19.52,2-4.14,3.07-8.48,4.63-12.71a62.82,62.82,0,0,1,6.62-13.41c4.83-7.17,13.54-12.35,18.8-19.35a15.22,15.22,0,0,0,3-10c0-.3-22.77,22.11-29.92,34.39"/><path class="cls-10" d="M506.53,303.9a32,32,0,0,0-6.74,8.08c.08-5.62,4.18-17,3.86-16.9-4.26,1-6.56,3.87-8,6.94,1.06-8.13-.65-18.28-11.55-20.92-.21,0,1,12.91,3.64,18.45a38.61,38.61,0,0,0-14.1-6.41c-.37-.09,12.7,11.48,13.82,18.7-4.28-2.13-8.85-.82-12.49,1.78-.23.16-.12.48.2.54,4.19.72,8.66,2.06,12.85.82.13,3.46-1.29,6.84-1.38,10.3a15.79,15.79,0,0,0,1.14,5.41c.55,1.61,2.61,7.64,6.44,6.3,5.18-1.83,3.93-8.48,4.16-11.82s1.63-6.5,3-9.58c1.74-3.86,5.45-11.93,5.18-11.69"/><polygon class="cls-12" points="652.5 180.45 645.91 197.81 657.88 209.18 630.35 204.99 652.5 180.45"/><polygon class="cls-13" points="499.19 583.97 481.18 438.64 318.91 471.83 308.25 355.18 317.79 354.31 327.47 460.3 489.41 427.18 508.7 582.79 499.19 583.97"/><polygon class="cls-3" points="541.77 330.68 536.98 349.24 546.95 349.24 541.77 330.68"/><polygon class="cls-3" points="592.05 484.51 589.14 497.11 611.2 501.26 592.05 484.51"/><polygon class="cls-3" points="692.6 404.3 656.09 415.98 667.46 388.14 692.6 404.3"/><path class="cls-11" d="M399.6,489.07c-16.72,4.7-32.66,10.48-49.94,12.93-20.21,2.86-40.47,5.34-60.71,8-18.65,2.43-37.34,4.64-55.6,9.27C214.67,524,196.52,530.73,178.68,538c-7.57,3.08-15.43,5.92-22.77,9.5-8.43,4.11-16.29,9.22-24.36,14-15.22,8.95-31.6,13.07-48.05,18.95-9.88,3.54-17.86,8.6-24.3,16.82-13.64,17.41-23.28,39.43-28.31,60.87-3.23,13.75-4.72,32.75,6.28,42.76-5.31,2.61-13.08,3.35-17.33,4.49C11.58,707.56-.88,720.73.05,720.78c27.25,1.45,57.46-1.79,81.76-15,13.4-7.28,23-19.71,34.69-29.15,14.93-12,33.12-11.87,51-15.45,9.12-1.82,18-5.36,26.94-7.95,10.13-3,20.33-5.63,30.56-8.24,19.8-5.05,39.36-10.47,59.81-11.8,8.22-.54,16.3-1.37,24.21-3.75s15.11-7.12,21.87-11.83c6.58-4.58,13-9.35,20.11-13,8.24-4.23,17.52-6.59,26.42-8.9,23.77-6.2,49.74-12,66.58-31.46,12.66-14.65,43.28-48.41,37.31-65.62-12.5-36.09-67.31-13.6-81.75-9.53"/><path class="cls-4" d="M301.94,509.31c-11.88.68-22.55,6.1-32.78,11.77-12.3,6.82-24,13.21-37.38,17.74-12,4-24,7.74-35.3,13.45-12.54,6.34-23.15,15.87-33.91,24.78a373.11,373.11,0,0,0-32.61,30c-8.93,9.39-59.15,63-65.27,84.82-.31,1.1,97.11-47,109.88-62.62,13.71-16.76,25.32-37,43.42-49.55,16.59-11.48,35.74-18.86,53-29.31,14.72-8.93,31.87-41.14,31-41.08"/><path class="cls-4" d="M417.8,506.8c-20.12.1-103.09,33.65-112.12,38.08-20.45,10-37.35,26.87-53.65,42.44-6.71,6.41-12,13.54-17.57,20.91-2.17,2.87-4.55,6-7.2,8.83-16.09,6.79-31.46,15.26-42.76,28.77-.71.85,58.91-18,72-21.86,24.87-7.38,51-8.47,73.74-22,9.66-5.76,18.2-13.27,26.08-21.24,7.68-7.77,16.07-14.81,24.1-22.21,15-13.85,38.16-51.71,37.38-51.7"/><rect class="cls-3" x="514.81" y="82.73" width="6" height="40.93" transform="translate(155.67 487.42) rotate(-57.97)"/></g></g></svg>