<svg xmlns="http://www.w3.org/2000/svg" viewBox="0 0 1181.27 585.74"><defs><style>.cls-1{fill:#b47ae8;}.cls-2{fill:#8e659f;}.cls-3{fill:#fff;}.cls-4{fill:#e4d91b;}.cls-12,.cls-5{fill:#274490;}.cls-5{stroke:#126da8;stroke-miterlimit:10;stroke-width:4px;}.cls-6{fill:#f83c2d;}.cls-7{fill:#83d1b7;}.cls-8{fill:#e96bbc;}.cls-9{fill:#1ab687;}.cls-10{fill:#abcccb;}.cls-11{fill:#b1d3d3;}</style></defs><title>hojas</title><g id="Layer_2" data-name="Layer 2"><g id="Layer_1-2" data-name="Layer 1"><rect class="cls-1" x="45.35" y="216.85" width="6" height="40.93" transform="translate(-178.48 152.42) rotate(-57.97)"/><polygon class="cls-2" points="336.6 392.13 367.41 438.51 401.08 398.18 336.6 392.13"/><polygon class="cls-3" points="197.83 493.52 188.71 520.24 210.35 516.32 197.83 493.52"/><polygon class="cls-4" points="183.67 246.9 205.62 211.56 221.64 246.9 183.67 246.9"/><polygon class="cls-4" points="18.96 440.25 28.09 460.51 45.21 440.25 18.96 440.25"/><line class="cls-5" x1="481.66" y1="540.62" x2="499.4" y2="560.88"/><path class="cls-6" d="M245.35,295.58a8,8,0,1,1-8-8A8,8,0,0,1,245.35,295.58Z"/><circle class="cls-3" cx="12.5" cy="94.24" r="12.5"/><polygon class="cls-4" points="688.3 57.75 687.32 52.31 665.14 56.34 673.25 32.44 668.01 30.66 658.91 57.47 633.4 62.1 643.2 32.41 637.95 30.68 627.2 63.23 606.8 66.93 607.79 72.38 625.22 69.21 618.63 89.19 623.88 90.92 631.42 68.09 656.88 63.46 648.15 89.16 653.39 90.94 663.11 62.33 688.3 57.75"/><polygon class="cls-4" points="438.53 42.5 430.63 59.37 414.36 54.94 438.53 42.5"/><polygon class="cls-7" points="611.03 114.6 540.27 101.58 568.48 61.88 572.62 64.82 549.02 98.03 611.96 109.61 611.03 114.6"/><path class="cls-3" d="M239.06,49.72c-2.87-7.31,5.61-9.74,10.81-10,18-1,34.32,10,51.65,8.64,1.22-9.26-21.91-22.15-28.3-26.91-11.52-8.56-26.64-16.86-41.4-16-12.91.75-18.22,11.64-24,21.87-3,5.31-9.21,28.21,2,28.57-10,13.19-20-16.73-21.83-22-3.43-9.8-2.58-23.43-12.23-29.87-9-6-24.55-4.28-34.3-.57S123,15.43,115.92,23.07c-6.15,6.67-20.41,17.5-21.29,27.55,7.54,0,15.42.36,22.55-.7,7.9-1.17,15.69-3.4,24.06-2.06,13.92,2.23,19.23,16.26,1.46,17.34-13.33.81-25.87-5.63-39.38-1.48-17.69,5.43-33.93,49-19.09,62.64,5.25-9.34,14.6-15.71,22-23.29,8.15-8.32,15.2-15.28,26.19-19.1a69.28,69.28,0,0,1,25.35-3.46c9.23.32,10.2,2.53,4.57,10.2-7.71,10.52-28.93,8.85-41.35,16-9.54,5.49-31.54,16.22-30.82,28.46.35,5.81,4,9.9,4.37,16,.48,7.12-.89,13.7-1.31,20.33,8.48-6.4,11.58-19.69,20.47-26.7s17.51-14.78,27.34-20.1c3.29-1.78,12.15-7,16.06-4,6.14,4.75-1.26,11.46-5.69,13.54-11.85,5.56-24,8.2-33.52,18.21-7.43,7.8-23,16.72-20.47,29.34,1.26,6.35,3.66,11.56,4.4,18.23s3.89,11.47,5.32,17.24c7.55-14.77,18.51-25.5,30.26-37.66,4.37-4.52,8.1-9.35,12.7-13.81,7.81-7.58,10.92-8.05,20.88-7.22,1.9,7.45-16.76,18.13-21.76,23.38-8.39,8.82-18.32,16.11-27.13,24.63-6.64,6.42-9.18,16.05-4.8,25.37,3.82,8.14,12.77,12.36,15.35,21.23,6.06-6.18,8.64-15.73,13.48-23.27s14.37-32.26,25.7-29.89c13.59,2.85,4.28,24.86-.57,31.35-5.65,7.57-27.22,28.53-20.06,38.11,6.91,9.23,26.05,3.3,33,14.08,6.18-6.57,13.8-9.69,21.87-12.1,5.45-1.62,21.07-4.69,23.54-10.75,1.89-4.64-3.55-8.19-5.54-11.83-2.56-4.69-3.31-9.84-5.41-14.59-3.46-7.84-12.28-17.05-10.3-26.14,3-.42,8.26-.14,10.69,1.49,9.18,6.14,10.62,23.79,13.46,33.39,3.6,12.12,10.05,23.51,18.76,8.75,4.71-8,16.66-18,17.49-27,.92-9.87-10.57-20-16.58-27.16-8.1-9.59-18.05-16.28-27.91-23.73-3.43-2.6-10.71-8.69-4.57-13.47,4.74-3.69,11,3,14.84,5.87,9.27,6.88,18,13.95,24.56,23.51,4.64,6.71,18.08,20,17.1,28.34,3.5-2.47,6.47-15.67,7.87-20.34,2.51-8.35,5.38-15.5,4.38-24.79-1.27-11.67-21.33-24.69-31.53-30.43-7.75-4.38-22.75-8-28.45-15.32-3.61-4.64-2.38-11.25,3.84-12.57,4.66-1,10,3.7,14,5.65,9.93,4.84,20.41,9.91,28.26,18.41,5.44,5.87,9.18,13.36,13.66,19.84,4.14,6,9.77,11.7,13.15,17.85.33-9.35,1.39-19.36,3.84-28.17,1.95-7,9.71-13.82,5.22-21.38-6.59-11.11-24.88-17.39-35.88-23a107.46,107.46,0,0,0-20.42-8.23c-5.43-1.49-15.1-3.17-15.31-10.17-.36-12.06,24.22-4.15,30.61-2,17.13,5.65,32.17,22,46.44,32.4a80.56,80.56,0,0,1-5.64-20.15c-1.7-12.39-1.25-24.95-12.92-33-12.06-8.34-26-7.8-40.22-7.8C251.84,55,241.57,56.12,239.06,49.72ZM184.44,71.09c-1,2-5.4,3.23-8.29,1.14-2.43-1.75-3.5-6.6-4-7.61-.38-.85.59-1.85,1.33-2.08C178.21,61.08,187.48,65.21,184.44,71.09Zm-8,82.47c-.88-.08-.76-1-.42-1.55,1.75-3,4.15-6.19,7.38-7.7.37-.17,1-.32,1.22.2.64,1.61.48,5.82-1.58,7.75C181.17,154.05,177.42,153.65,176.47,153.56Zm36.3-39.49c-.1.81-1.08,1.77-1.93,1.54-3.28-.86-7-3.2-6.25-7.07a1.84,1.84,0,0,1,1.93-1.54C207.7,107.24,213.08,111.58,212.77,114.07Zm1.47,38.35a2,2,0,0,1-1.39,1.83c-4,.66-6.87-2.52-8.57-5.79a22.53,22.53,0,0,1-.8-2.81,1.9,1.9,0,0,1,1.69-1.87C209.57,144,214.05,147.92,214.24,152.42Zm6.93-90c-1.66,1.47-3.46,1.18-4.5-.76s.65-4.42,2-5.66,3.94-2.81,5.31-1.53C226.91,57.22,222.71,61.09,221.17,62.46Z"/><path class="cls-8" d="M241.18,69.57a139.18,139.18,0,0,0-20.69,1.54,85.19,85.19,0,0,1-12.84,1.38,16.14,16.14,0,0,1-2.57-.25,88.53,88.53,0,0,1-2.49,11.22c-.61,2.1-1.3,4.18-2,6.26a34.61,34.61,0,0,0,8.18,3.82c4.6,1.29,32.28,3.27,40.44,7.48,7.44,3.83,15,7.54,22.5,11.2a100.59,100.59,0,0,1,11.84,7.31c-4.94-1.92-29.57-11.66-36.9-14.7s-14.87-3.7-22.61-5.29c-5.65-1.16-22.06-5.5-24.68-6.25-2.77,8.07-5.44,16.22-5,25.06a49.33,49.33,0,0,0,14.81,9.45c7.11,3,14.44,3.88,21.68,6.38,7.82,2.7,13.74,7.08,20.15,11.95,6.88,5.23,14.23,9.89,20.41,16,3,3,5.92,5.72,8,9.37-4-2.81-20.27-14.72-24.86-17.1-7.39-3.82-59-30.23-59.7-31.1,1.21,10.22,3.29,20.41,3.3,31.55a76.1,76.1,0,0,1-.83,10.92c2.85,5.65,7.58,11.07,11,14.88,5.06,5.55,12,8.72,16.36,14.87-4-1.68-7.12-4.88-10.6-7.42S206.58,184,203,181.6c-2.82-1.95-4.9-4.86-7.11-7.54-1,5-2.08,9.92-2.87,15.06-1.88,12.31,2.66,52.61,1.48,55.42-4.91-3.54-3-25.59-4.93-30.8-2.28-6.16-4.23-12-4.55-18.78a134.93,134.93,0,0,1,1-22.4c-1.08,1.17-5.48,2.93-9.5,6.05-7.24,5.62-15.82,13.68-19.91,16.67,6.33-6.57,11.21-14.4,18.43-20.06,3.23-2.54,7.28-6.77,11.53-7.12.42-3.22,2.63-25.95,2.27-33.77-5.51,4.28-56.26,24.86-62.15,26.32,8.31-10.37,25.54-15.08,37.59-19.53,6.42-2.38,21.09-10.61,22.9-11,.41-.1.27-21.91.67-28.58-3.6,2-80.54,24.09-83.67,24.15,3.22-4,59.66-21.19,67-23,3.16-.78,14.48-5.34,17-5.94.36-4.69.8-9.34,1.19-13.86.63-7.38.83-14.76,1.48-22.08l0,0c.91-3-12-13.76-14.84-16-5.47-4.39-26.62-14.85-29.68-16,12.55-.43,25.67,7.21,33.94,16,2.16,2.31,7.55,6.62,11.14,10.93a94,94,0,0,1,1.77-10.1c10.4,1.53,12.88,10.75,12.49,20.34,2.17.34,20.63.32,28.21-.39,9.43-.89,19.32-.48,28.86-.36a53.09,53.09,0,0,1,15.14,1.91c5.41,1.66,13,3.48,17.5,6.79C284.76,72.12,248.55,69.59,241.18,69.57Z"/><path class="cls-6" d="M32,122.56c-6,0-6,9.14,0,9.14S38,122.56,32,122.56Z"/><rect class="cls-3" x="774.58" y="110.03" width="33.38" height="5.26" transform="translate(-4.02 192.12) rotate(-13.81)"/><path class="cls-9" d="M1160.29,90.49v0c-1.23-2.13-20-33.1-71-22A84.3,84.3,0,0,0,1067,76.78l-11.71-20.66a107.38,107.38,0,0,1,28.84-10.81c36-7.86,60.27,1.41,74.29,10.57,15.39,10.05,22.1,22.05,22.81,23.38Z"/><polygon class="cls-4" points="296.17 442.24 393.74 585.74 199.51 585.74 296.17 442.24"/><rect class="cls-1" x="242.53" y="299.65" width="29.07" height="4.61" transform="translate(-87.81 106.19) rotate(-20.01)"/><polygon class="cls-10" points="630.87 377.32 624.64 343.48 590.21 363.14 591 391.19 613.21 362.92 610.53 398.73 630.87 377.32"/><polygon class="cls-11" points="255.13 393.95 231.97 429.41 213.43 404.77 255.13 393.95"/><circle class="cls-3" cx="590.5" cy="538.24" r="12.5"/><polygon class="cls-9" points="306.6 271.68 342.15 273.56 345.06 241.02 306.6 271.68"/><polygon class="cls-3" points="327.92 254.68 342.15 273.56 345.06 241.02 327.92 254.68"/><polygon class="cls-6" points="126.89 524.18 104.69 515.13 95.09 531.6 70.4 523.14 73.22 558.13 96.32 539.16 116.68 543.97 126.89 524.18"/><polygon class="cls-11" points="108.61 500.26 70.4 493.81 80.44 539.91 108.61 500.26"/><polygon class="cls-8" points="638.82 535.17 680.91 517.5 672.81 549.11 638.82 535.17"/><rect class="cls-12" x="441.55" y="477.16" width="4.28" height="27.14" transform="translate(-126.67 825.95) rotate(-78.33)"/><polygon class="cls-9" points="151.56 402.97 120.87 374.57 150.03 347.93 145.93 343.45 116.4 370.43 87.19 343.41 83.07 347.87 111.9 374.54 84.3 399.77 88.39 404.25 116.37 378.68 147.43 407.43 151.56 402.97"/><path class="cls-9" d="M86.84,291.84c-12.27,0-26.46-8.83-27.18-9.28l3.23-5.14c5.18,3.25,20.48,10.94,28.92,7.5s13.37-19.31,14.57-25.14l5.94,1.22c-.2,1-5.11,24.19-18.22,29.54A19.06,19.06,0,0,1,86.84,291.84Z"/><ellipse class="cls-12" cx="58.41" cy="317.45" rx="9.41" ry="9.11"/><path class="cls-8" d="M158.91,314.87c0,13.66-12.53,24.74-28,24.74a29.75,29.75,0,0,1-4.56-.34C113.1,337.36,103,327.16,103,314.87c0-13.67,12.52-24.74,28-24.74a31.5,31.5,0,0,1,4.48.32C148.73,292.34,158.91,302.55,158.91,314.87Z"/><path class="cls-4" d="M158.91,314.87c0,13.66-12.53,24.74-28,24.74a29.75,29.75,0,0,1-4.56-.34l9-48.82C148.73,292.34,158.91,302.55,158.91,314.87Z"/><rect class="cls-3" x="313.58" y="527.02" width="70.07" height="10.27" transform="translate(-90.75 72.07) rotate(-10.45)"/></g></g></svg>