<svg xmlns="http://www.w3.org/2000/svg" xmlns:xlink="http://www.w3.org/1999/xlink" viewBox="0 0 671.96 515.12"><defs><style>.cls-1{fill:none;}.cls-2{fill:#fff;}.cls-3{fill:#e96bbc;}.cls-4{fill:#e4d91b;}.cls-5{fill:#274490;}.cls-6{fill:#b7e1df;}.cls-7{fill:url(#New_Pattern_28);}.cls-8{fill:url(#New_Pattern_4);}.cls-9{fill:#1ab687;}.cls-10{fill:#b1d3d3;}.cls-11{fill:#f83c2d;}.cls-12{fill:#443880;}</style><pattern id="New_Pattern_28" data-name="New Pattern 28" width="125" height="830.8" patternTransform="translate(-65 550)" patternUnits="userSpaceOnUse" viewBox="0 0 125 830.8"><rect class="cls-1" width="125" height="830.8"/><path class="cls-2" d="M148.09,5.47c-1.94,147.71-9.19,294.69-12.54,442.22-1.68,74-4.68,147.84-7.73,221.64-1.07,26.12-3,51.66-4.63,77.62-1.39,22.62-1.23,85.24,0,88.95,1.06,3.26,4.34,4.2,5.33.17.79-3.21-1.69-64.07-.58-84.49,1.33-24.56,3.52-48.71,4.54-73.38,3-73.78,6.34-147.67,7.9-221.71C143.45,309,150.81,162.05,153,14.4l.12-8.93C153.19-1.83,148.19-1.81,148.09,5.47Z"/><path class="cls-2" d="M123.09,5.47c-1.94,147.71-9.19,294.69-12.54,442.22-1.68,74-4.68,147.84-7.73,221.64-1.07,26.12-3,51.66-4.63,77.62-1.39,22.62-1.23,85.24,0,88.95,1.06,3.26,4.34,4.2,5.33.17.79-3.21-1.69-64.07-.58-84.49,1.33-24.56,3.52-48.71,4.54-73.38,3.05-73.78,6.34-147.67,7.9-221.71C118.45,309,125.81,162.05,128,14.4l.12-8.93C128.19-1.83,123.19-1.81,123.09,5.47Z"/><path class="cls-2" d="M98.09,5.47C96.15,153.18,88.9,300.16,85.55,447.69c-1.68,74-4.68,147.84-7.73,221.64-1.07,26.12-3,51.66-4.63,77.62-1.39,22.62-1.23,85.24,0,88.95,1.06,3.26,4.34,4.2,5.33.17.79-3.21-1.69-64.07-.58-84.49,1.33-24.56,3.52-48.71,4.54-73.38,3.05-73.78,6.34-147.67,7.9-221.71C93.45,309,100.81,162.05,103,14.4l.12-8.93C103.19-1.83,98.19-1.81,98.09,5.47Z"/><path class="cls-2" d="M73.09,5.47C71.15,153.18,63.9,300.16,60.55,447.69c-1.68,74-4.68,147.84-7.73,221.64-1.07,26.12-3,51.66-4.63,77.62-1.39,22.62-1.23,85.24,0,88.95,1.06,3.26,4.34,4.2,5.33.17.79-3.21-1.69-64.07-.58-84.49,1.33-24.56,3.52-48.71,4.54-73.38,3-73.78,6.34-147.67,7.9-221.71C68.46,309,75.81,162.05,78,14.4l.12-8.93C78.19-1.83,73.19-1.81,73.09,5.47Z"/><path class="cls-2" d="M48.09,5.47C46.15,153.18,38.9,300.16,35.55,447.69c-1.68,74-4.68,147.84-7.73,221.64-1.07,26.12-3,51.66-4.63,77.62-1.39,22.62-1.23,85.24,0,88.95,1.06,3.26,4.34,4.2,5.33.17.79-3.21-1.69-64.07-.58-84.49,1.33-24.56,3.52-48.71,4.54-73.38,3-73.78,6.34-147.67,7.9-221.71C43.46,309,50.81,162.05,53,14.4l.12-8.93C53.19-1.83,48.19-1.81,48.09,5.47Z"/><path class="cls-2" d="M23.09,5.47C21.15,153.18,13.9,300.16,10.55,447.69c-1.68,74-4.68,147.84-7.73,221.64C1.75,695.45-.22,721-1.81,747c-1.39,22.62-1.23,85.24,0,88.95,1.06,3.26,4.34,4.2,5.33.17.79-3.21-1.69-64.07-.58-84.49C4.25,727,6.44,702.87,7.46,678.2c3.05-73.78,6.34-147.67,7.9-221.71C18.46,309,25.81,162.05,28,14.4l.12-8.93C28.19-1.83,23.19-1.81,23.09,5.47Z"/><path class="cls-2" d="M-1.91,5.47C-3.85,153.18-11.1,300.16-14.45,447.69c-1.68,74-4.68,147.84-7.73,221.64-1.07,26.12-3,51.66-4.63,77.62-1.39,22.62-1.23,85.24,0,88.95,1.06,3.26,4.34,4.2,5.33.17.79-3.21-1.69-64.07-.58-84.49,1.33-24.56,3.52-48.71,4.54-73.38,3-73.78,6.34-147.67,7.9-221.71C-6.54,309,.81,162.05,3,14.4l.12-8.93C3.19-1.83-1.81-1.81-1.91,5.47Z"/><path class="cls-2" d="M148.09-825.33c-1.94,147.7-9.19,294.68-12.54,442.21-1.68,74-4.68,147.85-7.73,221.64-1.07,26.12-3,51.67-4.63,77.62-1.39,22.63-1.23,85.25,0,89,1.06,3.26,4.34,4.19,5.33.16.79-3.2-1.69-64.07-.58-84.48,1.33-24.57,3.52-48.71,4.54-73.38,3-73.79,6.34-147.68,7.9-221.72,3.09-147.53,10.45-294.44,12.61-442.09l.12-8.92C153.19-832.64,148.19-832.62,148.09-825.33Z"/><path class="cls-2" d="M123.09-825.33c-1.94,147.7-9.19,294.68-12.54,442.21-1.68,74-4.68,147.85-7.73,221.64-1.07,26.12-3,51.67-4.63,77.62-1.39,22.63-1.23,85.25,0,89,1.06,3.26,4.34,4.19,5.33.16.79-3.2-1.69-64.07-.58-84.48,1.33-24.57,3.52-48.71,4.54-73.38,3.05-73.79,6.34-147.68,7.9-221.72,3.09-147.53,10.45-294.44,12.61-442.09l.12-8.92C128.19-832.64,123.19-832.62,123.09-825.33Z"/><path class="cls-2" d="M98.09-825.33c-1.94,147.7-9.19,294.68-12.54,442.21-1.68,74-4.68,147.85-7.73,221.64-1.07,26.12-3,51.67-4.63,77.62-1.39,22.63-1.23,85.25,0,89,1.06,3.26,4.34,4.19,5.33.16.79-3.2-1.69-64.07-.58-84.48,1.33-24.57,3.52-48.71,4.54-73.38,3.05-73.79,6.34-147.68,7.9-221.72C93.45-521.85,100.81-668.76,103-816.41l.12-8.92C103.19-832.64,98.19-832.62,98.09-825.33Z"/><path class="cls-2" d="M73.09-825.33c-1.94,147.7-9.19,294.68-12.54,442.21-1.68,74-4.68,147.85-7.73,221.64-1.07,26.12-3,51.67-4.63,77.62-1.39,22.63-1.23,85.25,0,89,1.06,3.26,4.34,4.19,5.33.16.79-3.2-1.69-64.07-.58-84.48,1.33-24.57,3.52-48.71,4.54-73.38,3-73.79,6.34-147.68,7.9-221.72C68.46-521.85,75.81-668.76,78-816.41l.12-8.92C78.19-832.64,73.19-832.62,73.09-825.33Z"/><path class="cls-2" d="M48.09-825.33c-1.94,147.7-9.19,294.68-12.54,442.21-1.68,74-4.68,147.85-7.73,221.64-1.07,26.12-3,51.67-4.63,77.62-1.39,22.63-1.23,85.25,0,89,1.06,3.26,4.34,4.19,5.33.16.79-3.2-1.69-64.07-.58-84.48,1.33-24.57,3.52-48.71,4.54-73.38,3-73.79,6.34-147.68,7.9-221.72C43.46-521.85,50.81-668.76,53-816.41l.12-8.92C53.19-832.64,48.19-832.62,48.09-825.33Z"/><path class="cls-2" d="M23.09-825.33c-1.94,147.7-9.19,294.68-12.54,442.21-1.68,74-4.68,147.85-7.73,221.64-1.07,26.12-3,51.67-4.63,77.62C-3.2-61.23-3,1.39-1.83,5.1c1.06,3.26,4.34,4.19,5.33.16.79-3.2-1.69-64.07-.58-84.48,1.33-24.57,3.52-48.71,4.54-73.38,3.05-73.79,6.34-147.68,7.9-221.72C18.46-521.85,25.81-668.76,28-816.41l.12-8.92C28.19-832.64,23.19-832.62,23.09-825.33Z"/><path class="cls-2" d="M-1.91-825.33c-1.94,147.7-9.19,294.68-12.54,442.21-1.68,74-4.68,147.85-7.73,221.64-1.07,26.12-3,51.67-4.63,77.62-1.39,22.63-1.23,85.25,0,89,1.06,3.26,4.34,4.19,5.33.16.79-3.2-1.69-64.07-.58-84.48,1.33-24.57,3.52-48.71,4.54-73.38,3-73.79,6.34-147.68,7.9-221.72C-6.54-521.85.81-668.76,3-816.41l.12-8.92C3.19-832.64-1.81-832.62-1.91-825.33Z"/></pattern><pattern id="New_Pattern_4" data-name="New Pattern 4" width="630" height="620" patternTransform="translate(-60 550)" patternUnits="userSpaceOnUse" viewBox="0 0 630 620"><rect class="cls-1" width="630" height="620"/><polygon class="cls-3" points="34.34 625.43 38.47 616.33 86.83 638.27 82.7 647.37 34.34 625.43"/><polygon class="cls-3" points="456.42 613.33 466.42 613.27 466.76 666.37 456.76 666.43 456.42 613.33"/><polygon class="cls-3" points="650.28 257.38 659.29 261.71 636.26 309.56 627.25 305.23 650.28 257.38"/><polygon class="cls-3" points="641.58 192.59 650.59 196.93 627.55 244.77 618.54 240.44 641.58 192.59"/><polygon class="cls-3" points="654.18 86.47 656.91 96.09 605.82 110.58 603.09 100.96 654.18 86.47"/><polygon class="cls-3" points="648.09 476.6 623.62 461.04 628.98 452.6 653.46 468.16 648.09 476.6"/><polygon class="cls-3" points="630.76 421.54 626.45 412.51 655.78 398.52 660.09 407.55 630.76 421.54"/><polygon class="cls-3" points="22 348.02 20.18 338.18 68.68 329.18 70.5 339.02 22 348.02"/><polygon class="cls-3" points="284.91 330.25 266.59 287.4 275.78 283.47 294.1 326.32 284.91 330.25"/><polygon class="cls-3" points="269.91 439.25 251.59 396.4 260.78 392.47 279.1 435.32 269.91 439.25"/><polygon class="cls-3" points="107.91 227.25 89.59 184.4 98.78 180.47 117.1 223.32 107.91 227.25"/><polygon class="cls-3" points="464.91 316.25 446.59 273.4 455.79 269.47 474.1 312.32 464.91 316.25"/><polygon class="cls-3" points="314.65 117.05 308.53 109.14 350.53 76.64 356.65 84.55 314.65 117.05"/><polygon class="cls-3" points="521.88 355.08 517.82 364.21 469.3 342.62 473.36 333.48 521.88 355.08"/><polygon class="cls-3" points="361.58 186.75 370.03 192.1 341.59 236.95 333.15 231.6 361.58 186.75"/><polygon class="cls-3" points="83.2 209.17 83.08 219.17 29.98 218.53 30.1 208.53 83.2 209.17"/><polygon class="cls-3" points="348.65 316.35 339.99 311.35 366.53 265.35 375.19 270.35 348.65 316.35"/><polygon class="cls-3" points="238.65 297.35 229.99 292.35 256.53 246.35 265.19 251.35 238.65 297.35"/><polygon class="cls-3" points="188.65 348.35 179.99 343.35 206.53 297.35 215.19 302.35 188.65 348.35"/><polygon class="cls-3" points="106.65 419.35 97.98 414.35 124.53 368.35 133.19 373.35 106.65 419.35"/><polygon class="cls-3" points="114.65 111.35 105.98 106.35 132.53 60.35 141.19 65.35 114.65 111.35"/><polygon class="cls-3" points="103.21 395.28 93.21 395.51 91.97 342.42 101.97 342.19 103.21 395.28"/><polygon class="cls-3" points="4.5 328.43 0.55 319.24 49.34 298.27 53.29 307.46 4.5 328.43"/><polygon class="cls-3" points="273.65 527.35 264.99 522.35 291.53 476.35 300.19 481.35 273.65 527.35"/><polygon class="cls-3" points="452.65 476.35 443.99 471.35 470.53 425.35 479.19 430.35 452.65 476.35"/><polygon class="cls-3" points="354.65 590.35 345.99 585.35 372.53 539.35 381.19 544.35 354.65 590.35"/><polygon class="cls-3" points="406.65 364.35 397.99 359.35 424.53 313.35 433.19 318.35 406.65 364.35"/><polygon class="cls-3" points="326.41 509.39 316.51 510.85 308.77 458.31 318.66 456.85 326.41 509.39"/><polygon class="cls-3" points="533.65 600.35 524.99 595.35 551.53 549.35 560.19 554.35 533.65 600.35"/><polygon class="cls-3" points="176.65 575.35 167.99 570.35 194.53 524.35 203.19 529.35 176.65 575.35"/><polygon class="cls-3" points="145.34 101.43 149.47 92.33 197.84 114.27 193.7 123.37 145.34 101.43"/><polygon class="cls-3" points="34.34 5.43 38.47 -3.67 86.83 18.27 82.7 27.37 34.34 5.43"/><polygon class="cls-3" points="134.59 155.01 129.35 146.49 174.59 118.69 179.83 127.2 134.59 155.01"/><polygon class="cls-3" points="193.58 141.54 188.34 133.02 233.59 105.21 238.82 113.73 193.58 141.54"/><polygon class="cls-3" points="218.26 264.06 213.02 255.53 258.26 227.73 263.5 236.25 218.26 264.06"/><polygon class="cls-3" points="203.33 76.22 198.09 67.7 243.34 39.89 248.57 48.41 203.33 76.22"/><polygon class="cls-3" points="347.34 477.43 351.47 468.33 399.84 490.27 395.7 499.38 347.34 477.43"/><polygon class="cls-3" points="409.63 594.38 419.38 596.6 407.54 648.37 397.8 646.14 409.63 594.38"/><polygon class="cls-3" points="331.34 599.43 335.47 590.33 383.84 612.27 379.7 621.38 331.34 599.43"/><polygon class="cls-3" points="585.34 425.43 589.47 416.33 637.84 438.27 633.7 447.38 585.34 425.43"/><polygon class="cls-3" points="69.65 153.35 60.98 148.35 87.53 102.35 96.19 107.35 69.65 153.35"/><polygon class="cls-3" points="517.65 268.35 508.99 263.35 535.53 217.35 544.19 222.35 517.65 268.35"/><polygon class="cls-3" points="364.65 69.35 355.99 64.35 382.53 18.35 391.19 23.35 364.65 69.35"/><polygon class="cls-3" points="396.55 213.52 402.68 205.62 444.63 238.19 438.5 246.08 396.55 213.52"/><polygon class="cls-3" points="587.55 151.52 593.68 143.62 635.63 176.19 629.5 184.08 587.55 151.52"/><polygon class="cls-3" points="518.55 95.52 524.68 87.61 566.63 120.19 560.5 128.08 518.55 95.52"/><polygon class="cls-3" points="457.55 115.52 463.68 107.61 505.63 140.19 499.5 148.08 457.55 115.52"/><polygon class="cls-3" points="288.07 203.52 282.18 195.44 325.11 164.18 331 172.26 288.07 203.52"/><polygon class="cls-3" points="494.55 15.52 500.68 7.62 542.63 40.19 536.5 48.08 494.55 15.52"/><polygon class="cls-3" points="469.55 381.52 475.68 373.62 517.63 406.19 511.5 414.08 469.55 381.52"/><polygon class="cls-3" points="456.42 -6.67 466.42 -6.73 466.76 46.37 456.76 46.44 456.42 -6.67"/><polygon class="cls-3" points="474.42 236.33 484.42 236.27 484.76 289.37 474.76 289.44 474.42 236.33"/><polygon class="cls-3" points="403.42 480.33 413.42 480.27 413.76 533.37 403.76 533.44 403.42 480.33"/><polygon class="cls-3" points="500.42 573.33 510.42 573.27 510.76 626.37 500.76 626.44 500.42 573.33"/><polygon class="cls-3" points="521.55 319.52 527.68 311.62 569.63 344.19 563.5 352.08 521.55 319.52"/><polygon class="cls-3" points="497.47 289.02 494.93 279.35 546.29 265.87 548.83 275.54 497.47 289.02"/><polygon class="cls-3" points="500.57 384.18 498.03 374.5 549.4 361.02 551.94 370.69 500.57 384.18"/><polygon class="cls-3" points="587.55 361.52 593.68 353.62 635.63 386.19 629.5 394.08 587.55 361.52"/><polygon class="cls-3" points="131.6 295.76 140.61 300.1 117.57 347.94 108.56 343.61 131.6 295.76"/><polygon class="cls-3" points="20.28 257.38 29.3 261.71 6.26 309.56 -2.75 305.23 20.28 257.38"/><polygon class="cls-3" points="113 272.18 122.01 276.52 98.97 324.37 89.96 320.03 113 272.18"/><polygon class="cls-3" points="75.6 225.76 84.61 230.1 61.57 277.94 52.56 273.61 75.6 225.76"/><polygon class="cls-3" points="27.6 101.76 36.61 106.1 13.57 153.94 4.56 149.6 27.6 101.76"/><polygon class="cls-3" points="152.6 153.76 161.61 158.1 138.57 205.94 129.56 201.6 152.6 153.76"/><polygon class="cls-3" points="11.58 192.59 20.59 196.93 -2.45 244.77 -11.46 240.44 11.58 192.59"/><polygon class="cls-3" points="24.18 86.47 26.91 96.09 -24.18 110.58 -26.91 100.96 24.18 86.47"/><polygon class="cls-3" points="203.6 8.76 212.61 13.1 189.57 60.94 180.56 56.6 203.6 8.76"/><polygon class="cls-3" points="432.28 355.99 425.82 348.36 444.9 332.21 451.36 339.84 432.28 355.99"/><polygon class="cls-3" points="207.17 160.34 204.01 150.85 244.51 137.35 247.67 146.84 207.17 160.34"/><polygon class="cls-3" points="196.17 430.34 193.01 420.86 233.51 407.36 236.67 416.84 196.17 430.34"/><polygon class="cls-3" points="223.04 201.66 203.04 192.66 207.14 183.54 227.14 192.54 223.04 201.66"/><polygon class="cls-3" points="217.04 394.66 197.04 385.66 201.14 376.54 221.14 385.54 217.04 394.66"/><polygon class="cls-3" points="255.04 324.66 235.04 315.66 239.14 306.54 259.14 315.54 255.04 324.66"/><polygon class="cls-3" points="161.04 347.66 141.04 338.66 145.14 329.54 165.14 338.54 161.04 347.66"/><polygon class="cls-3" points="78.04 315.66 58.04 306.66 62.14 297.54 82.14 306.54 78.04 315.66"/><polygon class="cls-3" points="265.04 503.66 245.04 494.66 249.14 485.54 269.14 494.54 265.04 503.66"/><polygon class="cls-3" points="154.04 559.66 134.04 550.66 138.14 541.54 158.14 550.54 154.04 559.66"/><polygon class="cls-3" points="246.04 563.66 226.04 554.66 230.14 545.54 250.14 554.54 246.04 563.66"/><polygon class="cls-3" points="245.71 617.36 232.49 599.87 240.47 593.84 253.69 611.33 245.71 617.36"/><polygon class="cls-3" points="314.71 575.36 301.49 557.87 309.47 551.84 322.69 569.33 314.71 575.36"/><polygon class="cls-3" points="354.71 414.36 341.49 396.87 349.47 390.84 362.69 408.33 354.71 414.36"/><polygon class="cls-3" points="417.04 465.66 397.04 456.66 401.14 447.54 421.14 456.54 417.04 465.66"/><polygon class="cls-3" points="97.04 459.66 77.04 450.66 81.14 441.54 101.14 450.54 97.04 459.66"/><polygon class="cls-3" points="311.14 295.44 291.31 304.8 287.04 295.76 306.87 286.4 311.14 295.44"/><polygon class="cls-3" points="493.81 486.42 472.27 490.59 470.37 480.77 491.9 476.61 493.81 486.42"/><polygon class="cls-3" points="578.81 441.42 557.27 445.59 555.37 435.77 576.9 431.61 578.81 441.42"/><polygon class="cls-3" points="507.31 428.18 485.77 432.34 483.87 422.53 505.4 418.36 507.31 428.18"/><polygon class="cls-3" points="512.14 520.92 490.6 525.08 488.7 515.27 510.23 511.1 512.14 520.92"/><polygon class="cls-3" points="305.81 439.42 284.27 443.59 282.37 433.77 303.9 429.61 305.81 439.42"/><polygon class="cls-3" points="549.81 293.42 528.27 297.59 526.37 287.77 547.9 283.61 549.81 293.42"/><polygon class="cls-3" points="532.81 202.42 511.27 206.59 509.37 196.78 530.9 192.61 532.81 202.42"/><polygon class="cls-3" points="444.81 293.42 423.27 297.59 421.37 287.77 442.9 283.61 444.81 293.42"/><polygon class="cls-3" points="329.04 329.66 309.04 320.66 313.14 311.54 333.14 320.54 329.04 329.66"/><polygon class="cls-3" points="583.04 262.66 563.04 253.66 567.14 244.54 587.14 253.54 583.04 262.66"/><polygon class="cls-3" points="625.09 336.95 605.09 327.95 609.19 318.83 629.19 327.83 625.09 336.95"/><polygon class="cls-3" points="334.11 384.06 336.11 362.22 346.07 363.13 344.07 384.98 334.11 384.06"/><polygon class="cls-3" points="153.04 292.66 133.04 283.66 137.14 274.54 157.14 283.54 153.04 292.66"/><polygon class="cls-3" points="28.54 376.66 8.54 367.66 12.64 358.54 32.64 367.54 28.54 376.66"/><polygon class="cls-3" points="64.27 116.64 44.27 107.64 48.37 98.53 68.37 107.53 64.27 116.64"/><polygon class="cls-3" points="570.04 167.66 550.04 158.66 554.14 149.54 574.14 158.54 570.04 167.66"/><polygon class="cls-3" points="192.04 96.66 172.04 87.66 176.14 78.54 196.14 87.54 192.04 96.66"/><polygon class="cls-3" points="146.41 120.41 126.41 111.41 130.52 102.29 150.52 111.29 146.41 120.41"/><polygon class="cls-3" points="53.04 43.66 33.04 34.66 37.14 25.54 57.14 34.54 53.04 43.66"/><polygon class="cls-3" points="613.04 235.66 593.04 226.66 597.14 217.54 617.14 226.54 613.04 235.66"/><polygon class="cls-3" points="446.04 214.66 426.04 205.66 430.14 196.54 450.14 205.54 446.04 214.66"/><polygon class="cls-3" points="423.04 136.66 403.04 127.66 407.14 118.54 427.14 127.54 423.04 136.66"/><polygon class="cls-3" points="383.14 94.49 363.14 85.49 367.24 76.37 387.24 85.37 383.14 94.49"/><polygon class="cls-3" points="405.93 71.09 385.93 62.09 390.04 52.97 410.04 61.97 405.93 71.09"/><polygon class="cls-3" points="346.21 137.15 326.21 128.15 330.31 119.03 350.31 128.03 346.21 137.15"/><polygon class="cls-3" points="348.04 167.66 328.04 158.66 332.14 149.54 352.14 158.54 348.04 167.66"/><polygon class="cls-3" points="403.92 107.58 399.23 98.75 426.76 84.11 431.45 92.94 403.92 107.58"/><polygon class="cls-3" points="158.48 233.52 156.69 223.68 184.19 218.68 185.98 228.52 158.48 233.52"/><polygon class="cls-3" points="275.02 236.75 273.24 226.91 300.74 221.91 302.52 231.75 275.02 236.75"/><polygon class="cls-3" points="128.34 222.08 126.55 212.24 154.05 207.24 155.84 217.08 128.34 222.08"/><polygon class="cls-3" points="148.76 368.33 146.97 358.49 174.47 353.49 176.26 363.33 148.76 368.33"/><polygon class="cls-3" points="465.66 517.65 461.51 508.55 490.01 495.55 494.16 504.65 465.66 517.65"/><polygon class="cls-3" points="590.81 507.42 569.27 511.59 567.37 501.77 588.9 497.61 590.81 507.42"/><polygon class="cls-3" points="562.66 538.65 558.51 529.55 587.01 516.55 591.16 525.65 562.66 538.65"/><polygon class="cls-3" points="607.13 562.88 602.98 553.79 631.48 540.79 635.63 549.88 607.13 562.88"/><polygon class="cls-3" points="542.39 637.5 533.64 632.67 548.79 605.25 557.54 610.08 542.39 637.5"/><polygon class="cls-3" points="383.66 592.65 379.51 583.55 408.01 570.55 412.16 579.65 383.66 592.65"/><polygon class="cls-3" points="579.66 603.65 575.51 594.55 604.01 581.55 608.16 590.65 579.66 603.65"/><polygon class="cls-3" points="426.66 510.65 422.51 501.55 451.01 488.55 455.16 497.65 426.66 510.65"/><polygon class="cls-3" points="333.7 470.71 329.56 461.61 358.06 448.61 362.2 457.71 333.7 470.71"/><polygon class="cls-3" points="360.3 536.24 345.88 492.6 355.37 489.46 369.8 533.1 360.3 536.24"/><polygon class="cls-3" points="148.3 507.24 133.88 463.6 143.37 460.46 157.8 504.1 148.3 507.24"/><polygon class="cls-3" points="31.76 467.39 17.34 423.75 26.83 420.61 41.25 464.25 31.76 467.39"/><polygon class="cls-3" points="47.3 194.24 32.88 150.6 42.37 147.46 56.8 191.1 47.3 194.24"/><polygon class="cls-3" points="302.3 151.24 287.88 107.6 297.37 104.46 311.8 148.1 302.3 151.24"/><polygon class="cls-3" points="542.73 54.37 559.66 11.64 568.96 15.33 552.02 58.06 542.73 54.37"/><polygon class="cls-3" points="335.3 51.24 320.88 7.6 330.37 4.46 344.8 48.1 335.3 51.24"/><polygon class="cls-3" points="529.3 172.24 514.88 128.6 524.38 125.46 538.8 169.1 529.3 172.24"/><polygon class="cls-3" points="48.31 394.04 42.87 385.65 76.2 364.02 81.64 372.41 48.31 394.04"/><polygon class="cls-3" points="154.75 267.91 153.77 257.95 207.77 252.62 208.75 262.57 154.75 267.91"/><polygon class="cls-3" points="279.75 267.91 278.77 257.95 332.76 252.62 333.75 262.57 279.75 267.91"/><polygon class="cls-3" points="543.12 244.62 542.14 234.67 596.14 229.33 597.12 239.28 543.12 244.62"/><polygon class="cls-3" points="309.75 360.91 308.77 350.95 362.76 345.62 363.75 355.57 309.75 360.91"/><polygon class="cls-3" points="424.75 602.91 423.77 592.96 477.77 587.62 478.75 597.57 424.75 602.91"/><polygon class="cls-3" points="357.46 114.64 366.56 110.5 389.05 159.88 379.95 164.03 357.46 114.64"/><polygon class="cls-3" points="138.46 12.64 147.56 8.5 170.05 57.88 160.95 62.03 138.46 12.64"/><polygon class="cls-3" points="230.91 36.46 229.72 26.53 283.6 20.07 284.79 30 230.91 36.46"/><polygon class="cls-3" points="7.91 68.46 6.72 58.53 60.6 52.07 61.79 62 7.91 68.46"/><polygon class="cls-3" points="566.91 51.46 565.73 41.53 619.6 35.07 620.79 45 566.91 51.46"/><polygon class="cls-3" points="249.46 120.64 258.56 116.5 281.05 165.88 271.95 170.03 249.46 120.64"/><polygon class="cls-3" points="92.46 516.64 101.56 512.5 124.05 561.88 114.95 566.03 92.46 516.64"/><polygon class="cls-3" points="428.46 536.64 437.56 532.5 460.05 581.88 450.95 586.03 428.46 536.64"/><polygon class="cls-3" points="4.46 512.64 13.56 508.5 36.05 557.88 26.95 562.03 4.46 512.64"/><polygon class="cls-3" points="471.24 207.54 479.75 212.79 451.28 258.98 442.77 253.74 471.24 207.54"/><polygon class="cls-3" points="214.46 484.64 223.56 480.5 246.05 529.88 236.95 534.03 214.46 484.64"/><polygon class="cls-3" points="410.46 379.64 419.56 375.5 442.05 424.88 432.95 429.03 410.46 379.64"/><polygon class="cls-3" points="550.47 363.64 559.56 359.5 582.05 408.88 572.95 413.03 550.47 363.64"/><polygon class="cls-3" points="367.93 249.75 360.58 242.96 377.92 224.21 385.26 230.99 367.93 249.75"/><polygon class="cls-3" points="320.93 205.75 313.58 198.96 330.92 180.21 338.26 186.99 320.93 205.75"/><polygon class="cls-3" points="380.27 124.12 372.92 117.33 390.26 98.58 397.6 105.36 380.27 124.12"/><polygon class="cls-3" points="487.48 189.94 480.13 183.15 497.46 164.4 504.81 171.18 487.48 189.94"/><polygon class="cls-3" points="405.04 194.29 397.7 187.51 415.03 168.75 422.37 175.54 405.04 194.29"/><polygon class="cls-3" points="242.59 185.01 235.25 178.22 252.58 159.47 259.93 166.25 242.59 185.01"/><polygon class="cls-3" points="297.53 95.27 290.19 88.48 307.52 69.73 314.86 76.52 297.53 95.27"/><polygon class="cls-3" points="220.93 96.75 213.59 89.96 230.92 71.2 238.26 77.99 220.93 96.75"/><polygon class="cls-3" points="186.93 192.75 179.59 185.96 196.92 167.21 204.26 173.99 186.93 192.75"/><polygon class="cls-3" points="90.04 95.66 70.04 86.66 74.14 77.54 94.14 86.54 90.04 95.66"/><polygon class="cls-3" points="53.93 86.75 46.59 79.96 63.92 61.2 71.26 67.99 53.93 86.75"/><polygon class="cls-3" points="95.57 592.98 66.24 560.98 73.61 554.22 102.94 586.22 95.57 592.98"/><polygon class="cls-3" points="59.03 470.96 49.49 467.96 65.49 417.04 75.03 420.04 59.03 470.96"/><polygon class="cls-3" points="393.03 322.96 383.49 319.96 399.49 269.04 409.03 272.04 393.03 322.96"/><polygon class="cls-3" points="572.28 327.89 562.74 324.89 578.74 273.97 588.28 276.97 572.28 327.89"/><polygon class="cls-3" points="376.77 391.31 367.23 388.31 383.23 337.39 392.77 340.38 376.77 391.31"/><polygon class="cls-3" points="564.82 200.84 562.19 191.19 613.69 177.16 616.32 186.81 564.82 200.84"/><polygon class="cls-3" points="536.69 471.38 540.53 462.14 589.82 482.62 585.98 491.86 536.69 471.38"/><polygon class="cls-3" points="459.1 530.82 465.81 523.4 505.41 559.18 498.71 566.6 459.1 530.82"/><polygon class="cls-3" points="482.1 453.82 488.81 446.4 528.41 482.18 521.71 489.6 482.1 453.82"/><polygon class="cls-3" points="236.1 441.82 242.8 434.4 282.41 470.18 275.71 477.6 236.1 441.82"/><polygon class="cls-3" points="393.03 447.96 383.49 444.96 399.49 394.04 409.03 397.04 393.03 447.96"/><polygon class="cls-3" points="50.86 257.04 29.52 243.12 34.99 234.74 56.32 248.66 50.86 257.04"/><polygon class="cls-3" points="57.86 535.04 36.52 521.12 41.99 512.74 63.32 526.66 57.86 535.04"/><polygon class="cls-3" points="97.19 277.44 90.66 269.88 121.99 242.81 128.52 250.38 97.19 277.44"/><polygon class="cls-3" points="523.81 550.73 516.03 544.45 554.03 497.45 561.81 503.73 523.81 550.73"/><polygon class="cls-3" points="596.81 626.36 589.03 620.07 627.03 573.07 634.81 579.36 596.81 626.36"/><polygon class="cls-3" points="517.81 447.73 510.04 441.45 548.03 394.45 555.81 400.73 517.81 447.73"/><polygon class="cls-3" points="596.81 317.73 589.03 311.45 627.03 264.45 634.81 270.73 596.81 317.73"/><polygon class="cls-3" points="596.81 544.73 589.03 538.45 627.03 491.45 634.81 497.73 596.81 544.73"/><polygon class="cls-3" points="176.81 494.73 169.03 488.45 207.03 441.45 214.81 447.73 176.81 494.73"/><polygon class="cls-3" points="199.81 619.73 192.03 613.45 230.03 566.45 237.81 572.73 199.81 619.73"/><polygon class="cls-3" points="116.07 524.94 115.45 514.96 175.78 511.25 176.39 521.23 116.07 524.94"/><polygon class="cls-3" points="281.3 532.46 283.14 522.63 342.55 533.73 340.71 543.56 281.3 532.46"/><polygon class="cls-3" points="291.87 579.26 300.16 584.86 266.34 634.95 258.05 629.35 291.87 579.26"/><polygon class="cls-3" points="11.81 626.73 4.04 620.45 42.03 573.45 49.81 579.73 11.81 626.73"/><polygon class="cls-3" points="128.64 455.6 104.17 440.04 109.53 431.6 134.01 447.16 128.64 455.6"/><polygon class="cls-3" points="171.64 422.6 147.17 407.04 152.53 398.6 177.01 414.16 171.64 422.6"/><polygon class="cls-3" points="18.09 476.6 -6.38 461.04 -1.02 452.6 23.45 468.16 18.09 476.6"/><polygon class="cls-3" points="213.74 355.11 209.44 346.08 238.77 332.09 243.07 341.12 213.74 355.11"/><polygon class="cls-3" points="252.41 357.13 248.1 348.1 277.44 334.12 281.74 343.14 252.41 357.13"/><polygon class="cls-3" points="145.53 306.11 151.41 298.02 177.7 317.12 171.82 325.21 145.53 306.11"/><polygon class="cls-3" points="128.74 607.11 124.44 598.08 153.77 584.09 158.07 593.12 128.74 607.11"/><polygon class="cls-3" points="0.76 421.54 -3.55 412.51 25.79 398.52 30.09 407.55 0.76 421.54"/><polygon class="cls-3" points="178.19 471.48 168.26 472.68 164.32 440.19 174.25 438.98 178.19 471.48"/><polygon class="cls-3" points="115.19 633.01 105.26 634.21 101.32 601.72 111.25 600.51 115.19 633.01"/><polygon class="cls-3" points="178.19 618.55 168.26 619.75 164.32 587.26 174.25 586.06 178.19 618.55"/><rect class="cls-3" x="245.59" y="367.6" width="39" height="10"/><rect class="cls-3" x="10.59" y="485.6" width="39" height="10"/><rect class="cls-3" x="327.59" y="431.6" width="39" height="10"/><polygon class="cls-3" points="278.21 573.43 255.78 541.52 263.96 535.77 286.39 567.68 278.21 573.43"/><polygon class="cls-3" points="298.05 638.31 303.67 599.72 313.56 601.16 307.94 639.75 298.05 638.31"/><polygon class="cls-3" points="464.49 181.52 431.16 155.19 437.36 147.34 470.69 173.68 464.49 181.52"/><polygon class="cls-3" points="492.47 98.2 450.6 105.36 448.91 95.5 490.78 88.34 492.47 98.2"/><polygon class="cls-3" points="456.49 83.52 423.16 57.19 429.36 49.34 462.69 75.68 456.49 83.52"/><polygon class="cls-3" points="612.33 75.46 580 103.01 573.51 95.4 605.85 67.85 612.33 75.46"/><polygon class="cls-3" points="525.33 61.46 493 89.01 486.51 81.4 518.85 53.85 525.33 61.46"/><polygon class="cls-3" points="308.61 66.2 269.39 49.89 273.23 40.66 312.45 56.97 308.61 66.2"/><polygon class="cls-3" points="284.33 82.46 252 110.01 245.51 102.4 277.85 74.85 284.33 82.46"/><polygon class="cls-3" points="120.3 122.06 121.55 164.52 111.55 164.81 110.3 122.35 120.3 122.06"/><polygon class="cls-3" points="223.33 216.46 191 244.01 184.51 236.4 216.85 208.85 223.33 216.46"/><polygon class="cls-3" points="110.85 82.5 101 80.81 108.33 37.96 118.18 39.64 110.85 82.5"/><polygon class="cls-3" points="73.2 190.9 65.02 185.16 89.97 149.56 98.16 155.3 73.2 190.9"/><polygon class="cls-3" points="328.8 410.53 305.8 383.86 313.38 377.33 336.38 404 328.8 410.53"/><polygon class="cls-3" points="454.95 406.45 462.8 385.97 472.14 389.55 464.29 410.03 454.95 406.45"/><polygon class="cls-3" points="429.76 443.94 449.36 434.08 453.85 443.02 434.26 452.87 429.76 443.94"/><polygon class="cls-3" points="444.5 382.44 454.96 348.81 464.51 351.78 454.05 385.41 444.5 382.44"/><polygon class="cls-3" points="79.43 483.79 77.09 474.07 116.42 464.6 118.76 474.32 79.43 483.79"/><polygon class="cls-3" points="190.01 300.93 181.17 296.26 193.84 272.26 202.68 276.93 190.01 300.93"/><polygon class="cls-3" points="-44.66 425.43 -40.53 416.33 7.84 438.27 3.7 447.38 -44.66 425.43"/><polygon class="cls-3" points="-42.45 151.52 -36.32 143.62 5.63 176.19 -0.5 184.08 -42.45 151.52"/><polygon class="cls-3" points="-42.45 361.52 -36.32 353.62 5.63 386.19 -0.5 394.08 -42.45 361.52"/><polygon class="cls-3" points="-22.87 562.88 -27.02 553.79 1.48 540.79 5.63 549.88 -22.87 562.88"/><polygon class="cls-3" points="-33.19 626.36 -40.97 620.07 -2.96 573.07 4.81 579.36 -33.19 626.36"/><polygon class="cls-3" points="-33.19 317.73 -40.97 311.45 -2.96 264.45 4.81 270.73 -33.19 317.73"/><polygon class="cls-3" points="-33.19 544.73 -40.97 538.45 -2.96 491.45 4.81 497.73 -33.19 544.73"/><polygon class="cls-3" points="409.63 -25.63 419.38 -23.4 407.54 28.37 397.8 26.14 409.63 -25.63"/><polygon class="cls-3" points="331.34 -20.57 335.47 -29.67 383.84 -7.73 379.7 1.38 331.34 -20.57"/><polygon class="cls-3" points="500.42 -46.67 510.42 -46.73 510.76 6.37 500.76 6.44 500.42 -46.67"/><polygon class="cls-3" points="542.39 17.5 533.64 12.67 548.79 -14.75 557.54 -9.92 542.39 17.5"/><polygon class="cls-3" points="596.81 6.36 589.03 0.07 627.03 -46.93 634.81 -40.64 596.81 6.36"/><polygon class="cls-3" points="291.87 -40.74 300.16 -35.14 266.34 14.95 258.05 9.35 291.87 -40.74"/><polygon class="cls-3" points="11.81 6.73 4.04 0.45 42.03 -46.55 49.81 -40.27 11.81 6.73"/><polygon class="cls-3" points="115.19 13.01 105.26 14.21 101.32 -18.28 111.25 -19.49 115.19 13.01"/><polygon class="cls-3" points="298.05 18.31 303.67 -20.28 313.56 -18.84 307.94 19.75 298.05 18.31"/><polygon class="cls-3" points="-33.19 6.36 -40.97 0.07 -2.96 -46.93 4.81 -40.64 -33.19 6.36"/></pattern></defs><title>tucan</title><g id="Layer_2" data-name="Layer 2"><g id="Layer_1-2" data-name="Layer 1"><rect class="cls-4" x="107.31" y="87.34" width="282" height="403"/><polygon class="cls-5" points="386.31 91.57 386.31 490.33 109.34 490.33 386.31 91.57"/><rect class="cls-6" x="386.31" y="89.34" width="277" height="401"/><rect class="cls-7" x="386.31" y="89.34" width="277" height="404"/><polygon class="cls-4" points="386.31 96.57 386.31 490.33 663.31 490.33 386.31 96.57"/><polygon class="cls-8" points="386.31 96.57 386.31 490.33 663.31 490.33 386.31 96.57"/><path class="cls-4" d="M671.47,433c0-1,5.88-241.67-22.47-308.22-13-30.5-44.59-83.4-77.66-91.79-15.8-4-80-41.58-93-31.1-11.28,9.06-20.61,95.55-28.3,109.26-13.72,24.43-30.15,41.1-46,62.7-26.75,36.43-7.78,90.18,23.06,120.58,49.06,48.36,99.46,165,166.2,159.17C594.83,450.24,671.47,433,671.47,433Z"/><path class="cls-5" d="M654.83,149.08c-38.39,17.55-71.24,4-106.22-9-5.65,21.25-18.59,36.8-31.24,54-15.15,20.64-43,28.27-54.12,46.84-24.57,41,7,119.36,35.31,147.89C462.12,340,416,256.52,436.78,192.67c6.87-21.09,23.41-38.37,32.56-58.65,11.6-25.71,12.74-54.23,24.48-79.7C519.7-1.77,547,38.81,569.83,73.6,589.54,103.67,654.83,149.08,654.83,149.08Z"/><path class="cls-5" d="M658.8,225.32c-13.92,1.61-34.66-16.45-45.56-23.78S592,185.64,580.38,179.9c-19.27-9.52-20.23,2.72-31.64,18.55-9.31,12.92-22.43,22.63-30.45,36.47C504,259.59,498,298.69,499.56,327.26c1,18.62-2.17,59.05,13.58,72.21,2.27-33.41,18.93-54.77,30.78-85.61,5.52-14.36,12.81-29.36,15.82-44.53,2.41-12.13,2-32.37,9.42-42.51,32.19,32.62,61.63,62.95,101.69,84.3,0-12.22-.68-24.83-1.73-37-1.3-15-7.81-28.81-8.76-43.66"/><path class="cls-5" d="M667.77,397.19c-1.25-24.23-11.6-32-23.42-46.68-11.42-14.2-25.17-27.66-38-40.55-17.41,24.82-27.25,59.41-35.78,88.12-3.64,12.27-12.56,39-1.54,45.73,9,5.53,29.15,5.6,37.52-.5,9.65-7,18.15-29.4,19-40,5.51,7.59,24.45,22.89,34.46,24,6.15-12.82-1.45-18.34,7.75-30.11"/><path class="cls-3" d="M157.3,250.17c3.31,6.49,6.89,12.83,9.06,19.82,3.59,11.62,7.19,22.63,19.83,26.81,18.25,6.05,37.42,7.13,56.15,11,17,3.47,34.68,8.22,43.37,24.45,5.45,10.18,10.7,24.92,23.83,26.48,7.73.92,14.37-.22,21.9,2.9,6.13,2.54,13.48,7,20.42,6,7.8-1.1,17-8.12,15.36-15.1,4.27-3.38,7.71-7.56,11.75-12.47s8.59-6.57,13.28-10.38a12.46,12.46,0,0,0,4.36-9.15c.71-13-1.35-34.55,12.55-41.46,9.33-4.64,15.19-14.43,20.7-22.91,4.54-7,8.66-14.94,14.44-21,3.52-3.66,7.65-7.15,10.28-11.54,5.72-9.58,2.08-15.71-3.42-24.07-8-12.18,2.37-21.8,5.21-33.47,2.51-10.24-1.46-20.52-5.39-29.92-3.09-7.4-6.54-15.13-11.56-21.45s-12.16-11.44-18.62-16.35c-7.94-6-15.56-12.18-22.87-19a104.6,104.6,0,0,0-17.54-13.69c-14.11-8.38-30.38-12-45.93-16.79-17.65-5.48-36.09-10.54-54.67-7.26-16.86,3-34.17,14.1-48.32,23.25a285.57,285.57,0,0,0-43.79,35c-10.13,9.81-20.26,20.41-25.49,33.76-6.2,15.87-6.36,32-5.48,48.77.51,9.66,1.82,19.33,2.16,29,.2,5.46-1.65,9.4-4.22,14-1.3,2.35-2.91,5.05-3,7.82C151.44,239.31,154.63,244.92,157.3,250.17Z"/><path class="cls-4" d="M270.62,126c8.88,11.34,49,62.62,49,61.49-.74-32.23,5.29-62.79,10.66-94.34,3-17.87,18.18-30.54,2.63-44.46-.61-.54-23.61-7.7-23.31-6.32s-3.1,82.86-3.26,120.67c-15.48-37.75-49.76-113.15-50-111.36C253.16,77.36,254,104.75,270.62,126Z"/><path class="cls-4" d="M151.91,230.83c6.6,7.58,14.9,13.57,23.21,19.21,10.22,6.94,20.5,14.19,31.14,20.47C232,285.72,261,294.38,288.55,305.66c10.44,4.26,21.1,8,31.41,12.58,2.56,1.13,22,10,15.71,13.52-10.6,5.85-21-8.31-29.18-13.29-9.86-6-35.28-3.88-34-3.22,14.78,7.58,31.78,13.75,40.95,28.32,2.37,3.76,5,8.8,9.57,10.13,3.26.94,5.52-2.42,6.92-5.4,4.17,9.64,7.26,21.3,18.33,24.6,3.18,1,7.6,2.41,10.06-.7,2.18-2.76.81-7.87,1.41-11.05,4.25-22.87,39.05-31.06,34-57.46-.29-1.5-13.11,15.53-19,21.38-5.43,5.39-11.08,10.57-17,15.44-1.3-13.51,6.45-25.66,14.72-35.87s66.17-68.83,72-95.75c.28-1.32-80,78.82-88.66,87.38a34.15,34.15,0,0,0-7,9.79c-.07-.11-7.19-16.18-10.24-23.48a58.35,58.35,0,0,1,8.74-23.44c5.48-8.61,12-18.14,21.16-23.21,7.56-4.2,16-5.86,23.83-9.49a62.29,62.29,0,0,0,19-13.7c23.38-24.69,29.43-60.19,26.7-93-.12-1.43-10.57,18.44-13.45,28.31a269.25,269.25,0,0,1-12,31.7c-4.48,10.29-9.61,21.74-17.66,29.79-4.9,4.9-10.84,8.58-16.92,11.84-14.24,7.62-33.77,14.94-44.21,27.81a47.86,47.86,0,0,0-1.79-4.65c1.06-2.3,29.51-33.65,39.37-43.86,13.33-13.79,21.13-31.19,27.54-49.09,3.63-10.17,12.22-46.32,13.56-51.14.42-1.53-30.27,61.34-50.07,86.33-8.38,10.57-19.39,21.3-27.94,33.14A34.16,34.16,0,0,0,331,211.8c14.88-21.83,34.47-40.19,48.5-62.67,14.32-22.95,11.34-72.19,11.18-73.85-.28-2.86-12.92,50.82-17.54,59.41-9.39,17.44-28.65,26.65-38.42,44.09-3.78,6.75-8.36,14.88-11.11,23.26-.12-.13,55.29-88.52,47-141.33-.1-.62-15.75-8-19.66-6.93C350.29,54,322.73,178,319.61,198c-4.68-4.47-73.33-122.44-75-140-.13-1.41-28.14,9.42-15.26,30,8.3,13.27,35.58,69.26,46.74,79.88-28.62-20.67-60.8-87.14-60.68-85.34,1.07,16.12,3.34,32.79,9.8,47.73S241.6,156.62,254.87,166c13.77,9.72,58.43,36.75,65,43.21,2.37,2.3-9.9,3.82-11.91,3.52-11.55-1.76-22.34-8.08-31.93-14.47a196.43,196.43,0,0,1-27-21.34C237.66,166,198.4,91.42,197.88,92.18c-10.95,16.24-6.93,34.42.59,51.36s18.86,34.09,34,45c23.05,16.62,61,40,88.63,26.43-.05,2.42,2.35,23.12.74,31.71-2.69-2.39-5.38-4.77-8.18-7-6-4.86-12.31-9.53-19.35-12.74-16.14-7.39-34.09-9.79-49.9-18.14-33.07-17.45-70.87-84.07-70.88-82.78-.25,30.38,17.71,57.27,41.94,74.44a119,119,0,0,0,23.39,13.28c8,3.33,43.33,25.22,51.71,33.32-9.18-4.77-18.8-8.17-29.6-8-9,.13-17.83,3.05-26.8,2.76-8.2-.26-16.28-3.37-23.1-7.89-23.73-15.72-49.05-70.64-49.05-69.07-.24,36.19,25.25,68.9,56.79,84.63,17.85,8.89,37.44,10.4,56.31,16.11a136.2,136.2,0,0,1,31.79,14,169.82,169.82,0,0,0,18.36,10.17s-43.3-7-53.46-10.49c-40.54-14-79.56-32.42-117.06-53.2A22.9,22.9,0,0,0,151.91,230.83Z"/><path class="cls-9" d="M294.82,127.34c5.81,36.76,49.51,248.62,55.43,257.52,3.53,5.31,14.83,1.37,14.34-1.34C362.41,371.55,285,43,284.77,44.17,280.48,66.44,293.67,120.08,294.82,127.34Z"/><path class="cls-2" d="M400.23,128.81c.71,1.8,1.64,3.72,3.28,4.76a7,7,0,0,0,4.93.84c-6.1,5.33-5.7,15.28-8.33,22.58a48.47,48.47,0,0,0,9.79-1.58c3.31-1,6.69-2.11,9.89-3.47a16.66,16.66,0,0,0,7-5.54,72.29,72.29,0,0,0,4.46-7.81c3.84,3.53,6.63,8.12,10.3,11.83s14,5.57,13.94,5.38a55.51,55.51,0,0,0-1.26-7.25c-.61-2.67-1.49-5.43-1.55-8.2a12.72,12.72,0,0,0-1-5.5,26.7,26.7,0,0,0-2.39-3.47c-.59-.78-2.48-2.66-2.08-3.82.47-1.35,2-1.72,3.16-2.11,2.25-.75,4.46-1.89,4.76-4.65.27-2.42-.72-4-2.32-5.59a4.89,4.89,0,0,1-1.79-3.07,7.12,7.12,0,0,1,1.24-4.16c1.41-2,3.72-3.12,4.69-5.43.83-2,0-5.2-1.85-6.22-1.07-.59-2.46-.23-3.58-.12A7.06,7.06,0,0,1,446.38,95a31.18,31.18,0,0,1-3.22-3.18,3.32,3.32,0,0,0-2-1.17,3.56,3.56,0,0,0-2.22.76c-4.57-7.06-12-11.68-15.91-19.29-.12-.22-3.33,5.93-4.24,9a67.11,67.11,0,0,0-2.32,10,21.19,21.19,0,0,0,1.54,10.62c1.29,3.28,2.81,6.45,3.52,9.93-5.41-3.24-10.43-8.2-17-8.15-2.56,0-4.88.72-6.33,3.08-1.67,2.71-2.67,5.63-4.85,8C393.24,114.83,398.39,124.09,400.23,128.81Z"/><path class="cls-4" d="M416.68,123.56c.35,1.57,14.56,15.29,16.73,13.39,4.37-3.84,5.55-12.23,3.09-17.47-.66-1.41-5.78-6.23-10.11-5.78s-7.91,6.18-8.54,6.9A3.38,3.38,0,0,0,416.68,123.56Z"/><path class="cls-9" d="M423.09,128.31c.74,4.19,6.13,6.74,8.27,6.07.59-.19,3.89-.95,4.84-4.16.38-1.28-1.28-3.4-3.26-4.53-2.51-1.43-2.53,2.85-3,4.69-.41-.33-3.75-4.8-5.29-4.4A1.85,1.85,0,0,0,423.09,128.31Z"/><path class="cls-9" d="M421.4,125.87c2.11-.47,1.61-2.13,2.29-3.1.51,1.58,1.78,3.31,3.53,2.8,1.55-.45,1.06-2.38.76-3.76,1,.94,3.13,2.31,4.33,1.53,1-.64.3-3.34,0-4.57,1,1,2.89,3.28,3.61,1.87,1.05-2.06-1.35-4.46-2.65-5.6-1.6-1.4-3.56-2.79-5.76-2.29-.35.08-5,1.16-6.47,2.75C418.09,118.64,417.66,126.71,421.4,125.87Z"/><path class="cls-9" d="M582.73,428.33c18.91-30.31,5.89-46.89-25.23-54.85-8.14-2.09-5.61-3.67-14.26,2.22-7.09,4.83-13.39,11.77-19.59,17.79-17.3,16.8-33.6,20.12-55.16,29.27,7.6-21.6,38.12-30.2,44.87-54.59-17.83-9-28-18.67-46.21-8.44-9.79,5.49-22.72,12.13-31.79,19.81-8,6.77-16.9,24.21-29,22.73-3.46-15.25,15.08-35.1,22.54-47.11,11.57-18.6-.52-14.21-5.62-30.13-12.79,5.18-19,21.34-33.35,25.65,3.6-8.35,8.2-26.89,5.21-35.63-14.27,3.18-13.25-11.38-23.1-12.33-8.76-.85-12,12.11-14.94,18.75-9.32,20.91-23.33,42.38-34.42,62.26.7-13.13,21.48-31.66,12.62-42.47-3.78-4.63-15.9-7.48-21-12.49S307.65,316,298.85,315c-5.93-.68-15.38,5.47-21.69,6-4.71.42-16-2.54-19.26.83-8,8.27,5.41,36.73,5.44,47.1-14-12-13-45.58-38.08-42.84-11.21,1.23-17.52,8.53-29.71,7.37-9.41-.89-18.92-8.4-28-6.73,4.23,14.74,15.69,26.92,17.12,42.51C179.18,357,172.4,345.18,158.8,340c-10.38-3.94-20.52-.63-31.85-1.23,3.27,10.58,8.53,17.48,16.5,24.35-16.9-2.23-23.23-12.95-41.64-5.9-18.87,7.22-13.24,15.92-5.75,31.86,12,1.85,29.13-7.23,41-10.5a115.19,115.19,0,0,1,38.09-3.92c30.2,1.5,61.62-1.12,90.41,6.63,26.11,7,50.91,6.48,77.46,9.31,24.7,2.64,46.51,18.06,68.46,28.28,24.46,11.39,45.88,24,68.83,37.84,11.76,7.09,47,39.29,59.41,31.2,2.54-18,7.57-24.24,23.79-33.39C582.55,443.78,582.73,428.33,582.73,428.33Z"/><path class="cls-3" d="M40,313.25C59.1,322.79,78.55,331,96.74,342.7c19.42,12.46,38.09,25.66,58.73,35.61,18.63,9,38.11,16.6,55.38,28.63,8,5.6,15.81,12,20.68,21.19,4.31,8.2,6.81,17.26,9.12,26.34.24.93-.66,41.74,3.46,51.11,3.38,7.66,13.09,9.43,18,2.4,1.64-2.35,10.95-18.5,13-21.16,2.94-3.84,11.83-5.71,11.82-6.18-.11-3.51-1.29-6.92-2.32-10.2-1.8-5.73-7.55-18.8-2.52-24.1,4.67-4.92,13.46.24,18.33,2.34,5.05,2.17,11.65,5.51,17.18,3.52,6.54-2.35,7.58-9.17,6.78-15.94-.53-4.43-1.84-8.67-2.86-13-1.15-4.78-3.18-9.37-4.14-14.16-.53-2.64-.86-4.69,1.11-6.61.64-.63,1.31-1.22,1.95-1.84a8.71,8.71,0,0,0,2.3-2.93c1-2.68-.31-6.46-1.5-8.88-3-6.08-8.48-8.53-13.85-11.42-3.16-1.71-6.42-3.65-8.67-6.74-2.81-3.85-2.85-6.66-2.11-11.37.6-3.84,1.57-7.79,1.67-11.7.11-4.07-1.82-8.5-3.79-11.83-5.09-8.63-10.79-16.67-16.41-24.87-5.14-7.5-10.8-15.64-18.5-20.1-4.16-2.4-8.36-4.28-13.13-4.32A67.08,67.08,0,0,0,234,288.07c-5.5,1-11.4,1.71-16.75-.47a38.62,38.62,0,0,1-9.93-6.28c-5.75-4.75-11.59-10.34-19-11.53-8.56-1.38-15.42,1.63-21.33,6.66a68.56,68.56,0,0,0-7.47-1.17c-5.81-.54-12.52.08-16.16,5.84-4,6.33-5.12,17.77-14.37,17-5.17-.45-9.59-3.47-14.27-5.6a26.2,26.2,0,0,0-12.17-2.42c-9.9.3-19.35,3.59-29.09,5.19-12.66,2.08-24.56-.8-37-3.38-12.16-2.52-24.31-5.13-36.51-7.4C-.79,284.34,30.77,308.67,40,313.25Z"/><path class="cls-9" d="M265,479.49c.49,3.32-.12,18,.16,17.78,5.69-4.9,13.44-24.63,12.88-32.34-.05-.59-4.41,1.14-6.5,1.58,1.14-5.13,4.4-11.06,5.68-13.43a67.06,67.06,0,0,1,12.68-17c9.64-9.27,28.56-24.31,18.18-40.33-.23-.35-22.36,23.64-30.73,37.27a104.33,104.33,0,0,0,5.73-17.18,142.11,142.11,0,0,0-.38-62.08c-.18-.78-4.27,15.8-4.72,23.78a210,210,0,0,1-3.67,28.53c-2.3,11.71-4.48,23.17-7.93,34.5C264.14,447.84,254.65,475.61,265,479.49Z"/><path class="cls-9" d="M250.54,437.33c.25,3.84,7.24,8.27,7.35,7.81.82-3.32.16-6.45-.64-9.57,6.14-4.81,8-14.77,8.81-22.48a162.66,162.66,0,0,0-.49-35.15,125.65,125.65,0,0,0-9.86-37.28c-6.79-15.4-24.15-45-23.89-44.23,9.84,29.58,19.23,60.35,23.53,91.59C257,399.72,250.3,433.66,250.54,437.33Z"/><path class="cls-9" d="M205,326.11c1.22,8.61,2.56,16.58,6.05,24.46,3.38,7.63,8,15.06,10.19,23.25.84,3.14,1.49,6.34,2.21,9.51.81,3.59,6.57,24.58,11.63,35,2.26,4.65,6.43,4.37,6.43,4.33.45-.31-.32-52.93-7.76-74.9-3.31-9.79-7.55-20.14-13.42-28.39s-13.9-14.21-19.42-22.76C200.48,295.94,203.62,316.38,205,326.11Z"/><path class="cls-9" d="M196.59,332.05c0-.87,22.11,38.16,18.57,59.65a16.65,16.65,0,0,0-2.41.54C198.53,377.39,195.54,353.12,196.59,332.05Z"/><path class="cls-9" d="M117,316.07c11.53,4.91,24.08,4,36,6.85,9.74,2.34,17,8.46,23.58,16.42,8.2,9.93,21.87,29.93,14.74,43.94a21.12,21.12,0,0,1-2.91,1.14c-12.68-2.65-22.83-14.79-30.92-25C145.24,344,116.28,315.75,117,316.07Z"/><path class="cls-10" d="M51.15,315.22c3.12,2.36,103.84,60,121.18,66.19,17.73,6.38,37.52,10.29,51.8,24.54,22.54,22.5,35.32,109.3,35.6,109.17,10-4.36,4.88-55.11,4.26-57.85-3.56-15.95-12.16-30.33-22.09-42.35-10.21-12.34-22.5-23.61-36.44-30.4-7.83-3.8-16.28-5.84-24.39-8.77q-14.74-5.33-29.11-11.83c-12.7-5.78-23.91-14.56-35-23.52C112,336.1,50.45,314.69,51.15,315.22Z"/><path class="cls-11" d="M386.65,325.91c-1.15,4.6-1,14.55-8.46,13.5,2.46,9-5.1,23-14.4,25.47-3.94,1-4.87,3.13-8.42,4.6-3.2,1.34-7.1-.36-10.41,1.31-3.93,2-4.59,4.18-9.89,3.5a19.53,19.53,0,0,1-8.91-3.68c-3.23-2.67-13.05-13.91-19-20.82-2.13-2.48-3.75-4.4-4.41-5.16-.19-.24-.3-.36-.3-.36a35.36,35.36,0,0,1-13.6,5.78c-1.94,3.73-7.14,4.39-11,4.59-.83,6.21-2.37,7.5-8.52,6.73-.05,3.07,0,5.79-2.2,8.11-2.53,2.61-4.26,1.32-7.27,2.55-2.51,1-4,4.1-6.38,5.3-3.88,2-4.81-.66-8.41-.71-3.86-.05-3.63,2.84-6.73,3.93s-4.9-1.72-8.07-1.34c-6.53.79-6.34,9.14-14.24,4.56-2.42,4.05-12.51,5.93-13.09-.38-.46,2.48-4.54,7-6.74,8.29-4.25,2.54-6.71,0-8.38-4.23-3.06,3.49-8,10.16-13.48,9.18.65-3.15,2.06-8.28,1.62-11.54-5.06,3.81-11.68,10.48-18.56,11.08,2-3.09,8-5.92,7.83-9.71-8.6,0-16.22,10.91-25.84,7,.15-.72-.29-1.8-.15-2.54-6-.31-10.57-.51-16.16-2.2-2.2-.66-6.34-.67-8-2.32-2.75-2.81-1.15-4.41,2.25-4.54,4.35-.16,10.8,3.24,15.22,4.08,5.34,1,9.31,1.09,14.45-1.25,6.25-2.85,13.54-5.17,19.64-8.63,6.54-3.71,9.27-9.66,13.43-15.22A140.06,140.06,0,0,1,191.71,347c2.89-2.92,13.12-12.71,14.32-14.22a12.26,12.26,0,0,1-1.77,0c-9.17-.54-47.43-5.44-50.21-4.43,1.11-7.2,8.57-6.85,11.13-12.78,2.76-6.39-4.92-9.52-4.93-15.14,0-.7.79-1.24,2.2-1.67a31.2,31.2,0,0,1,6-1c2.83-.24,6.2-.36,9.86-.39,17.09-.17,40.19,1.59,40.28,1.56,3.29-2.37,8.48-11.4,10.44-14.21,3.7-5.29,7.81-10.89,9.4-16.92,3.53-13.44,11.23-25.76,10.65-40-.18-4.48-6.43-18.15-3.14-21.1,2.77,2.68,2.83,9.66,5,13.33-.1-5.95-5.44-36.64-5-39.75a29.87,29.87,0,0,1,3-8.46c1.32,5.83,5.1,25.87,5.58,31.3,1.44-4.36-.61-13-1.54-17.79-1-5.27-2.47-9.83-3.05-15.33-1-9.94-5.76-21.64-9.21-30.87,7.42,5.26,11.32,18.57,13.59,26.84,1.37,5,2.33,10.24,3.69,15.23,1.16,4.26,1.23,10.26,3.16,14.18-.18-11.48,0-55.7-2.61-65.83,2.83,9,9.38,16.59,11.11,26.1,1.95,10.67.27,21,1.33,31.69C271,182,276.29,137,277,127.07c3.84,6.37,4.91,18.89,5.29,26.41.5,9.86-2.15,18.34-3.42,27.6,5.37-1.52,18.58-39.42,21.25-41.56,2.32,6.25-.47,14.61-1.8,20.57-1.66,7.37-4.86,14-6.66,21.37C293.78,177,315,143.83,316.2,141.3c.92,6.57,0,12.52-2,18.79C312,167,311,174.36,307,180.54c6.27-7.52,9.77-15.34,17.32-21.75.62,10-4.55,15.12-7.92,23.65,4.21-.76,9.46-8.72,14.73-11.24-1.16,5.73-5.87,14-7.56,19.28,3.9-.28,8-3.95,8.93,1.87.7,4.37-3.49,7-4.45,10.67,11.86,7-.67,11.41-7.07,15.8,5.4.75,10.34-6,16.42-2.85,7.67,4-3.25,10.07-3.05,14.85,10.56,2.05-2.87,11.86-4.95,14,3.18,2.49,11.58,2.68,7.47,8.87-2.46,3.69-2.92,1.75-3.49,5.91-.36,2.61.79,5.78-3.08,5.46-.66,3.75,1,6.47-.84,9.88-2,3.56-4.25,3.56-3.62,7.51.59,3.66,3.19,5.85-.87,9.09-3,2.37-5.46,1.75-7.26,5.29-2,4-4.36,10.76-8.78,13.59a16.53,16.53,0,0,0,7.41,2.52c7.29.43,51.6-13.5,57.78-16.15,9.16-3.92,8.36,4.39,2.75,9.34,5.38-.17,11.44-.67,10.21,7.19a36.18,36.18,0,0,0-8-.3c1.48,3.24,5.23,1.38,7.46,3.15C389.65,318.57,387.39,323,386.65,325.91Z"/><path class="cls-11" d="M258.59,129.5c-.18-.67-.36-1.33-.57-2C258.19,128.18,258.38,128.85,258.59,129.5Z"/><path class="cls-4" d="M204.26,332.7c-6.06-.35-24.81-2.62-37.65-3.82-4-.37-7.37-.64-9.65-.72a10.7,10.7,0,0,0-2.91.11c1.11-7.2,8.57-6.85,11.13-12.78,2.76-6.39-4.92-9.52-4.93-15.14,0-.64.67-1.15,1.87-1.57a30,30,0,0,1,6.12-1.06l.21,0c17.55,2.89,39.15,9,45.88,20.63C217.93,324.56,212.68,331.27,204.26,332.7Z"/><path class="cls-3" d="M332.3,340.66c-1.57.27-2.86-.93-4.07-1a32.93,32.93,0,0,0-4,1.35c-1.36.87-1.92,2.84-3.36,3.73a38.34,38.34,0,0,1-4,1.41c-3.09,1.27-5.54,3.56-9.09,3.61h-.63c-2.13-2.48-3.52-4.4-4.17-5.16,6.4-6.16,10.3-12.3,12.3-29.8v.34c4-1.5,14.79,5.59,14.85,11-1.43.08-2.66-.47-4.05-.55C329,330.77,332.62,334.29,332.3,340.66Z"/><path class="cls-4" d="M164.83,328.72c-1.59,2-15.63-2.16-32-.3s-35.73,8.38-44,13.53c-3.3-5.22-3.33-8.73-2.63-15.05.78-6.95,9.23-13.16,14.84-16.13,19.88-10.53,44.47-13,67-13C168.05,297.74,173.42,318.13,164.83,328.72Z"/><path class="cls-3" d="M172.06,321.61c-2,2.74-3,4.78-5.45,7.27-3.48,1.43-3.1,1.83-11-.15,1.61-1,4.38-2.51,4.72-3,1.82-2.76,2.34-6.39,5-8.94,1.07-1,3.91-1.69,4.58-2.42,1.18-1.31-.66-2.91-1.45-4-2.18-2.92-3.16-5.93-5-8.94a34.8,34.8,0,0,1-1.83-3.59,15.94,15.94,0,0,1,6.57-.09c.08.4.14.81.25,1.23a15.75,15.75,0,0,0,2.15,4.5C174.58,309.87,176.8,315.08,172.06,321.61Z"/><path class="cls-3" d="M167,311.45c-.66-.66-.58-2.7-.83-3.54a16.26,16.26,0,0,0-1.47-3.52c-.75-1.29-2.39-3.83-2.21-5.71a31.2,31.2,0,0,1,6-1c2.83-.24,6.2-.36,9.86-.39,2.59,1.55,5,3.17,5.8,3.73C185.74,302.21,169.13,313.61,167,311.45Z"/><path class="cls-9" d="M293,329.59c1.64-1.67,4.31,2.27,5.38,3.14a6.55,6.55,0,0,0,4,1.68c1.32-.08,3-.71,2.83-2.13-.44-3.91-14.14-8.56-16.5-9-2.05-.35-4.56-1.23-6.38.34a4.28,4.28,0,0,0-1.46,3c0,1.3.67,1.2,1.48,2.12,1.41,1.62.95,5.26,3.67,5.38,1.26.06,1.31-.76,2.15-1.31s1.81-.33,2.77-.37a2.94,2.94,0,0,0,2.59-1C294,330.89,293,329.59,293,329.59Z"/><path class="cls-9" d="M290.25,342.64c1.64-1.67,4.31,2.27,5.38,3.14a6.53,6.53,0,0,0,4,1.67c1.32-.07,3-.7,2.83-2.13-.44-3.91-14.14-8.55-16.5-9-2.05-.35-4.55-1.23-6.38.33a4.29,4.29,0,0,0-1.45,3c-.05,1.3.67,1.21,1.48,2.13,1.4,1.62.94,5.25,3.67,5.38,1.25.06,1.3-.76,2.14-1.32s1.82-.32,2.78-.36a2.93,2.93,0,0,0,2.58-1C291.28,343.94,290.25,342.64,290.25,342.64Z"/><path class="cls-9" d="M90.18,322.92c1.9-3.3,11.91-9.53,15.7-7.74,1.23.59,4.45,5.94,3.22,7.4-1.49,1.77-15.28,13.94-20.21,17.88C88.89,340.46,84.57,332.68,90.18,322.92Z"/><path class="cls-9" d="M172.4,301.09a7.56,7.56,0,0,0-4-2.58c-4.06-1-4.82,1.28-5.15,3.8s1.8,4.88,3.85,5.78a5,5,0,0,0,6.24-1.6C174.51,304.77,173.57,302.5,172.4,301.09Z"/><path class="cls-3" d="M166.55,300.74a4.16,4.16,0,0,0-.66,2.56,2.65,2.65,0,0,0,1.75,2,2.92,2.92,0,0,0,2.85-.83C171.39,303.73,171.57,298.8,166.55,300.74Z"/><path class="cls-9" d="M165.12,305.93c-.47-1.67-1.29-3.34-1.74-5a9,9,0,0,1,.44-3.43c.08-.26-1.74.1-2.15.35l.29,1.86a15.74,15.74,0,0,0,1.07,4.78c1.15,3.18,1.05,6.65,2.23,9.83.1.3,1.31.47,1.3.11A34.15,34.15,0,0,0,165.12,305.93Z"/><path class="cls-9" d="M162.15,304.77c-.73-1.8-1.2-5.86-1.74-6.93-.15-.3-1.78-.32-1.86.06a12.06,12.06,0,0,0,1.31,6,26.19,26.19,0,0,1,3,10.35c0,.4,1.35.44,1.34.08A26.22,26.22,0,0,0,162.15,304.77Z"/><polygon class="cls-12" points="160.07 90.6 111.57 112.01 142.38 74.01 160.07 90.6"/></g></g></svg>