<svg xmlns="http://www.w3.org/2000/svg" xmlns:xlink="http://www.w3.org/1999/xlink" viewBox="0 0 773 775"><defs><style>.cls-1{fill:none;}.cls-2{fill:#fff;}.cls-3{fill:#274490;}.cls-4{fill:#e4d91b;}.cls-5{fill:#dda9be;}.cls-6{fill:#b0d2d2;}.cls-7{fill:url(#New_Pattern_62);}</style><pattern id="New_Pattern_62" data-name="New Pattern 62" width="590.05" height="581.65" patternTransform="translate(67.4 438.18)" patternUnits="userSpaceOnUse" viewBox="0 0 590.05 581.65"><rect class="cls-1" width="590.05" height="581.65"/><path class="cls-2" d="M381.08,562c-1.5-.23-4.84,4.89-3.81,5.05,18.22,2.81,36.66-.22,44.91,16.27,5.8,11.62,8.12,31.58,23.76,33.94,1.51.23,4.84-4.89,3.81-5-15.85-2.39-18.28-23.12-24.21-35C417.71,561.56,398.31,564.68,381.08,562Z"/><path class="cls-2" d="M466.05,517.06c-.68,1.36,3.13,6.14,3.6,5.21,8.4-16.41,11.31-34.87,29.56-37.52,12.85-1.86,32.54,2.22,39.69-11.89.69-1.36-3.13-6.14-3.6-5.21-7.25,14.3-27.69,10.09-40.83,12C477.13,482.16,474,501.54,466.05,517.06Z"/><path class="cls-2" d="M483.87,569.93c-1.5-.23-4.84,4.89-3.81,5.05,18.22,2.81,36.66-.22,44.9,16.28,5.81,11.61,8.12,31.58,23.76,33.93,1.51.23,4.85-4.89,3.82-5.05-15.86-2.38-18.28-23.12-24.21-35C520.49,569.47,501.1,572.59,483.87,569.93Z"/><path class="cls-2" d="M335.17,469.7c-.31-1.49-6.28-2.83-6.07-1.81,3.73,18.05,13,34.27.44,47.76-8.85,9.5-26.75,18.64-23.5,34.12.32,1.5,6.28,2.83,6.07,1.81-3.3-15.69,15.27-25.2,24.33-34.91C348.39,503.85,338.69,486.77,335.17,469.7Z"/><path class="cls-2" d="M86.06,562c-1.5-.23-4.85,4.89-3.81,5.05,18.21,2.81,36.66-.22,44.9,16.27,5.8,11.62,8.12,31.58,23.76,33.94,1.51.23,4.84-4.89,3.82-5-15.86-2.39-18.28-23.12-24.22-35C122.68,561.56,103.29,564.68,86.06,562Z"/><path class="cls-2" d="M171,517.06c-.69,1.36,3.12,6.14,3.6,5.21,8.39-16.41,11.3-34.87,29.56-37.52,12.85-1.86,32.53,2.22,39.68-11.89.69-1.36-3.12-6.14-3.6-5.21-7.24,14.3-27.69,10.09-40.82,12C182.1,482.16,179,501.54,171,517.06Z"/><path class="cls-2" d="M188.84,569.93c-1.5-.23-4.84,4.89-3.81,5.05,18.22,2.81,36.66-.22,44.91,16.28,5.8,11.61,8.12,31.58,23.76,33.93,1.5.23,4.84-4.89,3.81-5.05-15.85-2.38-18.28-23.12-24.21-35C225.46,569.47,206.07,572.59,188.84,569.93Z"/><path class="cls-2" d="M40.14,469.7c-.31-1.49-6.28-2.83-6.07-1.81,3.74,18.05,13,34.27.44,47.76-8.85,9.5-26.75,18.64-23.49,34.12.31,1.5,6.28,2.83,6.07,1.81-3.31-15.69,15.27-25.2,24.32-34.91C53.36,503.85,43.67,486.77,40.14,469.7Z"/><path class="cls-2" d="M528.6,271.19c-1.51-.23-4.85,4.89-3.82,5.05,18.22,2.81,36.66-.22,44.91,16.28,5.8,11.61,8.12,31.58,23.76,33.94,1.51.22,4.84-4.9,3.82-5.06-15.86-2.38-18.28-23.11-24.22-35C565.22,270.74,545.83,273.85,528.6,271.19Z"/><path class="cls-2" d="M461.65,407.86c-.75,1.32,2.82,6.28,3.34,5.37,9.18-16,13-34.28,31.34-36,12.92-1.24,32.39,3.77,40.21-10,.76-1.33-2.82-6.28-3.34-5.38-7.93,13.94-28.15,8.74-41.36,10C474.4,373.53,470.33,392.74,461.65,407.86Z"/><path class="cls-2" d="M482.68,178.87c-.31-1.49-6.28-2.83-6.07-1.81,3.73,18.06,13,34.27.44,47.77-8.85,9.49-26.75,18.64-23.49,34.12.31,1.49,6.27,2.82,6.06,1.81-3.3-15.69,15.28-25.21,24.33-34.92C495.9,213,486.2,196,482.68,178.87Z"/><path class="cls-2" d="M233.57,271.19c-1.5-.23-4.84,4.89-3.81,5.05,18.22,2.81,36.66-.22,44.9,16.28,5.81,11.61,8.13,31.58,23.77,33.94,1.5.22,4.84-4.9,3.81-5.06C286.38,319,284,298.29,278,286.41,270.19,270.74,250.8,273.85,233.57,271.19Z"/><path class="cls-2" d="M318.54,226.24c-.69,1.35,3.12,6.13,3.6,5.21,8.39-16.42,11.31-34.88,29.56-37.52,12.85-1.86,32.53,2.21,39.68-11.9.69-1.36-3.12-6.13-3.59-5.21-7.25,14.31-27.69,10.09-40.83,12C329.62,191.33,326.48,210.72,318.54,226.24Z"/><path class="cls-2" d="M295.35,413.84c-1.1,1.05.91,6.82,1.67,6.1,13.36-12.69,22.24-29.14,40.33-25.57,12.74,2.51,30,12.88,41.39,1.95,1.1-1.05-.91-6.82-1.67-6.11-11.58,11.09-29.47.33-42.49-2.24C317.38,384.58,308,401.83,295.35,413.84Z"/><path class="cls-2" d="M336.36,279.1c-1.51-.23-4.85,4.89-3.82,5,18.22,2.82,36.66-.22,44.91,16.28,5.8,11.61,8.12,31.58,23.76,33.94,1.51.23,4.84-4.9,3.82-5.05-15.86-2.39-18.28-23.12-24.22-35C373,278.65,353.59,281.77,336.36,279.1Z"/><path class="cls-2" d="M166.62,407.86c-.75,1.32,2.83,6.28,3.35,5.37,9.17-16,13-34.28,31.33-36,12.93-1.24,32.39,3.77,40.22-10,.75-1.33-2.83-6.28-3.35-5.38-7.93,13.94-28.14,8.74-41.35,10C179.37,373.53,175.3,392.74,166.62,407.86Z"/><path class="cls-2" d="M187.65,178.87c-.31-1.49-6.27-2.83-6.06-1.81,3.73,18.06,13,34.27.44,47.77-8.86,9.49-26.75,18.64-23.5,34.12.32,1.49,6.28,2.82,6.07,1.81-3.31-15.69,15.27-25.21,24.32-34.92C200.87,213,191.18,196,187.65,178.87Z"/><path class="cls-2" d="M-61.46,271.19c-1.5-.23-4.84,4.89-3.81,5.05,18.22,2.81,36.66-.22,44.91,16.28,5.8,11.61,8.12,31.58,23.76,33.94,1.51.22,4.84-4.9,3.81-5.06C-8.64,319-11.06,298.29-17,286.41-24.83,270.74-44.22,273.85-61.46,271.19Z"/><path class="cls-2" d="M23.52,226.24c-.69,1.35,3.12,6.13,3.59,5.21,8.4-16.42,11.31-34.88,29.56-37.52,12.85-1.86,32.54,2.21,39.69-11.9.69-1.36-3.13-6.13-3.6-5.21-7.24,14.31-27.69,10.09-40.82,12C34.59,191.33,31.46,210.72,23.52,226.24Z"/><path class="cls-2" d="M.32,413.84c-1.1,1.05.91,6.82,1.67,6.1,13.37-12.69,22.24-29.14,40.34-25.57,12.74,2.51,30,12.88,41.38,1.95,1.1-1.05-.91-6.82-1.66-6.11-11.59,11.09-29.47.33-42.5-2.24C22.36,384.58,13,401.83.32,413.84Z"/><path class="cls-2" d="M41.33,279.1c-1.5-.23-4.84,4.89-3.81,5,18.22,2.82,36.66-.22,44.9,16.28C88.23,312,90.54,332,106.19,334.37c1.5.23,4.84-4.9,3.81-5.05-15.86-2.39-18.28-23.12-24.21-35C78,278.65,58.56,281.77,41.33,279.1Z"/><path class="cls-2" d="M381.08-19.63c-1.5-.23-4.84,4.89-3.81,5,18.22,2.81,36.66-.23,44.91,16.27,5.8,11.62,8.12,31.58,23.76,33.94,1.51.23,4.84-4.89,3.81-5.05-15.85-2.39-18.28-23.12-24.21-35C417.71-20.09,398.31-17,381.08-19.63Z"/><path class="cls-2" d="M442.86,123c-1.1,1,.91,6.83,1.67,6.11,13.36-12.7,22.24-29.14,40.34-25.58,12.74,2.51,30,12.89,41.38,1.95,1.1-1-.91-6.82-1.66-6.1-11.59,11.08-29.47.32-42.5-2.24C464.9,93.76,455.51,111,442.86,123Z"/><path class="cls-2" d="M483.87-11.72c-1.5-.23-4.84,4.89-3.81,5.05,18.22,2.81,36.66-.22,44.9,16.28,5.81,11.61,8.12,31.58,23.76,33.93,1.51.23,4.85-4.89,3.82-5-15.86-2.38-18.28-23.12-24.21-35C520.49-12.18,501.1-9.06,483.87-11.72Z"/><path class="cls-2" d="M314.14,117c-.76,1.32,2.82,6.28,3.34,5.38,9.18-16,13-34.29,31.34-36,12.92-1.24,32.38,3.78,40.21-10,.75-1.32-2.83-6.27-3.34-5.37-7.93,13.93-28.15,8.74-41.36,10C326.88,82.7,322.82,101.91,314.14,117Z"/><path class="cls-2" d="M86.06-19.63c-1.5-.23-4.85,4.89-3.81,5,18.21,2.81,36.66-.23,44.9,16.27,5.8,11.62,8.12,31.58,23.76,33.94,1.51.23,4.84-4.89,3.82-5.05-15.86-2.39-18.28-23.12-24.22-35C122.68-20.09,103.29-17,86.06-19.63Z"/><path class="cls-2" d="M147.84,123c-1.1,1,.91,6.83,1.66,6.11,13.37-12.7,22.25-29.14,40.34-25.58,12.74,2.51,29.95,12.89,41.39,1.95,1.1-1-.92-6.82-1.67-6.1-11.58,11.08-29.47.32-42.49-2.24C169.87,93.76,160.48,111,147.84,123Z"/><path class="cls-2" d="M188.84-11.72c-1.5-.23-4.84,4.89-3.81,5.05,18.22,2.81,36.66-.22,44.91,16.28,5.8,11.61,8.12,31.58,23.76,33.93,1.5.23,4.84-4.89,3.81-5-15.85-2.38-18.28-23.12-24.21-35C225.46-12.18,206.07-9.06,188.84-11.72Z"/><path class="cls-2" d="M19.11,117c-.75,1.32,2.82,6.28,3.34,5.38,9.18-16,13-34.29,31.34-36,12.92-1.24,32.39,3.78,40.21-10,.76-1.32-2.82-6.27-3.34-5.37C82.73,85,62.51,79.76,49.3,81,31.86,82.7,27.79,101.91,19.11,117Z"/></pattern></defs><title>Balls</title><g id="Layer_2" data-name="Layer 2"><g id="image"><path class="cls-2" d="M122,250.59h-8.85v8.75h-5.35v-8.75H98.93v-5h8.85v-8.75h5.35v8.75H122Z"/><polygon class="cls-3" points="580.45 556.88 672.99 538.74 685.08 623.86 580.45 556.88"/><ellipse class="cls-4" cx="655.75" cy="572.61" rx="19.05" ry="18.14"/><polygon class="cls-5" points="549.79 458.65 598.61 454.9 574.44 468.27 605.79 467.88 566.82 489.44 549.79 458.65"/><polygon class="cls-6" points="493.64 622.84 507.07 584.61 572.18 622.84 550.48 665.21 525.68 618.71 522.58 654.88 493.64 622.84"/><ellipse class="cls-3" cx="191" cy="179" rx="191" ry="176"/><ellipse class="cls-3" cx="581" cy="593" rx="191" ry="176"/><ellipse class="cls-7" cx="191" cy="176" rx="191" ry="176"/><ellipse class="cls-7" cx="582" cy="599" rx="191" ry="176"/></g></g></svg>