<svg xmlns="http://www.w3.org/2000/svg" xmlns:xlink="http://www.w3.org/1999/xlink" viewBox="0 0 325.71 605.84"><defs><style>.cls-1{fill:none;}.cls-2{fill:#fff;}.cls-3{fill:#004a38;}.cls-4{fill:url(#New_Pattern_45);}</style><pattern id="New_Pattern_45" data-name="New Pattern 45" width="187.87" height="167.6" patternTransform="translate(0 150)" patternUnits="userSpaceOnUse" viewBox="0 0 187.87 167.6"><rect class="cls-1" width="187.87" height="167.6"/><path class="cls-2" d="M109,90.85c-3.89-11.59-15.86-15.59-27-13.3C70,80,63,93.44,67.09,104.77a16.4,16.4,0,0,0,10.34,10.35,18.43,18.43,0,0,0,7.91,2.07C98.29,117.57,113.64,104.73,109,90.85Z"/><path class="cls-2" d="M148.35,50.58c-3.9-11.59-15.86-15.59-27-13.29-12,2.46-19,15.88-14.89,27.22A16.34,16.34,0,0,0,116.8,74.85a18.15,18.15,0,0,0,7.9,2.07C137.66,77.3,153,64.47,148.35,50.58Z"/><path class="cls-2" d="M187.41,14.11c-3.89-11.59-15.86-15.59-27-13.3-12,2.47-19,15.89-14.88,27.22a16.36,16.36,0,0,0,10.33,10.35,18.23,18.23,0,0,0,7.91,2.07C176.72,40.83,192.08,28,187.41,14.11Z"/><path class="cls-2" d="M173.65,93.25c-3.9-11.59-15.86-15.59-27-13.3-12,2.47-19,15.89-14.89,27.22a16.35,16.35,0,0,0,10.34,10.35,18.15,18.15,0,0,0,7.9,2.07C163,120,178.31,107.13,173.65,93.25Z"/><path class="cls-2" d="M126.38,138.58c-3.89-11.59-15.86-15.59-27-13.29-12,2.46-19,15.88-14.89,27.22a16.38,16.38,0,0,0,10.34,10.34,18.15,18.15,0,0,0,7.91,2.07C115.69,165.3,131,152.47,126.38,138.58Z"/><path class="cls-2" d="M187.41,141.25c-3.89-11.59-15.86-15.59-27-13.3-12,2.47-19,15.89-14.88,27.22a16.36,16.36,0,0,0,10.33,10.35,18.23,18.23,0,0,0,7.91,2.07C176.72,168,192.08,155.13,187.41,141.25Z"/><path class="cls-2" d="M62.38,138.58C58.49,127,46.52,123,35.38,125.29c-12,2.46-19,15.88-14.89,27.22a16.38,16.38,0,0,0,10.34,10.34,18.15,18.15,0,0,0,7.91,2.07C51.69,165.3,67,152.47,62.38,138.58Z"/><path class="cls-2" d="M43.08,90.85c-3.89-11.59-15.86-15.59-27-13.3-12,2.47-19,15.89-14.89,27.22a16.4,16.4,0,0,0,10.34,10.35,18.43,18.43,0,0,0,7.91,2.07C32.39,117.57,47.74,104.73,43.08,90.85Z"/><path class="cls-2" d="M84.35,45.25c-3.89-11.59-15.86-15.59-27-13.3-12,2.47-19,15.89-14.89,27.22A16.35,16.35,0,0,0,52.8,69.52a18.15,18.15,0,0,0,7.91,2.07C73.66,72,89,59.13,84.35,45.25Z"/><path class="cls-2" d="M126.38,13.92c-3.89-11.59-15.86-15.59-27-13.3-12,2.46-19,15.89-14.89,27.22A16.4,16.4,0,0,0,94.83,38.19a18.43,18.43,0,0,0,7.91,2.07C115.69,40.64,131,27.8,126.38,13.92Z"/><path class="cls-2" d="M43.08,21.12c-3.89-11.59-15.86-15.59-27-13.3C4.08,10.29-2.95,23.71,1.19,35A16.4,16.4,0,0,0,11.53,45.39a18.43,18.43,0,0,0,7.91,2.07C32.39,47.84,47.74,35,43.08,21.12Z"/><path class="cls-2" d="M-.46,14.11C-4.35,2.52-16.32-1.48-27.46.81c-12,2.47-19,15.89-14.88,27.22A16.35,16.35,0,0,0-32,38.38a18.15,18.15,0,0,0,7.9,2.07C-11.15,40.83,4.21,28-.46,14.11Z"/><path class="cls-2" d="M-.46,141.25c-3.89-11.59-15.86-15.59-27-13.3-12,2.47-19,15.89-14.88,27.22A16.35,16.35,0,0,0-32,165.52a18.15,18.15,0,0,0,7.9,2.07C-11.15,168,4.21,155.13-.46,141.25Z"/></pattern></defs><title>Dots</title><g id="Layer_2" data-name="Layer 2"><g id="image"><rect class="cls-3" x="3.5" y="8.75" width="322.21" height="596.14"/><rect class="cls-4" width="322.21" height="605.84"/></g></g></svg>