<svg xmlns="http://www.w3.org/2000/svg" viewBox="0 0 218.91 322.11"><defs><style>.cls-1{fill:#f83c2d;}.cls-2{fill:#274490;}.cls-3{fill:#e96bbc;}.cls-4{fill:#443880;}.cls-5{fill:#3c3997;}</style></defs><title>Logo</title><g id="Layer_2" data-name="Layer 2"><g id="Layer_1-2" data-name="Layer 1"><path class="cls-1" d="M104.17,22.18A187.92,187.92,0,0,0,83.22,46C79.56,51,75,57.59,76.39,64.37c1.16,5.89,5.51,10.35,8.09,15.44a15.87,15.87,0,0,1,2.06,8.3,21.5,21.5,0,0,1-4.34-3.93c-7.14-8-14.49-22.6-15-21.88-3.21,4.27-4.12,8-3.84,11.61-4.25-4.83-18.45-7.86-18.78-7.37-6.91,10.78-19,16.14-21.47,30.16-.19,1.06,36.48,1.64,31.82,15.83-3.11,9.57-15.4,12.46-22.21,18.62-3.77-5.4-5.92-11.67-13-11.16-5.47.36-8.14,8.33-9.32,13.41-1.85,7.82-2.58,15.06.3,22.26,3.21,8.08,8.88,15.29,10.17,24.44,1.53,11.11-5.57,21.39-7.47,32.16a15,15,0,0,0-.16,4c.25,3.67,1.62,7.44,4.33,8.72a2.14,2.14,0,0,0,.44.18c8.55,3.46,17.63-9.59,22.82-17.61,5.93-3.07,12.61-1.59,18.41,3.94,4.43,4.22,9.39,8.07,15.42,8.82,10,1.26,17.74-4.2,21.17-14.87,7.13-.89,14.16-3.21,20.11-8.51,1.11-1-25.12-4-28.26-6.38-5.36-4-2.74-3.6,1.15-5.77,7.69-4.37,16.55-10.07,13.47-21.19-.24-.89-7.74,2-10.74,3.05-6.47,2.26-11.15-16.15-14.06-19-.65-.61-4.18,7.2-4.22,10.92,0,2.83.26,6.51-.57,9.25-2,6.71-7.43,9-11.16,3.94-1.85-2.52-5.36-12.87-5.56-20.86-.15-5.09,1.06-9.22,4.89-9.77a7,7,0,0,1,1-.06c8.07.12,14.7,5.5,22.48,6.59a62.74,62.74,0,0,0,20.72-.39c13.78-2.65,29.43-8.89,39.07-22.42,11.93-16.76,10.16-38,8.58-57.35C152.6,65.93,139,81.51,131.3,84.72c-8.12,3.36-17.66,5.36-26.3,4.38,10.86-1.77,23.21-9.46,27.72-20.95,3.54-9,2.35-18.72,1.35-27.88A118.72,118.72,0,0,1,136.24.15C136.67-1.68,113.49,13.26,104.17,22.18Z"/><path class="cls-2" d="M116.3,20c-1.59,2.33-15,27.75-31.82,59.86-.75,1.46-1.5,2.91-2.28,4.37-25.7,49-58.19,111.52-69,132,.25,3.67,1.62,7.44,4.33,8.72a2.14,2.14,0,0,0,.44.18c5.64-10.55,20.89-40.51,38-74.27,1.61-3.24,3.25-6.5,4.89-9.77C88.26,86.69,118.35,26.39,120.06,22A2.14,2.14,0,0,0,116.3,20Z"/><path class="cls-3" d="M68.05,123.5c.2.85.43,1.69.69,2.51,1.92,6.06-1.31,12.6,1.08,17.89,3,6.62,5.52,9.7,3.68,17.15-2.1,8.48-.73,15.79,2.37,23.73,1.2,3.07.59,6.19,2.59,9.28h0v.09h0c0,1.06,1,2.13,1,3.18h0c0,.12-.15.23-.13.34a27.83,27.83,0,0,0,2.44,7.86c.41.84.79,1.68,1.23,2.52.62,1.19,1.26,2.37,2,3.52,0,0,0,0,0,0a51.17,51.17,0,0,0,3.69,5.3l0,0h0a41.71,41.71,0,0,0,5.56,5.86l.42.35c2.82,2.32,6,5,9.26,6.53,1.37.65,2.76.61,4.18,2.61h0c.08,0,.16-.71.23-.68s.06-.23.08-.21c2,.72,3.94.89,5.94,1.89h0c5.51,2,11.05,3.51,16.05,6.17,5.66,3,7,9.3,12.7,12.31,5.33,2.83,9.93,6.72,15.76,7.5,3.32.44,4.33,2.45,17.37,0,2.85-.53,11.45-10,10.05-12.41,10.11-4.49,16.09-26.63,10.88-36.46-2.7-5.08-3.86-6.59-2.71-12.92.37-2.08.7-4.4,1-6.83.38-3.26.69-6.69.92-9.93.4-5.86.55-11.08.46-13.51-.16-4.39-11.59-23.23-11.23-28.68a1.59,1.59,0,0,1,.49-1.25c2.77-2.1,3-7.2,4.18-10.45,2.13-5.78,6.82-18.18,4.88-22-.89-1.76-3.2-1.71-7.8,1.63-1.32,1-3.21,2.27-5.4,3.64-6.18,3.88-14.72,8.31-19.48,7l-.1,0c-2.45-.67-5.08-1.33-7.75-1.92-.51-.11-1-.18-1.54-.27-.08,0-.17-.15-.26-.17a10.3,10.3,0,0,0-2.05-.48h0c-.09,0-.18.18-.27.15a6.93,6.93,0,0,0-2.35-.15h0c-1.52-1-3-.56-4.46-.69-.79-.08-1.54-.31-2.28-.31h0c-1,0-2-.2-3-.25-8.3-.49-13.36-.15-17,.89a6.47,6.47,0,0,1-1.64.36h0c-2.59,2-4.5,2.3-6.66,3.56a35.58,35.58,0,0,1-7,3.33c-3.36,1.14-17.43-14.33-24.52-17.59a20.8,20.8,0,0,0-5.72-2c-2.9-.36-5,1-7,5.88A26.15,26.15,0,0,0,68.05,123.5Z"/><path class="cls-1" d="M80.39,142.24c-1.37-2.1-3.84-2-3.66-5a21.55,21.55,0,0,0-.19-5.89c-.36-2-.05-4.21-.53-6.25s-1.29-3.89-1.84-5.83c-.36-1.28-1.39-5.46,0-6.36,1.08-.7,4.72,1,5.67,1.34,3.69,1.22,8.89,2.93,11.5,5.93,1.49,1.7,1.12,3.09.4,5a8.69,8.69,0,0,0-.22,5.61c.82,3.22,5.24,5.83,2.23,8.95-2.83,2.94-6.44,6.14-10.63,6.93C83.11,146.72,82,144.76,80.39,142.24Z"/><path class="cls-1" d="M179.9,134.55c1.61.51,3.7,2.78,5.69,4a1.59,1.59,0,0,1,.49-1.25c2.77-2.1,3-7.2,4.18-10.45,3.11-8.45,11.69-31-2.92-20.38-1.32,1-3.21,2.27-5.4,3.64a14.82,14.82,0,0,0-2.3,7.41,59.07,59.07,0,0,0,.38,9.39C180.25,129.51,179.76,132.07,179.9,134.55Z"/><path class="cls-1" d="M150.66,155.42c-4.7-.23-3.14,3.84-3.65,7.28-.19,1.25-.87,2.21-.91,3.45a8.14,8.14,0,0,0,1.05,3.11c1.92,4.8,4.1,9.3,7.85,13,2.48,2.44,10.77,9.34,10.08,1.45-.2-2.32-.52-5.42-1.61-7.52s-3.44-4.33-5-6C154.46,165.85,150.61,156.05,150.66,155.42Z"/><path class="cls-1" d="M133.5,168.41c-3.38.41-3,4.38-2.91,7.05a8.2,8.2,0,0,0,3,6.2c2.7,2.21,6.8,2.61,9.86,4.24,3.69,2,7.41,4.25,11.51,5,.13-2.65-.23-6-2.34-7.87-2-1.67-5.21-.61-7.66-1.37a15.54,15.54,0,0,1-6.53-4.28C137.06,175.87,133.53,168.57,133.5,168.41Z"/><path class="cls-1" d="M196.82,167.25a2.3,2.3,0,0,1-1.46,3.47c-.55.08-1.48-.24-2.18-.18a14.58,14.58,0,0,0-3.23.76,7.69,7.69,0,0,0-4.49,3.24c-1,1.78-.67,6.9-2.33,7.88-2.57-2.43-3-9.95-.9-12.7,3-4,8.86-7.54,13.5-3.75Z"/><path class="cls-1" d="M193.69,183.8c-2,1.83-8.74,3.6-10.72,1,1.6-1.34,3.69-2.17,5.28-3.5,2.15-1.79,5-6.25,7-8.07C195.27,173.24,195.4,182.21,193.69,183.8Z"/><path class="cls-4" d="M107.27,129.29c2.88,1.62,6.82,2.12,9.06,4.72,1.48,1.71.23,2.24-1.07,4.05-1.71,2.38-3.42,5.8-5.83,7.44-2.71,1.84-5.62,2.53-8.76,3.14q-5.37,1-10.72,2.14c-1.55.32-3.09.53-4.61,1s-3.13,1.5-4.65,1.25c1-2,2.45-4,3.54-6,1.81-3.28,4-4.51,7.27-5.93,2.47-1.06,2.34-1.64,2.64-4.15.21-1.78-.08-2.47-2.21-3.13.07-1.44,1.73-2.36,1.45-3.58s-3.67-2.91-3.31-4.25c.27-1,7.31-3.61,8.23-3.27C98.3,122.73,106.18,128.68,107.27,129.29Z"/><path class="cls-4" d="M92.28,136.18c.64.49,1.73,2.86.55,3.34-.82.34-2.19-1.57-3-1.8-1.74-.5-1.67.44-2.55,1.39-.74.79-1.4,1.82-2.69,1.5s-.82-1-1.46-2.19c-.93-1.67-4.58-1.84-4-4.35,1.58.37,3.5,2.41,4.72,3.55.26-1.15.53-2.06,1.79-2.3s2.47,1.46,3.68.91C89.35,136.23,91.6,135.66,92.28,136.18Z"/><path class="cls-4" d="M68.05,123.5a9.8,9.8,0,0,0,2.5.86c1.21.25,4.22.73,5.3-.1,2-1.54.63-7.33,1.06-9.31.54-2.48,2.48-4.26,2.22-6.89-.24-2.45-1.77-4.42-3.26-6.41-2.9-.35-5,1-7,5.88A26.12,26.12,0,0,0,68.05,123.5Z"/><path class="cls-4" d="M161.89,117.58c2.51,1.61,9.88.69,12.66,0,3.12-.74,4.89-2.64,7.45-4.39,2.32-1.58,4.73-3.07,7-4.68,1.05-.75,4-2.12,6.13-3.69-.89-1.76-3.2-1.71-7.8,1.63-1.32,1-3.21,2.27-5.4,3.64-6.18,3.88-14.72,8.31-19.48,7l-.1,0C162.2,117.27,162,117.42,161.89,117.58Z"/><path class="cls-4" d="M186.42,247c-3.28-.36-5.16-3.26-8.22-1.07-1.5,1.08-2.37,2.56-4.18,3.29-1.6.64-4.12.81-3.69-1.67-2.41.75-19,3-19.28-.91,3.39.67,6.95.25,10.38,0,3.12-.24,5.91-.49,8.57-2.19,1.67-1.06,5.52-3.38,7.67-2.56.78.29,1.58,1.69,2.77,2.15C181.91,244.58,186.7,245.83,186.42,247Z"/><path class="cls-1" d="M181.79,240.12c2-1.4,3.37-2.63,5.23-4.17s3-3.66,4.87-5.2c3.47-2.89,5.28-8.32,5.09-12.75-1.65.37-3.43,2.59-5.31,3.21a14.88,14.88,0,0,1-6.34.92c-3.9-.52-8.29-3.2-12.18-1.08-1.06-1.13-4.51-6.21-4.79-2.35-.23,3.06,3.19,4.94,5.29,6.57a22.19,22.19,0,0,1,3.29,3.43c.91,1.07.95,2,1.59,3.17A74.87,74.87,0,0,1,181.79,240.12Z"/><path class="cls-4" d="M197.45,217.54a21.24,21.24,0,0,0-4.1,2.12c-1.11.77-1.59,2-2.95,2.46-2.85,1-6.69-1.33-9.42-2.11-1.26-.36-9.81-1.22-8.62,1.76.38.95,3.84,1.94,4.76,2.27,1.11.4,3.24,1.07,3.83,2.19,1.24,2.39-5,2.17-2.37,5.66.82,1.11,1.63,1.59,2.22,2.87s.9,2.93,1.46,4.36c2.12-1.28,3.74-3.63,5.76-5.13a28.08,28.08,0,0,0,5.29-4.57,22.7,22.7,0,0,0,3.56-6.22A27.16,27.16,0,0,0,197.45,217.54Z"/><path class="cls-1" d="M188.43,224.54c.28,2.3-2,4.06-2.87,5.88a15.11,15.11,0,0,1-1.88,3.26c-.82,1-1.61,4.5-1.55,5.94,1.36-2,2.09-6.55,3.79-8.28a8.22,8.22,0,0,0,2.28-3,9.6,9.6,0,0,0,.27-2.2A11.67,11.67,0,0,0,188.43,224.54Z"/><path class="cls-4" d="M182.14,183.85a26.66,26.66,0,0,0-.44-5.81c-.62-2-1.37-7.31.51-9,2.93-2.64,9.82-2.51,13.67-1.72.52,3.26-1.71,9.29-3.15,12.24a7.6,7.6,0,0,1-3.6,3.8C188,183.91,182.14,183.85,182.14,183.85Z"/><path class="cls-4" d="M161,184.24c.33,1.29.06,2.55-1.43,2.16a6.37,6.37,0,0,0-3.46-5.11c-4.2,3.93-11.26,4.16-16.3,1.92-2.08-.93-5.51-2.61-6.83-4.59-1.5-2.25-.17-5.2-1.56-7.52-3.29-.2-4.22-.69-6.29-3.16,4-2.47,6.06-3,10.72-3a47.37,47.37,0,0,1,10.45,1.47c3,.65,7.15,1.95,8.55,5.12C156.62,175.58,161,184.24,161,184.24Z"/><path class="cls-1" d="M192.26,170c-2.55.5-5.2.9-7.81,1.3a27.87,27.87,0,0,0-.77,6.54c-.13,2.74-.7,5.12,2.56,3.6,1.94-.89,6.42-3.9,7.51-6.84C194.56,172.42,192.26,170,192.26,170Z"/><path class="cls-1" d="M152.48,173.45c-1.95,5.36-6.77,8-12.22,8a5.5,5.5,0,0,1-5.7-4.38c-.55-2.6.23-4.46.8-6.9C138.73,170,152.48,173.45,152.48,173.45Z"/><path class="cls-4" d="M136.44,164.29c4.36.7,8.79,3.14,13.23,1.7a1.1,1.1,0,0,0,.26-2c-2-1.26-4.11-2.22-6.2-3.28-6.13-3.11-10.8-.06-10.35,1.61C133.78,163.8,135.07,164.07,136.44,164.29Z"/><path class="cls-4" d="M111.2,163a5.18,5.18,0,0,1,3.83-1.56c1.11,0,2.42.34,2,3-.21,1.41-2.36,2-3.49,2.5s-2.66.53-3.29-.71S110.48,163.84,111.2,163Z"/><path class="cls-4" d="M129.86,149.68a26,26,0,0,1,3.72-5c.94-.73,2.57-1,2.95.1,1.84,5.37-2.78,9.78-5.14,8.43A3.16,3.16,0,0,1,129.86,149.68Z"/><path class="cls-4" d="M120.06,139.43c1.07-1.56,4-2.5,5.85-2.1,4.38.94,2.51,3.73,2.42,3.92a1.88,1.88,0,0,1,2.11,1c1.34,2.36-1.95,4.13-3.93,4a1.1,1.1,0,0,1-1.05-1.38,6.07,6.07,0,0,1,.62-1.28C124.46,144.54,117,144,120.06,139.43Z"/><path class="cls-4" d="M132.87,136c1.22-.59,3.55-1.05,4.49,0a1.17,1.17,0,0,1,.31.38,2.28,2.28,0,0,1,.18,1.85,1.76,1.76,0,0,1,2-.28.58.58,0,0,1,.23.24,2.23,2.23,0,0,1,.3.31,2.84,2.84,0,0,1,.09,2.54,2.87,2.87,0,0,1-1.67,1.62,1.91,1.91,0,0,1-2.2-.26,2,2,0,0,1-.18-2.28,2.39,2.39,0,0,1,.16-.32,7.11,7.11,0,0,1-2.93,1.11,3.22,3.22,0,0,1-1.73-.22l-.06,0a1.13,1.13,0,0,1-.81-.91,2.71,2.71,0,0,1-.12-.51A3.35,3.35,0,0,1,132.87,136Z"/><path class="cls-4" d="M127.47,131.64a2.35,2.35,0,0,1,4.09.4l.05.12,0,0a1.93,1.93,0,0,1,.15.68s0,0,0,.07a.61.61,0,0,1,0,.14,4.12,4.12,0,0,1-.8,2.08,3.05,3.05,0,0,1-2.77,1.39C125.87,136.29,126.66,133,127.47,131.64Z"/><path class="cls-4" d="M116,150.66c.45-1.72,4.93-4.3,6-4.39,1.3-.11,2.53.42,2.73,1.82.3,2.07-6.41,4.1-7.65,4A1.12,1.12,0,0,1,116,150.66Z"/><path class="cls-4" d="M140,143.78c.89-.81,2.67-1.39,3.54-.23a2.17,2.17,0,0,1,.38,1.65c0,2.64-1.61,5.91-4.62,5.75a1.2,1.2,0,0,1-.84-.4C136.27,149.37,138.74,144.9,140,143.78Z"/><path class="cls-4" d="M143.84,147.9a2.61,2.61,0,0,1,2.82-1.68,1.79,1.79,0,0,1,1.47,2.34,3.83,3.83,0,0,1-3.86,3,1.11,1.11,0,0,1-1.09-1.1A4.8,4.8,0,0,1,143.84,147.9Z"/><path class="cls-4" d="M149.3,160.08c-.15-.32-.32-.67-.48-1a1.56,1.56,0,0,1-.69,2,3.21,3.21,0,0,1-2.81-.42c-1.59-.83-3.58-2.6-3.55-4.56a2,2,0,0,1,.77-1.78c2.14-1.78,4.89,2,5.87,3.82-.74-1.88-1.29-4.11-.31-5.67,1.81-2.88,10.72,12.34,10.12,14.51-.19.68-1.52,2.13-4.4.31A44.87,44.87,0,0,1,149.3,160.08Z"/><path class="cls-4" d="M156.48,183.26a7.37,7.37,0,0,1,2.45,4.63c.28.59-.09,4.21-.22,4.71a1.1,1.1,0,0,1-1.83.48c-.54-.56-4.36-5.77-4.4-8.12S156.19,183,156.48,183.26Z"/><path class="cls-4" d="M157.32,196.87a1.69,1.69,0,0,1,.73-2.72,1.54,1.54,0,0,1,1.52.45,2.16,2.16,0,0,1,.36,1.89C159.82,197,157.66,197.32,157.32,196.87Z"/><path class="cls-4" d="M155.63,198.59a2.37,2.37,0,0,1,2-.41,1.1,1.1,0,0,1,.76,1.35,6,6,0,0,1-2.27,1.78,1.09,1.09,0,0,1-1.09-1.1A2.07,2.07,0,0,1,155.63,198.59Z"/><path class="cls-4" d="M165.74,206c.28-.17,2.44-.36,3,.15a2.26,2.26,0,0,1,.44,2.18,1.08,1.08,0,0,1-1.06.8,3.08,3.08,0,0,1-2.77-1.64A1.11,1.11,0,0,1,165.74,206Z"/><path class="cls-4" d="M150.84,196.35a1,1,0,0,1-.68,1,1.08,1.08,0,0,1-1.07.31,1.1,1.1,0,0,1-.76-1.35c.13-.4.26-.8.36-1.22a1.07,1.07,0,0,1,1.52-.67,1,1,0,0,1,.45.14,1.1,1.1,0,0,1,.4,1.5C151,196.13,150.91,196.24,150.84,196.35Z"/><path class="cls-4" d="M147.22,192.79l.21.18a2.09,2.09,0,0,1,.54,1.82c-.22,1.36-1.72,2.94-3.17,2.09C142.83,195.71,145.19,191.47,147.22,192.79Z"/><path class="cls-4" d="M122.3,154.52a5.44,5.44,0,0,1,1.44-2.53,4.32,4.32,0,0,1,4.5-1.23c1.21.46,1.67,1.84,1.8,3a7.67,7.67,0,0,1-.48,4.27,4.19,4.19,0,0,1-.16.46,2.08,2.08,0,0,1,.48.16c1.24.54,1.34,2,1.19,3.15a8.59,8.59,0,0,1-1.18,3.8,1.16,1.16,0,0,1-1.3.46l-.06,0a3.71,3.71,0,0,1,.29.95,2.85,2.85,0,0,1-.85,2.5,3.06,3.06,0,0,1,1.63,3.3,2.41,2.41,0,0,1-.92,1.3,3.13,3.13,0,0,1,.62,2,6.15,6.15,0,0,1-.1,1.71,3.19,3.19,0,0,1,2.19.16,1.93,1.93,0,0,1,1.23.81,1.8,1.8,0,0,1,.19.2c1,1.12.61,2.65-.11,3.82a2.62,2.62,0,0,1,2.53,1.11,1.92,1.92,0,0,1,1,2.18,2.67,2.67,0,0,1,.75,0,2.19,2.19,0,0,1,2,1.53,3,3,0,0,1,3.7.57,2.36,2.36,0,0,1,.44.79,2.41,2.41,0,0,1,.87-.81.67.67,0,0,1,0-.2,1.14,1.14,0,0,1-.07-.32,1.62,1.62,0,0,1,.38-1.18,1.51,1.51,0,0,1,1.09-.5,2,2,0,0,1,1.82,1,1.8,1.8,0,0,1-.8,2.7c.21,1.55-.59,3.37-2.36,3l-.15,0c.55,1.46-.19,3.56-1.83,3.74a1.77,1.77,0,0,1-1.53-.81,2.4,2.4,0,0,1-.14-1.8,2.62,2.62,0,0,1-.54-.12,3.2,3.2,0,0,1-1.69-1.45,2.24,2.24,0,0,1-2,.27,3.32,3.32,0,0,1-2.23-3.61c-1.81.74-4.38.45-5.46-.91a2.31,2.31,0,0,1-.05-3,2.37,2.37,0,0,1-.78-.29,3.26,3.26,0,0,1-1.63-2.58,5.81,5.81,0,0,1-1.46-.05c-1.53-.24-2.32-1.61-2.68-3a5.79,5.79,0,0,1,1.56-5.45,2.09,2.09,0,0,1-.16-.4,3.25,3.25,0,0,1,.21-2.25,3.06,3.06,0,0,1,2.23-1.8,3.79,3.79,0,0,1-1.29-3.18,1.8,1.8,0,0,1,2.45-1.4,3.21,3.21,0,0,1-.29-1.21,4.58,4.58,0,0,1,0-.64c-2.74,0-7.6-.49-8-4C118.23,156.53,120.2,154.22,122.3,154.52Z"/><path class="cls-4" d="M151.1,188a1.67,1.67,0,0,1,.34,2.05c.4,1,.28,2.24-.94,2.66-1.6.56-2.4-1.57-2.36-2.78C148.19,188.4,149.59,186.78,151.1,188Z"/><path class="cls-4" d="M141.65,187.17a1.11,1.11,0,0,1-.39-1.5c.22-.37,2-1.57,2.65.43a1.12,1.12,0,0,1-.68,1.23A1.58,1.58,0,0,1,141.65,187.17Z"/><path class="cls-4" d="M142.74,202.11a1.44,1.44,0,0,1-1.54-1.37,1.87,1.87,0,0,1,.86-1.52,4.88,4.88,0,0,1,.06-.52,1.1,1.1,0,0,1,2-.26,3.08,3.08,0,0,1,.32,2.4A1.93,1.93,0,0,1,142.74,202.11Z"/><path class="cls-4" d="M139.35,198.9a1.1,1.1,0,0,1,0,1.89,5.77,5.77,0,0,1-5.1.48,1.12,1.12,0,0,1-.75-.85l-.24-.11a1.1,1.1,0,0,1-.39-1.5C134.28,196.67,137.58,198,139.35,198.9Z"/><path class="cls-4" d="M130,198.83a3.1,3.1,0,0,1-1.6-.71,1.31,1.31,0,0,1-.63-.64,1.32,1.32,0,0,1,0-1.15,2.07,2.07,0,0,1,.23-.56,1.12,1.12,0,0,1,1.5-.4,1.05,1.05,0,0,1,.39.42,2.25,2.25,0,0,1,.44.14,1.91,1.91,0,0,1,1,1.85A1.12,1.12,0,0,1,130,198.83Z"/><path class="cls-4" d="M122.88,192.56a1.13,1.13,0,0,1,1-.21,3.13,3.13,0,0,1,1.64,1.15,1.79,1.79,0,0,1,0,2,1.15,1.15,0,0,1-1.23.51,3,3,0,0,1-2.59-2.11,1.1,1.1,0,0,1,.76-1.34A1,1,0,0,1,122.88,192.56Z"/><path class="cls-4" d="M120.44,189.34c-1.53-.48-1.82-2.74-1.83-4.09a1.1,1.1,0,0,1,2.19,0v.11a1.07,1.07,0,0,1,1,0,2.49,2.49,0,0,1,1,2.54A1.94,1.94,0,0,1,120.44,189.34Z"/><path class="cls-4" d="M123.05,201.81a3.41,3.41,0,0,1-.73-1.38,1.94,1.94,0,0,1-.18-1.57c.5-1.27,2.11-1.2,3.16-.71a8.65,8.65,0,0,1,2.8,2.24l.06.06a3.85,3.85,0,0,1,1.42,1.75,2.4,2.4,0,0,1,.21,2,1,1,0,0,1-.59.82,1.27,1.27,0,0,1-1.42,0,9,9,0,0,1-1.87-.92A11.23,11.23,0,0,1,123.05,201.81Z"/><path class="cls-4" d="M78.13,194.58a1.9,1.9,0,0,1,2.36-1.48c2.48.39,6,3.08,5.35,6a2.3,2.3,0,0,1-3.57,1.56C78.78,198.44,77.92,195.56,78.13,194.58Z"/><path class="cls-4" d="M80.26,183.94c1.06-.13,1.72,1,2,1.87a5.61,5.61,0,0,1,0,3,2.73,2.73,0,0,1-1.94,1.83,1.94,1.94,0,0,1-2.12-1.5c-.47-1.24-.35-3.46.75-4.45A1.71,1.71,0,0,1,80.26,183.94Z"/><path class="cls-4" d="M84.47,193.8c.82,2.23,3.74,4.84,6.32,3.85,2.41-.93,1.77-4.31.78-6.33a5.87,5.87,0,0,0-.71-1.54,5.66,5.66,0,0,0-4.39-2.26C83.52,187.75,83.74,191.84,84.47,193.8Z"/><path class="cls-4" d="M80.28,178.3a5.16,5.16,0,0,0,2.73-3c0,.43,0,.86,0,1.26a1.1,1.1,0,0,0,1.09,1.1,4.17,4.17,0,0,0,3.06-2.49c.58-1.09,1.31-2.88.5-4a2.59,2.59,0,0,0-.58-.61h0a3,3,0,0,0,1.41-1.09,14.3,14.3,0,0,0,.51,1.86c-1.28,4-3.14,7.63-.88,12a1.1,1.1,0,0,0,1.88,0,9.17,9.17,0,0,0,1.17-4.27c0-.12,0-.24,0-.36.13,1.66.75,3.49,2.51,2.78a4.51,4.51,0,0,0,2-1.58c0,.18,0,.35,0,.53a16.65,16.65,0,0,0-.11,4.62,2.93,2.93,0,0,0-2.15.72,2.74,2.74,0,0,0-.86,1.73,3.47,3.47,0,0,0-.32.34,3,3,0,0,0,.22,4.33c1.13,1,3,1.52,4.34.58l.19-.17A2.44,2.44,0,0,0,98,191a5.56,5.56,0,0,0-.4-4.46,7.56,7.56,0,0,0,1-1.4,4.71,4.71,0,0,0,1.09,1.65,4.84,4.84,0,0,0,1.7,1.11c-1.34.26-2.26,1.08-1.89,3.16.57,3.3,4.65,3.88,7.4,4,1.65.08,6.72-.4,7.09-.41a9,9,0,0,0-.09,5.69,11.18,11.18,0,0,0-7.68-2c-1,.15-.35,3.69-.12,4.62-2.26-.66-5.25-1.11-6.68.41-1.64,1.73-1.08,4,.2,5.79-2-2.83-12.61-7.58-13.76-6a3.42,3.42,0,0,0,.15,3.81c.38.64-1.31.54-3.11,1.09.62,1.19,1.28,2.37,2,3.52l0,0a52.76,52.76,0,0,0,3.69,5.3l0,0h0a41.71,41.71,0,0,0,5.56,5.86,29.4,29.4,0,0,0,3.83-6.28,3.12,3.12,0,0,0,.16-1,3.47,3.47,0,0,0-.64-2.18,15.26,15.26,0,0,0,2.7-.05,1.1,1.1,0,0,0,.76-1.35,9.7,9.7,0,0,0-1.29-2.7c.19.24.38.47.58.69,1.89,2,4.5,4.17,7.38,4.32a2.63,2.63,0,0,0,2.25-1.39c.13-.17.23-1.77.71-1.65a4.6,4.6,0,0,0,1.6.17,1.12,1.12,0,0,0,1.06-1.39,10.12,10.12,0,0,0-.79-2.18c1.29.41,2.68,1,3.74.37a2.21,2.21,0,0,0,1.13-1.8,4.53,4.53,0,0,0,1.3.45,3.29,3.29,0,0,0,3.73-4.27c-1-2.9-5.94-8-6.31-8.44a2.28,2.28,0,0,0,1.2-1.78,2,2,0,0,0,0,.24c.38,1.17,3.93,1.77,4.12,1.35a2.83,2.83,0,0,0-.66-3.39,1.46,1.46,0,0,0-.35-.22,1.48,1.48,0,0,0-1.23-.22,1.93,1.93,0,0,0-1.45.5,1.74,1.74,0,0,0-.47.87c0-.11,0-.21,0-.33-.32-2.14-1.69-6.59-4.16-7.75a5.07,5.07,0,0,0-.35-2.68,4.84,4.84,0,0,0-.87-1.46c1.77.7,5.1,1.54,6.18-.47a31.77,31.77,0,0,0,1.6-4.13,7.82,7.82,0,0,1,2.05-3.37A4.44,4.44,0,0,0,123,170c1.15-2.51-2-3.85-4.11-3.66a6.06,6.06,0,0,0-3.83,1.51,7.15,7.15,0,0,0-1.36,2c-1-1.93-4-2.47-6.19-1.69.42-2.24.08-5-2.49-4.81-2.91.22-5.32,3.34-6.54,5.75-1,2-1,6.92,1.85,7.48l.11,0,.13,0a5.38,5.38,0,0,0,4.83-2.9,10,10,0,0,0,2.27,2.79,7.46,7.46,0,0,0-4.53,1.58,5.27,5.27,0,0,0-1.39,1.64,5.16,5.16,0,0,0-.4,1.33,6.12,6.12,0,0,0-1,.32c.66-2.25.66-4.47-1.11-5.08a2.08,2.08,0,0,0-2,.19,2.67,2.67,0,0,0-.15-1.37c-.32-.82-3.24-1.2-3.81-1a2.92,2.92,0,0,0-1.41,1.23,13.5,13.5,0,0,1,2-4.69c1.48-2,7.65-8.62,10.27-9.63a3.6,3.6,0,0,0,1.55-1.3c.58,1.82,3.53,3.55,5.74,2.44,1.33-.67,2.06-2.46,2.39-4.47.66-1.08,3.43-7.56-.14-10a5.53,5.53,0,0,0,3.28-2.39,5.92,5.92,0,0,0,1.5-3.23c0-.27-.64-1.44-1.05-1.54a4.43,4.43,0,0,0-2.89.44,9.19,9.19,0,0,0-2.59,1.71c-1.07,1-2.16,2.77-.87,4.08a3.66,3.66,0,0,0,.49.42l-.27,0a5.53,5.53,0,0,0-2.59,1,1.26,1.26,0,0,0-.87-.58c-1.31-.24,1-.87,1.6-1.65a2.33,2.33,0,0,0-1.4-3.25c-2.09-.35-8,3.82-8.93,5.26a3.71,3.71,0,0,0-2.5-1.15c-1.26.12-8.74,3.21-8.14,5.61.64,2.59,3.18,2.05,5.7.72a10.9,10.9,0,0,0,1.76-1,33.23,33.23,0,0,0,2.73-2,1,1,0,0,0,1,.6,7.8,7.8,0,0,0,2.74-.7,8.15,8.15,0,0,0-1.57,1.14,1.11,1.11,0,0,0,.78,1.87,6.33,6.33,0,0,0,3.54-1.24,3.26,3.26,0,0,0-1.25,2.58,3.65,3.65,0,0,0,.85,1.8c-1.61-.65-2.78.28-3.64,1.6a5.93,5.93,0,0,0-1.44-1.65,4.65,4.65,0,0,0-5.25-.33,3.69,3.69,0,0,0-1.48-1.05c-1.75-.66-3.73.51-4.61,2a3.39,3.39,0,0,0,1.47,4.38,2.74,2.74,0,0,0,2.34,0,6.08,6.08,0,0,0,.47,1.5,14,14,0,0,0-1.84,1.19,2.67,2.67,0,0,0-2.3-1.8,3.08,3.08,0,0,0-.9-2.72,2.5,2.5,0,0,0-3.14-.05,3.77,3.77,0,0,0-1.21,2.1c-3.23-.07-6,4.38-4.35,7.31a3.11,3.11,0,0,0,.52.7,6.8,6.8,0,0,0-2.9,3.18C75,175.54,76.56,179.5,80.28,178.3Zm2.13-8.5a3.3,3.3,0,0,0,.6-.4,5.76,5.76,0,0,0,1.11-1.27c0,.24-.05.47-.06.7a1.08,1.08,0,0,0,.54.95,3.72,3.72,0,0,0,.48.15l.15.15a1.91,1.91,0,0,0-1.13.63,6.44,6.44,0,0,0-.57.8,2.84,2.84,0,0,0-.87-1.51A2.43,2.43,0,0,0,82.41,169.8Z"/><path class="cls-4" d="M76.06,151.73a4.25,4.25,0,0,1,2.48-2.45,1.11,1.11,0,0,1,1.35.77,1.09,1.09,0,0,1,0,.62,1.2,1.2,0,0,1-.09.83c0,.08-.1.16-.14.24a8.17,8.17,0,0,1,.61-.71c1-1,2.45.48,1.56,1.52a1.1,1.1,0,0,1-.48,1,7.17,7.17,0,0,0-1.14,1c-.43.55-.85,1.11-1.31,1.63-.82.94-2.42-.29-1.72-1.32.17-.25.35-.49.53-.73l.09-.35a.91.91,0,0,1,.83-.78l.29-.37a2.39,2.39,0,0,1-1.89.71A1.12,1.12,0,0,1,76.06,151.73Z"/><path class="cls-4" d="M111.67,139.64a1.11,1.11,0,0,0,.81,1.05,3.55,3.55,0,0,0,3.08-1,2.77,2.77,0,0,0,1.09-2.5,7.27,7.27,0,0,0,4.43-1.46,3.75,3.75,0,0,0,4.3-1.94,8.49,8.49,0,0,0,.3-6.4,6.51,6.51,0,0,0,.51-.54c-.3.86-.41,1.82.28,2.36,2,1.55,4.57-1.06,5.66-2.6.7-1,1.48-2.3,1.1-3.54a2,2,0,0,0-.27-.52c2,.35,3.75,0,4.07-2.32a2.72,2.72,0,0,0-1.85-3.36,8.35,8.35,0,0,0-2.12-.61,4.92,4.92,0,0,0,.24-.77,13,13,0,0,0,4.61-1.45,1.14,1.14,0,0,0,.55-1.06h0c-9-.49-14,0-17,1.07h0c0,.09-.1.17-.13.27-.41,1.45.41,2.26,1.61,2.67a10.76,10.76,0,0,0-2.6,0c-.17,0-.37-.09-.56,0,.65-.77.49-1.63,0-2.63h0c-2.59,2-4.5,2.31-6.66,3.56.85,0,1.7.05,2.57.08a15.1,15.1,0,0,0,2,0,2.49,2.49,0,0,0-.92,1.3c-.41,1.6.47,3,1.34,4.29l.4.57a3.22,3.22,0,0,0-1.37.62,1.68,1.68,0,0,0-.95.62,5.37,5.37,0,0,0-1.22,3,1,1,0,0,0,.43.86,6.61,6.61,0,0,0-3.19,4.33,1.13,1.13,0,0,0,.5,1.23,2.66,2.66,0,0,0,3.14,0c-.13.37-.26.74-.36,1.12,0,0,0,.09,0,.13a1.91,1.91,0,0,0-1.87.31,1,1,0,0,0-.5.29A4.72,4.72,0,0,0,111.67,139.64Zm16.19-15.41c.45-1,.82-2,1.2-3a4.38,4.38,0,0,0,1.4.7,2.18,2.18,0,0,0-.23.09,5.12,5.12,0,0,0-1.9,1.71C128.17,123.92,128,124.07,127.86,124.23Zm-10,4.49a5.21,5.21,0,0,0,1.7-1.82,17,17,0,0,0-.21,2.66c0,.09,0,.19,0,.29a10.77,10.77,0,0,0-1.13,1,6,6,0,0,0,.18-1.19A1,1,0,0,0,117.9,128.72Z"/><path class="cls-4" d="M132.42,129.49c.09-1,.27-2.29,1.2-2.84a2.6,2.6,0,0,1,1.07-.35,1.42,1.42,0,0,0,.44-.13c.08-.53.16-1.07.27-1.62.32-1.59,1.49-3.58,3.43-3,3.3.91,1.36,6,.4,8s-3,7.75-6,5a2.4,2.4,0,0,1-.47-.64,1.08,1.08,0,0,1-.36-1A12.3,12.3,0,0,1,132.42,129.49Z"/><path class="cls-4" d="M154.61,115.21c2.28,1.34,6.38,3.68,7.85,1.94l-.1,0C159.91,116.46,157.28,115.8,154.61,115.21Z"/><path class="cls-4" d="M142.14,131.31a1.87,1.87,0,0,1,1.23-1c2-.68,4.33.86,5.43,2.44a5.6,5.6,0,0,1,.28,5.8,3.22,3.22,0,0,1-.53.69c1.92-.07,3.53,2.94,4,4.67,0-.75.49-1.41,1.69-1.79,1.59-.5,3.21.52,4.46,1.42-.49-1.13-.41-2.51.94-2.93,1.62-.51,2.53.84,2.51,2.22a3.54,3.54,0,0,1,.87,2.43,1.1,1.1,0,0,1-1.74.87,3.2,3.2,0,0,1,.45,1.65c-.06,2-2.14,2.5-3.6,1.62a7.2,7.2,0,0,1-1.12-.85,7.33,7.33,0,0,1-4.34-3.87,2.35,2.35,0,0,1-1.13,2.37,3,3,0,0,1-3-.53,4.94,4.94,0,0,1-2.19-4,2.63,2.63,0,0,1,.71-2.63C143.43,140.28,138.12,133.32,142.14,131.31Z"/><path class="cls-4" d="M171.38,120.15a5,5,0,0,1,3.35,1.94c.86,1,1.8,2.5,1.43,3.87a1.53,1.53,0,0,1-1.94.94,6.16,6.16,0,0,1-2.64-1.39,5.12,5.12,0,0,1-2.14-3.68A1.71,1.71,0,0,1,171.38,120.15Z"/><path class="cls-4" d="M171.12,128a.63.63,0,0,1,.2-.36,1.12,1.12,0,0,1,1.6-.75,17.1,17.1,0,0,1,6,5.38c.54.74,0,1.44-.76,1.55a3.61,3.61,0,0,1,1.36,2.12,1.11,1.11,0,0,1-.76,1.35,5.2,5.2,0,0,1-3.31-1,6,6,0,0,1-2.18-1.76,2.09,2.09,0,0,1-.56-1.33,1.31,1.31,0,0,1,.45-1,9,9,0,0,1-1.52-2A3.31,3.31,0,0,1,171.12,128Z"/><path class="cls-4" d="M158.79,151.51a1.07,1.07,0,0,1,1.05-.8,5.65,5.65,0,0,1,3.28,1.95c1,1,1.95,2.36,1.28,3.76-.79,1.66-2.83.8-3.73-.19-.19-.21-.38-.46-.58-.72A3.87,3.87,0,0,1,158.79,151.51Z"/><path class="cls-4" d="M162.23,158.27a.9.9,0,0,1,.82-.1,2.57,2.57,0,0,1,1.57,3.19,2.72,2.72,0,0,1-2.62,2.2C159.05,163.21,160.15,158.38,162.23,158.27Z"/><path class="cls-4" d="M162.53,167.21a3.29,3.29,0,0,1,2.37-2.75,1.38,1.38,0,0,1,.41-.66,1.78,1.78,0,0,1,2.16-.21,2.84,2.84,0,0,1,1,2.5,3,3,0,0,1,1.76-.57,1.86,1.86,0,0,1,1.54.79c.43.56.06,1.35-.25,1.85-.64,1.06-1.22,2.35-2.3,3h0a2.66,2.66,0,0,1-1.06.36.72.72,0,0,1-.25,0,1.52,1.52,0,0,1-1.37-1.37l-.17.11a2.31,2.31,0,0,1-2.84,0,1.34,1.34,0,0,1-.07.18l.13,0a1.2,1.2,0,0,1,.72.64c1.31-.74,3.13.46,3.29,2.07a2.21,2.21,0,0,1-2,2.25,1.8,1.8,0,0,1-1.48-.68,2.5,2.5,0,0,1-.46-1.23,1.07,1.07,0,0,1-.74.32,1.11,1.11,0,0,1-1.1-1.1,3.07,3.07,0,0,1,.07-.53,1.5,1.5,0,0,1-.37,0,1.85,1.85,0,0,1-1.8-1.65C159.36,168.77,160.93,167.51,162.53,167.21Z"/><path class="cls-4" d="M165.94,175.68c.74,0,1.75.51,1.78,1.37a1.48,1.48,0,0,1-.2.77c.43,1.12.11,2.49-1.31,2.62a2.58,2.58,0,0,1-2.6-1.74A2.42,2.42,0,0,1,165.94,175.68Z"/><path class="cls-4" d="M168.4,175.33a2.38,2.38,0,0,1-.14-1.15,1.18,1.18,0,0,1,1.33-.87c.89.19,1.39,1.21,1.65,2.18l.06.12a2.36,2.36,0,0,1,.35.62c.09-1,1-2.47,2.18-2a1.83,1.83,0,0,1,.94,2.24,1.73,1.73,0,0,1-.73,1.66,1.52,1.52,0,0,1-2.22-.93,1.88,1.88,0,0,1-.72,1.44c-1.47,1.1-2.85-.65-2.84-2C168.26,176.19,168.5,175.77,168.4,175.33Z"/><path class="cls-4" d="M174.8,177.71a4.07,4.07,0,0,1,.11-.67,1.08,1.08,0,0,1,.17-.55,1.29,1.29,0,0,1,1.76-.89,1.83,1.83,0,0,1,1.26,1.64,1.26,1.26,0,0,1-.71,1.3,2.35,2.35,0,0,1-1.83,2.89,1.5,1.5,0,0,1-1.65-1.17A2.78,2.78,0,0,1,174.8,177.71Z"/><path class="cls-4" d="M169.79,183.66a1.1,1.1,0,0,1-1.65-1.39c.58-1,1.79-1,2.72-.52a1.09,1.09,0,0,1-1.07,1.91Z"/><path class="cls-4" d="M165.46,184.76c0-.23-.35-.44-.2-.61-1-1-1.16-3.09.54-3.21,1.48-.1,1.68,1.63,1.25,2.81.93.94,1.35,2.75-.33,3.17-.85.21-1.28-.1-1.6-.94-.1-.25.34-.54.34-.83Z"/><path class="cls-4" d="M178.41,172.22l0-.05Z"/><path class="cls-4" d="M171.16,172.6c0,.89,1.26,1.54,1.86.78a4.49,4.49,0,0,0,1-3.34,3.11,3.11,0,0,0,1.43,1.14,1,1,0,0,0-.2.29c-.78,1.53,0,3.87,1.9,4s2.35-2.2,1.71-3.53a1.07,1.07,0,0,0,1.77-.5,3.61,3.61,0,0,0-1.14-3.37,1.1,1.1,0,0,0-1.83.48l-.06.28a3.05,3.05,0,0,0-.5-1.2,1.94,1.94,0,0,0-3.42.65,2.74,2.74,0,0,0,0,.75,1.1,1.1,0,0,0-1.71.23,6.54,6.54,0,0,0-.6,2.27A5.73,5.73,0,0,0,171.16,172.6Zm6.31-1.78-.28-.07a1.14,1.14,0,0,0,.44-.78,2.55,2.55,0,0,0,.63,1.18l.12.19-.1-.07A2.27,2.27,0,0,0,177.47,170.82Z"/><path class="cls-4" d="M180.15,162.86a6.23,6.23,0,0,1-.32-4.54s0,0,0,0v-.08a1.45,1.45,0,0,1,1.22-1.37,1.51,1.51,0,0,1,1.83.94,1.71,1.71,0,0,1,.06,1.13c.87,1.65,2,4.62-.29,5a2.88,2.88,0,0,1-.87,0,4.79,4.79,0,0,1,1.28,3,1.1,1.1,0,0,1-2,.55l0-.06a4.4,4.4,0,0,1-1.95-3.54A1.14,1.14,0,0,1,180.15,162.86Z"/><path class="cls-4" d="M185.85,149.66c1.62,0,2,2,2.28,3.15.48,2.16,2.92,3.48,3,5.81.06,1.2,0,2.83-1.28,3.4-1.07.49-2-.41-2.36-1.31-.75-1.76-.26-3.26-1.94-4.58a2.24,2.24,0,0,1-1-2.71C183.71,152,183.76,149.66,185.85,149.66Z"/><path class="cls-4" d="M185.46,149.33a3.72,3.72,0,0,1-2.59-2.59,1.06,1.06,0,0,1,1.1-1.35,4.22,4.22,0,0,1-.12-1.67,1.09,1.09,0,0,1,1.34-.76,1.13,1.13,0,0,1,.77,1.35,4.63,4.63,0,0,0,.46,1.84,7.76,7.76,0,0,1,.43,2.12A1.12,1.12,0,0,1,185.46,149.33Z"/><path class="cls-4" d="M181.57,146.17a9.4,9.4,0,0,1-5-4.52,1.12,1.12,0,0,1,1.49-1.52,1.08,1.08,0,0,1,.71.31c1.37,1.34,3.08,2.44,4.07,4.12C183.26,145.33,182.5,146.51,181.57,146.17Z"/><path class="cls-4" d="M139.65,119.08a3.36,3.36,0,0,0,2.27,3.3l.15.18a1.29,1.29,0,0,0-.68.73,2.74,2.74,0,0,0,.82,3.07,4.58,4.58,0,0,0,1,1.41,2.82,2.82,0,0,0,2,.76,5.23,5.23,0,0,0,2.65,2.24c1.2.33,2.89-.1,3.2-1.51a3.51,3.51,0,0,0-1.49-3.67,1.84,1.84,0,0,0,2.46-.08,2.32,2.32,0,0,0,.21-.25c0,.11,0,.22,0,.34a3.7,3.7,0,0,0,1.55,2.77,2.22,2.22,0,0,0,1.78.56c.15,1.23,1.33,2.39,2.56,3.23a1.48,1.48,0,0,0-.31,1,3,3,0,0,0-2.27,0c-.33-1.56-1.27-3.15-2.87-3-1.76.13-2.43,1.6-2.42,3.12a5.7,5.7,0,0,0,.49,3c.61,1.31,2.4,2.63,3.87,1.7a2.64,2.64,0,0,0,1.14-2.24c.83,1.63,1.63,3.44,3.28,4.36a1.11,1.11,0,0,0,1.61-.65,4.5,4.5,0,0,0-.09-2.67,3,3,0,0,0,2.83.68c1.41-.55.81-2.79.22-3.72a4.85,4.85,0,0,0-2.27-1.91,1,1,0,0,0,.52-1.23,5.69,5.69,0,0,0-3.14-3.23,1.74,1.74,0,0,0,1.4-.7c1.1-1.3.1-2.8-1.3-3.84a.47.47,0,0,0,.21,0,4.32,4.32,0,0,0,1.14.09.47.47,0,0,0,.06.15,8,8,0,0,0,2.83,2.84,1.83,1.83,0,0,0-1.55,1.75c-.31,2.56,1.77,3.91,3.79,5a2.3,2.3,0,0,0-.09,1.73,3.34,3.34,0,0,0,1.76,2,2.85,2.85,0,0,0,.19,2.54,4.25,4.25,0,0,0,3.65,2.12c1.52,0,1.7-1.65,1.13-2.74a5.62,5.62,0,0,0-.58-.89,1.2,1.2,0,0,1,.2,0,1.1,1.1,0,0,0,.76-1.35,4.85,4.85,0,0,0-1.83-2.22,1.37,1.37,0,0,0,.27-.54,5.67,5.67,0,0,0-1.87-5.24l.92.14a1.1,1.1,0,0,0,.94-1.65,6.6,6.6,0,0,0-2.77-2.29,2.07,2.07,0,0,0,.59-2.22,4.76,4.76,0,0,0-3.6-3c-1.11-.27-3.54-.57-3.51,1.23a2.31,2.31,0,0,0,0,.37,9.42,9.42,0,0,0-1.84-1.45c-1.37-1-2.85-1.8-4.27-2.79a13,13,0,0,0-2.58-1.45,5.32,5.32,0,0,0-2.05-.41h0a3.44,3.44,0,0,0-1.56.42,2,2,0,0,0-1.12,2.32,3.8,3.8,0,0,0-.94.49,3.91,3.91,0,0,0-1.4-1.64,2.48,2.48,0,0,0,1.78-.76,1.93,1.93,0,0,0,.62-1.27c-1.52-.25-3-.45-4.46-.58l-2.28-.2a2.75,2.75,0,0,0,.68,1.17,3,3,0,0,0-2.67.7c-1,1.2-.55,2.6.34,3.68A.9.9,0,0,0,139.65,119.08ZM152,122.89a5.57,5.57,0,0,0,2.44,0,1.33,1.33,0,0,0,.08.47,1.79,1.79,0,0,0-1.9.89A2.3,2.3,0,0,0,152,122.89Zm-6-2.07a4.2,4.2,0,0,0,.73-.73,1,1,0,0,0,.11.2,3.75,3.75,0,0,0,1.43,1.4.83.83,0,0,0-.09.16,1,1,0,0,0-.33.75,4.35,4.35,0,0,0,1.25,2.54c.1.1.2.2.31.29a7.64,7.64,0,0,0-1.92-1,1.06,1.06,0,0,0,.2-1A5.82,5.82,0,0,0,146,120.82Z"/><path class="cls-4" d="M163.8,140.91a2.68,2.68,0,0,1,3,.53,3.29,3.29,0,0,1,1.05,3.4A1.48,1.48,0,0,1,166.2,146H166c-1.21-.1-2-1.33-2.42-2.33C163.23,142.87,162.78,141.5,163.8,140.91Z"/><path class="cls-4" d="M165.14,153.23a1,1,0,0,1-1.1,0,5.43,5.43,0,0,1-1.73-2.75c-.26-.79,0-1.88.75-2.11-.63-1,.79-2.33,1.69-1.36C166.15,148.53,167.13,151.82,165.14,153.23Z"/><path class="cls-4" d="M169.9,162.07a1.1,1.1,0,0,1-2,.26c-.67-1.06-.94-2.84,0-3.6a1,1,0,0,1,.51-.57,5,5,0,0,1-.37-1.33,1.09,1.09,0,0,1-.2-.65,3.2,3.2,0,0,1,.16-1,1.11,1.11,0,0,1,1.83-.48c1.11.88,1.29,2.49,1.3,3.81a1,1,0,0,1-1.09,1A9.4,9.4,0,0,1,169.9,162.07Z"/><path class="cls-4" d="M171.06,160.5c.15.25.29.5.42.76a7.57,7.57,0,0,0,1.41,5.08c.56.77,2.21.65,2.05-.55a19.42,19.42,0,0,0-1.07-4.56,1.79,1.79,0,0,0,1.72-.16,2.65,2.65,0,0,0,.72-3.34c-.54-.93-1.95-1.81-3-1.19a2,2,0,0,0-.91,2.39A1.1,1.1,0,0,0,171.06,160.5Z"/><path class="cls-4" d="M176.63,161.53a15,15,0,0,1,.12-1.89.86.86,0,0,1,0-.28l.06-.47c0-.25,0-.51,0-.77a1.1,1.1,0,0,1,2.15-.29,5.8,5.8,0,0,1-.35,4.25C178.19,163.11,176.63,162.56,176.63,161.53Z"/><path class="cls-4" d="M173,144.5a1.11,1.11,0,0,1,1.65-.94,5.64,5.64,0,0,1,2.19,2.51,1.21,1.21,0,0,1,.37-.64,1.11,1.11,0,0,1,1.33-.17c1.64,1.05,3.38,2.33,3.91,4.3a1.1,1.1,0,0,1-1,1.38l.1,0a3.83,3.83,0,0,1,2.21,4.39,1.08,1.08,0,0,1-1.06.81,3.16,3.16,0,0,1-2.59-1.59,3.56,3.56,0,0,1-.18-2.79,1,1,0,0,1,0-.17.92.92,0,0,1,.88-.76,4.78,4.78,0,0,1-2.8-1.8,6.29,6.29,0,0,1,0,2.41.83.83,0,0,1-.39.58,2,2,0,0,1,.54.18,1.49,1.49,0,0,1,.55,1.94,1.47,1.47,0,0,1-.62.72,3.68,3.68,0,0,1,0,1.33,1.08,1.08,0,0,1-1,.8,1.13,1.13,0,0,1-1.06-.8,3.72,3.72,0,0,1-.16-1.19,2.3,2.3,0,0,1-.55-.57,1.45,1.45,0,0,1,.12-1.56,2.23,2.23,0,0,1,1-.73,3.68,3.68,0,0,1-2.15-3.78,1.08,1.08,0,0,1,.27-.69A3.1,3.1,0,0,1,173,144.5Z"/><path class="cls-4" d="M171.59,150.54c-.07,0-.61,0-.68-.08s-.45.14-.45.21v1.13c0,.49.13.93-.33,1.06-.62.17-.91-.21-1.11-.77a5.78,5.78,0,0,1-.17-2.12,1.09,1.09,0,0,1,1.2-1.05c0-.09,0-.17,0-.26A3.72,3.72,0,0,1,169,146a1.13,1.13,0,0,1,2.16-.37,1,1,0,0,1,.6.16,2.47,2.47,0,0,1,1,3A1.11,1.11,0,0,1,171.59,150.54Z"/><path class="cls-4" d="M193,190.87a1,1,0,0,0,.35.17,2.27,2.27,0,0,0,.75.13,1.77,1.77,0,0,0,1.3-.48c.38-3.26.69-6.69.92-9.93a.87.87,0,0,0-.8.31,3.65,3.65,0,0,0-.82,2.22c-1.08.37-.93,1.05-.84,1.61a1.22,1.22,0,0,0-.19.12,5.35,5.35,0,0,0-1.82,3.55A2.39,2.39,0,0,0,193,190.87Z"/><path class="cls-4" d="M188.55,194.82a13,13,0,0,0,1.53,2.21c.75.85,2.72,2.46,3.83,1.08s-.13-2.23-1.18-3a6.36,6.36,0,0,1-1.13-.93c-.43-.49.08-.24.46-.49a1.45,1.45,0,0,0,.74-1.41c0-.94-2.55-2.49-2.69-2.51a1.13,1.13,0,0,0,.6-1.57,6.23,6.23,0,0,0-.41-.71c1.1-1.6-2.71-4.88-4.27-1.84a3.06,3.06,0,0,0-.32,1.09,1,1,0,0,0-.28.52C184.78,190,186.67,192.57,188.55,194.82Zm.72-5.06a2.34,2.34,0,0,0-.38,0,1,1,0,0,0-.54.24,12.14,12.14,0,0,1-.52-1.65v0a.93.93,0,0,0,.29,0,5.73,5.73,0,0,0,.87,1.14A1.28,1.28,0,0,0,189.27,189.76Z"/><path class="cls-4" d="M116.75,210a8.32,8.32,0,0,1,4.4-1.51,3.39,3.39,0,0,1,.81-1.21c1.15-1.07,3.07-.22,3.76.86a5.86,5.86,0,0,1,.6,4.82,2.47,2.47,0,0,1-3.82.77c-.9-.75-1.46.57-2.13,1.18a6.81,6.81,0,0,1-3,1.53c-1.73.45-3.69,0-4-2S115.2,210.87,116.75,210Z"/><path class="cls-4" d="M102.37,223.18c.27.95,1.15,1.22,1.87,1.7,1.13.74.11,3.29-.32,4.8,1.37.65,2.76.61,4.18,2.61h0c.08,0,.16-.71.23-.68s.06-.23.08-.21c2,.72,3.94.89,5.94,1.89h0a18.49,18.49,0,0,0-1.89-5.44c-1.45-2.92.42-3.76,2.09-5.76s.24-4.45-2.2-4.76c0,0-.09-.51-.13-.51s-.19-.53-.3-.53h-.07c-.41,0-.86.5-1.31.56a10.74,10.74,0,0,0-6,2.43C103.43,220.25,101.91,221.49,102.37,223.18Z"/><path class="cls-4" d="M152.46,206.37a3,3,0,0,1,1.12-1.61,1.78,1.78,0,0,1,2.17.39,1.1,1.1,0,0,1,0,1.55C155.49,207,152.16,207.24,152.46,206.37Z"/><path class="cls-4" d="M155.66,202.36a1.1,1.1,0,0,1,1.68,1.4.93.93,0,0,1-.47.56,1.38,1.38,0,0,1-1.06.19,1.11,1.11,0,0,1-.76-1.35A2,2,0,0,1,155.66,202.36Z"/><path class="cls-4" d="M128.74,210.14a4.34,4.34,0,0,1,2.45-3.21,2.55,2.55,0,0,1,1.41.18c.74-.87,5.76-3.37,6.66-2a1,1,0,0,1,.07.15A7.67,7.67,0,0,1,142,203.9c.87-.27,4-.48,3.74,2-.11.84-1.1,1.41-1.91,1.94a3.17,3.17,0,0,1,1.32.5,2.24,2.24,0,0,1,2.34-1.43,3,3,0,0,1,1.55-3.25,3.06,3.06,0,0,1,1.12-.4,2,2,0,0,1-.4-.23,2.43,2.43,0,0,1-.71-.92,4.24,4.24,0,0,1-3.46,1,1.1,1.1,0,0,1-.76-1.34c0-.05,0-.08,0-.12a1.16,1.16,0,0,1-.08-.32c-.29-2.45,3.11-2.45,4.6-1.61a1.76,1.76,0,0,1,1-.6,4,4,0,0,1,.92-3,1.77,1.77,0,0,1,2.23-.41,12,12,0,0,1,0-3.71,1.11,1.11,0,0,1,2-.26,4.54,4.54,0,0,1,0,4.15,1,1,0,0,1-1.22.49,1.82,1.82,0,0,1,.15.23,3.19,3.19,0,0,1-.41,3.25,2,2,0,0,1-.8.64,2.3,2.3,0,0,1-.35,2.09,2.51,2.51,0,0,1-1.52.78,1.7,1.7,0,0,1,.88.89c.47,1.1-.21,2-1.09,2.59a7.27,7.27,0,0,1-1.17.62l-.69.29s.22.3.35.47a2.37,2.37,0,0,1-.3,2.92,2.43,2.43,0,0,1,3-.15c1.22,1,.77,2.57-.22,3.47a5.67,5.67,0,0,1-3.72,1.55,1.18,1.18,0,0,1-.87-.46,1,1,0,0,1-.47-.88,5,5,0,0,1,1.65-3,3.24,3.24,0,0,1-2.66,0c-.66,1.43-2.06,2-3.72,2.54-1.5.48-3,.06-3.48-1.48A3.41,3.41,0,0,1,140,209.1a4.65,4.65,0,0,1-1.87-.29,1.24,1.24,0,0,1-.67-.62,10.38,10.38,0,0,1-2.79,2.48,2.61,2.61,0,0,1-2.93-.24,2.61,2.61,0,0,1-1.66,1A1.11,1.11,0,0,1,128.74,210.14Z"/><path class="cls-4" d="M138.62,215.25c1.07-.73,2.55,0,3.44,1h0c2.94,0,5.93,1.91,6.57,4.82a2.84,2.84,0,0,1-1.25,3.25c-1.28.83-3.21,0-4.47-.42a4.67,4.67,0,0,1-1.45-.91,7.69,7.69,0,0,1-1-1.16c-.3-.38-1-.43-1.51-.54a2.77,2.77,0,0,1-1.9-2.65A3.51,3.51,0,0,1,138.62,215.25Z"/><path class="cls-4" d="M148.94,221.09c.15-.42,2.2-1.47,4,.28a3.89,3.89,0,0,1,.88,3.46,2.33,2.33,0,0,1-2.69,1.87C149.11,226.32,148.31,222.77,148.94,221.09Z"/><path class="cls-4" d="M157.28,226.2c-1-.27-1.47-1.41-1.65-2.34-.1-.5-.24-2.36,1.66-2.36a2.51,2.51,0,0,1,2.48,1.58,2.43,2.43,0,0,1-.3,2.17A2,2,0,0,1,157.28,226.2Z"/><path class="cls-4" d="M160.89,223.8a1.52,1.52,0,0,1,.91-.84.94.94,0,0,1,.42-.12h.19a1.08,1.08,0,0,1,.38.06,2.58,2.58,0,0,1,1.8,1.78,1.81,1.81,0,0,1-1.57,2.4,2.29,2.29,0,0,1-2.3-2.43A2.13,2.13,0,0,1,160.89,223.8Z"/><path class="cls-4" d="M169.58,230.75a2.13,2.13,0,0,1,1.65,2.31,1.73,1.73,0,0,1-1.17,1.28,2.21,2.21,0,0,1-1.54-.25C165.58,232.81,166.76,229.74,169.58,230.75Z"/><path class="cls-4" d="M160.83,233a2,2,0,0,1,2.24-1.46,1.42,1.42,0,0,1,1.16.84,1.59,1.59,0,0,1,.41.26,1.75,1.75,0,0,1,.44,1.38,1.15,1.15,0,0,1-1.27,1.07,1.49,1.49,0,0,1-1.53.3A2.09,2.09,0,0,1,160.83,233Z"/><path class="cls-4" d="M158.8,230.17a1.81,1.81,0,0,1,1.56,1,1.92,1.92,0,0,1-.89,2.84c-1.31.47-2.2-.9-2.39-2A1.64,1.64,0,0,1,158.8,230.17Z"/><path class="cls-4" d="M151.92,232.09a1.86,1.86,0,0,1,0-2.8c1.5-1.36,3.81.93,3.66,2.55C155.53,232.42,154.43,234,151.92,232.09Z"/><path class="cls-4" d="M135.4,223.66c.72-1.72,6.58-2.22,9.63,2.3,2.23-.45,5.48,1.23,4.91,3.64-.75,3.17-5.25,1-6.88-.15a16.31,16.31,0,0,1-4.23-1.55C137.4,227.21,134.56,225.68,135.4,223.66Z"/><path class="cls-4" d="M161.06,238.41a1.66,1.66,0,0,1,.12-.45,1.58,1.58,0,0,1,1.48-1.25,2.68,2.68,0,0,1,2.47,1,2,2,0,0,1,.47,2.45c-.54.95-1.82.75-2.69.57A2.21,2.21,0,0,1,161.06,238.41Z"/><path class="cls-4" d="M155.66,235.77a3.43,3.43,0,0,1,1.48,1.85,1.6,1.6,0,0,1-1,2,2.44,2.44,0,0,1-2.67-.63,2.37,2.37,0,0,1-.63-1.55A1.89,1.89,0,0,1,155.66,235.77Z"/><path class="cls-4" d="M138.36,229.14c1.63-.44,4.69,1.16,4.79,3a5.59,5.59,0,0,1,5,1.92,3.19,3.19,0,0,1,2.65.12,2.86,2.86,0,0,1,1.67,2.15,1.93,1.93,0,0,1-1.78,2,2.88,2.88,0,0,1-2.06-1.26,3.88,3.88,0,0,1-2.91.62,6.76,6.76,0,0,1-4.29-2.9,4.75,4.75,0,0,1-4-1.85C136.49,231.56,136.59,229.62,138.36,229.14Z"/><path class="cls-4" d="M163.94,242.63c.45.64-.27,1.43-.92,1.8a2.38,2.38,0,0,1-1.84.23,2,2,0,0,1-1.34-2A2.3,2.3,0,0,1,163.94,242.63Z"/><path class="cls-4" d="M194.31,231c.23.06,1.29.94,1.29,1.42a1.09,1.09,0,0,1-1.09,1.09,1.8,1.8,0,0,1-1.2-.41,1.25,1.25,0,0,1-.34-1.34A1.11,1.11,0,0,1,194.31,231Z"/><path class="cls-4" d="M193.46,204.11v0a1.57,1.57,0,0,1-.28,1.23,1.15,1.15,0,0,1-1.59,0,1.78,1.78,0,0,1-.38-1.26A1.13,1.13,0,0,1,193.46,204.11Z"/><path class="cls-4" d="M170.79,211.89A1.09,1.09,0,0,1,169.7,213a3.51,3.51,0,0,1-1.39-.34,1.15,1.15,0,0,1-.58-1.32,1.26,1.26,0,0,1,1-.85C169.09,210.37,170.79,211.31,170.79,211.89Z"/><path class="cls-1" d="M35.5,312.3a13.54,13.54,0,0,0,4.89-4.91c.8-1.4,2.18-3.8,1.52-5.45-1-2.46-5.68.6-8,2.3.42-1.22,2-9.5-.55-10.34s-5.82,1.49-7.31,3.44c-2,2.58-2.27,6.49-1.71,9.59a14.91,14.91,0,0,0,4.54,7.71c1.64,1.59,8.62,7.26,10.62,7.27s1.66-2.13,1.19-3.32C39.81,316.3,35.68,312.4,35.5,312.3Z"/><path class="cls-3" d="M86.93,197.45c-4-7.47-11.2-18.87-19.94-14.66C57.83,187.2,54.4,201.16,51.9,210c-10.35,36.32-13.4,83.73.34,112.16C52.47,322.59,166.29,165.19,86.93,197.45Z"/><path class="cls-1" d="M73,279.92a4.38,4.38,0,0,0,4.67,0c6.56-4.33,4.56-12.75,1.48-20.77A4.87,4.87,0,0,0,83.36,261c7.4-.48,4.42-9.79,2.69-14.31,4-.67,10.51-1.58,8.7-6.71-1.06-3-8.58-6.9-9.22-7.2.83-.73,8.29.4,11.85-.5,1.86-.47,4-2.59,3.74-4.64-.31-3-2.68-5-5-6.75,2.3-2.6,3.85-5.4-.82-6.41-.39-.08-.81-.15-1.25-.21,4.17-4,16-6.72,11.31-14.78-1.33-2.31-4.2-2.86-6.64-2.75-2.91.13-17.2,14.62-11.86,17a6.29,6.29,0,0,0,2.67.47c-3.9.35-21.45,8.32-17.74,23.23a4,4,0,0,0-1.26-.43c-4.07-.65-6.53,5.84-7.47,8.7A78,78,0,0,0,59.55,260c-.41,3.12-.83,8.5,2.45,10.39a5.34,5.34,0,0,0,3.31.73,40.67,40.67,0,0,0-6.56,5,22.93,22.93,0,0,0-7.13,14.71C51.58,291.42,61.46,295.79,73,279.92Z"/><path class="cls-5" d="M87.09,200.2c.28-.56-1.65-2.25-2.47-2.45-1.17-.29-34.06,109-32,120.64C52.84,319.53,87.39,201.29,87.09,200.2Z"/><path class="cls-3" d="M49.93,206.8c-.2-4.15-25.07-13.86-26.45-13.5a4.17,4.17,0,0,0-3.11,4.56c.26,1.4,10.12,21.47,16.63,18.65,1.48-.65,5.43-3.06.12-8.87C39.77,212.38,50.2,212.18,49.93,206.8Z"/><path class="cls-1" d="M47.9,260.71a18.63,18.63,0,0,0-7.54-7.52c1.85-2.92,5.2-7.41,1.27-9.73-1.52-.9-1.52-1.76-1.37-3.38a25.87,25.87,0,0,0,0-3.41,17.29,17.29,0,0,0-1-5.92c-1.49-3.69-5.09-5.28-8.68-6.33a21.85,21.85,0,0,0-10.46-.75,6.67,6.67,0,0,0-5.44,6.66c-.16,4.84,3.81,8.56,7.27,11.35,1.54,1.23,10,7.12,5.35,8.71-3.37,1.14-7.57.37-11,.09-3-.23-6.2-.34-9,1s-5.46,5.21-6.71,8c-1.89,4.26,1.25,7.41,5.35,7.75,5.21.42,10.79-1.71,15.63-3.37,2.58-.89,10.57-3.89,12-4.16,1,5.42-1.39,11.35,3.5,15.5a7.72,7.72,0,0,0,11.45-1.46C51.32,269.87,50,264.52,47.9,260.71Z"/><path class="cls-3" d="M210.48,70.62A16.63,16.63,0,1,1,193.85,54a16.63,16.63,0,0,1,16.63,16.63"/><polygon class="cls-1" points="218.91 134.95 204.92 139.42 209.27 128.76 218.91 134.95"/></g></g></svg>