<svg xmlns="http://www.w3.org/2000/svg" viewBox="0 0 396.13 588.77"><defs><style>.cls-1{fill:#f83c2d;}.cls-2{fill:#274490;}.cls-3{fill:#e96bbc;}.cls-4{fill:#e4d91b;}.cls-5{fill:#1ab687;}.cls-6{fill:#b47ae8;}.cls-7{fill:#b0d2d2;}.cls-8{fill:#f86048;}</style></defs><title>Leaves</title><g id="Layer_2" data-name="Layer 2"><g id="image"><path class="cls-1" d="M114.34,71.77h-8.85v8.75h-5.35V71.77H91.29v-5h8.85V58h5.35v8.75h8.85Z"/><path class="cls-1" d="M99.34,512.25H90.49V521H85.14v-8.75H76.29v-5h8.85V498.5h5.35v8.75h8.85Z"/><rect class="cls-2" x="88.48" y="99.68" width="25" height="25"/><rect class="cls-1" x="113.48" y="99.68" width="25" height="25"/><rect class="cls-3" x="88.48" y="124.68" width="25" height="25"/><rect class="cls-4" x="113.48" y="124.68" width="25" height="25"/><polygon class="cls-4" points="263.63 547.05 288.67 547.05 282.66 570.08 261.62 565.74 263.63 547.05"/><polygon class="cls-1" points="131.54 238.87 119.96 260.03 143.8 267.88 129.68 254.02 148.71 256.24 132.16 248.39 151.43 238.31 131.54 238.87"/><path class="cls-3" d="M309.39,382.81c-2.33,1.22-4.65,2.53-6.94,3.9a44.71,44.71,0,0,0-10.8,3.66c-12.32,6-22.68,17-29.44,29.49-7.62,7-41.39,27.19-41.06,27.36-9.64,9.4-10.72,23.6-7.38,36.21a74.35,74.35,0,0,0,9.48,20.67,36,36,0,0,0,5.81,7.29c2.76,2.6,5.52,5.21,7.31,8.6s.92,6.16-1.28,9c-1.16,1.5-3,3.65-2.44,5.74.71,2.94,3.51,4,6.29,3.58,3.68-.63,7-2.8,10-4.91a103.56,103.56,0,0,0,11.39-9.63c6.1-5.8,45.22-46.94,51.92-52.5,12.34-10.23,18.09-25.74,27.92-38,4.55-5.69,11.92-8.09,18.19-11.28,6.82-3.47,12-8.63,16.41-14.82,4.74-6.63,20.73-40,21.35-43.86C396.2,362.86,319,377.8,309.39,382.81Z"/><path class="cls-5" d="M332.81,425.71c-9.13,7.53-60.06,48.32-68.42,54,12-11.83,41.42-36.87,54-48.05,13.64-12.13,27.09-25.7,34.45-42.7.23-.51-33.73,24.57-41.13,31.7,7.37-9.4,39.11-42.38,38.54-42-7.28,5-14.58,10-21.54,15.41.57-.89,1.46-3.82.95-3.62-19.14,7.44-42.55,43.72-43.73,45,9.52-17.53,38.57-45.68,38-45.64-6.58.39-12,4.51-16.54,9-5.78,5.67-10.41,12.48-15,19.12-8.21,12-29.19,49.78-31.51,55.37,3.49-13.19,7.63-41.07,7.35-40.37a240.28,240.28,0,0,0-10.93,37.23c-1.48,6.94-10.77,40.53-11.79,39.08-.82-1.16-2.91-37.68-6.35-46.69-.23-.6-1.9,9.65-2.32,14.35-.66,7.25-1.2,14.52-1.33,21.81-.1,6.26,0,12.8,1.63,18.89.4,1.46,6.17,9.68,9.26,8.92,2-.49,45.53-43.07,53.86-48.51,8.18-5.35,13.14-14.51,20.51-20.8.44-.39-40,25.84-48.35,30.09,4.29-2.47,60.57-47.07,66.14-52.36,8.94-8.5,17.15-17.76,25.35-27q13.44-15.07,26.17-30.76C390.54,376.6,352.1,409.81,332.81,425.71Z"/><rect class="cls-4" x="272.09" y="435.06" width="6.11" height="58.3" transform="translate(-257.04 553.57) rotate(-68.88)"/><rect class="cls-6" x="88.22" y="427.79" width="58.3" height="6.11" transform="translate(-195.81 112.53) rotate(-29.3)"/><path class="cls-5" d="M209.74,464.78c-.31-.32-7.84-5.06-11.73-5.35a.65.65,0,0,0-.38-.49c-11.1-5.61-25.18-.61-35.6,4.29C149.69,469,139.9,479,133.12,490.71c-8,13.92-8.68,29-6.89,44.61,2.09,18.35,7.31,36.32,14.1,53.44.22.55,48.53-48,54.48-60.33,5.64-11.7,9.31-24.18,13.09-36.56C210.27,484.09,216.74,471.9,209.74,464.78Z"/><path class="cls-4" d="M201.47,460.18c-.06-.1-.12-.17-.18-.26-1.29-.38-5.36-1.92-6.11-2.28-6.11,1.08-13.87,8.18-16.79,10.52-11.76,9.41-23,19.51-32.88,30.92-8.9,10.32-16.91,22.29-19.58,35.83-.16.77.36,6.22,1,5.58,6.78-7,13.63-19.2,20.22-26.42a163.56,163.56,0,0,0-9.67,15.6,129.56,129.56,0,0,0-9,20.18c1.29,5.41,3,10.75,4.37,16.13,1-1.66,2-3.36,3-5.08a69.72,69.72,0,0,0-2.55,6.77q.32,1.27.6,2.55c.81,3.68,1.45,7.37,3.06,10.81.68,1.46,1.41,2.9,2.12,4.34,10.31-11.22,13.47-28.86,17.87-42.73,6.54-20.61,12.33-42.08,24.32-60.33-1,8.36-4,16.17-7.32,23.93-2.7,6.32-5.16,12.71-7.78,19.06-4.06,9.83-11.31,24-6.2,34.64.26.53,7.17-6.21,9.09-10.18a76.33,76.33,0,0,0-1.39,12.3c4.4-5.42,8.34-11.24,13.68-15.8,3.23-7.39,5.12-15.49,6.56-23.25,2.68-14.39,3.37-29.15,6.26-43.5l1.53-1.72c1.13,4,1.44,13.51,1.89,12.86C201.73,484.62,203.52,463.44,201.47,460.18Z"/><rect class="cls-3" x="219.97" y="85.41" width="31.9" height="5.08" transform="translate(-15.2 106.14) rotate(-24.59)"/><rect class="cls-3" x="196.8" y="330.75" width="2.58" height="16.4" transform="translate(-187.59 412.25) rotate(-70.46)"/><polygon class="cls-7" points="52.48 219.07 97.3 190.2 102.35 223.26 81.27 214.68 77.88 251.39 52.48 219.07"/><polygon class="cls-8" points="228.52 210.08 254.77 172.61 303.11 196.78 265.82 240.29 228.52 210.08"/><path class="cls-5" d="M214.77,339.76c-.86-9.74-1.88-16-6.86-24.59-4.38-7.53-10.28-12.91-17.57-17.54-11.57-7.36-26.21-8.26-39.24-5.18-12.37,2.93-25,12.53-30.75,23.89-4.26,8.38-7.58,18-6.6,27.62q.73,5.55,1.49,11.1A41.9,41.9,0,0,0,121,367.49c.49,1,1,2.07,1.61,3.15a35,35,0,0,0,8.67,10.91c6.72,5.27,12.49,10.42,21.33,12,8.23,1.48,17,2.77,25.14-.36,7.93-3.05,16.08-6.37,21.57-13.33,2.31-2.93,5.81-6.76,7.82-10.53a96.37,96.37,0,0,0,5.35-12.7,15.48,15.48,0,0,0,.74-3.13C213.68,350.39,215.15,344.11,214.77,339.76Z"/><rect class="cls-8" x="275.25" y="331.31" width="102.24" height="8.31" transform="translate(-94.05 129.8) rotate(-19.72)"/><polygon class="cls-2" points="116.52 66.6 330.06 7.05 0 0 116.52 66.6"/><polygon class="cls-3" points="280.62 321.77 161.73 202.89 191.15 115.49 206.65 120.71 180.47 198.49 292.19 310.21 280.62 321.77"/><path class="cls-8" d="M296.46,83.68h0c1.12,0,17.43-3.9,20.16-27.84a39.1,39.1,0,0,0-.28-11,46.61,46.61,0,0,0-9.39-20.58A62.52,62.52,0,0,0,294.44,12l6.17-9.08a71.85,71.85,0,0,1,14.81,14.4,58,58,0,0,1,11.66,25.49,49.68,49.68,0,0,1,.43,14.2c-1.93,16.88-9.59,26.09-15.67,30.85a33.21,33.21,0,0,1-13.6,6.57Z"/></g></g></svg>