<svg xmlns="http://www.w3.org/2000/svg" viewBox="0 0 579.97 586.82"><defs><style>.cls-1{fill:#fff;}.cls-2{fill:#e4d91b;}.cls-3{fill:#e96bbc;}.cls-4{fill:#274490;}.cls-5{fill:#b47ae8;}.cls-6{fill:#f86048;}.cls-7{fill:#b1d3d3;}</style></defs><title>Lines</title><g id="Layer_2" data-name="Layer 2"><g id="image"><path class="cls-1" d="M286,203.74c5.13-3.32,11.49-1.87,16.81-4.61,4-2,8.2-4.7,11.09-8.19a7,7,0,0,0,1.32-2.27A39.52,39.52,0,0,0,306.6,190c-3.06,1-6.33.55-9.4,1.45-2.8.82-4.23,3.62-6.31,5.43s-4.65,2.36-6.94,3.65c1-1.68,1.23-4,1.93-5.79,1.18-2.95,3-5.58,3.72-8.71a32.28,32.28,0,0,0,.8-7.84,13.23,13.23,0,0,0-1.78-7c-.07-.11-4.81,7.81-5.37,11.78-.15,1-.27,2-.4,3a45.82,45.82,0,0,1-1.17,5.06,19.82,19.82,0,0,0-.67,4c0,.94.06,1.87,0,2.81s-.27,1.78-1.37,1.19a7.43,7.43,0,0,1-2.69-2.87c-1.23-2.15-1.58-4.74-2-7.14a22.51,22.51,0,0,0-1.74-6.35,13.31,13.31,0,0,0-4.07-4.41,61.88,61.88,0,0,0-10.27-6.12c-.18-.09,4.09,12.44,7.57,17.85a29.76,29.76,0,0,0,4.51,5.07c1.69,1.66,3.57,3.48,4.39,5.76s-.73,4.37-2.61,5.46-4.3,1.37-6.46,1.63a29.92,29.92,0,0,0-5.8,1,35.14,35.14,0,0,0-7.58,3.61,24.45,24.45,0,0,0-7.31,6.57c-.1.15,11.14-.86,16.21-3.22,4.29-2,8-5,12.16-7.28a15.53,15.53,0,0,1,6.28-2.29c2.63-.16,4.13,2.3,4.67,4.54a32.43,32.43,0,0,0,3.48,7.94,46.25,46.25,0,0,0,4.85,7c2.3,2.83,5.23,5.45,9,5.94.13,0-4.19-11.35-7.78-16a51.58,51.58,0,0,0-6.36-6.69c-1.08-1-2.21-1.89-3.27-2.88-.35-.33-.8-.74-.45-1.24A6.23,6.23,0,0,1,286,203.74Z"/><path class="cls-2" d="M275.7,213.06c.95-.19,2,.52,2.92,0a1.68,1.68,0,0,0,.61-2.77,3.08,3.08,0,0,0-1.22-1,10,10,0,0,1,1.13-3.24,18.15,18.15,0,0,0,1.6-1.68,2.57,2.57,0,0,0,0-3.06c-1.44-2-4.41-1.32-5.56.6a4.59,4.59,0,0,0-.63,2.06c-.07,1-.12,1.39-1.12,1.77-1.24.48-2.61.73-2.72,2.29a2.6,2.6,0,0,0,.46,1.45,4.8,4.8,0,0,1,.62,1.34c.17.83-.64,1.4-1.21,1.8a4.78,4.78,0,0,0-1.43,1.33c-.62,1.05-2.12,2.77-1.4,3.57s2.29-.15,3.36-.71c.87-.46,1.16-1.52,1.75-2.28a8.17,8.17,0,0,0-.14,2.49c.27.94,1.33,1.31,2.17,1.59s2,.73,2.9.2,0-1.73-.3-2.23C277.34,216.29,274.92,213.22,275.7,213.06Z"/><path class="cls-3" d="M282.68,201.23c-.81-2-4.67-1.26-5-1.2a3.18,3.18,0,0,0-2.46,1.67c-1.35,2.52,2.32,4.82,4.39,4.86a3.59,3.59,0,0,0,2.94-1.56A3.89,3.89,0,0,0,282.68,201.23Z"/><path class="cls-4" d="M276.79,208c0-.72-.2-1.87-1-1.74-1,.18-1.51,1.66-1.75,2.5a24.14,24.14,0,0,0-.56,6.36C275.08,213.49,277.17,210.5,276.79,208Z"/><polygon class="cls-5" points="521.76 107.66 494.08 75.77 535.25 78.98 521.76 107.66"/><polygon class="cls-6" points="479.42 228.77 505.2 171.48 545.3 200.13 479.42 228.77"/><polygon class="cls-7" points="276.03 133.03 318.99 94.62 327.24 133.03 276.03 133.03"/><polygon class="cls-3" points="439.22 53.16 477.34 37.16 470 65.78 439.22 53.16"/><rect class="cls-6" x="339.76" y="-14.35" width="11.46" height="140.93" transform="translate(51.58 246.19) rotate(-42.12)"/><polygon class="cls-6" points="40.98 59.51 0 119.77 97.98 122.75 135.98 62.23 40.98 59.51"/><path class="cls-3" d="M121.61,92.12c-21.15,0-43.32-6.51-44.76-6.94L78.4,80c.52.16,52.7,15.47,70.74-.58,5.25-4.68,7-11.56,5.33-21.05l5.35-.93c2,11.33-.4,20.09-7.08,26C145.38,90,133.66,92.12,121.61,92.12Z"/><path class="cls-3" d="M189.74,139.64c-7.6,0-17.1-4.39-27-8.95C150.33,125,137.49,119,130.49,123c-3.35,1.89-5.43,6.3-6.2,13.1l-5.39-.6c1-8.76,3.9-14.4,8.93-17.23,9.41-5.3,23.53,1.21,37.19,7.51,11.78,5.44,24,11.06,29.59,7.14,3.51-2.45,4.89-9,4.07-19.44l5.41-.42c1,12.69-1.1,20.64-6.38,24.32A13.6,13.6,0,0,1,189.74,139.64Z"/><polygon class="cls-3" points="375.14 586.82 360.97 572.78 502.8 429.54 356.15 369.45 568.48 219.84 579.97 236.14 397.39 364.8 537.95 422.39 375.14 586.82"/></g></g></svg>