<svg xmlns="http://www.w3.org/2000/svg" viewBox="0 0 430.42 772.19" style=""><defs><style>.cls-1,.cls-2,.cls-3,.cls-4{fill:none;stroke-miterlimit:10;stroke-width:5px;}.cls-1{stroke:#1ab687;}.cls-2{stroke:#e96bbc;}.cls-3{stroke:#443880;}.cls-4{stroke:#b47ae8;}</style></defs><title>LeftPath</title><g id="Layer_2" data-name="Layer 2"><g id="Layer_1-2" data-name="Layer 1"><path class="cls-1 hjgkajUK_0" d="M419.26,725.53c18.95-29.31,2.2-56.79-6.82-89.55-7.41-26.9-6.68-54.49-14.62-81.3s-21.23-52.79-31-79.21c-15.77-42.71-23.87-89-37.77-132.56-6.69-20.94-8.66-42.18-20-62.06-10.68-18.68-14.2-26.47-32.35-15.33-24.76,15.19-66.29,50.8-99.35,47.5,6.46-18.87,23.31-33.31,42.82-42.26,11.92-5.47,44.17-10.64,51.28-19.36,5.87-7.19-12-42.87-17.34-57.17-6.48-17.25-16.63-47.89-39.77-53-17.35,14.42-19.64,40.1-32.07,58.17-11.36,16.49-29.65,25.2-43.26,38.91,8.26-24.91,22.23-41.89,39.22-62.13,19.6-23.36,16-32.15-1.92-57.75C147.55,77.22,119.6,33.82,75.86,3.59c-5.5,9.39,5.37,67.66,7,87.67A757.48,757.48,0,0,0,99.31,195.83c11.23,48.57,37.61,93.35,52.86,140,11.93,36.46,34.53,71.4,47,107.76,13.59,39.52,15.36,78.05,21.36,118.29,9.56,64.08,50.1,117.86,90.68,170.35"></path><path class="cls-2 hjgkajUK_1" d="M249.45,761c-8.7,20.18-24.39.42-30.31-10.74-7.3-13.75-18.22-30.08-33.81-36.64-21-8.81-50,1.15-70.09,7.22-15.92,4.79-14,5.34-24.55-4.29-5.45-5-11-12.18-10.42-19.46,32.57-1.68,73.2-7.84,104.38,1.62-13.11-21.91-51.35-25.05-73-33.6-15.31-6-26.1-17.24-40-25.48C52.78,628.54,34.66,626.22,18,611c-7.69-7-21.51-18.21-12.53-29.93,9.45-12.31,24.71-1.06,35.33,2.82,17.59,6.42,35.28,9.38,53.11,14.62,13,3.83,25.22,12.94,39.45,10.39-20.64-18.19-42.4-44.56-57-69.17S25.76,486.41,35,455.88c22-73,69.12,39.48,94.76,48-4.06-21.46-20.83-39.75-24.84-61.85-4.34-23.85-4.85-50.39-5.35-74.78,4.94,12.95,42.64,41.84,57.17,44.53,15.75,2.93,17.08-9.05,29.93-13.4,11-3.72,17.86,5.39,30.45,6.06,2.71,28.81-33.33,60.67-27.92,90.52,14.24-9.18,15.51-30,22.84-44.1,8.27-16,19-23.74,18.11-42.85,37.43-6.89,60.65,51.62,74.74,76.87,10.89,19.51,24.12,38.4,37.46,56.63,8.36,11.44,21.53,24.85,21.29,41-.37,26.09-33.16,56.82-48.59,76.27-10.54,13.28-23.86,25.26-35.14,38.22-13.33,15.3-31.38,55.58-48.25,64Z"></path><path class="cls-3 hjgkajUK_2" d="M230.94,605.31c-5-8.57-11.69-13.53-19.67-17.59-4.45-2.25-8.81-4.54-12.6-8-3.37-3.09-6.39-6.62-10.25-8.94s-12.71-4.81-17.6,1.31c-3.66,4.58-3.37,11.22-3.35,16.12,0,3.75.62,9.37-1.21,13.58-2.64-2.67-6.27-4.31-9.38-5.86-4.95-2.47-10.4-4.55-16.25-4.5-3.76,0-7.4,1.69-9.54,6.89-2.26,5.52-.75,11.22.67,15.38,4.15,12.21,12.29,21,19.35,30C163.89,659.91,173,680.51,186.47,696c7.34,8.46,16.23,14,25,20.18,7.4,5.21,22.32,17.34,22.54,16.81,18.73-45.32,15.25-96.62-3.06-127.67"></path><path class="cls-3 hjgkajUK_3" d="M218.92,630.45c-.4-7.12-.69-14.3-1.65-21.19-.56-4-1.36-10.09-4.77-11.4-.29-.12-4.89,13.4-6.88,19.83,1.16-17.17-4.05-39.12-19.14-37.22-.48.06-.34,41.82,1,44.63,2.25,4.75,7.45,6.78,10.53,10.61,5.25,6.53,8.24,16.18,11.88,24.28s7.8,15.6,13.86,20.92c.45.39-3.84-33.28-4.81-50.46"></path><path class="cls-3 hjgkajUK_4" d="M227,725.53c1.25-6.61,2.37-13.25,1.66-19.49-.57-5-3.57-8.16-5.76-11.79-2.87-4.75-2.14-11.39-2.24-17.61-.08-5.42-1.46-10.41-4.24-13.95-3.12-4-6.91-7.23-10.34-10.79q-6.17-6.39-11.86-13.39A150.19,150.19,0,0,1,180,617.89c-1-10.12-11-23.79-11.24-23.35-2.18,4.54-1.28,9.14-.19,13,1.62,5.77,4.34,10.79,6.65,16s3.48,11.6,5.62,17.13c2.37,6.13,6,11.46,10.79,14.75,5.12,3.5,12.34,2.48,14.8,9.95,1.95,6,1.43,13.58,2,20.21.66,7.43,4.34,14.22,7.29,20,3.44,6.72,11.08,20.63,11.21,19.93"></path><path class="cls-4 hjgkajUK_5" d="M249,528.6c-4.57-15-18.86-20.56-31.12-25.82-13.27-5.7-25.36-18.72-40.46-16.36-12.66,2-20,14.34-30.44,20.19-12.12-3-30.24,16.71-29.37,16.82,6.94.88,14,.18,20.94.44,8.52.3,14.13,3.69,19,11.12,6.56,10,10.56,20.7,22.24,24.61,11.28,3.78,23.33.89,34.75-.25,5.77-.58,11.51-.44,17,1.64,7.61,2.89,19.79,19.49,23.24,26.9.59,1.26-1-43.49-5.83-59.29"></path><path class="cls-4 hjgkajUK_6" d="M252,555c-1.35-6.92-4.58-12.91-12-14.15-4.47-.74-20.76,1.71-33.08-3.79-14.48-6.48-25.08-21.11-28.11-23-5.8-3.63-11.34.4-15.12,4.83-.73.86,11.25,3.8,14.77,7.41s6.52,6.62,10.82,9.1c5.27,3,10.91,5.38,16.43,7.92,4.3,2,3.38,6.33,6.37,9.44,1.61,1.67,3.83,1.4,5.72.58,1.58-.68,2.95-2,4.41-2.94,3.49-2.18,6.75.94,9.05,3.27,6.52,6.58,18.23,22.14,18.65,21.58,4.1-5.49,3.26-14,2-20.25"></path></g></g><style data-made-with="vivus-instant">.hjgkajUK_0{stroke-dasharray:2063 2065;stroke-dashoffset:2064;animation:hjgkajUK_draw 2000ms linear 0ms forwards;}.hjgkajUK_1{stroke-dasharray:1958 1960;stroke-dashoffset:1959;animation:hjgkajUK_draw 2000ms linear 166ms forwards;}.hjgkajUK_2{stroke-dasharray:454 456;stroke-dashoffset:455;animation:hjgkajUK_draw 2000ms linear 333ms forwards;}.hjgkajUK_3{stroke-dasharray:266 268;stroke-dashoffset:267;animation:hjgkajUK_draw 2000ms linear 500ms forwards;}.hjgkajUK_4{stroke-dasharray:301 303;stroke-dashoffset:302;animation:hjgkajUK_draw 2000ms linear 666ms forwards;}.hjgkajUK_5{stroke-dasharray:385 387;stroke-dashoffset:386;animation:hjgkajUK_draw 2000ms linear 833ms forwards;}.hjgkajUK_6{stroke-dasharray:240 242;stroke-dashoffset:241;animation:hjgkajUK_draw 2000ms linear 1000ms forwards;}@keyframes hjgkajUK_draw{100%{stroke-dashoffset:0;}}@keyframes hjgkajUK_fade{0%{stroke-opacity:1;}94.44444444444444%{stroke-opacity:1;}100%{stroke-opacity:0;}}</style></svg>