<svg xmlns="http://www.w3.org/2000/svg" viewBox="0 0 424.95 861.27" style=""><defs><style>.cls-1,.cls-2,.cls-3{fill:none;stroke-miterlimit:10;stroke-width:5px;}.cls-1{stroke:#029a4b;}.cls-2{stroke:#e35780;}.cls-3{stroke:#434394;}</style></defs><title>LeftPath</title><g id="Layer_2" data-name="Layer 2"><g id="F2"><path class="cls-1 TJXUUGap_0" d="M372.91,819.79c-1.51-14.36-3.93-31.61,1.85-45.43,6.11-14.59,18.43-17.5,28.87-28.92,27.53-30.12,19.47-73.21,9.49-109.45-7.41-26.91-6.68-54.5-14.62-81.31s-21.24-52.79-31-79.21c-15.77-42.71-23.88-89-37.77-132.56-6.69-20.94-8.67-42.18-20-62.06-10.67-18.68-14.19-26.47-32.34-15.33C252.63,280.71,211.1,316.32,178,313c6.46-18.87,23.31-33.31,42.81-42.26,11.93-5.47,44.17-10.64,51.29-19.36,5.87-7.19-12-42.87-17.34-57.17-6.49-17.25-16.63-47.89-39.77-53-17.35,14.42-19.64,40.1-32.08,58.17-11.35,16.49-29.64,25.2-43.25,38.91,8.26-24.91,22.23-41.89,39.22-62.13,19.6-23.36,16-32.15-1.92-57.75C148.22,77.22,120.28,33.82,76.54,3.59c-5.5,9.39-.18,17,1.46,27,3.23,19.78,3.91,40.7,5.57,60.71A759,759,0,0,0,100,195.83c11.23,48.57,37.62,93.35,52.87,140,11.93,36.46,34.53,71.4,47,107.76,13.6,39.52,15.37,78.05,21.37,118.29,10.73,72,60.55,130.95,105.62,189.69,12.93,16.86,24.88,38.25,33.24,57.15,7.08,16,7.32,35.33,15.08,49.54,8.1-2.72,11-11.87,15.46-16.88Z"></path><path class="cls-2 TJXUUGap_1" d="M249.45,758.48c-8.7,20.18-24.39.42-30.31-10.74-7.3-13.75-18.22-30.08-33.81-36.64-21-8.81-50,1.16-70.09,7.22-15.92,4.79-14,5.33-24.55-4.29-5.45-5-11-12.18-10.42-19.46,32.57-1.68,73.2-7.84,104.38,1.62-13.11-21.91-51.35-25.05-73-33.6-15.31-6-26.1-17.24-40-25.48C52.78,626,34.66,623.71,18,608.52c-7.69-7-21.51-18.21-12.53-29.93,9.45-12.31,24.71-1.06,35.33,2.81,17.6,6.43,35.29,9.38,53.11,14.62,13,3.84,25.22,13,39.45,10.4-20.64-18.2-42.4-44.56-57-69.17S25.76,483.9,35,453.37c22-73,69.12,39.48,94.75,48-4.05-21.46-20.82-39.75-24.83-61.85-4.33-23.85-4.85-50.39-5.35-74.78,4.94,12.95,42.64,41.84,57.17,44.53,15.75,2.93,17.08-9.06,29.93-13.4,11-3.72,17.86,5.39,30.45,6.06,2.71,28.81-33.33,60.67-27.92,90.52,14.24-9.18,15.51-30,22.84-44.1,8.27-16,19-23.74,18.11-42.85,37.43-6.89,60.65,51.62,74.74,76.87,10.89,19.51,24.12,38.4,37.46,56.63,8.36,11.44,21.53,24.85,21.29,41-.37,26.09-33.16,56.82-48.59,76.27-10.54,13.28-23.86,25.26-35.14,38.22-13.33,15.3-31.38,55.58-48.25,64Z"></path><path class="cls-3 TJXUUGap_2" d="M230.94,602.8c-5-8.57-11.69-13.53-19.67-17.59-4.45-2.25-8.81-4.54-12.6-8-3.37-3.09-6.39-6.62-10.25-8.94s-12.71-4.82-17.6,1.31c-3.66,4.58-3.37,11.22-3.35,16.12,0,3.75.62,9.37-1.21,13.58-2.64-2.67-6.27-4.31-9.38-5.86-4.95-2.47-10.4-4.55-16.25-4.5-3.76,0-7.4,1.69-9.54,6.89-2.26,5.52-.75,11.22.67,15.38,4.15,12.21,12.29,21,19.35,30C163.89,657.4,173,678,186.47,693.48c7.34,8.46,16.23,14,25,20.18,7.4,5.21,22.32,17.34,22.54,16.81C252.73,685.15,249.25,633.85,230.94,602.8Z"></path><path class="cls-3 TJXUUGap_3" d="M218.92,627.94c-.41-7.12-.69-14.3-1.65-21.19-.56-4-1.36-10.09-4.77-11.4-.3-.12-4.89,13.4-6.88,19.83,1.16-17.17-4.05-39.12-19.14-37.22-.48.06-.34,41.82,1,44.63,2.25,4.75,7.45,6.78,10.53,10.61,5.25,6.53,8.24,16.18,11.88,24.28s7.8,15.6,13.86,20.92C224.17,678.79,219.89,645.12,218.92,627.94Z"></path><path class="cls-3 TJXUUGap_4" d="M227,723c1.25-6.61,2.37-13.25,1.66-19.49-.57-5-3.57-8.16-5.76-11.79-2.87-4.75-2.14-11.39-2.24-17.61-.08-5.42-1.46-10.41-4.24-14-3.12-4-6.91-7.23-10.34-10.79Q199.86,643,194.17,636A149.48,149.48,0,0,1,180,615.38c-1-10.12-11-23.79-11.24-23.35-2.17,4.54-1.28,9.14-.19,13,1.62,5.77,4.34,10.79,6.65,16s3.48,11.59,5.62,17.13c2.37,6.13,6,11.46,10.79,14.75,5.12,3.5,12.34,2.48,14.79,10,2,6,1.45,13.58,2,20.21.65,7.43,4.33,14.22,7.28,20C219.18,709.81,226.82,723.72,227,723Z"></path><path class="cls-3 TJXUUGap_5" d="M249,526.09c-4.57-15-18.86-20.56-31.12-25.82-13.27-5.7-25.36-18.72-40.46-16.36-12.66,2-20,14.34-30.44,20.19-12.12-3-30.24,16.71-29.37,16.82,6.94.88,14,.18,20.94.44,8.52.3,14.13,3.69,19,11.12,6.56,10,10.56,20.7,22.24,24.61,11.28,3.78,23.33.89,34.75-.25,5.77-.58,11.51-.44,17,1.64,7.61,2.88,19.79,19.49,23.24,26.9C255.38,586.64,253.8,541.89,249,526.09Z"></path><path class="cls-3 TJXUUGap_6" d="M252,552.46c-1.35-6.92-4.58-12.91-12-14.15-4.47-.74-20.76,1.71-33.08-3.79-14.48-6.48-25.08-21.11-28.11-23-5.8-3.63-11.34.4-15.12,4.83-.73.86,11.25,3.8,14.77,7.41s6.52,6.62,10.82,9.1c5.27,3,10.91,5.38,16.43,7.92,4.3,2,3.38,6.33,6.37,9.44,1.61,1.67,3.83,1.4,5.72.58,1.58-.69,2.95-2,4.41-2.94,3.49-2.18,6.75.94,9.05,3.26,6.52,6.58,18.23,22.15,18.65,21.59C254.05,567.22,253.21,558.75,252,552.46Z"></path></g></g><style data-made-with="vivus-instant">.TJXUUGap_0{stroke-dasharray:2367 2369;stroke-dashoffset:2368;animation:TJXUUGap_draw 3000ms linear 0ms forwards;}.TJXUUGap_1{stroke-dasharray:1958 1960;stroke-dashoffset:1959;animation:TJXUUGap_draw 3000ms linear 0ms forwards;}.TJXUUGap_2{stroke-dasharray:453 455;stroke-dashoffset:454;animation:TJXUUGap_draw 3000ms linear 0ms forwards;}.TJXUUGap_3{stroke-dasharray:266 268;stroke-dashoffset:267;animation:TJXUUGap_draw 3000ms linear 0ms forwards;}.TJXUUGap_4{stroke-dasharray:301 303;stroke-dashoffset:302;animation:TJXUUGap_draw 3000ms linear 0ms forwards;}.TJXUUGap_5{stroke-dasharray:385 387;stroke-dashoffset:386;animation:TJXUUGap_draw 3000ms linear 0ms forwards;}.TJXUUGap_6{stroke-dasharray:240 242;stroke-dashoffset:241;animation:TJXUUGap_draw 3000ms linear 0ms forwards;}@keyframes TJXUUGap_draw{100%{stroke-dashoffset:0;}}@keyframes TJXUUGap_fade{0%{stroke-opacity:1;}100%{stroke-opacity:1;}100%{stroke-opacity:0;}}</style></svg>