<svg xmlns="http://www.w3.org/2000/svg" viewBox="0 0 745.21 940.46"><defs><style>.cls-1{fill:#e14c94;}.cls-2{fill:#00994b;}.cls-3{fill:#fbe000;}.cls-4{fill:#143f93;}.cls-5{fill:#e3567f;}.cls-6{fill:#434394;}.cls-7{fill:#e1333a;}.cls-8{fill:#c27bb0;}.cls-9{fill:#ec8677;}.cls-10{fill:#326f4b;}.cls-11{fill:#009748;}.cls-12{fill:#1e9231;}.cls-13{fill:#e44a3c;}.cls-14{fill:#99cec0;}.cls-15{fill:#e3423b;}.cls-16{fill:#f1b3d2;}.cls-17{fill:#a6d7e2;}.cls-18{fill:#6eb566;}.cls-19{fill:#048aa3;}.cls-20{fill:#9887a1;}.cls-21{fill:#f0aac1;}.cls-22{fill:#c8d6d0;}.cls-23{fill:#a3d4d5;}.cls-24{fill:#00a0be;}.cls-25{fill:#074394;}.cls-26{fill:#00739d;}.cls-27{fill:#c9328d;}.cls-28{fill:#070417;}.cls-29{fill:#d51b0e;}.cls-30{fill:#fff;}.cls-31{fill:#f6dae2;}.cls-32{fill:#e86c5b;}.cls-33{fill:#e45055;}</style></defs><title>Asset 1</title><g id="Layer_2" data-name="Layer 2"><g id="F2"><path class="cls-1" d="M623.41,117.83a61.43,61.43,0,0,0-17.25,6.36c-4.65,2.68-9.15,6.62-10.34,12.09a15.78,15.78,0,0,0,1.59,10.15,20.26,20.26,0,0,0,.15,7.45c0,.15,7.33-6.16,11-9.13a41.76,41.76,0,0,0,4.51-4,25.19,25.19,0,0,0,3.07-4.19C619.49,130.81,623.57,117.79,623.41,117.83Z"/><path class="cls-2" d="M370.41,902c-1.51-14.37-3.93-31.61,1.85-45.43,6.11-14.59,18.43-17.5,28.87-28.92,27.53-30.12,19.47-73.21,9.49-109.46-7.41-26.9-6.68-54.49-14.62-81.3s-21.24-52.79-31-79.21c-15.77-42.71-23.88-89-37.77-132.56-6.69-20.94-8.67-42.18-20-62.06-10.67-18.68-14.19-26.47-32.34-15.33-24.76,15.18-66.29,50.8-99.35,47.5,6.46-18.87,23.31-33.31,42.81-42.26,11.93-5.47,44.17-10.64,51.29-19.36,5.87-7.19-12-42.87-17.34-57.17-6.49-17.25-16.63-47.89-39.77-53-17.35,14.42-19.64,40.1-32.08,58.17-11.35,16.49-29.64,25.2-43.25,38.91,8.26-24.91,22.23-41.89,39.22-62.13,19.6-23.36,16-32.15-1.92-57.75C145.72,159.45,117.78,116.05,74,85.82c-5.5,9.39-.18,17,1.46,27,3.23,19.78,3.91,40.7,5.57,60.71A759,759,0,0,0,97.48,278.06c11.23,48.57,37.62,93.35,52.87,140,11.93,36.46,34.53,71.4,47,107.76,13.6,39.52,15.37,78.05,21.37,118.29,10.73,72,60.55,130.95,105.62,189.69,12.93,16.86,24.88,38.25,33.24,57.15,7.08,16,7.32,35.33,15.08,49.54,8.1-2.72,11-11.87,15.46-16.88Z"/><path class="cls-3" d="M666,203.4c-5.62,14.53-10.06,29.09-17.61,42.81-8.82,16-18,31.93-27,47.89-8.3,14.69-16.78,29.3-23.29,44.9-6.66,16-11.59,32.63-16,49.33-1.87,7.09-4.06,14.26-5.44,21.46-1.59,8.27-2.15,16.65-3.09,25-1.77,15.75-7.63,29.72-12.27,44.7-2.79,9-3.45,17.45-1,26.51,5.15,19.16,15.77,37.94,28.45,53.1,8.13,9.72,21,21,34.08,18.51-1,5.22-4.64,11.2-6.11,14.86-2.85,7.14-.11,23.17.43,22.53,15.72-18.79,29.66-42.21,33.26-66.77,2-13.55-1.78-27.1-2.25-40.61-.59-17.2,9.31-30.17,16.4-45,3.6-7.52,5.85-15.82,8.79-23.62,3.34-8.86,6.91-17.63,10.55-26.37,7-16.94,13.68-33.9,23.73-49.3,4-6.19,7.8-12.44,10.35-19.4s3-14.68,3.29-22.07c.25-7.19.27-14.34,1.48-21.45,1.39-8.19,4.7-16.12,7.83-23.76,8.35-20.39,18.19-42.16,13.27-64.73-3.7-17-11.44-57.14-27-62.13C684.24,139.38,670.87,190.84,666,203.4Z"/><path class="cls-4" d="M628,284.41c-5.9,8.89-7.76,19.47-9.2,29.87-1.73,12.5-3.44,24.34-7.4,36.39-3.54,10.76-7.35,21.39-9.34,32.58-2.21,12.42-1.08,25.17-.48,37.68a336.25,336.25,0,0,0,4,39.57c1.94,11.48,13.4,76.41,25.75,92.54.62.81,18.54-95,14.22-112.6-4.65-18.87-13-38.13-12.2-57.86.7-18.1,5.72-35.81,7.49-53.81C642.27,313.39,628.39,283.74,628,284.41Z"/><path class="cls-4" d="M688.54,199.88c-10.76,14.5-31.36,92.13-33,101-3.8,20.09-.82,41.28,1.58,61.37,1,8.27,3.28,15.88,5.55,23.87.88,3.1,1.84,6.48,2.46,9.93-3.8,15.2-6,30.8-2.38,46.18.23,1,18.82-52,23.08-63.45,8.1-21.84,21.4-41.2,23.91-64.8,1.07-10,.27-20.22-1.21-30.16-1.44-9.7-2-19.51-3-29.26C703.67,236.32,689,199.32,688.54,199.88Z"/><path class="cls-5" d="M247,840.71c-8.7,20.18-24.39.42-30.31-10.74-7.3-13.75-18.22-30.08-33.81-36.64-21-8.81-50,1.16-70.09,7.22-15.92,4.79-14,5.33-24.55-4.29-5.45-5-11-12.18-10.42-19.46,32.57-1.68,73.2-7.84,104.38,1.62-13.11-21.91-51.35-25-73-33.6-15.31-6-26.1-17.25-40-25.48-18.78-11.08-36.9-13.41-53.6-28.59-7.69-7-21.51-18.21-12.53-29.93,9.45-12.31,24.71-1.06,35.33,2.81,17.6,6.43,35.29,9.38,53.11,14.62,13,3.84,25.22,13,39.45,10.4-20.64-18.2-42.4-44.56-57-69.17S23.26,566.13,32.46,535.6c22-73,69.12,39.48,94.75,48-4-21.46-20.82-39.75-24.83-61.86C98.05,497.88,97.53,471.34,97,447c4.94,12.95,42.64,41.84,57.17,44.53,15.75,2.93,17.08-9.06,29.93-13.4,11-3.72,17.86,5.38,30.45,6.06,2.71,28.81-33.33,60.67-27.92,90.52,14.24-9.18,15.51-30,22.84-44.1,8.27-16,19-23.74,18.11-42.85,37.43-6.89,60.65,51.62,74.74,76.87,10.89,19.51,24.12,38.4,37.46,56.63,8.36,11.44,21.53,24.85,21.29,41-.37,26.09-33.16,56.82-48.59,76.27-10.54,13.28-23.86,25.26-35.14,38.22C264,792,246,832.31,229.12,840.71Z"/><path class="cls-6" d="M228.44,685c-5-8.57-11.69-13.53-19.67-17.59-4.45-2.25-8.81-4.54-12.6-8-3.37-3.1-6.39-6.62-10.25-8.94s-12.71-4.82-17.6,1.31C164.66,656.37,165,663,165,667.91c0,3.75.62,9.37-1.21,13.58-2.64-2.67-6.27-4.31-9.38-5.86-4.95-2.47-10.4-4.55-16.25-4.5-3.76,0-7.4,1.69-9.54,6.89-2.26,5.52-.75,11.22.67,15.38,4.15,12.21,12.29,21,19.35,30,12.78,16.28,21.91,36.88,35.36,52.36,7.34,8.46,16.23,14,25,20.18,7.4,5.21,22.32,17.34,22.54,16.81C250.23,767.38,246.75,716.08,228.44,685Z"/><path class="cls-3" d="M216.42,710.17c-.41-7.12-.69-14.3-1.65-21.19-.56-4-1.36-10.09-4.77-11.4-.3-.12-4.89,13.4-6.88,19.83,1.16-17.17-4.05-39.12-19.14-37.22-.48.06-.34,41.82,1,44.63,2.25,4.75,7.45,6.78,10.53,10.61,5.25,6.53,8.24,16.18,11.88,24.28s7.8,15.6,13.86,20.92C221.67,761,217.39,727.35,216.42,710.17Z"/><path class="cls-7" d="M224.45,805.25c1.25-6.61,2.37-13.25,1.66-19.49-.57-5-3.57-8.16-5.76-11.79-2.87-4.75-2.14-11.39-2.24-17.61-.08-5.42-1.46-10.41-4.24-14-3.12-4-6.91-7.23-10.34-10.79q-6.17-6.39-11.86-13.4a149.48,149.48,0,0,1-14.17-20.61c-1-10.12-11-23.79-11.24-23.35-2.17,4.54-1.28,9.14-.19,13,1.62,5.77,4.34,10.79,6.65,16s3.48,11.59,5.62,17.13c2.37,6.13,6,11.46,10.79,14.75,5.12,3.5,12.34,2.48,14.79,10,2,5.95,1.45,13.58,2,20.21.65,7.43,4.33,14.22,7.28,20C216.68,792,224.32,806,224.45,805.25Z"/><path class="cls-8" d="M246.46,608.32c-4.57-15-18.86-20.56-31.12-25.82-13.27-5.7-25.36-18.72-40.46-16.36-12.66,2-20,14.34-30.44,20.19-12.12-3-30.24,16.71-29.37,16.82,6.94.88,14,.18,20.94.44,8.52.3,14.13,3.69,19,11.12,6.56,10,10.56,20.7,22.24,24.61,11.28,3.78,23.33.89,34.75-.25,5.77-.58,11.51-.44,17,1.64,7.61,2.88,19.79,19.49,23.24,26.9C252.88,668.87,251.3,624.12,246.46,608.32Z"/><path class="cls-4" d="M249.49,634.69c-1.35-6.92-4.58-12.91-12-14.15-4.47-.75-20.76,1.71-33.08-3.8-14.48-6.47-25.08-21.1-28.11-23-5.8-3.63-11.34.4-15.12,4.83-.73.86,11.25,3.8,14.77,7.4s6.52,6.63,10.82,9.11c5.27,3,10.91,5.38,16.43,7.92,4.3,2,3.38,6.33,6.37,9.44,1.61,1.67,3.83,1.4,5.72.58,1.58-.69,2.95-2,4.41-2.94,3.49-2.18,6.75.94,9.05,3.26,6.52,6.58,18.23,22.15,18.65,21.59C251.55,649.45,250.71,641,249.49,634.69Z"/><path class="cls-9" d="M305.25,462.75c-21.05,16.76-120.4,114.41-119,113.89,11.23,4.6,75-21.26,85.38-30.45,10.95-9.74,15.69-25.4,21.62-38.38C299.7,493.62,306.2,462,305.25,462.75Z"/><path class="cls-10" d="M301.89,476.58c-9.11,6.57-17,14.52-24.64,22.7-5.22,5.55-9.77,11-11.63,18.38-5.24,5.8-16.08,20.53-14.38,20.12,8.79-2.1,15.77-6.92,22.07-12.87-2.55,5.89-6.18,20.18-5.11,18.94,16-18.43,25.28-43.5,36.11-65.16A1.63,1.63,0,0,0,301.89,476.58Z"/><path class="cls-11" d="M461.63,193.52c-1.35-1,16.22,54.77,19.76,70.51,3.29,14.63,10.93,26.73,20.17,38.35,21.13,26.56,49.25,92.45,49.81,90.83,3.57-10.28-3.82-66.57-24.94-113.49C509.24,241.54,474.74,203,461.63,193.52Z"/><path class="cls-12" d="M335,108.33c-7.59,20.82-10.24,42.72-11.87,64.69-.79,10.55-2.21,21.4-.4,31.9,1.87,10.8,6,21.37,9.81,31.62,3.58,9.68,10.09,30.82,14.31,40.24,3.84,8.54,48.76-13.85,49.17-15.16C394.31,259.8,335.51,107,335,108.33Z"/><path class="cls-6" d="M381.69,236.09c-2.21-2.31-30-1.13-30.24-1.13-2.08,0,.35,36.34,3.06,38,3.41,2.13,27.22-3.69,29.51-6.29S384.21,238.74,381.69,236.09Z"/><path class="cls-3" d="M550.77,361.3c2.17,10.33,2.07,21.17,1.84,31.62,0,1.94-12.91-22.55-18.86-33.49a164.77,164.77,0,0,1,2,61.71c-.25,1.58-12.91-41.62-18-62.36-2.07-8.51-3.91-17.18-7.05-25.37-3.79-9.87-9.9-16.79-17.86-23.56a54.3,54.3,0,0,1-13.5-16.44c17.25,81,42.39,179.86,42.88,179.76,1.78-.36,34.82-39.54,36.44-79.93C558.92,386.19,555.91,374.93,550.77,361.3Zm-62.62-93.84c.62,1.62,1.3,3.21,2,4.79-3.33-8.67-5.17-16.31-5-21.71,0-.68,14,11.94,27.25,29.64-24.14-45.63-48.74-86.66-48.93-86.66a63.34,63.34,0,0,0,.26,12.43c2.42,3.91,14.49,29.22,17.34,36.82C484.11,250.83,485.05,259.44,488.15,267.46Z"/><path class="cls-13" d="M552.61,392.92c0,1.94-12.91-22.55-18.86-33.49a164.77,164.77,0,0,1,2,61.71c-.25,1.58-12.91-41.62-18-62.36-2.07-8.51-3.91-17.18-7.05-25.37-3.79-9.87-9.9-16.79-17.86-23.56a54.3,54.3,0,0,1-13.5-16.44c-7.73-36.24-13.88-68.89-15.56-87.46,2.42,3.91,14.49,29.22,17.34,36.82,3,8.06,3.92,16.67,7,24.69.62,1.62,1.3,3.21,2,4.79,9.9,26,33.14,61.58,55.43,76.21,1.88,4.46,3.63,8.77,5.15,12.84C552.94,371.63,552.84,382.47,552.61,392.92Z"/><path class="cls-4" d="M545.62,348.19c-29.73-19.51-61.15-76.24-60.41-97.92,0-.68,14,11.94,27.25,29.64C524.72,303.08,536.85,327.45,545.62,348.19Z"/><path class="cls-14" d="M467.42,175.22c.1-1.81-87.32,61.47-89.12,65.11-1.59,3.21.11,8.35.57,11.47q1.65,11.13,3.29,22.26c.13.87,87.68-26.6,85.11-26C465.88,248.37,466.55,190.62,467.42,175.22Z"/><path class="cls-15" d="M505.43,50.37c-9.72-17.5-27.12-25.43-44.6-33.43C441.47,8.08,422.36,2.57,400.91,5.26c-10.89,1.37-22.53,4-31.19,10.62-9.57,6-19.75,18-17.83,29.35.22,1.32,39.53-2.83,50.67,4.82,11.34,7.78,61.55,135.28,64,140.57,4.08,8.86,10.1,6.53,16.85,1.42,16.77-12.7,24.8-33.7,29.28-53.57S510.15,58.88,505.43,50.37Z"/><path class="cls-8" d="M507,138.18c-3.19-8.49-9.47-14.33-16-20.34-7.91-7.3-15.55-15.51-24.2-21.93-9.06-6.72-21.49-6.73-29.31-15.2-3.41-3.69-5.76-8.23-9.18-11.92A53.12,53.12,0,0,0,417,60c-10.87-6.72-36.4-17.91-35.27-16.54a174.8,174.8,0,0,0,22.54,22.33Q416.88,77.91,428.52,91c10.54,12,18.41,22.76,21.09,38.77.76,4.53,1.56,8.33,4.86,11.68.62.62,1.25,1.19,1.89,1.74-7.9,52.53,5.85,79.72,10,82.64,3.42,2.4,38-45.57,41.77-61.1A45.55,45.55,0,0,0,507,138.18Z"/><path class="cls-14" d="M496.24,810.17h0c-1.28.05-95.94.9-167.12,1.5,2.48-13.89,4.17-27.87,3.39-42a154.15,154.15,0,0,0-9.23-44.36c-5.1-13.95-51.23-142.68-52-141.17-.16.31-.32.62-.47.94,17.74-85.95,44.89-201.67,67.55-249.19,11.12-23.33,32.7-38.83,54.67-52,11.82-7.09,24.11-13.42,36.57-19.29,11.11-5.23,36.25-40.86,36.79-41.07,2.41,5.85,41.19,110.47,42.58,112.92,46,81.19-94.1,295.39-81.34,306.7C488,696.6,497,790.28,496.24,810.17Z"/><path class="cls-1" d="M432.41,256.4c-10.07-5.54-23.94-.94-34.84,1.23-.11-4.8-.06-9.59.09-14.38,10.86-7.73,26.66-31.2,25.32-30.41-7.27,4.26-38.71,14.7-45.35,19.62-7.95,5.9,4.84,47.25,8.12,49.56C388.17,283.74,433.54,257,432.41,256.4Z"/><path class="cls-16" d="M467.69,172.57a180.2,180.2,0,0,0-14-49.11,203.14,203.14,0,0,0-17.38-39c-7.53-13.28-17.25-25.49-30-34.08C394.92,42.76,379.44,37,365.61,40.21,352.35,43.3,340.42,55.62,334.7,67.6c-6.95,14.56-2,31.81-3.18,47.35-.81,10.64-3.18,20.6-5.84,30.86-2,7.56-1.52,13.74.15,21.31,3.95,17.86,6.69,36.73,12.2,54.17,3.81,12.05,14,16.48,26,16.54C402.76,238,467.82,173.54,467.69,172.57Z"/><path class="cls-17" d="M362,160.45c-.55-3.32-18.14-47.75-24.64-51.46-1.16-.66-13.64,58.91-12.63,58.67,1.63,4.06,4.42,9.64,8.43,8.31,3.11-1,26.54-5.78,27.5-7.31A11.86,11.86,0,0,0,362,160.45Z"/><path class="cls-18" d="M350.44,187c-4.16-1.71-6.72-.34-10.65-1.11-3.24-.64-6.47-3.51-9.81-1.53s-3.78,7.07-3.41,10.5a1.65,1.65,0,0,0,2.05,1.56c1.93-.45,3.86-.83,5.8-1.12a194,194,0,0,0,26.85,3.39C362.68,198.73,355.09,188.88,350.44,187Z"/><path class="cls-3" d="M413.17,122.58c-8.46-8.57-16.82-22-29.93-22.18-9.63-.12-28.71,1.21-33.14,11.53a1.67,1.67,0,0,0,.22,1.71,3.42,3.42,0,0,0,.81,2.77c3.12,3.9,9.56-1.07,12.46-2.16,7.93-3,20.6-6.13,28.82-3.9,7.45,2,12.48,9.75,18.37,14.41l.1.11h0l.32.26C412.7,126.25,414.42,123.85,413.17,122.58Z"/><path class="cls-19" d="M451.39,118.39c-3.76-10.15-7.64-61.63-77.06-79.09-11.65-2.93,75.55,107.94,76.54,107.34C456.93,142.92,453.74,124.72,451.39,118.39Z"/><path class="cls-20" d="M337.35,209.49c-4.08-13.29-7.73-27.9-7.38-41.86.34-13.63,4.3-26.81,7.84-39.87,3.2-11.82,5.92-23.63,6.71-35.89.93-14.56-2-45-2.68-45.25a18.77,18.77,0,0,0-9-1.31c-.95.08-10.92,27.54-13.46,37.84-2.86,11.58-.78,23.8-3.87,35.15s-9.88,21.83-13.18,33.36a107.75,107.75,0,0,0-4.43,31.2c.15,10.56,2.58,20.7,4.58,31a178.09,178.09,0,0,1,3.32,37.71c-.26,12.45-2.71,24.87-2.06,37.34s4.44,24.27,8.22,36c.45,1.39,43.4-26.71,45.94-52.25C358.84,263.36,341.17,221.92,337.35,209.49Z"/><path class="cls-3" d="M489.31,36.71a38,38,0,0,0-19.73-8.4c-8.49-.93-94.72,5-102.21,6.8-1.82.43,19.88,5.2,29.26,8.47,6.22,2.18,11.83,4.38,18.3,2a1.66,1.66,0,0,0,1.13-2l-.24-1.2,20.94,3.76c4.89.88,11.07,3,16.12,2,5.61-1.09,8.23-5.85,7.44-10.84,6.81,1.51,13.82,3.48,20.67,4,3.48.28,5.81,0,8.32-2.37A1.62,1.62,0,0,0,489.31,36.71Z"/><path class="cls-3" d="M348,246.49c-.43-1.65-9.11,16.5-12.11,24.74-2.5-9.26-18-61.26-22.13-67.89-.77-1.24-3,78.08,4.1,107.59.27,1.1,30.23-26.68,32.9-30.47C357,271.58,350.48,256.19,348,246.49Z"/><path class="cls-21" d="M320.86,177.78c-1.33-2.22-3.91-2-5.51-.29-3,3.18-1.05,23.35,2.22,27a1.65,1.65,0,0,0,2,.26C322.85,202.83,321.78,179.32,320.86,177.78Z"/><path class="cls-22" d="M414.62,777.13c-9.47,3.28-23.4,19.24-15.26,29.48,9.56,12,26.35,18.35,34-8.88C436.59,786.37,428.5,772.34,414.62,777.13Z"/><path class="cls-22" d="M406.78,718.05c4-4.38,7.19-15.07-.36-17.9-2-.75-4.7-.41-7.31.62,6.07-17.37-9.93-20.06-11.77-18.7.73-2.5,1.42-5.56.85-8a3.19,3.19,0,0,0-1.3-2,9.32,9.32,0,0,0,.45-2.46c.17-3.17-.56-6.69-3.45-8.48-2.62-1.63-5.58-.82-7.56,1.39s-3.46,5.58-2.76,8.58a6.16,6.16,0,0,0,4.57,4.63c-.06.13-2.54,3.94-2.8,4.2a6.78,6.78,0,0,0-7.53-1.09,7.79,7.79,0,0,0-1.69,1.13c1.61-2.38,2.66-16.16-9.86-15.41-6.9.41-3.67,14.1,2.21,17.37,2.47,1.37,4.55,1,6.14-.27a9.6,9.6,0,0,0-1.21,7.34c1.08,4.74,5,8.25,9,10.77,3.1,2,7.55,3.65,10.77,1a6,6,0,0,0,1.37-1.69,12.77,12.77,0,0,0,3.43,5.54,9.75,9.75,0,0,0-8.15,0c-2.15-1.64-5.2-.69-6.65,1.86-2,3.52-2.52,10.3-.78,14,1.9,4,6.94,5.38,11,4.46,4.41-1,9-9.28,9-9.45a40.87,40.87,0,0,0,4.78,4.93c-.41.09-8.63,6.35-8.83,7.75-.14,1,5.45,12.47,11,12.22,7.69-.35,8.75-12.83,4.89-17.66a7.07,7.07,0,0,0-1.71-1.54A12.12,12.12,0,0,0,406.78,718.05Z"/><path class="cls-22" d="M402,763.33c-.21-1.81.14-14.62-17.57-16.39-5.18-.52-9.7,7.48-13.5,13a14.4,14.4,0,0,0-4.44-6.79c2.75-3.52,2.38-9.6-.09-13.35a13.11,13.11,0,0,0,4.47-3.84c1.11-1.49,5.47-8.1-4.05-21.21-1.73-2.38-5.84-1.11-8.57.05.55-.43-.28-16.25-1.66-16.83,4.17-2.63,2.16-13.49-4.11-16.91a7,7,0,0,0-9.23,2.87c-2,3.57-.66,8.39,1.58,11.53a9.59,9.59,0,0,0,4.3,3.35c-1.93,1-4.39,2.47-4.26,4.4,1.13,17.17,11.54,12.53,11.48,12.57a14.9,14.9,0,0,0-5.86,17.49c-3.86,2.56-5.15,7.29-5,11.72.13,3.29.45,6.6,2.75,8.36a10.49,10.49,0,0,0-1.29.31c-7.13,2.29-13.35,8.74-17.16,15-8.75,14.34-3.47,32.12,14.82,34.05,7.33.77,19.6-18.58,22.11-23a26.05,26.05,0,0,0,13.32,11.89c9.2,3.21,15.74-3.27,18.79-11.4C400.8,775,402.69,768.87,402,763.33Z"/><path class="cls-22" d="M337.54,748c3.64-3.52,6.21-8.77,4.19-13.81-.66-1.63-13.81-7.22-15-6.78,2.54-4,2.71-10.23.54-13.79-3.7-6.09-12.22-8.36-16.69-2-3.32,4.74-3.1,11.09.46,14.57-20.59,5.5-13.35,18-11.17,20.83s6.63,2,9.27.69a12.71,12.71,0,0,0,4.15-3.5c.05,0,.92,3.73,1.11,4.17-.18,0-4.37.15-6.1,1.6-3.47,2.9-3.63,15.16-3.6,15.41-12.94,3.81-5.31,21.15-3.33,22.58,8.65,6.27,20.23-7.93,16.37-16.28,1.85-.51,6.37-11.54,6.39-14.15a11,11,0,0,0-.52-3.54A22.53,22.53,0,0,0,337.54,748Z"/><path class="cls-10" d="M486.64,772.08c-2.72-7.26-9.95-10.64-15.47-15.33-2.18-3.22-5.71-26.34-6-27.51-1.22-5-3.71-9.66-5.84-14.28l-16.54-35.8c-4.71-10.2-9-20.94-16-29.82-7.16-9.06-16.48-16.09-23.39-25.39-1-1.32,9,29.62,16.4,42.86a161.18,161.18,0,0,0,12.43,19.11c4.62,6,10.48,11.44,14.09,18.16,3.22,6,3.35,11.35,1.13,17.77-.72,2.06-1.89,3.72-2.17,6-.77,6.29,3.8,12.24,6.93,17.26,4.16,6.68,8.52,13.38,12,20.38,2.54,10.2,1.25,22.21-.06,31.82-4.89,35.79,15.3,27,18.28,26,6.55-2.28,8-13.84,8.53-19.53A74.27,74.27,0,0,0,486.64,772.08Z"/><path class="cls-5" d="M300.52,134.62C294,145.36,289.64,157.05,290,169.76c.06,2.07,22.76-29.77,26.09-35.07A105.17,105.17,0,0,0,330.3,98C330.57,96.54,303.91,129,300.52,134.62Z"/><path class="cls-23" d="M315.29,216.24a1.65,1.65,0,0,0-1.83-.75c-2.57.64-2.7,2-3.48,4.45-2,6.31-4.14,36.89-1.17,43.91C309.48,265.44,318.14,221.16,315.29,216.24Z"/><path class="cls-2" d="M344.22,254.08c-.38-.39-25.53,4.17-25,5.9,1.31,3.87,3.35,30.34,4.21,39.63.14,1.48,12.1-22.05,13.53-25.8.93,3.73,4.15,13.75,5,12.23C345.14,280.25,347.6,257.48,344.22,254.08Z"/><path class="cls-24" d="M335.05,11.74c-6.57.22-15.94,23.89-16.22,28.42-3.05-.8-5.82,1-8.18,4.19C306.59,49.81,306,56.62,308,63a1.63,1.63,0,0,0,2.7.71c12.16-14.93,23.42-30.74,25.95-50.31A1.63,1.63,0,0,0,335.05,11.74Z"/><path class="cls-25" d="M455.25,29.89c1.67-8.91-12.46-11.18-17.08-4.08-1.49-4.54-3.74-8.14-10.11-8.86-8.36-.95-14.32,6.21-15.41,13.87-.11.78,19.64,1,21.42,1,.14,2.22.3,4.31.84,5.1,1.48,2.17,4.14,2.78,6.6,2.56C443,39.38,454.88,31.87,455.25,29.89Z"/><path class="cls-25" d="M504.14,105.56c-1.17-1-5.65-2.21-6.3-3.25-1.32-2.09.75-4.45,0-6.83-.79-2.62-2.91-3.9-5.3-4.55,4.39-2.93,9-7.65,5.33-12.47-4.13-5.4-12.61,1.7-16.92,5.75a11.79,11.79,0,0,0-5-5.67c-3.15-1.92-10-3.9-13.48-2.24-5.67,2.73-1.06,7.89,3.88,11.73-2-.25-7.78.32-7.77,1.19.11,9.11,4.39,14.45,13.75,16.14,2.28.41,4.92-.22,6.09-1.62,7.6,6.24,12.81,17.4,22.31,20.11,3.6,1,8.28-1.23,7.37-4.47a5.18,5.18,0,0,0,1.12-2.55C510,112.83,507,108,504.14,105.56Z"/><path class="cls-26" d="M492.18,147.18c-2.73-1.75-5.62,1.16-7.53,2.79-4.52,3.86-16.58,20.13-14.59,22.08,2.44,2.38,9,2.79,12.18,2.08a13.92,13.92,0,0,0,8.18-5.74C492.9,164.85,494.86,148.91,492.18,147.18Z"/><path class="cls-3" d="M472.61,133.3c-3.13-14.32-38.32-61.46-49.44-69.44-.92-.66,31.11,82.57,32.47,82.78C458.31,147.05,472.82,134.24,472.61,133.3Z"/><path class="cls-27" d="M289.41,525.44c.21-1.82-2.76-2.18-3.18-.43-.66,2.76-14.73,52.9-15,75.42,0,2.08,7.21-24.84,11.37-36.79,1.5,8.28,7.92,26,7.62,24A233.55,233.55,0,0,1,289.41,525.44Z"/><path class="cls-16" d="M467.56,56.76c-.82,0-2.89,11.1-4.74,15.78a31.37,31.37,0,0,0-7-15.29c-1-1.24-3,23,.84,25.69,3.34,2.29,8-.33,10.66-2.52a17,17,0,0,0,6.13-13.73C473.32,63.14,472,56.75,467.56,56.76Z"/><path class="cls-3" d="M488.82,45c-1.21-1.64-4-.13-2.79,1.63,2.29,3.4,15.83,29.9,16,32.54a1.62,1.62,0,0,0,3.24,0C506,69.93,491,48,488.82,45Z"/><path class="cls-6" d="M433.06,135.86c-19,2-66.24,10.75-65.18,11.16,13.28,5.19,23.52,9.33,37.92,7.11C417.28,152.36,434.33,135.72,433.06,135.86Z"/><path class="cls-28" d="M442,196c-11.76,7.41-21.41,14.43-33.37,21.51-23,13.59-65,15.35-63.38,16.58,5.26,4,19.8,6,39.31,1.86,10.32-4.05,59-37.05,59.4-37.41C445.35,197.32,443.53,195,442,196Z"/><path class="cls-3" d="M505.67,93.72a1.64,1.64,0,0,0-2,1.13c-1.42,3.67,1,11.49,5.22,13a0,0,0,0,1,0,0c.6.52,3,0,3.53-.33C513.38,107.45,509.22,94.89,505.67,93.72Z"/><path class="cls-18" d="M337,122.4c-.53-.89-2.95-10.6-3.61-9.22-6,12.65-8.63,22.67-18.45,45.34C314.25,160,341.47,129.86,337,122.4Z"/><path class="cls-29" d="M305.45,578.15c-.06.83-48.77,132.24-47.69,131.82,1.8-.7,35-25.22,40.88-42.82a120.47,120.47,0,0,0,15.1,32.1c4.31,6.42,23.82,16.12,25.51,16.2C340.07,715.49,305.59,576.08,305.45,578.15Z"/><path class="cls-25" d="M384.45,39.29c-8.84-3.69-23.68,1.33-29.63,4.05,10.22-7,15.26-28.22,13.56-27.71-15.06,4.48-28.07,18-37.36,30.23-6.62,8.69-13.58,24.49-2.19,32.37a1.62,1.62,0,0,0,2.21-.58c3.43-7.49,7.17-15.29,12.74-21.11C354.46,51.86,385.81,39.86,384.45,39.29Z"/><path class="cls-16" d="M465.88,222.72c-.26-1.62-60,37.86-72.16,40.94-11.48,2.9-24,1.91-34.85,6.79-9.36,4.2-17.67,11.21-24.92,18.23a129.09,129.09,0,0,0-19.84,24.48c-6,9.6-49.55,82-54.84,93.63a1.55,1.55,0,0,0,0,1.3c-10.94,21.17-75.66,134.94-78.63,160-2.27,19.16,35.95,2.49,43.08-2.28,10.12-6.77,142-161.56,147.72-164.91,5.2-3,11.35-4.62,16.79-7.25a143.66,143.66,0,0,0,17.53-10.19,233.11,233.11,0,0,0,30.24-24c18.14-17.2,26.77-41.57,31.11-65.39C469.44,281.25,468.36,237.83,465.88,222.72Z"/><path class="cls-28" d="M379.8,397.73c-2.46-.47-7.66,2.56-10,1.8-4-1.3-2.79-7.87-3.24-8.34.11-1.63-79.94,103.06-85.75,111.93-1.13,1.76,17.37-16.28,23.54-24.43C311.88,468.69,381.63,398.08,379.8,397.73Z"/><path class="cls-18" d="M484.53,128.74c-3-4.42-7.85-6.36-13-4.73-8.36,2.64-29.19,28.29-26.91,46.2.65,5.1,6.56,12,12.22,12.86,6.33,1,13.76-4.41,17.42-9.08,5.52-7,8.29-17.15,11.08-25.55C487.47,141.94,488.67,134.73,484.53,128.74Z"/><path class="cls-1" d="M473.92,145.46c-2.63-2.42-4.93-.89-7.1.89,0-1.4-2.82-4.77-3.64-4.17-.56.29-3.87,14-4.37,19.94C458.68,163.73,474.73,146.19,473.92,145.46Z"/><path class="cls-3" d="M396.73.06C396.2-.71,378.44,6.6,377,8.16c.7-2.78-2-7.91-2.49-7.79-6.71,1.61-13,7.84-12.31,15.25.19,2.18,1.07,4.57,3.36,5.2,1.2.33,22.37-1.7,26-5.92C394.36,11.72,399.74,4.38,396.73.06Z"/><path class="cls-30" d="M505.25,148.8C501,130.46,484.8,76.38,456.7,88.41c-1.39-7-6.15-11.94-12.05-16.14-9.63-6.85-52-31.6-62.33-33.76-1.85-.39,18,22.32,30.73,26.78,3.18,1.11,6.51,1.18,9.71,2.18,5.09,1.59,8.05,5.6,11.13,9.91,3.79,5.3,7,11.12,11.75,15.68,4.52,4.39,10.24,6.61,15.73,9.49A69.49,69.49,0,0,1,480.13,117a72.24,72.24,0,0,1,12.8,19.8c2.49,5.6,4.64,10.5,9.95,13.87A1.63,1.63,0,0,0,505.25,148.8Z"/><path class="cls-31" d="M370,271.14a90.78,90.78,0,0,0-28.65,14.32c-17.4,13.15-30,31.48-41.69,49.59-7.15,11.05-14.36,22.11-20.57,33.72-5.81,10.87-51.09,93.69-55.76,106.54-.82,2.26,95.55-39.37,131.42-74.86,9.35-9.25,17.6-17.93,29.88-23.27,10.42-4.55,19.94-9.05,27.74-17.57,14.44-15.77,20.84-36.93,29.18-56.16,11.28-26,25.77-53.35,26.22-82.44C467.76,219.32,381.93,267.52,370,271.14Z"/><path class="cls-3" d="M372.15,297.23c-12.93,10.66-25.63,21.88-37.84,33.35-23.95,22.47-41.49,51.31-59.1,78.78-10.46,16.33-29.6,52.39-28.3,51.66a344.93,344.93,0,0,0,50.26-34.57c16-13.24,29.73-29,49.18-37.25,17.18-7.31,34.55-12.13,48.61-25.11,12.94-11.93,22.19-27.3,30-42.9,10.57-21,19.77-42.76,28.74-64.48C454.24,255.5,377.71,292.66,372.15,297.23Z"/><path class="cls-31" d="M183.44,578.29c35-1.24,51.27-19.72,70.11-38.46a288.38,288.38,0,0,0,51.4-69.5C305.55,469.2,181.5,578.36,183.44,578.29Z"/><path class="cls-15" d="M394.48,278.71c10.27-2,16-11.09,23.45-17.77,10.25-9.24,23.18-14.51,34.06-22.85,8.07-6.17,15.08-13.92,18.08-24,3.15-10.56,1.73-21.76-.16-32.49C471,180.33,393,279,394.48,278.71Z"/><path class="cls-14" d="M473.12,122.3c-15.26-21.08-35.37-37.74-57-51.95C404.94,63,393.39,56.22,381.69,49.76S357.14,37.36,343.32,39C342.08,39.17,473.89,123.37,473.12,122.3Z"/><path class="cls-17" d="M305.86,411.88c15.91-5.89,83-45.25,89.92-50.16,11.66-8.25,33.89-65.84,32.94-70.16C429.4,290.66,304.42,412.42,305.86,411.88Z"/><path class="cls-31" d="M517.39,336.17c-7.12-16.86-39.08-83.16-42.4-89.9-.71-1.44-12.21,98.9-19.67,120.73-11.44,33.46-13.91,68.65-17.84,103.54-2.07,18.37-4.72,36.7-9.44,54.58-5.8-41.32-4.15-126.79-4.94-125.81-22.58,27.87-46.44,57.73-51.34,94.45-4.72,35.37,16.22,68,13.45,102.92-15.7-25.89-70.45-55.48-70.46-54.57-.35,52.93,46.61,96.75,95.59,107.95.48.11,59.34-95.62,78.91-147.73,10.26-27.29,20.66-54.89,28.86-82.88C526.27,391.61,528.91,363.46,517.39,336.17Z"/><path class="cls-31" d="M329.12,811.68c-43.07.36-77.54.63-77.56.57,3.48-27.64.87-110.63.35-124.31-.16-4.1,7.39-47.26,18.89-102.89.15-.32.31-.63.47-.94.78-1.51,46.91,127.22,52,141.17a154.15,154.15,0,0,1,9.23,44.36C333.29,783.81,331.6,797.79,329.12,811.68Z"/><path class="cls-16" d="M309.08,826c-15.41-72.59-47-187.13-47.15-185.62C258.06,671.52,249,808.15,251.06,835.8,251.1,836.24,309.3,827,309.08,826Z"/><path class="cls-3" d="M350,630.73c-2.06-4.75-5.36-10.89-11.36-10-.65.1,13.61,31.64,13.79,30.41A36.78,36.78,0,0,0,350,630.73Z"/><path class="cls-32" d="M326.39,478.38c-3.92,7.5-4.55,37.77.5,34.19,2.7-1.92,16.91-37.55,17.25-46.67C344.18,464.78,326.9,477.41,326.39,478.38Z"/><path class="cls-33" d="M319.36,407.63a62,62,0,0,0-14.11-3.86c7.51-1.26,19.76-4.77,13.56-12.86-3.57-4.65-11.9-7-17-9.25a194.86,194.86,0,0,0-22-7.89c11.44-10.85,23.19-25.42,14.48-41.55a1.64,1.64,0,0,0-2.54-.33c-5.54,5.23-26.15,36.93-35.36,38.67-4.36.83-7.49.9-10.23,5.07-3.05,4.64-2.22,10.13-.43,15.05-6.45,1.67-10.46,6.81-11.34,13.54-1.31,9.92-3,17.67-1,27.5-12.29,1.84-14.34,22.83-8,24.86,2.72.88,4.58,0,6.84-1.38,8-4.95,14-7.82,23.66-8.12,8-.25,16,1.1,24,1.37,3.63.13,9.07.79,12.22-1.65,4.06-3.15,2.53-6.27-.42-8.31h7.61c4,0,9.09.47,12.63-1.84,7.58-4.94-3.19-9.86-7.3-11.49a1.51,1.51,0,0,0-.28-.05,50.43,50.43,0,0,0,13.82-2.63c3.06-1.07,9.88-3.41,10.15-7.47C328.48,411.41,321.87,408.71,319.36,407.63Z"/><path class="cls-28" d="M291.22,358.66a1.53,1.53,0,0,0-2.55-.75c-.26,0-10.58,9.71-15.7,14.12-1.35,1.15.14,2.94,1.57,2.7a20.42,20.42,0,0,0,11.19-6.1C287.92,366.37,292,362.05,291.22,358.66Z"/><path class="cls-28" d="M305.51,402.13c-8.54-2.92-17-5.21-25.44-8.58-7.25-2.89-14.24-4.49-22-2.69-1.81.42-1.36,3.13.43,3.18a68.52,68.52,0,0,1,26.54,5.85,77,77,0,0,0,8.46,3.47,1.75,1.75,0,0,0,.48.29,25.94,25.94,0,0,0,11.06,1.66A1.63,1.63,0,0,0,305.51,402.13Z"/><path class="cls-28" d="M306,420.89c-11.13,1.19-46.35-13.42-53.51-12-.52.1-1.2,1.27-1.17,1.39,1.56,5.69,42.22,16.1,54.19,14.42C306,424.62,307.76,420.7,306,420.89Z"/><path class="cls-28" d="M289.13,436.5c-10.41-3.44-43-9.34-48.26-8.73a1.62,1.62,0,0,0,0,3.24c13.74,1.24,45.51,8.32,47.4,8.61A1.62,1.62,0,0,0,289.13,436.5Z"/><path class="cls-7" d="M634.08,820.59c2.62,5.48,3.2,19.2,16.27,15.49-21-35.26,37.2-55.25,53-78.85,26.25-39.26,10.3-81.3-23.47-110C660.53,658.14,650.3,679.51,633,693c-14.63,11.35-40.44,35.71-60.23,28C597,705,619.27,684,632.85,657.45c13.88-27.19,15.12-42.4-8-62.32-10.94-9.44-25.31-15.49-37.11-24.28-19.47-14.52-39.16-31.55-60.66-43-11.81-6.27-19.22-14.1-26.91-5.15-5.85,6.82-5.15,18.26-8.86,25.79-4.23-24.89-69.91,3.3-85.71,4-20.65,1-121.55-43.37-131-42.79,11.81,24.8,101.53,99.28,130.73,115.3,28.24,15.5,56.79,27.68,81.77,48.54,12.41,10.37,26.11,18.14,38.39,28.52,8.48,7.16,36.76,28.48,36.2,39.53-12.87-1.21-26-12.21-36.86-19.43-16.37-10.91-38.77-28.72-57.26-34,4.79,45.67,31.64,67.14,75,80.92,21.7,6.88,42.45,10.72,61.7,24C613.38,799.3,634.08,820.59,634.08,820.59Z"/><path class="cls-29" d="M619.56,739.35a94.47,94.47,0,0,0-6.83-6.89c-2.35-2.16-3-4.34-4.3-7.05a4.56,4.56,0,0,0-2.61-2.69c-3.59-1-5.55-2.81-8-5.48-3.31-3.58-6.6-6.83-11-9-3.61-1.72-7.09-1.2-11-1-5.58.33-4.84-4.55-8.36-6.94-3.71-2.52-9-2.37-13.26-2.21a114.4,114.4,0,0,0-14.28,1.9c-5.75,1-11,4.3-16.17,6.83-3.31,1.62-7,3.31-10.77,2.6-2.16-.41-4.17-1.46-6.4-1.6-5.53-.33-11,3.84-15.61,6.36s-9.14,2.15-14.08,3.23-8.82,5.12-12.26,8.7c-7.87,8.2-19.67,10.78-25.24,21.17-4.64,8.65-3.91,18.69-.76,27.95-2.06,6.12.15,20.75.67,19.73.93-1.8,12.12-19.23,15.78-23,6.4-6.62,14.8-13.69,24.54-11,3.64,1,7,2.47,10.75,2.93,4.78.59,9.83-.37,14.58-.89a48,48,0,0,1,16.08.67c5,1.14,9.84,3.1,14.78,4.51,9.69,2.76,19.76,3.62,29.55,5.93s18.36,7.71,28,10.2c16.45,4.23,29.89-11.35,45.78-12.39C639.71,772,627.93,748.81,619.56,739.35Z"/><path class="cls-16" d="M625.21,764.64a96.49,96.49,0,0,0-39-2.37c8.4-6.55,29.39-15.6,28.3-15.57-10.16.28-19.21,4.82-28.65,8.06-8.12,2.79-16.07.13-24.3,0,5.38-6.11,13.71-9,21.35-11.08,8-2.18,25.2-6.2,24.19-6.2-11.62,0-23,.82-34.31,3.85-5.6,1.5-10.86,3.24-16.69,3.72a89.42,89.42,0,0,1-14.9-.48c-1.82-.16-3.63-.22-5.43-.24,15-5.7,41.81-25.72,40.83-25.34-14.55,5.63-52.41,23.68-57.3,25.8-.29.12-16,1.57-18.27,1.44,1.08-.67,2.14-1.35,3.14-2,5.48-3.56,64.48-40.17,63.41-40.1C547,705.33,508.3,736,503.76,738.8a30.42,30.42,0,0,0-8.36,7c-2.09-.16-4.17-.32-6.25-.39-2.51-.08-5-.18-7.47-.35,0-.07,5.62-9.43,8.88-12.67,4.29-4.27,9-8.16,13.59-12.07,3.16-2.68,9.09-10.1,8.44-10.06-9.47.55-15.52,8-20.73,15.12-4.72,6.45-9.95,15.48-18.09,17.36,1.09-5.59,3.88-18,3.15-17.53-6.44,3.85-10.18,10.72-12.45,17.74-5.53.18-16.19,6.33-15.24,6.18a77.49,77.49,0,0,1,24.08-.34c7.34,1.13,13.18,4.52,19.82,7.45,5.19,2.28,10.14,1.54,15.54.64,8.33-1.38,16.05,1.88,23.41,5.39,5.38,2.57,52.49,22.25,63.25,21.47.83-.06-10.42-8.78-13.85-14.18C596.16,769.78,626.15,764.9,625.21,764.64Z"/><path class="cls-28" d="M564.12,773.43c-10.87-3-38.46-11.6-49.21-15.09-6.24-2-14.48-5.82-21.36-4.71.43-4.19.46-10-4.88-10.15-4-.12-11.95,5.55-13.2-.66a.94.94,0,0,0-1.36-.56c-4.24,2.28-9.54,8-14.31,3.85-2.3-2-2-6.56-2.35-9.3-.51-4.46-2.07-8.45-6.78-9.64-4.22-1.06-8.6,2.08-11.67,4.53-5.09,4-9.19,9.45-12.9,14.75-5.63,8-13.71,20-9.38,30.1,3,6.88,14.88,14,20.34,21.94-2.12,6-6.77,18.26-7,23.12,0,.84,4.22,2,4.78,1.45,1.44-1.35,11.12-26.12,16.34-30.43a38.24,38.24,0,0,0,10-13.24c2.07-4.2,4.86-13.43,9.78-15.06,1.29-.43,3.13.35,4.39.67a42.67,42.67,0,0,0,7.13,1c7.29.59,14.64.44,21.95.56A116.84,116.84,0,0,1,526.09,769C532.94,770.41,565.17,773.72,564.12,773.43Z"/></g></g></svg>