<svg xmlns="http://www.w3.org/2000/svg" viewBox="0 0 745.21 886.05"><defs><style>.cls-1{fill:#e96bbc;}.cls-2{fill:#1ab687;}.cls-3{fill:#e4d91b;}.cls-4{fill:#274490;}.cls-5{fill:#443880;}.cls-6{fill:#f86048;}.cls-7{fill:#b47ae8;}.cls-8{fill:none;}.cls-9{fill:#27944e;}.cls-10{fill:#f83c2d;}.cls-11{fill:#a8ccbe;}.cls-12{fill:#b1d3d3;}.cls-13{fill:#4c879f;}.cls-14{fill:#fff;}.cls-15{fill:#f48051;}.cls-16{fill:#243245;}</style></defs><title>LoadingScreen</title><g id="Layer_2" data-name="Layer 2"><g id="Layer_1-2" data-name="Layer 1"><path class="cls-1" d="M623.41,154.47a61.4,61.4,0,0,0-17.25,6.35c-4.65,2.69-9.15,6.63-10.34,12.1a15.78,15.78,0,0,0,1.59,10.15,20.26,20.26,0,0,0,.15,7.45c0,.15,7.32-6.16,11-9.13a41.85,41.85,0,0,0,4.51-4,24.7,24.7,0,0,0,3.07-4.18c3.4-5.76,7.48-18.78,7.32-18.74"/><path class="cls-2" d="M416.76,841.89c18.95-29.31,2.2-56.79-6.82-89.55-7.41-26.9-6.68-54.49-14.62-81.3s-21.23-52.8-31-79.21c-15.77-42.71-23.87-89-37.77-132.56-6.69-20.94-8.66-42.18-20-62.06-10.68-18.69-14.2-26.48-32.35-15.33-24.76,15.18-66.29,50.8-99.35,47.5,6.46-18.87,23.31-33.31,42.82-42.26,11.92-5.47,44.17-10.65,51.28-19.36,5.87-7.19-12-42.87-17.34-57.18-6.48-17.25-16.63-47.89-39.77-53-17.35,14.42-19.64,40.1-32.07,58.16-11.36,16.49-29.65,25.21-43.26,38.91,8.26-24.91,22.23-41.89,39.22-62.13,19.6-23.36,16-32.14-1.92-57.74C145.05,193.58,117.1,150.17,73.36,120c-5.5,9.39,5.37,67.66,7,87.66A757.24,757.24,0,0,0,96.81,312.18c11.23,48.57,37.61,93.36,52.86,140,11.93,36.46,34.53,71.39,47,107.76,13.59,39.51,15.36,78.05,21.36,118.29,9.56,64.08,50.1,117.86,90.68,170.35"/><path class="cls-3" d="M666,240c-5.62,14.53-10.06,29.09-17.61,42.81-8.82,16-18,31.93-27,47.88-8.29,14.7-16.77,29.31-23.28,44.91-6.66,16-11.59,32.62-16,49.33-1.87,7.09-4.06,14.26-5.44,21.46-1.59,8.27-2.15,16.65-3.09,25-1.77,15.76-7.63,29.73-12.27,44.71-2.79,9-3.45,17.45-1,26.51,5.15,19.16,15.77,37.94,28.45,53.1,8.13,9.72,21,21,34.08,18.51-1,5.22-4.64,11.2-6.11,14.86-2.85,7.14-.11,23.16.43,22.53,15.72-18.79,29.66-42.21,33.26-66.78,2-13.54-1.78-27.1-2.25-40.6-.59-17.2,9.31-30.17,16.4-45,3.6-7.53,5.85-15.82,8.79-23.62,3.34-8.86,6.91-17.63,10.54-26.37,7-16.94,13.69-33.9,23.74-49.3,4-6.19,7.8-12.44,10.35-19.4s3-14.68,3.29-22.07c.25-7.19.27-14.34,1.48-21.45,1.39-8.19,4.7-16.12,7.83-23.76,8.35-20.4,18.18-42.16,13.27-64.73-3.7-17-11.44-57.14-27-62.13-32.64-10.46-46,41-50.87,53.56"/><path class="cls-4" d="M628,321.05c-5.9,8.89-7.76,19.47-9.2,29.87-1.73,12.5-3.44,24.34-7.4,36.39-3.54,10.76-7.35,21.39-9.34,32.58-2.21,12.42-1.08,25.17-.48,37.68a334.37,334.37,0,0,0,4,39.57c1.93,11.48,13.39,76.41,25.74,92.54.62.81,18.54-95,14.22-112.6-4.65-18.88-13-38.13-12.2-57.86.7-18.1,5.72-35.82,7.49-53.81,1.51-15.38-12.37-45-12.81-44.36"/><path class="cls-4" d="M688.54,236.52c-10.76,14.5-31.36,92.12-33,101-3.8,20.09-.82,41.28,1.58,61.36,1,8.28,3.28,15.89,5.55,23.88.88,3.1,1.83,6.48,2.46,9.92-3.8,15.21-6,30.81-2.38,46.19.23,1,18.82-52,23.08-63.46,8.1-21.83,21.4-41.19,23.91-64.79,1.07-10,.27-20.22-1.21-30.16-1.44-9.7-2-19.51-3-29.26C703.67,273,689,236,688.54,236.52"/><path class="cls-1" d="M247,877.35c-8.7,20.17-24.39.42-30.31-10.75-7.3-13.74-18.22-30.08-33.81-36.63-21-8.82-50,1.15-70.09,7.21-15.92,4.8-14,5.34-24.55-4.28-5.45-5-11-12.18-10.42-19.47,32.57-1.67,73.2-7.83,104.38,1.63-13.11-21.91-51.35-25-73-33.61-15.31-6-26.1-17.24-40-25.47-18.78-11.08-36.9-13.41-53.6-28.59-7.69-7-21.51-18.22-12.53-29.93,9.45-12.32,24.71-1.07,35.33,2.81,17.59,6.43,35.28,9.38,53.11,14.62,13,3.84,25.22,13,39.45,10.4-20.64-18.2-42.4-44.56-57-69.17s-50.57-53.35-41.37-83.89c22-73,69.12,39.49,94.76,48-4.06-21.45-20.83-39.74-24.84-61.85C98,534.52,97.53,508,97,483.59c4.94,13,42.64,41.83,57.17,44.53,15.75,2.93,17.08-9.06,29.93-13.4,11-3.73,17.86,5.38,30.45,6.06,2.71,28.81-33.33,60.67-27.92,90.52,14.24-9.18,15.51-30,22.84-44.1,8.27-16,19-23.74,18.11-42.85,37.43-6.9,60.65,51.62,74.74,76.87,10.89,19.51,24.12,38.4,37.46,56.63,8.36,11.43,21.53,24.84,21.29,41-.37,26.09-33.16,56.82-48.59,76.27-10.54,13.27-23.86,25.26-35.14,38.22-13.33,15.3-31.38,55.57-48.25,64Z"/><path class="cls-5" d="M228.44,721.66c-5-8.56-11.69-13.52-19.67-17.58-4.45-2.26-8.81-4.54-12.6-8-3.37-3.1-6.39-6.62-10.25-8.94s-12.71-4.82-17.6,1.31C164.66,693,165,699.65,165,704.55c0,3.75.62,9.37-1.21,13.58-2.64-2.67-6.27-4.31-9.38-5.86-4.95-2.47-10.4-4.55-16.25-4.5-3.76,0-7.4,1.68-9.54,6.89-2.26,5.52-.75,11.22.67,15.38,4.15,12.21,12.29,21,19.35,30,12.78,16.28,21.91,36.88,35.36,52.36,7.34,8.46,16.23,14,25,20.17,7.4,5.21,22.32,17.35,22.54,16.82,18.73-45.32,15.25-96.62-3.06-127.68"/><path class="cls-3" d="M216.42,746.81c-.4-7.13-.69-14.3-1.65-21.19-.56-4-1.36-10.09-4.77-11.41-.29-.11-4.89,13.41-6.88,19.84,1.16-17.17-4.05-39.12-19.14-37.22-.48.06-.34,41.82,1,44.63,2.25,4.75,7.45,6.77,10.53,10.6,5.25,6.54,8.24,16.19,11.88,24.29s7.8,15.6,13.86,20.92c.45.39-3.84-33.29-4.81-50.46"/><path class="cls-6" d="M224.45,841.88c1.25-6.6,2.37-13.25,1.66-19.48-.57-5-3.57-8.16-5.76-11.79-2.87-4.75-2.14-11.39-2.24-17.62-.08-5.42-1.46-10.4-4.24-13.94-3.12-4-6.91-7.23-10.34-10.79q-6.17-6.39-11.86-13.4a149.48,149.48,0,0,1-14.17-20.61c-1-10.12-11-23.79-11.24-23.35-2.18,4.54-1.28,9.14-.19,13,1.62,5.77,4.34,10.78,6.65,16s3.48,11.6,5.62,17.14c2.37,6.13,6,11.46,10.79,14.74,5.12,3.51,12.34,2.49,14.8,10,1.95,6,1.43,13.57,2,20.21.66,7.43,4.34,14.22,7.29,20,3.44,6.73,11.08,20.63,11.21,19.93"/><path class="cls-7" d="M246.46,645c-4.57-15-18.86-20.56-31.12-25.83-13.27-5.7-25.36-18.71-40.46-16.35-12.66,2-20,14.33-30.44,20.19-12.12-3-30.24,16.7-29.37,16.81,6.94.88,14,.19,20.94.45,8.52.3,14.13,3.69,19,11.12,6.56,10,10.56,20.7,22.24,24.61,11.28,3.77,23.33.89,34.75-.25,5.77-.58,11.51-.44,17,1.64,7.61,2.88,19.79,19.49,23.24,26.89.59,1.27-1-43.48-5.83-59.28"/><path class="cls-4" d="M249.49,671.33c-1.35-6.92-4.58-12.91-12-14.15-4.47-.75-20.76,1.71-33.08-3.8-14.48-6.47-25.08-21.1-28.11-23-5.8-3.63-11.34.39-15.12,4.83-.73.86,11.25,3.8,14.77,7.4s6.52,6.63,10.82,9.11c5.27,3,10.91,5.38,16.43,7.92,4.3,2,3.38,6.33,6.37,9.44,1.61,1.67,3.83,1.4,5.72.58,1.58-.69,2.95-2,4.41-2.94,3.49-2.18,6.75.94,9.05,3.26,6.52,6.58,18.23,22.15,18.65,21.59,4.1-5.49,3.26-14,2-20.25"/><rect class="cls-8" x="92.42" width="595.28" height="841.89"/><path class="cls-6" d="M305.25,499.39c-21.05,16.76-120.4,114.41-119,113.89,11.23,4.6,75-21.26,85.38-30.45,10.95-9.74,15.69-25.41,21.62-38.39,6.47-14.18,13-45.81,12-45.05"/><path class="cls-2" d="M301.89,513.22c-9.11,6.57-17,14.52-24.64,22.7-5.22,5.55-9.77,11-11.63,18.38-5.24,5.8-16.08,20.53-14.38,20.12,8.79-2.1,15.77-6.92,22.07-12.87-2.55,5.89-6.18,20.18-5.11,18.94,16-18.44,25.28-43.51,36.11-65.17a1.62,1.62,0,0,0-2.42-2.1"/><path class="cls-9" d="M461.63,230.16c-1.35-1,16.22,54.77,19.76,70.51,3.29,14.63,10.93,26.73,20.17,38.35,21.13,26.55,49.25,92.45,49.81,90.83,3.57-10.28-3.82-66.57-24.94-113.49-17.19-38.18-51.7-76.73-64.8-86.2"/><path class="cls-2" d="M335,145c-7.59,20.81-10.24,42.72-11.87,64.69-.79,10.54-2.21,21.4-.4,31.89,1.87,10.8,6,21.38,9.81,31.62,3.58,9.68,10.09,30.83,14.31,40.25,3.84,8.54,48.76-13.86,49.17-15.16-1.73-1.83-60.53-154.64-61-153.29"/><path class="cls-2" d="M381.69,272.73c-2.21-2.31-30-1.13-30.24-1.13-2.08,0,.35,36.34,3.06,38,3.41,2.13,27.22-3.69,29.51-6.29s.19-28-2.33-30.62"/><path class="cls-3" d="M550.77,397.94c2.17,10.33,2.07,21.17,1.84,31.62,0,1.94-12.91-22.56-18.86-33.49a164.93,164.93,0,0,1,2,61.7c-.26,1.59-12.92-41.61-18-62.35-2.07-8.51-3.91-17.18-7.05-25.37-3.79-9.87-9.9-16.8-17.86-23.56a54.42,54.42,0,0,1-13.5-16.44c17.25,81,42.39,179.86,42.88,179.76,1.78-.36,34.82-39.54,36.44-79.93.25-7.05-2.76-18.31-7.9-31.94M488.15,304.1c.62,1.62,1.3,3.21,2,4.79-3.33-8.67-5.17-16.31-5-21.71,0-.68,14,11.94,27.25,29.64-24.14-45.63-48.74-86.66-48.93-86.66a63.34,63.34,0,0,0,.26,12.43c2.42,3.91,14.49,29.22,17.34,36.82,3,8.06,3.92,16.67,7,24.69"/><path class="cls-10" d="M552.61,429.56c0,1.94-12.91-22.56-18.86-33.49a164.93,164.93,0,0,1,2,61.7c-.26,1.59-12.92-41.61-18-62.35-2.07-8.51-3.91-17.18-7.05-25.37-3.79-9.87-9.9-16.8-17.86-23.56a54.42,54.42,0,0,1-13.5-16.44c-7.73-36.24-13.88-68.89-15.56-87.46,2.42,3.91,14.49,29.22,17.34,36.82,3,8.06,3.92,16.67,7,24.69.62,1.62,1.3,3.21,2,4.79,9.9,26,33.14,61.58,55.43,76.21,1.88,4.46,3.63,8.77,5.15,12.84,2.17,10.33,2.07,21.17,1.84,31.62"/><path class="cls-4" d="M545.62,384.83c-29.73-19.52-61.16-76.24-60.41-97.92,0-.68,14,11.94,27.25,29.64,12.26,23.17,24.39,47.53,33.16,68.28"/><path class="cls-11" d="M467.42,211.86c.1-1.82-87.32,61.47-89.12,65.11-1.59,3.21.11,8.34.57,11.47q1.65,11.13,3.29,22.25c.13.88,87.68-26.59,85.1-26-1.38.32-.71-57.43.16-72.83"/><path class="cls-10" d="M505.42,87c-9.71-17.5-27.11-25.43-44.59-33.43-19.36-8.86-38.47-14.37-59.92-11.68-10.89,1.37-22.53,4-31.19,10.62-9.57,6-19.75,18-17.83,29.35.22,1.32,39.53-2.83,50.67,4.81,11.34,7.79,61.55,135.29,64,140.58,4.08,8.86,10.1,6.53,16.85,1.42,16.77-12.7,24.8-33.7,29.28-53.57s-2.53-79.59-7.26-88.1"/><path class="cls-7" d="M507,174.82c-3.19-8.49-9.47-14.33-16-20.34-7.91-7.3-15.55-15.51-24.21-21.93-9.05-6.72-21.48-6.73-29.3-15.2-3.41-3.69-5.76-8.24-9.18-11.92A53.49,53.49,0,0,0,417,96.63c-10.87-6.71-36.4-17.9-35.27-16.54a174.24,174.24,0,0,0,22.54,22.34q12.66,12.12,24.3,25.24c10.54,12,18.41,22.76,21.09,38.77.76,4.53,1.56,8.33,4.86,11.67.62.63,1.25,1.2,1.89,1.75-7.9,52.52,5.85,79.72,10,82.64,3.42,2.39,38-45.57,41.77-61.1A45.54,45.54,0,0,0,507,174.82"/><path class="cls-12" d="M496.24,846.81h0c-1.28,0-95.94.9-167.12,1.5,2.48-13.89,4.17-27.87,3.39-42a154.15,154.15,0,0,0-9.23-44.36c-5.1-13.95-51.23-142.68-52-141.17-.16.31-.32.62-.47.94,17.74-86,44.89-201.67,67.55-249.19,11.12-23.33,32.7-38.83,54.67-52,11.82-7.09,24.11-13.42,36.57-19.29,11.11-5.23,36.25-40.86,36.79-41.07C468.79,266,507.57,370.58,509,373c46,81.19-94.1,295.39-81.34,306.7C488,733.24,497,826.92,496.24,846.81"/><path class="cls-10" d="M432.41,293c-10.07-5.54-23.94-.94-34.84,1.23-.11-4.8-.06-9.59.09-14.38,10.86-7.73,26.66-31.2,25.32-30.41-7.27,4.26-38.71,14.7-45.35,19.62-7.95,5.89,4.84,47.25,8.12,49.56,2.42,1.72,47.79-25,46.66-25.62"/><path class="cls-1" d="M467.69,209.21a180.1,180.1,0,0,0-14-49.11,203.14,203.14,0,0,0-17.38-39c-7.53-13.28-17.25-25.49-30-34.08-11.38-7.66-26.86-13.44-40.69-10.21-13.26,3.09-25.19,15.4-30.91,27.38-6.95,14.57-2,31.82-3.18,47.36-.81,10.64-3.18,20.6-5.84,30.86-2,7.56-1.52,13.74.15,21.31,3.95,17.86,6.69,36.73,12.2,54.17,3.81,12,14,16.48,26,16.54,38.7.19,103.76-64.29,103.63-65.26"/><path class="cls-12" d="M362,197.08c-.55-3.31-18.14-47.74-24.64-51.45-1.16-.66-13.64,58.91-12.63,58.67,1.63,4.06,4.42,9.64,8.43,8.3,3.11-1,26.54-5.77,27.5-7.3a11.89,11.89,0,0,0,1.34-8.22"/><path class="cls-2" d="M350.44,223.6c-4.16-1.71-6.72-.34-10.65-1.11-3.24-.64-6.47-3.51-9.81-1.53s-3.78,7.07-3.41,10.49a1.64,1.64,0,0,0,2,1.56c1.94-.45,3.87-.82,5.81-1.11a195.5,195.5,0,0,0,26.85,3.39c1.41.08-6.18-9.78-10.83-11.69"/><path class="cls-3" d="M413.17,159.22c-8.46-8.57-16.82-22-29.93-22.19-9.63-.11-28.71,1.22-33.14,11.54a1.65,1.65,0,0,0,.22,1.7,3.43,3.43,0,0,0,.81,2.78c3.12,3.9,9.56-1.07,12.46-2.17,7.93-3,20.6-6.12,28.82-3.89,7.45,2,12.48,9.75,18.37,14.41l.1.11v0c.11.09.21.19.32.27,1.49,1.13,3.21-1.27,2-2.54"/><path class="cls-13" d="M451.39,155c-4.64-27.8-39.47-84.14-77.06-79.09-11.9,1.6,75.55,107.94,76.54,107.34,6.06-3.72,2.87-21.92.52-28.25"/><path class="cls-7" d="M337.35,246.13c-4.08-13.29-7.73-27.9-7.38-41.86.34-13.63,4.3-26.81,7.84-39.87,3.19-11.82,5.92-23.63,6.71-35.89.93-14.57-2-45-2.68-45.25a18.65,18.65,0,0,0-9-1.31c-.95.08-10.92,27.54-13.46,37.84-2.86,11.58-.78,23.8-3.87,35.15s-9.88,21.83-13.18,33.36a107.7,107.7,0,0,0-4.43,31.2c.15,10.56,2.58,20.7,4.58,31a178,178,0,0,1,3.32,37.71c-.26,12.45-2.71,24.87-2.06,37.34s4.44,24.27,8.22,36c.45,1.39,43.4-26.71,45.94-52.25.92-9.3-16.75-50.74-20.57-63.17"/><path class="cls-3" d="M489.31,73.35A38,38,0,0,0,469.58,65c-8.49-.93-94.72,5-102.21,6.8-1.82.43,19.88,5.19,29.26,8.47,6.22,2.17,11.83,4.38,18.3,2a1.66,1.66,0,0,0,1.13-2L415.82,79l20.94,3.77c4.89.88,11.07,3,16.12,2,5.61-1.09,8.23-5.85,7.44-10.84,6.81,1.51,13.82,3.47,20.67,4,3.48.29,5.81,0,8.32-2.36a1.62,1.62,0,0,0,0-2.29"/><path class="cls-3" d="M348,283.12c-.42-1.64-9.1,16.5-12.1,24.75-2.5-9.26-18-61.27-22.13-67.89-.77-1.24-3,78.08,4.1,107.59.26,1.1,30.23-26.68,32.9-30.47,6.26-8.88-.25-24.27-2.77-34"/><path class="cls-6" d="M320.86,214.41c-1.33-2.21-3.91-2-5.51-.28-3,3.18-1.05,23.35,2.22,27a1.63,1.63,0,0,0,2,.25c3.32-1.91,2.25-25.41,1.33-27"/><path class="cls-14" d="M414.62,813.77c-9.47,3.28-23.4,19.24-15.26,29.47,9.56,12,26.35,18.36,34-8.87,3.21-11.36-4.88-25.39-18.76-20.6"/><path class="cls-14" d="M406.78,754.69c4-4.38,7.19-15.07-.36-17.9-2-.75-4.7-.41-7.31.62,6.07-17.37-9.93-20.06-11.77-18.7.73-2.5,1.42-5.56.85-8a3.19,3.19,0,0,0-1.3-2,9.32,9.32,0,0,0,.45-2.46c.17-3.17-.56-6.69-3.45-8.48-2.62-1.64-5.58-.82-7.56,1.39s-3.46,5.58-2.76,8.58a6.16,6.16,0,0,0,4.57,4.63c-.06.13-2.54,3.94-2.8,4.2a6.76,6.76,0,0,0-7.53-1.09,7.44,7.44,0,0,0-1.69,1.13c1.61-2.38,2.66-16.16-9.86-15.41-6.9.41-3.67,14.1,2.21,17.37,2.47,1.37,4.55,1,6.14-.27a9.59,9.59,0,0,0-1.21,7.34c1.08,4.74,5,8.25,9,10.77,3.1,2,7.55,3.65,10.77,1a6,6,0,0,0,1.37-1.69,12.77,12.77,0,0,0,3.43,5.54,9.75,9.75,0,0,0-8.15,0c-2.15-1.65-5.2-.69-6.65,1.85-2,3.53-2.52,10.31-.78,14,1.9,4,6.94,5.38,11,4.46,4.41-1,9-9.28,9-9.46a39.49,39.49,0,0,0,4.78,4.94c-.41.09-8.63,6.35-8.83,7.75-.14,1,5.45,12.47,11,12.22,7.69-.35,8.75-12.83,4.89-17.66a7.06,7.06,0,0,0-1.7-1.55,12,12,0,0,0,4.32-3.17"/><path class="cls-14" d="M402,800c-.21-1.81.14-14.62-17.57-16.4-5.18-.52-9.7,7.49-13.5,13a14.4,14.4,0,0,0-4.44-6.79c2.75-3.52,2.38-9.6-.09-13.35a13.11,13.11,0,0,0,4.47-3.84c1.11-1.49,5.47-8.1-4.05-21.21-1.73-2.38-5.84-1.11-8.57.05.55-.43-.29-16.25-1.66-16.83,4.17-2.64,2.16-13.49-4.11-16.91a7,7,0,0,0-9.23,2.87c-2,3.57-.66,8.39,1.58,11.53a9.59,9.59,0,0,0,4.3,3.35c-1.93,1-4.39,2.47-4.26,4.4,1.13,17.17,11.54,12.53,11.47,12.57a14.91,14.91,0,0,0-5.85,17.49c-3.86,2.56-5.15,7.29-5,11.71.13,3.3.45,6.61,2.75,8.36-.43.1-.85.17-1.29.31-7.13,2.3-13.35,8.75-17.16,15-8.75,14.34-3.47,32.12,14.82,34,7.33.77,19.6-18.57,22.11-23a26,26,0,0,0,13.32,11.9c9.2,3.21,15.74-3.27,18.79-11.4,1.93-5.13,3.82-11.3,3.15-16.84"/><path class="cls-14" d="M337.54,784.67c3.64-3.53,6.21-8.78,4.19-13.81-.66-1.63-13.81-7.22-15-6.78,2.54-4,2.71-10.23.54-13.79-3.7-6.09-12.22-8.36-16.69-2-3.32,4.74-3.09,11.08.46,14.57-20.59,5.49-13.34,18-11.17,20.83s6.63,2,9.27.69a12.74,12.74,0,0,0,4.15-3.51c.05,0,.92,3.74,1.11,4.18-.18,0-4.37.15-6.1,1.6-3.47,2.9-3.63,15.16-3.6,15.41-12.94,3.81-5.31,21.15-3.33,22.58,8.65,6.27,20.23-7.93,16.37-16.28,1.85-.51,6.37-11.54,6.39-14.16a10.94,10.94,0,0,0-.52-3.53,22.53,22.53,0,0,0,14-6"/><path class="cls-5" d="M486.64,808.72c-2.72-7.26-9.95-10.65-15.47-15.33-2.18-3.22-5.71-26.35-6-27.51-1.22-5-3.71-9.67-5.84-14.28l-16.54-35.8c-4.71-10.21-9-20.94-16-29.83-7.16-9.05-16.48-16.09-23.39-25.38-1-1.32,9,29.62,16.4,42.86a161.18,161.18,0,0,0,12.43,19.11c4.61,6,10.48,11.44,14.09,18.16,3.22,6,3.35,11.35,1.13,17.77-.72,2.06-1.89,3.72-2.17,6-.77,6.3,3.8,12.25,6.93,17.27,4.16,6.68,8.52,13.38,12,20.38,2.55,10.2,1.26,22.21-.05,31.82-4.89,35.79,15.3,27,18.28,26,6.55-2.28,8-13.84,8.53-19.53a74.27,74.27,0,0,0-4.34-31.66"/><path class="cls-6" d="M300.52,171.26C294,182,289.64,193.69,290,206.39c.06,2.08,22.76-29.77,26.09-35.06a105.17,105.17,0,0,0,14.18-36.72c.27-1.43-26.39,31.06-29.78,36.65"/><path class="cls-4" d="M315.29,252.88a1.65,1.65,0,0,0-1.83-.75c-2.57.64-2.7,2-3.48,4.45-2,6.31-4.14,36.89-1.17,43.91.67,1.59,9.33-42.69,6.48-47.61"/><path class="cls-2" d="M344.22,290.72c-.38-.39-25.53,4.17-25,5.9,1.31,3.87,3.35,30.34,4.21,39.63.14,1.48,12.1-22.05,13.53-25.8.93,3.73,4.15,13.75,5,12.23,3.15-5.79,5.61-28.56,2.23-32"/><path class="cls-15" d="M335.05,48.38c-6.57.21-15.94,23.88-16.22,28.42-3.05-.8-5.82,1-8.18,4.19C306.59,86.45,306,93.25,308,99.6a1.63,1.63,0,0,0,2.7.71C322.88,85.38,334.14,69.57,336.67,50a1.63,1.63,0,0,0-1.62-1.62"/><path class="cls-4" d="M455.25,66.52c1.67-8.9-12.45-11.17-17.08-4.08-1.49-4.53-3.74-8.13-10.12-8.85-8.35-1-14.31,6.2-15.4,13.86-.11.79,19.64,1,21.42,1,.14,2.22.3,4.31.84,5.1,1.48,2.17,4.14,2.78,6.6,2.56,1.45-.14,13.37-7.65,13.74-9.64"/><path class="cls-4" d="M504.14,142.19c-1.17-1-5.65-2.2-6.3-3.24-1.32-2.09.75-4.45,0-6.83-.79-2.63-2.91-3.9-5.3-4.55,4.39-2.93,9-7.65,5.33-12.48-4.13-5.4-12.61,1.71-16.92,5.76a11.79,11.79,0,0,0-5-5.67c-3.15-1.92-10-3.9-13.48-2.24-5.67,2.73-1.07,7.89,3.88,11.73-2-.25-7.78.32-7.77,1.19.11,9.1,4.39,14.45,13.75,16.13,2.28.41,4.92-.21,6.09-1.61,7.6,6.24,12.81,17.4,22.31,20.11,3.6,1,8.28-1.23,7.37-4.47a5.18,5.18,0,0,0,1.12-2.55c.75-4-2.31-8.79-5.14-11.28"/><path class="cls-16" d="M492.18,183.82c-2.73-1.75-5.62,1.16-7.53,2.79-4.52,3.86-16.58,20.13-14.59,22.08,2.44,2.38,9,2.79,12.18,2.08a13.93,13.93,0,0,0,8.18-5.75c2.48-3.53,4.44-19.47,1.76-21.2"/><path class="cls-3" d="M472.61,169.94c-3.13-14.33-38.32-61.46-49.44-69.44-.92-.66,31.11,82.57,32.47,82.78,2.67.41,17.18-12.4,17-13.34"/><path class="cls-4" d="M287.68,560.69c.22-1.82-2.76-2.18-3.17-.43-.66,2.75-14.74,52.9-15,75.41,0,2.09,7.21-24.83,11.37-36.78,1.5,8.27,7.91,26,7.61,24a234.3,234.3,0,0,1-.85-62.15"/><path class="cls-7" d="M467.56,93.4c-.82,0-2.89,11.1-4.74,15.78a31.37,31.37,0,0,0-7-15.29c-1-1.24-3,23,.84,25.69,3.34,2.29,8-.33,10.66-2.53a16.94,16.94,0,0,0,6.13-13.72c-.16-3.55-1.44-10-5.92-9.93"/><path class="cls-3" d="M488.82,81.66c-1.21-1.63-4-.12-2.79,1.64,2.29,3.4,15.83,29.9,16,32.54a1.62,1.62,0,0,0,3.24,0c.76-9.27-14.23-31.18-16.45-34.18"/><path class="cls-5" d="M433.06,172.49c-19,2-66.24,10.75-65.18,11.17,13.28,5.19,23.52,9.32,37.92,7.11,11.48-1.77,28.53-18.41,27.26-18.28"/><path class="cls-5" d="M442,232.62c-11.76,7.41-21.41,14.43-33.37,21.51-23,13.59-65,15.35-63.38,16.58,5.26,4,19.8,6,39.31,1.86,10.32-4.05,59-37,59.4-37.41,1.4-1.2-.42-3.52-2-2.54"/><path class="cls-3" d="M505.67,130.35a1.66,1.66,0,0,0-2,1.13c-1.42,3.68,1,11.5,5.22,13a0,0,0,0,1,0,0c.6.51,3-.05,3.53-.33.93-.07-3.23-12.64-6.78-13.81"/><path class="cls-2" d="M337,159c-.53-.88-2.95-10.6-3.61-9.21-6,12.65-8.63,22.67-18.45,45.34-.65,1.49,26.57-28.66,22.06-36.13"/><path class="cls-12" d="M384.45,75.93c-8.84-3.69-23.68,1.33-29.63,4,10.21-7,15.26-28.22,13.56-27.71-15.06,4.47-28.07,18-37.36,30.23-6.62,8.69-13.58,24.49-2.19,32.37a1.62,1.62,0,0,0,2.21-.59c3.43-7.49,7.17-15.29,12.74-21.11,10.68-4.67,42-16.67,40.67-17.24"/><path class="cls-6" d="M465.88,259.36c-.26-1.62-60,37.86-72.16,40.94-11.48,2.9-24,1.91-34.85,6.79-9.36,4.2-17.67,11.21-24.92,18.23a129.09,129.09,0,0,0-19.84,24.48c-6,9.6-49.55,82-54.84,93.63a1.55,1.55,0,0,0,0,1.3c-10.94,21.17-75.66,134.94-78.63,160-2.27,19.15,35.95,2.49,43.08-2.28,10.12-6.77,142-161.57,147.72-164.91,5.2-3,11.35-4.62,16.79-7.25a142.78,142.78,0,0,0,17.52-10.19A233.38,233.38,0,0,0,436,396c18.14-17.2,26.77-41.57,31.11-65.4,2.32-12.75,1.24-56.17-1.24-71.28"/><path class="cls-5" d="M383.09,432.55c-2.46-.47-10.95,4.38-13.33,3.61-4-1.29-2.79-7.86-3.24-8.33.11-1.63-79.94,103.06-85.75,111.93-1.13,1.75,17.37-16.29,23.54-24.43,7.57-10,77.32-80.61,75.49-81"/><path class="cls-2" d="M484.53,165.38c-3-4.42-7.85-6.37-13-4.73-8.37,2.64-29.19,28.29-26.91,46.2.65,5.1,6.56,12,12.22,12.86,6.33,1,13.76-4.41,17.42-9.08,5.52-7,8.29-17.15,11.08-25.55,2.16-6.5,3.36-13.71-.78-19.7"/><path class="cls-6" d="M473.92,182.09c-2.63-2.41-4.93-.88-7.1.9,0-1.4-2.82-4.77-3.65-4.17-.55.29-3.86,14-4.36,19.94-.13,1.61,15.91-15.93,15.11-16.67"/><path class="cls-3" d="M396.73,36.69c-.53-.76-18.29,6.55-19.69,8.11.7-2.79-2-7.92-2.49-7.79-6.71,1.61-13,7.84-12.32,15.24.2,2.19,1.07,4.57,3.37,5.21,1.2.33,22.37-1.7,26-5.92,2.74-3.19,8.12-10.52,5.11-14.85"/><path class="cls-1" d="M370,307.78a90.57,90.57,0,0,0-28.65,14.32c-17.4,13.15-30,31.48-41.69,49.59-7.15,11.05-14.36,22.11-20.57,33.72-5.81,10.87-51.09,93.69-55.76,106.53-.82,2.27,95.55-39.36,131.42-74.85,9.35-9.25,17.6-17.93,29.88-23.27,10.42-4.55,19.94-9.06,27.74-17.57,14.44-15.77,20.84-36.93,29.18-56.16,11.28-26,25.77-53.35,26.22-82.44,0-1.69-85.8,46.5-97.77,50.13"/><path class="cls-3" d="M372.15,333.87c-12.93,10.66-25.63,21.88-37.84,33.35-23.95,22.47-41.49,51.31-59.1,78.78-10.46,16.32-29.6,52.39-28.3,51.66a344.93,344.93,0,0,0,50.26-34.57c16-13.24,29.73-29,49.18-37.25,17.18-7.31,34.55-12.14,48.61-25.11,12.93-11.94,22.19-27.31,30-42.9,10.57-21,19.77-42.76,28.74-64.48.5-1.21-76,35.94-81.59,40.52"/><path class="cls-14" d="M183.44,614.93c35-1.25,51.27-19.72,70.11-38.46A288.84,288.84,0,0,0,305,507c.6-1.13-123.45,108-121.51,108"/><path class="cls-10" d="M394.47,315.35c10.28-2.06,16-11.09,23.46-17.77,10.25-9.24,23.18-14.52,34.06-22.85,8.06-6.18,15.08-13.92,18.08-24,3.15-10.56,1.73-21.76-.16-32.49,1.09-1.29-77,97.4-75.44,97.09"/><path class="cls-12" d="M476.09,157.22c-15.27-21.08-38.7-34.78-60.34-49-11.17-7.34-21.13-18.88-32.83-25.34s-30.35.68-44.17,2.34c-.43,0,9.5,9.39,31,20.66C410.42,127.2,476.09,157.22,476.09,157.22Z"/><path class="cls-12" d="M305.86,448.52c15.91-5.89,83-45.25,89.92-50.16,11.66-8.25,33.89-65.85,32.94-70.16.68-.91-124.3,120.86-122.86,120.32"/><path class="cls-1" d="M517.39,372.81c-7.12-16.86-39.08-83.16-42.4-89.9-.71-1.44-12.21,98.9-19.67,120.73-11.44,33.46-13.91,68.65-17.84,103.54-2.07,18.37-4.72,36.7-9.44,54.58C422.24,520.43,423.89,435,423.1,436c-22.58,27.87-46.44,57.73-51.34,94.45-4.72,35.37,16.22,68,13.45,102.92-15.7-25.89-70.45-55.48-70.46-54.57-.35,52.93,46.61,96.74,95.59,108,.48.11,59.34-95.62,78.91-147.73,10.26-27.29,20.66-54.89,28.86-82.89,8.16-27.83,10.8-56-.72-83.27"/><path class="cls-10" d="M329.12,848.32l-23.11.19c-31.66.26-54.43.43-54.45.38,2.71-21.49,3.54-99.63,11-170.09,2.14-20.17,4.82-39.71,8.24-57.11a3.76,3.76,0,0,1,.47-.94c.78-1.51,46.91,127.22,52,141.17a154.15,154.15,0,0,1,9.23,44.36C333.29,820.45,331.6,834.43,329.12,848.32Z"/><path class="cls-14" d="M306,848.51c-31.66.26-54.43.43-54.45.38,2.71-21.49,3.54-99.63,11-170.09C266.8,692.72,291.24,782.37,306,848.51Z"/><path class="cls-3" d="M350,667.36c-2.06-4.75-5.36-10.88-11.36-10-.65.1,13.61,31.64,13.79,30.41a36.83,36.83,0,0,0-2.43-20.4"/><path class="cls-6" d="M326.39,515c-3.92,7.5-4.55,37.77.5,34.18,2.7-1.92,16.91-37.54,17.25-46.66,0-1.12-17.24,11.51-17.75,12.48"/><path class="cls-10" d="M319.36,444.27a62.51,62.51,0,0,0-14.11-3.87c7.51-1.25,19.76-4.76,13.55-12.85-3.56-4.65-11.89-7-17-9.25a192.4,192.4,0,0,0-22.06-7.89c11.45-10.85,23.2-25.43,14.49-41.55-.51-.94-28.69,36.59-37.9,38.34-4.36.83-7.49.9-10.23,5.07-3.05,4.64-2.22,10.13-.43,15.05-6.45,1.66-10.46,6.81-11.35,13.54-1.3,9.92-3,17.67-1,27.5-12.29,1.84-14.34,22.83-8,24.86,2.72.87,4.58,0,6.84-1.38,8-4.95,14-7.83,23.66-8.12,8-.25,16,1.1,24,1.37,3.63.13,9.07.79,12.22-1.65,4.06-3.15,2.53-6.27-.42-8.32h7.61c4,0,9.09.47,12.63-1.84,7.58-4.94-3.19-9.86-7.3-11.49a1.51,1.51,0,0,0-.28-.05,50.74,50.74,0,0,0,13.82-2.63c3.06-1.07,9.88-3.42,10.15-7.48.24-3.59-6.37-6.29-8.88-7.37"/><path class="cls-5" d="M291.22,395.29a1.54,1.54,0,0,0-2.55-.75c-.26.06-10.57,9.71-15.7,14.12-1.35,1.16.14,2.95,1.57,2.71a20.48,20.48,0,0,0,11.19-6.1c2.19-2.26,6.28-6.58,5.49-10"/><path class="cls-5" d="M305.51,438.77c-8.54-2.92-17-5.22-25.44-8.58-7.25-2.9-14.24-4.49-22-2.69-1.81.42-1.36,3.13.44,3.18a68.51,68.51,0,0,1,26.53,5.85,77.84,77.84,0,0,0,8.46,3.47,1.62,1.62,0,0,0,.48.29A25.94,25.94,0,0,0,305.08,442a1.63,1.63,0,0,0,.43-3.18"/><path class="cls-5" d="M306,457.53c-11.13,1.19-46.35-13.42-53.51-12-.52.11-1.2,1.28-1.17,1.4,1.56,5.69,42.22,16.1,54.19,14.42.53-.07,2.27-4,.49-3.8"/><path class="cls-5" d="M289.13,473.14c-10.41-3.44-43-9.35-48.26-8.73a1.62,1.62,0,0,0,0,3.24c13.74,1.24,45.51,8.32,47.4,8.61a1.62,1.62,0,0,0,.86-3.12"/><rect class="cls-8" x="92.42" width="595.28" height="841.89"/><path class="cls-10" d="M634.08,857.23c2.62,5.48,3.2,19.2,16.27,15.48-21-35.25,37.2-55.25,53-78.84,26.25-39.26,10.3-81.31-23.47-110-19.32,10.93-29.55,32.3-46.87,45.73-14.63,11.36-40.44,35.72-60.23,28,24.27-15.92,46.52-36.87,60.1-63.46,13.88-27.18,15.12-42.39-8-62.31-10.94-9.44-25.31-15.49-37.11-24.28-19.47-14.52-39.16-31.56-60.66-43-11.81-6.27-19.23-14.11-26.91-5.15-5.85,6.82-5.15,18.26-8.86,25.79-4.23-24.9-69.91,3.3-85.71,4-20.65,1-121.55-43.37-131-42.79,11.81,24.8,101.53,99.28,130.73,115.3,28.24,15.5,56.79,27.68,81.77,48.54,12.41,10.37,26.11,18.13,38.39,28.52,8.48,7.16,36.76,28.47,36.2,39.53-12.87-1.22-26-12.21-36.86-19.43-16.37-10.91-38.77-28.72-57.26-34,4.79,45.67,31.64,67.14,75.05,80.91,21.69,6.89,42.44,10.73,61.69,24,9.06,6.23,29.76,27.52,29.76,27.52"/><path class="cls-1" d="M619.56,776a94.47,94.47,0,0,0-6.83-6.89c-2.35-2.16-3-4.34-4.3-7.05a4.56,4.56,0,0,0-2.61-2.69c-3.59-1-5.55-2.82-8-5.48-3.31-3.58-6.6-6.83-11-9-3.61-1.73-7.09-1.2-11-1-5.58.33-4.84-4.55-8.36-6.94-3.71-2.52-9-2.37-13.26-2.21a116.28,116.28,0,0,0-14.28,1.89c-5.75,1-11,4.31-16.17,6.83-3.31,1.63-7,3.32-10.77,2.61-2.16-.41-4.17-1.46-6.4-1.6-5.53-.33-11,3.84-15.61,6.36s-9.14,2.15-14.08,3.23-8.82,5.12-12.26,8.7C456.75,771,445,773.59,439.38,784c-4.64,8.65-3.91,18.69-.76,27.95-2.06,6.12.15,20.75.67,19.73.93-1.81,12.12-19.24,15.78-23,6.4-6.61,14.8-13.68,24.54-10.94,3.64,1,7,2.47,10.75,2.93,4.78.58,9.83-.37,14.58-.89a47.72,47.72,0,0,1,16.08.67c5,1.14,9.84,3.1,14.78,4.51,9.69,2.76,19.76,3.62,29.55,5.93s18.36,7.7,28,10.2c16.45,4.23,29.89-11.35,45.78-12.4.54,0-11.24-23.21-19.61-32.66"/><path class="cls-3" d="M625.21,801.28a96.49,96.49,0,0,0-39-2.37c8.4-6.56,29.39-15.6,28.3-15.57-10.16.28-19.21,4.82-28.65,8.06-8.12,2.79-16.07.13-24.3,0,5.38-6.11,13.71-9,21.35-11.08,8-2.18,25.2-6.2,24.19-6.2-11.62,0-23,.82-34.3,3.84-5.61,1.51-10.87,3.25-16.7,3.73a89.43,89.43,0,0,1-14.9-.49c-1.82-.15-3.63-.21-5.43-.23,15-5.71,41.81-25.72,40.83-25.34-14.55,5.63-52.41,23.68-57.3,25.8-.29.12-16,1.56-18.27,1.44,1.08-.67,2.14-1.35,3.14-2,5.48-3.55,64.48-40.16,63.41-40.09C547,742,508.3,772.61,503.76,775.44a30.42,30.42,0,0,0-8.36,7c-2.09-.16-4.17-.32-6.25-.39-2.51-.09-5-.18-7.48-.35,0-.07,5.63-9.43,8.89-12.67,4.29-4.28,9-8.16,13.59-12.07,3.16-2.68,9.09-10.1,8.44-10.06-9.47.55-15.52,8-20.73,15.12-4.72,6.45-9.95,15.48-18.09,17.36,1.09-5.59,3.88-18,3.15-17.53-6.44,3.85-10.18,10.72-12.45,17.74-5.53.18-16.19,6.33-15.24,6.18a77.49,77.49,0,0,1,24.08-.34c7.34,1.13,13.18,4.52,19.82,7.45,5.19,2.28,10.14,1.54,15.54.64,8.33-1.39,16.05,1.87,23.41,5.39,5.38,2.56,52.49,22.25,63.25,21.47.83-.06-10.42-8.78-13.85-14.18,14.68.21,44.67-4.67,43.73-4.93"/><path class="cls-5" d="M570.42,813.89c-24.83-18.5-44.76-15.42-55.51-18.91-6.24-2-14.48-5.82-21.36-4.71.43-4.19.46-10-4.88-10.15-4-.12-12,5.55-13.2-.66a.94.94,0,0,0-1.36-.56c-4.24,2.27-9.54,8-14.31,3.85-2.3-2-2-6.57-2.35-9.3-.51-4.47-2.07-8.45-6.78-9.64-4.22-1.06-8.6,2.08-11.67,4.53-5.09,4-9.19,9.45-12.9,14.75-5.63,8-13.71,20-9.38,30.1,3,6.87,14.88,14,20.34,21.94-2.12,6-6.77,18.26-7,23.12,0,.84,4.22,2,4.78,1.45,1.44-1.35,11.12-26.12,16.34-30.43a38.34,38.34,0,0,0,10-13.24c2.07-4.2,4.86-13.43,9.78-15.06,1.29-.43,3.13.35,4.39.67a42.67,42.67,0,0,0,7.13,1c7.29.59,14.64.44,21.95.56a116.84,116.84,0,0,1,21.65,2.44C532.94,807.05,570.42,813.89,570.42,813.89Z"/><rect class="cls-8" x="92.42" width="595.28" height="841.89"/><path class="cls-14" d="M505.25,185.44C501,167.1,484.8,113,456.7,125.05c-1.39-7-6.15-11.94-12.05-16.14-9.63-6.85-52-31.6-62.33-33.77-1.85-.39,18,22.32,30.73,26.78,3.17,1.12,6.51,1.19,9.71,2.19,5.09,1.59,8.05,5.59,11.13,9.91,3.79,5.3,7,11.12,11.75,15.68,4.52,4.38,10.24,6.61,15.73,9.48a69.52,69.52,0,0,1,18.76,14.42,72.09,72.09,0,0,1,12.8,19.8c2.49,5.6,12.63,13.35,12.32,12"/><path class="cls-6" d="M305.45,614.79c-.06.83-48.77,132.24-47.69,131.82,1.8-.7,35-25.22,40.88-42.82a120.61,120.61,0,0,0,15.1,32.1c4.31,6.42,23.82,16.12,25.51,16.2.82,0-33.66-139.37-33.8-137.3"/></g></g></svg>