<svg xmlns="http://www.w3.org/2000/svg" viewBox="0 0 476.94 723.88" style=""><defs><style>.cls-1,.cls-2{fill:none;stroke-miterlimit:10;stroke-width:5px;}.cls-1{stroke:#e1343a;}.cls-2{stroke:#fbe000;}</style></defs><title>RightPath</title><g id="Layer_2" data-name="Layer 2"><g id="F2"><path class="cls-1 yWOamigp_0" d="M352.65,2.5A61.43,61.43,0,0,0,335.4,8.86c-4.66,2.68-9.15,6.62-10.34,12.09a15.76,15.76,0,0,0,1.58,10.15,20.48,20.48,0,0,0,.16,7.45c0,.15,7.32-6.16,10.95-9.13a43.76,43.76,0,0,0,4.51-4,24.65,24.65,0,0,0,3.06-4.18C348.73,15.48,352.8,2.47,352.65,2.5Z"></path><path class="cls-2 yWOamigp_1" d="M395.25,88.07c-5.62,14.54-10.07,29.09-17.61,42.81-8.83,16.06-18,31.94-27,47.89-8.3,14.7-16.78,29.3-23.28,44.9-6.66,16-11.59,32.63-16,49.33-1.87,7.09-4.06,14.26-5.45,21.47-1.58,8.26-2.15,16.65-3.08,25-1.78,15.75-7.63,29.73-12.27,44.7-2.79,9-3.45,17.46-1,26.51,5.16,19.17,15.78,37.94,28.46,53.1,8.13,9.72,21,21,34.08,18.52-1,5.21-4.64,11.19-6.11,14.85-2.85,7.14-.11,23.17.43,22.53,15.71-18.78,29.66-42.21,33.26-66.77,2-13.55-1.79-27.1-2.25-40.61-.6-17.2,9.31-30.16,16.4-45,3.6-7.52,5.84-15.81,8.79-23.62,3.34-8.86,6.91-17.63,10.54-26.37,7-16.93,13.68-33.9,23.74-49.3,4-6.19,7.8-12.43,10.34-19.4s3-14.67,3.29-22.07c.26-7.18.27-14.34,1.48-21.45,1.4-8.18,4.71-16.11,7.84-23.76C468.21,141,478,119.21,473.13,96.64c-3.7-17-11.44-57.14-27-62.12C413.48,24.05,400.11,75.52,395.25,88.07Z"></path><path class="cls-2 yWOamigp_2" d="M357.19,169.08c-5.91,8.9-7.76,19.47-9.2,29.87-1.73,12.51-3.44,24.35-7.4,36.39-3.54,10.77-7.36,21.39-9.35,32.58-2.21,12.42-1.08,25.17-.48,37.69a336.49,336.49,0,0,0,4,39.57c1.94,11.47,13.4,76.4,25.74,92.53.63.81,18.55-95,14.22-112.6-4.64-18.87-12.95-38.13-12.19-57.86.7-18.09,5.71-35.81,7.49-53.81C371.51,198.07,357.63,168.41,357.19,169.08Z"></path><path class="cls-2 yWOamigp_3" d="M417.78,84.55c-10.76,14.5-31.36,92.13-33,101-3.8,20.09-.83,41.29,1.58,61.37,1,8.27,3.28,15.88,5.55,23.87.88,3.11,1.83,6.49,2.45,9.93-3.79,15.2-6,30.8-2.37,46.18.23,1,18.82-52,23.08-63.45,8.09-21.83,21.4-41.2,23.91-64.8,1.06-10,.27-20.21-1.21-30.16-1.44-9.69-2-19.5-3-29.26C432.91,121,418.2,84,417.78,84.55Z"></path><path class="cls-1 yWOamigp_4" d="M363.32,705.26c2.62,5.48,3.2,19.2,16.27,15.49-21-35.26,37.2-55.25,53-78.85,26.24-39.25,10.3-81.3-23.47-110-19.32,10.93-29.55,32.3-46.87,45.74-14.64,11.35-40.45,35.72-60.24,28,24.27-15.93,46.53-36.88,60.1-63.46,13.89-27.19,15.13-42.4-8-62.32-10.94-9.44-25.31-15.49-37.11-24.28-19.48-14.51-39.17-31.55-60.67-43-11.8-6.27-19.22-14.1-26.9-5.15-5.85,6.82-5.16,18.26-8.87,25.79-4.22-24.89-69.9,3.3-85.7,4-20.65,1-121.55-43.36-131-42.79,11.81,24.81,101.53,99.28,130.72,115.3,28.25,15.5,56.8,27.68,81.77,48.54,12.42,10.37,26.12,18.14,38.4,28.52,8.48,7.16,36.75,28.48,36.19,39.53-12.87-1.21-26-12.2-36.85-19.42-16.38-10.92-38.77-28.72-57.26-34,4.79,45.66,31.63,67.14,75,80.91,21.7,6.88,42.45,10.72,61.7,24C342.62,684,363.32,705.26,363.32,705.26Z"></path><path class="cls-1 yWOamigp_5" d="M348.79,624a96.36,96.36,0,0,0-6.82-6.89c-2.35-2.15-3-4.34-4.3-7a4.56,4.56,0,0,0-2.62-2.68c-3.59-1-5.55-2.82-8-5.48-3.31-3.59-6.6-6.83-11-9-3.61-1.73-7.09-1.21-11-1-5.59.32-4.84-4.56-8.37-7-3.7-2.52-9-2.37-13.26-2.21a116.39,116.39,0,0,0-14.27,1.9c-5.75.95-11,4.31-16.17,6.83-3.31,1.62-7,3.31-10.77,2.6-2.16-.41-4.18-1.46-6.4-1.59-5.53-.34-11,3.83-15.61,6.35s-9.14,2.16-14.08,3.23-8.83,5.13-12.27,8.71C186,619,174.18,621.62,168.62,632c-4.64,8.66-3.91,18.7-.76,28-2.06,6.12.14,20.75.67,19.73.93-1.8,12.12-19.23,15.78-23,6.4-6.62,14.79-13.69,24.54-10.95,3.63,1,7,2.47,10.74,2.93,4.79.59,9.84-.37,14.59-.89a48,48,0,0,1,16.08.67c5,1.14,9.83,3.1,14.78,4.51,9.68,2.76,19.76,3.62,29.54,5.94s18.36,7.7,28.05,10.19c16.45,4.23,29.88-11.35,45.77-12.39C369,656.65,357.17,633.48,348.79,624Z"></path><path class="cls-1 yWOamigp_6" d="M354.45,649.31a96.52,96.52,0,0,0-39.05-2.37c8.4-6.55,29.4-15.59,28.3-15.57-10.15.28-19.21,4.82-28.65,8.06-8.12,2.8-16.06.13-24.29,0,5.38-6.1,13.71-9,21.35-11.07,8-2.18,25.2-6.21,24.18-6.21-11.62,0-23,.82-34.3,3.85-5.6,1.51-10.86,3.24-16.69,3.72a89.35,89.35,0,0,1-14.9-.48c-1.83-.16-3.63-.22-5.43-.23,15-5.71,41.81-25.73,40.82-25.35-14.54,5.64-52.41,23.68-57.3,25.8-.28.13-16,1.57-18.26,1.45,1.08-.68,2.14-1.35,3.14-2,5.48-3.55,64.48-40.16,63.41-40.1-20.56,1.23-59.24,31.88-63.79,34.7a30.53,30.53,0,0,0-8.35,7c-2.09-.16-4.17-.31-6.26-.39-2.5-.08-5-.17-7.47-.34,0-.07,5.63-9.43,8.89-12.68,4.29-4.27,9-8.16,13.58-12.07,3.17-2.68,9.1-10.09,8.44-10.06-9.47.55-15.51,8-20.72,15.12-4.73,6.45-10,15.48-18.09,17.36,1.09-5.59,3.88-18,3.15-17.53-6.44,3.86-10.18,10.72-12.45,17.74-5.53.19-16.19,6.33-15.24,6.18a77.49,77.49,0,0,1,24.08-.34c7.33,1.14,13.18,4.53,19.82,7.45,5.19,2.28,10.14,1.55,15.54.65,8.33-1.39,16,1.87,23.41,5.38,5.38,2.57,52.48,22.26,63.24,21.47.84-.06-10.41-8.78-13.84-14.18C325.4,654.46,355.39,649.57,354.45,649.31Z"></path></g></g><style data-made-with="vivus-instant">.yWOamigp_0{stroke-dasharray:99 101;stroke-dashoffset:100;animation:yWOamigp_draw 3000ms linear 0ms forwards;}.yWOamigp_1{stroke-dasharray:1049 1051;stroke-dashoffset:1050;animation:yWOamigp_draw 3000ms linear 0ms forwards;}.yWOamigp_2{stroke-dasharray:552 554;stroke-dashoffset:553;animation:yWOamigp_draw 3000ms linear 0ms forwards;}.yWOamigp_3{stroke-dasharray:504 506;stroke-dashoffset:505;animation:yWOamigp_draw 3000ms linear 0ms forwards;}.yWOamigp_4{stroke-dasharray:1663 1665;stroke-dashoffset:1664;animation:yWOamigp_draw 3000ms linear 0ms forwards;}.yWOamigp_5{stroke-dasharray:522 524;stroke-dashoffset:523;animation:yWOamigp_draw 3000ms linear 0ms forwards;}.yWOamigp_6{stroke-dasharray:927 929;stroke-dashoffset:928;animation:yWOamigp_draw 3000ms linear 0ms forwards;}@keyframes yWOamigp_draw{100%{stroke-dashoffset:0;}}@keyframes yWOamigp_fade{0%{stroke-opacity:1;}100%{stroke-opacity:1;}100%{stroke-opacity:0;}}</style></svg>