<svg xmlns="http://www.w3.org/2000/svg" viewBox="0 0 205.9 448.64"><defs><style>.cls-1{fill:#ec8677;}.cls-2{fill:#326f4b;}.cls-3{fill:#009748;}.cls-4{fill:#1e9231;}.cls-5{fill:#434394;}.cls-6{fill:#fbe000;}.cls-7{fill:#e44a3c;}.cls-8{fill:#143f93;}.cls-9{fill:#99cec0;}.cls-10{fill:#e3423b;}.cls-11{fill:#c27bb0;}.cls-12{fill:#e14c94;}.cls-13{fill:#f1b3d2;}.cls-14{fill:#a6d7e2;}.cls-15{fill:#6eb566;}.cls-16{fill:#048aa3;}.cls-17{fill:#9887a1;}.cls-18{fill:#f0aac1;}.cls-19{fill:#c8d6d0;}.cls-20{fill:#e3567f;}.cls-21{fill:#a3d4d5;}.cls-22{fill:#00994b;}.cls-23{fill:#00a0be;}.cls-24{fill:#074394;}.cls-25{fill:#00739d;}.cls-26{fill:#c9328d;}.cls-27{fill:#070417;}.cls-28{fill:#d51b0e;}.cls-29{fill:#fff;}.cls-30{fill:#f6dae2;}.cls-31{fill:#e86c5b;}.cls-32{fill:#e45055;}</style></defs><title>WomanMezclao</title><g id="Layer_2" data-name="Layer 2"><g id="F2"><path class="cls-1" d="M66.93,248.39c-11.3,9-64.62,61.41-63.88,61.13,6,2.47,40.28-11.41,45.83-16.34,5.87-5.23,8.42-13.64,11.6-20.61C64,265,67.44,248,66.93,248.39Z"/><path class="cls-2" d="M65.13,255.81A93.61,93.61,0,0,0,51.9,268c-2.8,3-5.24,5.92-6.24,9.87-2.81,3.11-8.63,11-7.72,10.8a26,26,0,0,0,11.85-6.91c-1.37,3.17-3.32,10.83-2.74,10.17,8.6-9.9,13.56-23.35,19.38-35A.87.87,0,0,0,65.13,255.81Z"/><path class="cls-3" d="M150.87,103.87c-.72-.52,8.71,29.4,10.61,37.85,1.77,7.86,5.87,14.35,10.83,20.59,11.33,14.25,26.43,49.62,26.73,48.75,1.92-5.51-2-35.73-13.39-60.92C176.43,129.65,157.91,109,150.87,103.87Z"/><path class="cls-4" d="M82.91,58.15c-4.07,11.17-5.49,22.93-6.37,34.72-.42,5.66-1.19,11.49-.21,17.12,1,5.8,3.23,11.48,5.26,17,1.92,5.2,5.42,16.55,7.68,21.61,2.06,4.58,26.18-7.44,26.39-8.14C114.74,139.45,83.18,57.42,82.91,58.15Z"/><path class="cls-5" d="M108,126.73c-1.18-1.25-16.09-.61-16.23-.61-1.11,0,.19,19.5,1.64,20.42,1.83,1.14,14.61-2,15.84-3.38S109.32,128.14,108,126.73Z"/><path class="cls-6" d="M198.72,193.94c1.16,5.54,1.11,11.35,1,17,0,1-6.93-12.11-10.13-18a88.44,88.44,0,0,1,1.08,33.12c-.14.85-6.93-22.34-9.66-33.47A112.1,112.1,0,0,0,177.22,179c-2-5.29-5.32-9-9.59-12.64a29.19,29.19,0,0,1-7.25-8.83C169.64,201,183.14,254,183.4,254c.95-.19,18.69-21.22,19.56-42.9C203.1,207.29,201.48,201.25,198.72,193.94Zm-33.61-50.38c.33.87.69,1.72,1.09,2.58-1.79-4.66-2.78-8.76-2.67-11.66,0-.36,7.54,6.41,14.62,15.91-13-24.49-26.15-46.51-26.26-46.51a34.49,34.49,0,0,0,.14,6.67c1.3,2.1,7.78,15.68,9.31,19.76C162.94,134.64,163.44,139.26,165.11,143.56Z"/><path class="cls-7" d="M199.71,210.91c0,1-6.93-12.11-10.13-18a88.44,88.44,0,0,1,1.08,33.12c-.14.85-6.93-22.34-9.66-33.47A112.1,112.1,0,0,0,177.22,179c-2-5.29-5.32-9-9.59-12.64a29.19,29.19,0,0,1-7.25-8.83c-4.15-19.45-7.45-37-8.35-46.94,1.3,2.1,7.78,15.68,9.31,19.76,1.6,4.33,2.1,8.95,3.77,13.25.33.87.69,1.72,1.09,2.58,5.32,14,17.79,33.05,29.76,40.9,1,2.4,1.94,4.71,2.76,6.9C199.88,199.48,199.83,205.29,199.71,210.91Z"/><path class="cls-8" d="M196,186.89c-16-10.47-32.83-40.92-32.43-52.55,0-.37,7.54,6.4,14.62,15.91C184.74,162.68,191.25,175.76,196,186.89Z"/><path class="cls-9" d="M154,94.05c.05-1-46.87,33-47.84,35-.85,1.72.06,4.48.31,6.16l1.77,11.94c.06.47,47.06-14.27,45.68-14C153.15,133.32,153.51,102.32,154,94.05Z"/><path class="cls-10" d="M174.38,27c-5.22-9.4-14.56-13.65-23.94-17.95-10.39-4.75-20.65-7.71-32.16-6.26-5.84.73-12.09,2.13-16.74,5.69C96.4,11.73,90.94,18.19,92,24.28c.12.71,21.22-1.52,27.19,2.58s33.05,72.62,34.35,75.46c2.19,4.76,5.42,3.51,9.05.76,9-6.82,13.31-18.09,15.72-28.75S176.92,31.6,174.38,27Z"/><path class="cls-11" d="M175.2,74.17c-1.71-4.55-5.08-7.69-8.58-10.92-4.25-3.92-8.35-8.32-13-11.77-4.86-3.61-11.53-3.61-15.73-8.16-1.83-2-3.09-4.42-4.93-6.39a28.79,28.79,0,0,0-6.08-4.73c-5.83-3.6-19.54-9.61-18.93-8.87a93.23,93.23,0,0,0,12.1,12c4.52,4.33,8.89,8.84,13,13.54,5.66,6.42,9.88,12.22,11.32,20.81.41,2.44.83,4.47,2.61,6.27.33.33.67.64,1,.93-4.24,28.2,3.14,42.8,5.38,44.36,1.83,1.29,20.4-24.46,22.42-32.79A24.37,24.37,0,0,0,175.2,74.17Z"/><path class="cls-9" d="M169.45,434.87h0c-.69,0-51.5.48-89.7.8a98.1,98.1,0,0,0,1.82-22.56,82.85,82.85,0,0,0-5-23.81c-2.74-7.49-27.5-76.59-27.92-75.78-.08.17-.17.33-.25.5C58,267.9,72.54,205.79,84.7,180.28c6-12.52,17.55-20.84,29.34-27.93,6.35-3.8,12.95-7.2,19.63-10.35,6-2.81,19.46-21.94,19.75-22,1.3,3.14,22.11,59.3,22.86,60.61,24.7,43.58-50.51,158.56-43.66,164.63C165,373.91,169.86,424.2,169.45,434.87Z"/><path class="cls-12" d="M135.19,137.63c-5.41-3-12.85-.51-18.7.66-.06-2.58,0-5.15,0-7.72,5.84-4.15,14.32-16.75,13.6-16.33-3.91,2.29-20.78,7.9-24.34,10.54-4.27,3.16,2.59,25.36,4.35,26.6C111.44,152.3,135.8,138,135.19,137.63Z"/><path class="cls-13" d="M154.12,92.63a96.74,96.74,0,0,0-7.51-26.36,108.85,108.85,0,0,0-9.34-20.91c-4-7.13-9.25-13.69-16.1-18.3-6.11-4.11-14.41-7.21-21.84-5.48-7.12,1.66-13.52,8.27-16.59,14.7C79,44.1,81.66,53.36,81,61.7A93.14,93.14,0,0,1,77.9,78.27,22.59,22.59,0,0,0,78,89.7c2.12,9.59,3.59,19.72,6.55,29.08,2,6.47,7.52,8.85,14,8.88C119.27,127.76,154.19,93.15,154.12,92.63Z"/><path class="cls-14" d="M97.38,86.12c-.29-1.78-9.73-25.63-13.22-27.62-.63-.35-7.33,31.62-6.78,31.5.87,2.17,2.37,5.17,4.52,4.45,1.67-.55,14.25-3.1,14.77-3.92A6.38,6.38,0,0,0,97.38,86.12Z"/><path class="cls-15" d="M91.19,100.36c-2.24-.92-3.61-.19-5.72-.6-1.74-.34-3.47-1.89-5.27-.82s-2,3.79-1.83,5.63a.89.89,0,0,0,1.1.84q1.56-.36,3.12-.6A104.34,104.34,0,0,0,97,106.63C97.76,106.67,93.69,101.38,91.19,100.36Z"/><path class="cls-6" d="M124.86,65.8c-4.54-4.6-9-11.83-16.06-11.91-5.18-.06-15.42.65-17.79,6.19a.9.9,0,0,0,.11.92,1.86,1.86,0,0,0,.44,1.49c1.67,2.09,5.13-.58,6.69-1.17,4.25-1.61,11-3.28,15.47-2.09,4,1.09,6.7,5.23,9.86,7.74a.12.12,0,0,0,0,0h0l.17.14C124.61,67.77,125.53,66.48,124.86,65.8Z"/><path class="cls-16" d="M145.38,63.55c-2-5.45-4.11-33.08-41.37-42.45C97.76,19.52,144.57,79,145.09,78.71,148.35,76.72,146.63,67,145.38,63.55Z"/><path class="cls-17" d="M84.16,112.45C82,105.32,80,97.47,80.2,90c.19-7.32,2.31-14.39,4.21-21.4A98,98,0,0,0,88,49.31C88.51,41.5,87,25.18,86.57,25a10.07,10.07,0,0,0-4.82-.71c-.51,0-5.86,14.78-7.22,20.31C73,50.85,74.11,57.41,72.45,63.5s-5.3,11.72-7.07,17.91A57.53,57.53,0,0,0,63,98.16c.08,5.66,1.38,11.11,2.46,16.64A95.45,95.45,0,0,1,67.24,135c-.14,6.68-1.46,13.35-1.11,20s2.39,13,4.41,19.32c.25.75,23.3-14.34,24.66-28C95.7,141.36,86.21,119.12,84.16,112.45Z"/><path class="cls-6" d="M165.73,19.71a20.33,20.33,0,0,0-10.59-4.51c-4.56-.5-50.84,2.7-54.87,3.65-1,.23,10.68,2.79,15.71,4.54,3.34,1.17,6.35,2.35,9.83,1.07a.9.9,0,0,0,.6-1.07c0-.22-.08-.43-.13-.65l11.24,2c2.63.47,5.94,1.63,8.65,1.1a4.89,4.89,0,0,0,4-5.82,84.28,84.28,0,0,0,11.1,2.16c1.86.16,3.11,0,4.46-1.27A.87.87,0,0,0,165.73,19.71Z"/><path class="cls-6" d="M89.86,132.3c-.23-.88-4.89,8.86-6.5,13.29-1.34-5-9.65-32.89-11.87-36.45-.42-.66-1.64,41.92,2.19,57.76.15.59,16.23-14.32,17.67-16.36C94.7,145.77,91.21,137.52,89.86,132.3Z"/><path class="cls-18" d="M75.31,95.42a1.78,1.78,0,0,0-3-.15c-1.6,1.71-.56,12.53,1.19,14.49a.89.89,0,0,0,1.06.13C76.38,108.87,75.81,96.25,75.31,95.42Z"/><path class="cls-19" d="M125.64,417.14c-5.08,1.76-12.56,10.32-8.19,15.82,5.13,6.45,14.14,9.85,18.26-4.77C137.43,422.1,133.09,414.56,125.64,417.14Z"/><path class="cls-19" d="M121.43,385.42c2.15-2.35,3.86-8.09-.2-9.6a5.66,5.66,0,0,0-3.91.33c3.25-9.33-5.34-10.77-6.33-10a8.93,8.93,0,0,0,.46-4.28,1.71,1.71,0,0,0-.7-1.05,4.75,4.75,0,0,0,.24-1.32c.09-1.7-.29-3.59-1.84-4.55a3.11,3.11,0,0,0-4.06.74,5.46,5.46,0,0,0-1.48,4.61,3.28,3.28,0,0,0,2.45,2.48c0,.08-1.37,2.12-1.5,2.26a3.64,3.64,0,0,0-4-.58,4.35,4.35,0,0,0-.91.6c.87-1.28,1.43-8.67-5.29-8.27-3.7.22-2,7.57,1.19,9.32a2.76,2.76,0,0,0,3.29-.14,5.18,5.18,0,0,0-.64,3.94c.58,2.54,2.69,4.43,4.8,5.78,1.66,1.07,4,2,5.78.54a3.4,3.4,0,0,0,.74-.91,6.8,6.8,0,0,0,1.83,3,5.21,5.21,0,0,0-4.37,0,2.45,2.45,0,0,0-3.57,1,9.78,9.78,0,0,0-.42,7.5c1,2.15,3.73,2.89,5.92,2.39,2.37-.53,4.81-5,4.83-5.07a20.58,20.58,0,0,0,2.57,2.65c-.22,0-4.64,3.41-4.74,4.16-.08.52,2.92,6.69,5.88,6.56,4.13-.19,4.7-6.89,2.62-9.48a3.73,3.73,0,0,0-.91-.83A6.35,6.35,0,0,0,121.43,385.42Z"/><path class="cls-19" d="M118.88,409.73c-.12-1,.07-7.85-9.44-8.8-2.78-.28-5.2,4-7.24,7a7.82,7.82,0,0,0-2.38-3.65c1.47-1.89,1.27-5.15,0-7.16a7.32,7.32,0,0,0,2.4-2.06c.59-.81,2.93-4.35-2.18-11.39-.93-1.28-3.13-.6-4.6,0,.29-.23-.15-8.73-.89-9,2.24-1.41,1.16-7.24-2.21-9.07a3.76,3.76,0,0,0-5,1.54c-1.06,1.91-.36,4.5.85,6.18a5.07,5.07,0,0,0,2.31,1.8c-1,.56-2.36,1.33-2.29,2.36.61,9.22,6.19,6.73,6.16,6.75a8,8,0,0,0-3.14,9.39c-2.07,1.37-2.77,3.91-2.68,6.29.07,1.77.25,3.54,1.48,4.49-.23.05-.45.09-.69.16-3.83,1.23-7.17,4.7-9.21,8.05-4.7,7.69-1.87,17.24,8,18.27,3.93.41,10.52-10,11.87-12.37a14,14,0,0,0,7.15,6.39c4.94,1.72,8.45-1.76,10.09-6.12C118.22,416,119.23,412.7,118.88,409.73Z"/><path class="cls-19" d="M84.26,401.51c2-1.89,3.34-4.7,2.25-7.4-.35-.88-7.41-3.88-8.07-3.65a7.75,7.75,0,0,0,.29-7.4c-2-3.26-6.56-4.48-9-1.06-1.78,2.54-1.66,5.95.25,7.82-11,2.95-7.16,9.64-6,11.18s3.56,1.09,5,.37a7,7,0,0,0,2.23-1.88s.49,2,.59,2.24c-.09,0-2.34.08-3.27.86-1.87,1.56-2,8.14-1.93,8.27-7,2.05-2.85,11.35-1.79,12.12,4.64,3.37,10.86-4.25,8.79-8.74,1-.27,3.41-6.19,3.43-7.6a5.91,5.91,0,0,0-.29-1.89A12.06,12.06,0,0,0,84.26,401.51Z"/><path class="cls-2" d="M164.3,414.43c-1.46-3.9-5.35-5.72-8.31-8.23-1.17-1.73-3.06-14.14-3.22-14.77a44,44,0,0,0-3.13-7.67l-8.88-19.21c-2.53-5.48-4.81-11.24-8.59-16s-8.84-8.64-12.55-13.62c-.53-.71,4.81,15.89,8.8,23a86.21,86.21,0,0,0,6.67,10.26c2.48,3.23,5.62,6.14,7.56,9.74a11,11,0,0,1,.61,9.54,15.69,15.69,0,0,0-1.16,3.2c-.42,3.38,2,6.57,3.71,9.27,2.24,3.59,4.58,7.18,6.45,10.94,1.37,5.47.68,11.92,0,17.08-2.62,19.21,8.22,14.51,9.82,13.95,3.51-1.22,4.28-7.43,4.58-10.48A39.83,39.83,0,0,0,164.3,414.43Z"/><path class="cls-20" d="M64.39,72.26c-3.5,5.77-5.83,12-5.63,18.86,0,1.11,12.22-16,14-18.82a56.65,56.65,0,0,0,7.61-19.71C80.52,51.82,66.22,69.26,64.39,72.26Z"/><path class="cls-21" d="M72.32,116.07a.89.89,0,0,0-1-.4c-1.38.34-1.45,1-1.87,2.39-1,3.38-2.22,19.8-.63,23.57C69.21,142.48,73.85,118.71,72.32,116.07Z"/><path class="cls-22" d="M87.85,136.38c-.2-.21-13.7,2.24-13.39,3.17.7,2.08,1.79,16.28,2.26,21.27.07.79,6.49-11.83,7.26-13.85.5,2,2.23,7.38,2.67,6.57C88.34,150.43,89.66,138.2,87.85,136.38Z"/><path class="cls-23" d="M82.93,6.3c-3.53.12-8.56,12.82-8.71,15.26-1.64-.43-3.12.55-4.39,2.25a10.91,10.91,0,0,0-1.41,10,.88.88,0,0,0,1.45.38c6.53-8,12.57-16.51,13.93-27A.89.89,0,0,0,82.93,6.3Z"/><path class="cls-24" d="M147.45,16c.89-4.78-6.69-6-9.17-2.19-.8-2.43-2-4.36-5.43-4.75-4.49-.51-7.69,3.33-8.27,7.44-.06.42,10.55.52,11.5.56a7.34,7.34,0,0,0,.45,2.74,3.73,3.73,0,0,0,3.54,1.37C140.85,21.14,147.25,17.11,147.45,16Z"/><path class="cls-24" d="M173.69,56.66c-.63-.55-3-1.19-3.38-1.74-.71-1.13.4-2.39,0-3.67a3.68,3.68,0,0,0-2.85-2.44c2.36-1.57,4.84-4.11,2.86-6.7-2.21-2.9-6.76.92-9.08,3.09a6.29,6.29,0,0,0-2.67-3c-1.69-1-5.38-2.1-7.23-1.21-3.05,1.47-.58,4.24,2.08,6.3-1.08-.13-4.18.17-4.17.64,0,4.89,2.35,7.76,7.38,8.66a3.66,3.66,0,0,0,3.27-.87c4.08,3.35,6.87,9.34,12,10.8,1.93.55,4.45-.66,4-2.4a2.84,2.84,0,0,0,.6-1.37C176.85,60.56,175.21,58,173.69,56.66Z"/><path class="cls-25" d="M167.27,79c-1.46-.94-3,.62-4,1.5-2.43,2.07-8.9,10.81-7.83,11.85,1.31,1.28,4.84,1.5,6.53,1.12a7.44,7.44,0,0,0,4.39-3.09C167.66,88.49,168.71,79.93,167.27,79Z"/><path class="cls-6" d="M156.77,71.55c-1.68-7.69-20.57-33-26.54-37.27-.5-.36,16.7,44.32,17.43,44.43C149.09,78.93,156.88,72.05,156.77,71.55Z"/><path class="cls-26" d="M58.43,282c.11-1-1.48-1.17-1.71-.23-.35,1.48-7.91,28.39-8,40.48,0,1.12,3.87-13.33,6.11-19.75.8,4.44,4.24,13.95,4.08,12.86A125.47,125.47,0,0,1,58.43,282Z"/><path class="cls-13" d="M154.05,30.47c-.44,0-1.54,6-2.54,8.47a16.82,16.82,0,0,0-3.74-8.21c-.56-.66-1.61,12.37.45,13.79,1.79,1.23,4.31-.18,5.72-1.36a9.08,9.08,0,0,0,3.29-7.36C157.15,33.89,156.46,30.46,154.05,30.47Z"/><path class="cls-6" d="M165.47,24.17c-.65-.88-2.14-.07-1.5.88,1.23,1.82,8.5,16.05,8.59,17.46a.87.87,0,0,0,1.73,0C174.71,37.54,166.66,25.78,165.47,24.17Z"/><path class="cls-5" d="M135.54,72.92c-10.21,1.06-35.56,5.77-35,6,7.13,2.79,12.62,5,20.36,3.82C127.06,81.78,136.22,72.85,135.54,72.92Z"/><path class="cls-27" d="M140.33,105.19c-6.31,4-11.49,7.75-17.91,11.55-12.32,7.29-34.88,8.24-34,8.9,2.82,2.17,10.62,3.21,21.1,1,5.54-2.18,31.65-19.89,31.88-20.08C142.13,105.92,141.16,104.67,140.33,105.19Z"/><path class="cls-6" d="M174.51,50.3a.9.9,0,0,0-1.07.61c-.76,2,.55,6.17,2.81,7h0c.32.28,1.59,0,1.89-.18C178.65,57.68,176.41,50.93,174.51,50.3Z"/><path class="cls-15" d="M84,65.7c-.29-.48-1.59-5.69-1.95-5-3.23,6.79-4.62,12.17-9.9,24.34C71.76,85.89,86.37,69.7,84,65.7Z"/><path class="cls-28" d="M67,310.33c0,.45-26.18,71-25.6,70.76,1-.38,18.81-13.54,21.94-23a64.65,64.65,0,0,0,8.11,17.23c2.31,3.45,12.79,8.66,13.69,8.7C85.62,384.05,67.12,309.22,67,310.33Z"/><path class="cls-24" d="M109.44,21.09c-4.74-2-12.7.71-15.9,2.17,5.48-3.77,8.19-15.14,7.28-14.87-8.09,2.4-15.07,9.68-20,16.23C77.21,29.28,73.48,37.76,79.59,42a.88.88,0,0,0,1.19-.31c1.84-4,3.85-8.21,6.83-11.33C93.35,27.84,110.17,21.4,109.44,21.09Z"/><path class="cls-13" d="M153.15,119.55c-.14-.87-32.2,20.32-38.73,22-6.16,1.56-12.86,1-18.71,3.65-5,2.25-9.48,6-13.37,9.78a69.89,69.89,0,0,0-10.65,13.14c-3.22,5.16-26.6,44-29.44,50.26a.81.81,0,0,0,0,.7C36.38,230.41,1.65,291.48.05,304.91c-1.22,10.28,19.3,1.34,23.13-1.22,5.43-3.64,76.21-86.73,79.29-88.52,2.78-1.62,6.09-2.48,9-3.89a78.69,78.69,0,0,0,9.41-5.47,124.87,124.87,0,0,0,16.23-12.9c9.74-9.23,14.37-22.31,16.7-35.1C155.07,151,154.48,127.66,153.15,119.55Z"/><path class="cls-27" d="M107,213.49c-1.32-.26-4.11,1.37-5.39,1-2.17-.7-1.5-4.22-1.74-4.47.06-.88-42.91,55.31-46,60.08-.61.94,9.33-8.74,12.64-13.12C70.49,251.58,107.93,213.68,107,213.49Z"/><path class="cls-15" d="M163.17,69.1a6,6,0,0,0-7-2.54c-4.49,1.42-15.67,15.19-14.45,24.8.35,2.74,3.52,6.44,6.57,6.91,3.39.52,7.38-2.37,9.34-4.88,3-3.78,4.46-9.21,6-13.71C164.74,76.19,165.39,72.32,163.17,69.1Z"/><path class="cls-12" d="M157.47,78.08c-1.41-1.3-2.65-.48-3.81.48,0-.76-1.52-2.57-2-2.24-.3.15-2.07,7.53-2.34,10.7C149.29,87.88,157.9,78.47,157.47,78.08Z"/><path class="cls-6" d="M116,0c-.29-.41-9.82,3.52-10.57,4.35.37-1.49-1.06-4.25-1.34-4.18-3.6.86-7,4.21-6.61,8.18a2.92,2.92,0,0,0,1.81,2.8c.64.17,12-.92,14-3.18C114.76,6.29,117.65,2.35,116,0Z"/><path class="cls-29" d="M174.29,79.87C172,70,163.31,41,148.23,47.46c-.75-3.76-3.31-6.41-6.47-8.67-5.17-3.67-27.94-17-33.46-18.12-1-.21,9.68,12,16.49,14.37,1.71.6,3.5.64,5.22,1.17,2.73.86,4.32,3,6,5.33,2,2.84,3.78,6,6.31,8.41s5.49,3.55,8.44,5.09a37.05,37.05,0,0,1,10.07,7.74,38.68,38.68,0,0,1,6.87,10.63c1.34,3,2.49,5.64,5.34,7.44A.88.88,0,0,0,174.29,79.87Z"/><path class="cls-30" d="M101.66,145.54a48.74,48.74,0,0,0-15.37,7.68c-9.34,7.06-16.09,16.9-22.38,26.62-3.84,5.93-7.71,11.87-11,18.1-3.12,5.84-27.42,50.29-29.93,57.19C22.5,256.34,74.23,234,93.48,215c5-5,9.45-9.62,16-12.49,5.59-2.44,10.7-4.86,14.89-9.44,7.75-8.46,11.18-19.82,15.66-30.14,6.06-14,13.83-28.64,14.08-44.25C154.16,117.72,108.09,143.59,101.66,145.54Z"/><path class="cls-6" d="M102.84,159.55c-6.94,5.71-13.75,11.74-20.31,17.89C69.67,189.51,60.26,205,50.81,219.73c-5.62,8.76-15.89,28.12-15.19,27.73a185.79,185.79,0,0,0,27-18.56c8.57-7.1,15.95-15.55,26.39-20,9.23-3.93,18.55-6.51,26.09-13.48,7-6.41,11.91-14.66,16.13-23,5.67-11.27,10.61-23,15.43-34.61C146.91,137.14,105.83,157.09,102.84,159.55Z"/><path class="cls-30" d="M1.55,310.41c18.78-.67,27.52-10.59,37.63-20.65a155.23,155.23,0,0,0,27.59-37.3C67.09,251.85.51,310.44,1.55,310.41Z"/><path class="cls-10" d="M114.83,149.6c5.51-1.1,8.6-5.95,12.59-9.54,5.5-5,12.44-7.79,18.28-12.26,4.33-3.32,8.09-7.47,9.7-12.87,1.69-5.67.93-11.68-.09-17.44C155.9,96.8,114,149.77,114.83,149.6Z"/><path class="cls-9" d="M157,65.65c-8.19-11.32-19-20.26-30.6-27.89-6-3.94-12.19-7.58-18.48-11s-13.18-6.66-20.59-5.77C86.7,21,157.45,66.22,157,65.65Z"/><path class="cls-14" d="M67.26,221.08c8.54-3.16,44.54-24.28,48.27-26.92,6.25-4.43,18.19-35.34,17.68-37.66C133.57,156,66.49,221.37,67.26,221.08Z"/><path class="cls-30" d="M180.8,180.45c-3.82-9-21-44.64-22.76-48.26-.38-.77-6.55,53.08-10.56,64.8-6.14,18-7.46,36.85-9.57,55.58a204.44,204.44,0,0,1-5.07,29.3c-3.11-22.19-2.22-68.06-2.65-67.53-12.12,14.95-24.93,31-27.56,50.69-2.53,19,8.71,36.49,7.22,55.25C101.42,306.38,72,290.5,72,291c-.19,28.41,25,51.92,51.31,57.94.26.06,31.85-51.33,42.36-79.3,5.5-14.65,11.09-29.46,15.49-44.49S187,195.09,180.8,180.45Z"/><path class="cls-30" d="M79.75,435.68c-23.12.2-41.63.34-41.64.31,1.87-14.84.47-59.38.19-66.73-.08-2.2,4-25.36,10.14-55.23.08-.17.17-.33.25-.5.42-.81,25.18,68.29,27.92,75.78a82.85,82.85,0,0,1,5,23.81A98.1,98.1,0,0,1,79.75,435.68Z"/><path class="cls-13" d="M69,443.34c-8.27-39-25.21-100.45-25.31-99.64-2.08,16.75-6.94,90.08-5.83,104.93C37.86,448.86,69.1,443.9,69,443.34Z"/><path class="cls-6" d="M91,338.55c-1.11-2.55-2.88-5.84-6.1-5.37-.35.05,7.3,17,7.4,16.32A19.83,19.83,0,0,0,91,338.55Z"/><path class="cls-31" d="M78.28,256.78c-2.11,4-2.44,20.27.27,18.35,1.45-1,9.07-20.16,9.26-25C87.83,249.48,78.55,256.26,78.28,256.78Z"/><path class="cls-32" d="M74.51,218.8a33.64,33.64,0,0,0-7.58-2.07c4-.68,10.61-2.56,7.28-6.9-1.92-2.5-6.39-3.77-9.14-5a103.57,103.57,0,0,0-11.84-4.23C59.38,194.8,65.68,187,61,178.32a.89.89,0,0,0-1.37-.17c-3,2.8-14,19.82-19,20.75-2.35.45-4,.49-5.5,2.72-1.63,2.5-1.19,5.44-.23,8.08A8.2,8.2,0,0,0,28.85,217c-.7,5.33-1.61,9.48-.52,14.76-6.6,1-7.7,12.25-4.31,13.35a4,4,0,0,0,3.67-.74c4.28-2.66,7.52-4.2,12.7-4.36,4.31-.14,8.59.59,12.89.73,1.95.07,4.87.43,6.56-.89,2.17-1.68,1.35-3.36-.23-4.46H63.7c2.14,0,4.87.25,6.78-1,4.06-2.65-1.72-5.3-3.92-6.17l-.16,0a26.84,26.84,0,0,0,7.42-1.41c1.65-.57,5.31-1.83,5.45-4C79.4,220.83,75.85,219.38,74.51,218.8Z"/><path class="cls-27" d="M59.4,192.51a.82.82,0,0,0-1.37-.4c-.14,0-5.67,5.21-8.43,7.58-.72.62.08,1.58.85,1.45a10.91,10.91,0,0,0,6-3.27C57.63,196.66,59.83,194.33,59.4,192.51Z"/><path class="cls-27" d="M67.07,215.85c-4.58-1.57-9.12-2.8-13.65-4.61-3.9-1.55-7.65-2.41-11.79-1.44a.87.87,0,0,0,.23,1.7,36.81,36.81,0,0,1,14.25,3.15,41.77,41.77,0,0,0,4.54,1.86.89.89,0,0,0,.25.16,14,14,0,0,0,5.94.89A.87.87,0,0,0,67.07,215.85Z"/><path class="cls-27" d="M67.32,225.92c-6,.64-24.87-7.21-28.72-6.45-.28.06-.64.68-.63.75.84,3.05,22.67,8.64,29.09,7.74C67.35,227.92,68.28,225.81,67.32,225.92Z"/><path class="cls-27" d="M58.28,234.3c-5.59-1.85-23.07-5-25.9-4.69a.87.87,0,0,0,0,1.74c7.37.66,24.43,4.47,25.44,4.62A.87.87,0,0,0,58.28,234.3Z"/><path class="cls-27" d="M205.88,415.15c-5.83-1.64-20.64-6.23-26.41-8.1-3.35-1.09-7.77-3.13-11.47-2.53.24-2.25.25-5.36-2.62-5.45-2.12-.06-6.41,3-7.08-.35a.5.5,0,0,0-.73-.3c-2.27,1.22-5.12,4.27-7.68,2.07-1.24-1.07-1.1-3.53-1.26-5-.28-2.39-1.11-4.53-3.64-5.17-2.27-.57-4.62,1.12-6.26,2.43a36.9,36.9,0,0,0-6.93,7.92c-3,4.31-7.36,10.75-5,16.15,1.58,3.7,8,7.53,10.91,11.78-1.13,3.22-3.63,9.8-3.76,12.41,0,.45,2.27,1.06,2.57.78.78-.72,6-14,8.77-16.34a20.29,20.29,0,0,0,5.37-7.1c1.12-2.26,2.61-7.21,5.25-8.08a4.83,4.83,0,0,1,2.36.35,22.38,22.38,0,0,0,3.83.55c3.91.31,7.86.23,11.78.3a62.2,62.2,0,0,1,11.62,1.31C189.15,413.53,206.45,415.31,205.88,415.15Z"/></g></g></svg>