<svg xmlns="http://www.w3.org/2000/svg" viewBox="0 0 372.17 816.9"><defs><style>.cls-1{fill:#f86048;}.cls-2{fill:#1ab687;}.cls-3{fill:#27944e;}.cls-4{fill:#f83c2d;}.cls-5{fill:#274490;}.cls-6{fill:#a8ccbe;}.cls-7{fill:#b47ae8;}.cls-8{fill:#b1d3d3;}.cls-9{fill:#e96bbc;}.cls-10{fill:#e4d91b;}.cls-11{fill:#4c879f;}.cls-12{fill:#fff;}.cls-13{fill:#f48051;}.cls-14{fill:#243245;}.cls-15{fill:#443880;}</style></defs><title>WomanLoadingSVG</title><g id="Layer_2" data-name="Layer 2"><g id="Layer_1-2" data-name="Layer 1"><path class="cls-1" d="M124.69,462.75c-21,16.76-120.39,114.41-119,113.9,11.24,4.59,75.06-21.27,85.38-30.46,11-9.74,15.7-25.4,21.62-38.38,6.48-14.19,13-45.82,12-45.06"/><path class="cls-2" d="M121.34,476.58c-9.11,6.57-17,14.52-24.65,22.7-5.21,5.55-9.77,11-11.63,18.38-5.23,5.8-16.07,20.53-14.37,20.12,8.78-2.1,15.76-6.92,22.06-12.87-2.54,5.89-6.18,20.18-5.1,18.94,16-18.43,25.27-43.5,36.11-65.16a1.63,1.63,0,0,0-2.42-2.11"/><path class="cls-3" d="M281.07,193.52c-1.35-1,16.22,54.77,19.77,70.51,3.29,14.63,10.93,26.73,20.17,38.35,21.12,26.56,49.24,92.45,49.81,90.83,3.57-10.28-3.82-66.57-24.95-113.49-17.19-38.18-51.69-76.73-64.8-86.2"/><path class="cls-2" d="M154.46,108.33c-7.58,20.81-10.23,42.72-11.87,64.69-.78,10.55-2.2,21.4-.39,31.9,1.86,10.8,6,21.37,9.81,31.62,3.58,9.68,10.08,30.82,14.31,40.24,3.83,8.54,48.76-13.85,49.16-15.16-1.72-1.82-60.52-154.64-61-153.29"/><path class="cls-2" d="M201.14,236.09c-2.21-2.31-30-1.13-30.24-1.13-2.08,0,.34,36.34,3,38,3.41,2.13,27.23-3.69,29.52-6.29s.19-28-2.33-30.62"/><path class="cls-4" d="M372.06,392.92c0,1.94-12.91-22.56-18.87-33.49a164.77,164.77,0,0,1,2,61.71c-.26,1.58-12.91-41.62-18-62.36-2.07-8.51-3.92-17.18-7.06-25.37-3.78-9.87-9.9-16.79-17.86-23.56a54.41,54.41,0,0,1-13.49-16.44c-7.74-36.24-13.88-68.89-15.57-87.46,2.43,3.91,14.5,29.22,17.35,36.82,3,8.06,3.91,16.67,7,24.69.61,1.62,1.29,3.21,2,4.79,9.9,26,33.13,61.58,55.43,76.21,1.88,4.46,3.62,8.77,5.15,12.84,2.16,10.33,2.07,21.17,1.84,31.62"/><path class="cls-5" d="M365.07,348.19c-29.74-19.52-61.16-76.24-60.42-97.92,0-.68,14.05,11.94,27.25,29.64,12.27,23.17,24.4,47.54,33.17,68.28"/><path class="cls-6" d="M286.86,175.22c.11-1.81-87.32,61.47-89.12,65.11-1.58,3.21.11,8.35.58,11.47q1.63,11.13,3.29,22.26c.13.87,87.68-26.6,85.1-26-1.39.32-.71-57.43.15-72.83"/><path class="cls-4" d="M324.87,50.37c-9.72-17.5-27.11-25.43-44.59-33.43C260.92,8.08,241.8,2.57,220.35,5.27c-10.88,1.36-22.52,4-31.18,10.61-9.57,6-19.75,18-17.83,29.35.22,1.32,39.53-2.83,50.67,4.82,11.33,7.78,61.55,135.28,64,140.57,4.08,8.86,10.1,6.53,16.85,1.42,16.76-12.7,24.79-33.7,29.28-53.57s-2.53-79.59-7.26-88.1"/><path class="cls-7" d="M326.4,138.18c-3.19-8.49-9.46-14.33-16-20.34-7.92-7.3-15.56-15.51-24.21-21.93-9-6.72-21.48-6.73-29.31-15.2-3.41-3.69-5.76-8.23-9.18-11.92A52.81,52.81,0,0,0,236.4,60C225.53,53.28,200,42.09,201.12,43.46a176.08,176.08,0,0,0,22.54,22.33C232.1,73.87,240.23,82.27,248,91c10.54,12,18.42,22.76,21.1,38.77.76,4.53,1.55,8.33,4.86,11.68.61.62,1.25,1.19,1.88,1.74-7.89,52.53,5.86,79.72,10,82.64,3.41,2.4,38-45.57,41.77-61.1a45.47,45.47,0,0,0-1.2-26.58"/><path class="cls-8" d="M315.69,810.17h0c-1.28.05-95.94.9-167.12,1.5,2.48-13.89,4.17-27.87,3.39-42a154.15,154.15,0,0,0-9.23-44.36c-5.1-13.95-51.23-142.68-52-141.17-.16.31-.32.62-.47.94C108,499.1,135.14,383.38,157.8,335.86c11.12-23.33,32.7-38.83,54.67-52,11.82-7.09,24.11-13.42,36.57-19.29,11.11-5.23,36.25-40.86,36.79-41.07,2.41,5.85,41.19,110.47,42.58,112.92,46,81.19-94.1,295.39-81.34,306.7,60.38,53.51,69.38,147.19,68.62,167.08"/><path class="cls-4" d="M251.85,256.4c-10.06-5.54-23.93-.94-34.83,1.23-.11-4.8-.07-9.59.08-14.38,10.87-7.73,26.67-31.2,25.33-30.41-7.27,4.26-38.72,14.7-45.35,19.62-8,5.9,4.84,47.25,8.11,49.56,2.43,1.72,47.8-25,46.66-25.62"/><path class="cls-9" d="M287.14,172.57a180.2,180.2,0,0,0-14-49.11,203.18,203.18,0,0,0-17.39-39c-7.53-13.28-17.24-25.49-30-34.08C214.37,42.76,198.89,37,185.05,40.21,171.8,43.3,159.86,55.62,154.14,67.6c-6.94,14.56-2,31.81-3.18,47.35-.8,10.64-3.17,20.6-5.84,30.86-2,7.56-1.52,13.74.16,21.31,3.94,17.86,6.68,36.73,12.2,54.17,3.81,12,14,16.48,26,16.54,38.7.19,103.77-64.29,103.64-65.26"/><path class="cls-8" d="M181.43,160.45c-.56-3.32-18.15-47.75-24.64-51.46-1.17-.66-13.65,58.91-12.63,58.67,1.62,4.06,4.41,9.64,8.43,8.31,3.1-1,26.53-5.78,27.5-7.31a11.86,11.86,0,0,0,1.34-8.21"/><path class="cls-2" d="M169.89,187c-4.17-1.71-6.72-.34-10.65-1.11-3.25-.64-6.47-3.51-9.82-1.53s-3.78,7.07-3.41,10.5a1.66,1.66,0,0,0,2.05,1.56c1.94-.46,3.87-.83,5.81-1.12a193.82,193.82,0,0,0,26.84,3.39c1.41.08-6.17-9.78-10.82-11.69"/><path class="cls-10" d="M232.61,122.58c-8.46-8.57-16.82-22-29.92-22.18-9.64-.12-28.72,1.21-33.14,11.53a1.67,1.67,0,0,0,.22,1.71,3.35,3.35,0,0,0,.81,2.77c3.11,3.9,9.56-1.07,12.46-2.16,7.93-3,20.59-6.13,28.81-3.9,7.46,2,12.48,9.75,18.37,14.41l.1.11v0c.11.09.21.19.32.27,1.49,1.13,3.22-1.27,2-2.54"/><path class="cls-11" d="M270.84,118.39c-4.64-27.8-39.47-84.14-77.06-79.09-11.91,1.6,75.55,107.94,76.53,107.34,6.07-3.72,2.87-21.92.53-28.25"/><path class="cls-7" d="M156.8,209.49c-4.09-13.29-7.73-27.9-7.38-41.86.34-13.63,4.3-26.81,7.83-39.87,3.2-11.82,5.93-23.63,6.71-35.89.94-14.56-2-45-2.68-45.25a18.74,18.74,0,0,0-9-1.31c-.95.08-10.92,27.54-13.47,37.84C136,94.73,138.07,107,135,118.3s-9.88,21.83-13.18,33.36a108.11,108.11,0,0,0-4.44,31.2c.16,10.56,2.59,20.7,4.59,31a177.43,177.43,0,0,1,3.31,37.71c-.26,12.45-2.7,24.87-2.05,37.34s4.44,24.27,8.22,36c.44,1.39,43.4-26.71,45.93-52.25.93-9.3-16.74-50.74-20.56-63.17"/><path class="cls-10" d="M308.76,36.71A38.08,38.08,0,0,0,289,28.31c-8.49-.93-94.73,5-102.22,6.8-1.81.43,19.88,5.2,29.26,8.47,6.23,2.18,11.84,4.38,18.31,2a1.68,1.68,0,0,0,1.13-2l-.24-1.2,20.93,3.76c4.9.88,11.07,3,16.12,2,5.62-1.09,8.24-5.85,7.45-10.84,6.8,1.51,13.82,3.48,20.67,4,3.47.28,5.81,0,8.32-2.37a1.63,1.63,0,0,0,0-2.29"/><path class="cls-10" d="M167.41,246.49c-.43-1.65-9.11,16.49-12.1,24.74-2.51-9.26-18-61.26-22.13-67.89-.77-1.24-3,78.08,4.09,107.59.27,1.1,30.24-26.68,32.91-30.47,6.25-8.88-.25-24.27-2.77-34"/><path class="cls-1" d="M140.3,177.78c-1.33-2.22-3.9-2-5.51-.29-3,3.18-1,23.35,2.22,27a1.63,1.63,0,0,0,2,.25c3.33-1.9,2.26-25.41,1.33-26.95"/><path class="cls-12" d="M234.07,777.13c-9.47,3.28-23.41,19.24-15.26,29.47,9.56,12,26.34,18.36,34-8.87,3.2-11.36-4.89-25.39-18.76-20.6"/><path class="cls-12" d="M226.23,718.05c4-4.38,7.19-15.07-.37-17.9-2-.75-4.7-.41-7.3.62,6.07-17.37-9.94-20.06-11.78-18.7.74-2.5,1.43-5.56.86-8a3.2,3.2,0,0,0-1.31-2,9.33,9.33,0,0,0,.46-2.46c.16-3.17-.56-6.69-3.45-8.48-2.62-1.63-5.58-.82-7.56,1.39s-3.46,5.58-2.76,8.58a6.13,6.13,0,0,0,4.57,4.63c-.07.13-2.54,3.94-2.8,4.2a6.78,6.78,0,0,0-7.53-1.09,8.11,8.11,0,0,0-1.7,1.13c1.61-2.38,2.66-16.16-9.86-15.41-6.9.41-3.67,14.1,2.22,17.37,2.47,1.37,4.54,1,6.13-.27a9.6,9.6,0,0,0-1.2,7.34c1.08,4.74,5,8.25,9,10.77,3.1,2,7.54,3.65,10.76,1a6,6,0,0,0,1.38-1.69,12.76,12.76,0,0,0,3.42,5.54,9.75,9.75,0,0,0-8.15,0c-2.15-1.64-5.2-.69-6.65,1.86-2,3.52-2.52,10.3-.78,14,1.91,4,6.95,5.38,11,4.46,4.4-1,9-9.28,9-9.45a40.76,40.76,0,0,0,4.77,4.93c-.4.1-8.63,6.35-8.83,7.75-.13,1,5.45,12.47,11,12.22,7.68-.35,8.74-12.83,4.88-17.66a7,7,0,0,0-1.7-1.54,12.21,12.21,0,0,0,4.33-3.18"/><path class="cls-12" d="M221.47,763.33c-.22-1.81.13-14.62-17.58-16.39-5.18-.52-9.69,7.48-13.49,13a14.47,14.47,0,0,0-4.44-6.79c2.74-3.52,2.38-9.6-.09-13.35a13.21,13.21,0,0,0,4.47-3.84c1.1-1.49,5.47-8.1-4.05-21.21-1.73-2.38-5.85-1.11-8.57.05.54-.43-.29-16.25-1.66-16.83,4.16-2.63,2.15-13.49-4.11-16.9a7,7,0,0,0-9.23,2.86c-2,3.57-.67,8.39,1.57,11.53a9.65,9.65,0,0,0,4.3,3.35c-1.92,1-4.38,2.47-4.26,4.4,1.14,17.17,11.55,12.53,11.48,12.57A14.91,14.91,0,0,0,170,733.3c-3.85,2.56-5.14,7.29-5,11.72.13,3.29.45,6.6,2.74,8.36a10.79,10.79,0,0,0-1.28.31c-7.13,2.29-13.36,8.74-17.16,15-8.75,14.34-3.48,32.12,14.82,34.05,7.32.77,19.6-18.58,22.11-23a26.07,26.07,0,0,0,13.31,11.89c9.21,3.21,15.75-3.27,18.8-11.4,1.92-5.13,3.81-11.3,3.15-16.84"/><path class="cls-12" d="M157,748c3.64-3.52,6.21-8.77,4.19-13.81-.65-1.63-13.81-7.22-15-6.78,2.55-4,2.71-10.23.55-13.79-3.71-6.09-12.22-8.36-16.69-2-3.33,4.74-3.1,11.09.46,14.57-20.6,5.5-13.35,18-11.18,20.83s6.63,2,9.28.69a12.57,12.57,0,0,0,4.14-3.5c.06,0,.93,3.73,1.12,4.17-.18,0-4.37.15-6.11,1.6-3.47,2.9-3.63,15.16-3.59,15.41-12.94,3.81-5.31,21.15-3.33,22.58,8.65,6.27,20.23-7.92,16.37-16.28,1.85-.51,6.36-11.54,6.39-14.15a10.68,10.68,0,0,0-.53-3.54,22.53,22.53,0,0,0,14-6"/><path class="cls-1" d="M120,134.62c-6.52,10.74-10.87,22.43-10.49,35.14.06,2.07,22.76-29.77,26.09-35.07A105,105,0,0,0,149.75,98C150,96.54,123.36,129,120,134.62"/><path class="cls-5" d="M134.74,216.24a1.66,1.66,0,0,0-1.83-.75c-2.57.64-2.71,2-3.48,4.45-2,6.31-4.14,36.89-1.17,43.91.67,1.59,9.32-42.69,6.48-47.61"/><path class="cls-2" d="M163.67,254.08c-.39-.39-25.54,4.17-24.95,5.9,1.31,3.87,3.34,30.34,4.21,39.63.13,1.48,12.1-22.05,13.52-25.8.94,3.73,4.15,13.75,5,12.23,3.15-5.79,5.61-28.56,2.24-32"/><path class="cls-13" d="M154.49,11.74c-6.57.21-15.93,23.89-16.22,28.42-3.05-.8-5.81,1-8.17,4.19C126,49.81,125.46,56.62,127.47,63a1.63,1.63,0,0,0,2.7.71c12.16-14.93,23.41-30.74,25.94-50.31a1.63,1.63,0,0,0-1.62-1.62"/><path class="cls-5" d="M274.69,29.88c1.67-8.9-12.45-11.17-17.07-4.07-1.49-4.54-3.74-8.14-10.12-8.86-8.36-.95-14.32,6.21-15.4,13.86-.12.79,19.64,1,21.42,1.05.13,2.22.29,4.31.83,5.1,1.48,2.17,4.15,2.78,6.61,2.56,1.44-.14,13.36-7.65,13.73-9.64"/><path class="cls-5" d="M323.58,105.56c-1.16-1-5.64-2.21-6.3-3.25-1.32-2.09.75-4.44,0-6.83-.78-2.63-2.9-3.9-5.3-4.55,4.4-2.93,9-7.65,5.33-12.47-4.12-5.4-12.6,1.7-16.91,5.75a11.85,11.85,0,0,0-5-5.67c-3.16-1.92-10-3.9-13.48-2.24-5.67,2.73-1.07,7.89,3.87,11.73-2-.25-7.77.32-7.76,1.19.1,9.11,4.38,14.45,13.75,16.14,2.28.41,4.92-.22,6.08-1.62,7.61,6.24,12.82,17.4,22.31,20.11,3.6,1,8.29-1.23,7.37-4.47a5.19,5.19,0,0,0,1.13-2.55c.75-4-2.31-8.79-5.15-11.27"/><path class="cls-14" d="M311.62,147.18c-2.72-1.75-5.61,1.16-7.52,2.79-4.53,3.86-16.59,20.13-14.59,22.08,2.43,2.38,9,2.79,12.18,2.08a13.9,13.9,0,0,0,8.17-5.74c2.49-3.54,4.45-19.48,1.76-21.21"/><path class="cls-10" d="M292.06,133.3c-3.13-14.32-38.32-61.46-49.44-69.44-.93-.66,31.11,82.57,32.47,82.78,2.67.41,17.17-12.4,17-13.34"/><path class="cls-5" d="M107.13,524.05c.22-1.82-2.76-2.18-3.18-.43-.66,2.76-14.73,52.9-15,75.41,0,2.09,7.2-24.83,11.37-36.78,1.49,8.27,7.91,26,7.61,24a233.55,233.55,0,0,1-.85-62.16"/><path class="cls-7" d="M287,56.76c-.81,0-2.88,11.1-4.74,15.78a31.2,31.2,0,0,0-7-15.28c-1-1.25-3,23,.85,25.68,3.34,2.29,8-.33,10.66-2.52a17,17,0,0,0,6.12-13.73c-.15-3.55-1.44-9.94-5.92-9.93"/><path class="cls-10" d="M308.27,45c-1.22-1.64-4-.13-2.8,1.63,2.29,3.4,15.84,29.9,16,32.54a1.62,1.62,0,0,0,3.23,0C325.48,69.93,310.49,48,308.27,45"/><path class="cls-15" d="M252.5,135.86c-19,2-66.23,10.75-65.17,11.16,13.28,5.19,23.51,9.33,37.92,7.11,11.47-1.77,28.52-18.4,27.25-18.27"/><path class="cls-15" d="M261.44,196c-11.76,7.41-21.41,14.43-33.38,21.51-22.95,13.59-65,15.35-63.37,16.58,5.26,4,19.79,6,39.31,1.86,10.31-4.05,59-37.05,59.4-37.41,1.4-1.2-.42-3.51-2-2.54"/><path class="cls-10" d="M325.12,93.72a1.64,1.64,0,0,0-2,1.13c-1.42,3.67,1,11.49,5.22,13,0,0,0,0,0,0,.59.52,3,0,3.53-.33.92-.07-3.24-12.63-6.78-13.8"/><path class="cls-2" d="M156.41,122.4c-.53-.89-3-10.61-3.62-9.22-6,12.65-8.62,22.67-18.45,45.34-.65,1.49,26.57-28.66,22.07-36.12"/><path class="cls-8" d="M203.9,39.29c-8.84-3.69-23.68,1.33-29.63,4.05,10.21-7,15.26-28.22,13.55-27.71-15.06,4.48-28.06,18-37.35,30.23-6.62,8.69-13.58,24.49-2.2,32.37a1.64,1.64,0,0,0,2.22-.58c3.42-7.49,7.17-15.29,12.73-21.12,10.68-4.67,42-16.67,40.68-17.24"/><path class="cls-1" d="M285.33,222.72c-.27-1.62-60,37.86-72.17,40.94-11.48,2.9-23.95,1.91-34.85,6.79-9.36,4.2-17.66,11.21-24.92,18.23a129.87,129.87,0,0,0-19.84,24.48c-6,9.6-49.55,82-54.84,93.63a1.55,1.55,0,0,0,0,1.3C67.79,429.26,3.07,543,.1,568.05c-2.28,19.16,35.95,2.49,43.08-2.28C53.3,559,185.16,404.21,190.9,400.86c5.19-3,11.34-4.62,16.78-7.25a142.91,142.91,0,0,0,17.53-10.19,232.44,232.44,0,0,0,30.24-24c18.15-17.2,26.77-41.57,31.11-65.39,2.33-12.76,1.24-56.18-1.23-71.29"/><path class="cls-15" d="M202.53,395.91c-2.45-.47-10.94,4.38-13.32,3.62-4.05-1.3-2.8-7.87-3.24-8.34.1-1.63-79.95,103.06-85.75,111.93-1.14,1.76,17.36-16.28,23.54-24.43,7.57-10,77.32-80.61,75.49-81"/><path class="cls-2" d="M304,128.74c-3.05-4.42-7.86-6.36-13-4.73-8.37,2.64-29.19,28.29-26.92,46.2.65,5.1,6.56,12,12.23,12.86,6.33,1,13.75-4.41,17.41-9.08,5.52-7,8.3-17.15,11.09-25.55,2.16-6.5,3.36-13.71-.78-19.7"/><path class="cls-1" d="M293.37,145.46c-2.64-2.42-4.93-.89-7.11.89,0-1.4-2.81-4.77-3.64-4.17-.56.29-3.86,14-4.36,19.94-.14,1.61,15.91-15.93,15.11-16.66"/><path class="cls-10" d="M216.18.06c-.53-.77-18.3,6.54-19.69,8.1.69-2.78-2-7.91-2.49-7.79C187.28,2,181,8.21,181.68,15.62c.2,2.18,1.07,4.57,3.37,5.2,1.19.33,22.37-1.7,26-5.92,2.75-3.18,8.13-10.52,5.12-14.84"/><path class="cls-9" d="M189.4,271.14a90.83,90.83,0,0,0-28.64,14.32c-17.4,13.15-30,31.48-41.69,49.59-7.15,11.05-14.36,22.11-20.57,33.72-5.81,10.87-51.1,93.69-55.77,106.54-.82,2.26,95.56-39.37,131.43-74.86,9.34-9.25,17.6-17.93,29.87-23.27,10.43-4.55,19.95-9.05,27.75-17.57,14.44-15.77,20.83-36.93,29.17-56.16,11.29-26,25.78-53.35,26.23-82.44,0-1.69-85.81,46.51-97.78,50.13"/><path class="cls-10" d="M191.6,297.23c-12.93,10.66-25.63,21.88-37.85,33.35-23.95,22.47-41.49,51.31-59.09,78.78C84.2,425.69,65.06,461.75,66.35,461a345,345,0,0,0,50.27-34.57c16-13.24,29.73-29,49.18-37.25,17.18-7.31,34.55-12.13,48.6-25.11,12.94-11.93,22.19-27.3,30-42.9,10.57-21,19.77-42.76,28.75-64.48.5-1.21-76,35.94-81.59,40.52"/><path class="cls-12" d="M2.88,578.29c35-1.24,51.27-19.72,70.12-38.46a288.8,288.8,0,0,0,51.39-69.5c.6-1.13-123.44,108-121.51,108"/><path class="cls-4" d="M213.92,278.71c10.28-2,16-11.09,23.46-17.77,10.25-9.24,23.18-14.51,34.06-22.85,8.06-6.17,15.07-13.92,18.07-24,3.15-10.56,1.73-21.76-.16-32.49,1.1-1.29-77,97.4-75.43,97.09"/><path class="cls-8" d="M295.53,120.59c-15.26-21.09-38.69-34.79-60.33-49C224,64.25,214.07,52.71,202.37,46.25s-30.35.68-44.17,2.34c-.43,0,9.5,9.4,31,20.66C229.87,90.56,295.53,120.59,295.53,120.59Z"/><path class="cls-8" d="M125.31,411.88c15.9-5.89,83-45.25,89.92-50.16,11.65-8.25,33.89-65.84,32.94-70.16.68-.91-124.3,120.86-122.86,120.32"/><path class="cls-9" d="M336.83,336.17c-7.12-16.86-39.08-83.16-42.39-89.9-.71-1.44-12.22,98.9-19.68,120.73-11.43,33.46-13.91,68.65-17.84,103.54-2.07,18.37-4.72,36.7-9.44,54.58-5.79-41.32-4.14-126.79-4.94-125.81C220,427.18,196.1,457,191.2,493.76c-4.72,35.37,16.22,68,13.45,102.92C189,570.79,134.2,541.2,134.2,542.11c-.35,52.93,46.61,96.75,95.58,107.95.48.11,59.35-95.62,78.92-147.73C319,475,329.36,447.44,337.56,419.45c8.15-27.84,10.79-56-.73-83.28"/><path class="cls-4" d="M148.57,811.68l-23.11.19c-31.66.26-54.43.43-54.45.38,2.71-21.49,3.54-99.63,11-170.09,2.14-20.17,4.82-39.71,8.24-57.11a3.76,3.76,0,0,1,.47-.94c.78-1.51,46.91,127.22,52,141.17A154.15,154.15,0,0,1,152,769.64C152.74,783.81,151.05,797.79,148.57,811.68Z"/><path class="cls-12" d="M125.46,811.87c-31.66.26-54.43.43-54.45.38,2.71-21.49,3.54-99.63,11-170.09C86.25,656.08,110.69,745.73,125.46,811.87Z"/><path class="cls-10" d="M169.49,630.73c-2.06-4.75-5.36-10.89-11.36-10-.66.1,13.6,31.64,13.79,30.41a36.87,36.87,0,0,0-2.43-20.39"/><path class="cls-1" d="M145.83,478.38c-3.92,7.5-4.54,37.77.5,34.18,2.7-1.91,16.91-37.54,17.25-46.66,0-1.12-17.23,11.51-17.75,12.48"/><path class="cls-4" d="M138.81,407.63a62.11,62.11,0,0,0-14.11-3.86c7.5-1.26,19.76-4.77,13.55-12.86-3.57-4.65-11.9-7-17-9.25a193.48,193.48,0,0,0-22-7.89c11.45-10.85,23.19-25.42,14.48-41.55-.51-.94-28.69,36.59-37.89,38.34-4.37.83-7.5.9-10.23,5.07-3.05,4.64-2.23,10.13-.44,15.05-6.44,1.67-10.45,6.81-11.34,13.54-1.3,9.92-3,17.67-1,27.5-12.29,1.84-14.34,22.83-8,24.86,2.73.88,4.59,0,6.84-1.38,8-4.95,14-7.82,23.67-8.12,8-.25,16,1.1,24,1.37,3.63.13,9.07.79,12.22-1.65,4-3.15,2.53-6.27-.42-8.32h7.61c4,0,9.08.47,12.63-1.84,7.58-4.94-3.2-9.86-7.31-11.49a1.37,1.37,0,0,0-.28-.05,50.43,50.43,0,0,0,13.83-2.63c3.06-1.07,9.88-3.41,10.15-7.47.24-3.6-6.38-6.29-8.88-7.38"/><path class="cls-15" d="M110.67,358.66a1.54,1.54,0,0,0-2.56-.75c-.26.06-10.57,9.71-15.7,14.12-1.35,1.15.15,2.94,1.58,2.7a20.35,20.35,0,0,0,11.18-6.1c2.2-2.26,6.29-6.58,5.5-10"/><path class="cls-15" d="M125,402.13c-8.55-2.92-17-5.21-25.44-8.58-7.26-2.9-14.25-4.49-22-2.69-1.81.42-1.36,3.13.43,3.18a68.56,68.56,0,0,1,26.54,5.85,76.23,76.23,0,0,0,8.46,3.47,1.7,1.7,0,0,0,.47.29,26,26,0,0,0,11.07,1.66,1.63,1.63,0,0,0,.43-3.18"/><path class="cls-15" d="M125.42,420.89c-11.13,1.19-46.34-13.42-53.5-12-.53.1-1.21,1.27-1.17,1.39,1.55,5.69,42.22,16.1,54.19,14.42.53-.07,2.27-4,.48-3.8"/><path class="cls-15" d="M108.58,436.5c-10.41-3.44-43-9.34-48.26-8.73a1.62,1.62,0,0,0,0,3.24c13.74,1.24,45.51,8.32,47.4,8.61a1.62,1.62,0,0,0,.86-3.12"/><path class="cls-12" d="M324.7,148.8c-4.27-18.34-20.45-72.42-48.56-60.39-1.38-7-6.15-11.94-12.05-16.14-9.62-6.85-52-31.6-62.32-33.76-1.85-.39,18,22.32,30.72,26.78,3.18,1.11,6.52,1.18,9.71,2.18,5.09,1.59,8.05,5.6,11.14,9.91,3.79,5.3,7,11.12,11.75,15.68,4.52,4.38,10.23,6.61,15.72,9.49A69.38,69.38,0,0,1,299.58,117a72,72,0,0,1,12.79,19.8c2.49,5.6,12.64,13.36,12.33,12"/><path class="cls-1" d="M124.89,578.15C124.83,579,76.12,710.39,77.2,710c1.8-.7,35-25.22,40.89-42.82a120.44,120.44,0,0,0,15.09,32.1c4.31,6.42,23.83,16.12,25.51,16.2.83,0-33.65-139.37-33.8-137.3"/></g></g></svg>