<svg xmlns="http://www.w3.org/2000/svg" xmlns:xlink="http://www.w3.org/1999/xlink" viewBox="0 0 434.74 608"><defs><style>.cls-1{fill:none;}.cls-2{fill:#f83c2d;}.cls-3{fill:#274490;}.cls-4{fill:url(#New_Pattern_14);}.cls-5{fill:#e96bbc;}</style><pattern id="New_Pattern_14" data-name="New Pattern 14" width="276.93" height="108" patternTransform="translate(-136.13 -118)" patternUnits="userSpaceOnUse" viewBox="0 0 276.93 108"><rect class="cls-1" width="276.93" height="108"/><path class="cls-2" d="M543.33,93.85H270.15c-14,0-14.3,6.7-.25,6.7H543.33C557.38,100.55,557.38,93.85,543.33,93.85Z"/><path class="cls-2" d="M266.39,93.85H-6.78c-14.06,0-14.31,6.7-.25,6.7H266.39C280.45,100.55,280.45,93.85,266.39,93.85Z"/><path class="cls-2" d="M543.33,72.25H270.15c-14,0-14.3,6.7-.25,6.7H543.33C557.38,79,557.38,72.25,543.33,72.25Z"/><path class="cls-2" d="M266.39,72.25H-6.78C-20.84,72.25-21.09,79-7,79H266.39C280.45,79,280.45,72.25,266.39,72.25Z"/><path class="cls-2" d="M543.33,50.65H270.15c-14,0-14.3,6.7-.25,6.7H543.33C557.38,57.35,557.38,50.65,543.33,50.65Z"/><path class="cls-2" d="M266.39,50.65H-6.78c-14.06,0-14.31,6.7-.25,6.7H266.39C280.45,57.35,280.45,50.65,266.39,50.65Z"/><path class="cls-2" d="M543.33,29.05H270.15c-14,0-14.3,6.7-.25,6.7H543.33C557.38,35.75,557.38,29.05,543.33,29.05Z"/><path class="cls-2" d="M266.39,29.05H-6.78c-14.06,0-14.31,6.7-.25,6.7H266.39C280.45,35.75,280.45,29.05,266.39,29.05Z"/><path class="cls-2" d="M543.33,7.45H270.15c-14,0-14.3,6.7-.25,6.7H543.33C557.38,14.15,557.38,7.45,543.33,7.45Z"/><path class="cls-2" d="M266.39,7.45H-6.78c-14.06,0-14.31,6.7-.25,6.7H266.39C280.45,14.15,280.45,7.45,266.39,7.45Z"/></pattern></defs><title>Left</title><g id="Layer_2" data-name="Layer 2"><g id="Layer_1-2" data-name="Layer 1"><rect class="cls-3" width="41" height="608"/><rect class="cls-4" y="4" width="41" height="599"/><rect class="cls-5" y="102.18" width="434.74" height="66.66"/></g></g></svg>