<svg xmlns="http://www.w3.org/2000/svg" viewBox="0 0 1162.87 592.87"><defs><style>.cls-1{fill:#274490;}.cls-2{fill:#fff;}.cls-3{fill:#e4d91b;}.cls-4{fill:#e96bbc;}.cls-5{fill:#8e659f;}.cls-6{fill:#b47ae8;}.cls-7{fill:#f83c2d;}.cls-8{fill:none;stroke:#e1da31;stroke-linecap:round;stroke-miterlimit:10;stroke-width:18px;}</style></defs><title>mujer</title><g id="Layer_2" data-name="Layer 2"><g id="Layer_1-2" data-name="Layer 1"><path class="cls-1" d="M660.41,67.37A89.87,89.87,0,0,0,687.1,78.92c24.26,6,45.56,0,47.26,5.59,1.25,4.12-10.52,7.09-15.56,19.9-2.79,7.16-3.84,18.21,1.25,26.73,8.54,14.31,28.37,11.58,30.46,21.76,1.6,7.8-9.34,12.8-7.46,18.66,2.13,6.58,17,3.26,33.39,5.83a6.26,6.26,0,0,1,1.11-2.72c2.24-3.15,28.56-6.73,34.83-1.86,5.48,4.25,6.64,10.89,7.46,15.53a42.46,42.46,0,0,1-1,18.36c-.26,1-.54,1.9-.84,2.78q4.79,5.51,8.52,10.78a164.69,164.69,0,0,1,11.64,33.36c2.82,11.81,2.76,18.75,2.28,24.92-.67,8.26-2.13,15.13,1.45,30.42,8.64,36.67,32.14,61.29,46.63,76.47s16.49,13.06,51.61,43.51c12.25,10.64,35.25,30.57,46,42.29a114.58,114.58,0,0,1,15.76,22c11.15,20,21.47,51.29,21.13,99.67h29a95.72,95.72,0,0,0-5.54-53.19,88,88,0,0,0-8.39-15.61,90.47,90.47,0,0,0-12.5-14.22c-1.6-9.15-3.08-17.43-4.53-25-5.75-29.9-11-47.64-21.82-60.3-12.78-15-25.82-20.46-31.1-39.8-1.36-5-1.11-16-.61-37.92.58-26.28,2-35.63-3.12-49.11-2.92-7.82-5.07-9.14-9.94-18-10.16-18.52-13-34.84-16.17-52.84a251,251,0,0,1-3.41-30.23c10.69-30.12,6.45-57.35,4.35-69.87A161.34,161.34,0,0,0,920.55,75.5c-6.67-11.82-19.73-34.3-46.62-52.22A141.24,141.24,0,0,0,812.38.9c-40.09-4.61-70.23,9.57-89.53,18.65C701.05,29.81,675.18,42,660.41,67.37"/><path class="cls-2" d="M631.93,233.57c2,2.24,4.23,3.08,8.39,4.67,1.92.72,6.62,2.4,10.74,3.82,0,1,0,2,0,3.17a66.51,66.51,0,0,1-1.86,11.66c-.94,3.54-1.38,3.89-1.4,5.13,0,2.44,1.7,5.68,8.78,9.69l-.39.56a15.49,15.49,0,0,0-2.8,8.86,13.38,13.38,0,0,0,3.27,8.86,12.73,12.73,0,0,0,6.84,3.86c1.31,10.07,2.65,19.81,3.88,28.32,1.35,9.36,36.11,13.14,70.11-4.63,7.43,11.17,13.62,20.22,18,26.54,13.49,19.4,18,25,21.45,36.37a71.88,71.88,0,0,1,2.8,28,66.23,66.23,0,0,1-3.16,13.91c-16.07,1.9-34,7.41-44.4,21.53-4,5.5-6.5,12.75-11.2,27a400.79,400.79,0,0,0-13.05,50.36c-3.3,17-12.61,40.9-39.06,71.6H869.79c3.18-6.71,6.92-15.14,10.66-25C894,532.33,890.79,522.54,901,509.15c20-26.32,60.56-25.35,65.28-25.18.82,0,1.64.07,2.46.13,1.94.13,3.84.31,5.71.56.6.07,1.17.16,1.75.26q3.84.58,7.45,1.49c.93.22,1.86.46,2.76.73l.85.24c.92.28,1.79.54,2.67.84,1.44.46,2.83,1,4.21,1.51.47.17.94.35,1.39.54,2.21.91,4.36,1.88,6.41,2.93a114.58,114.58,0,0,0-15.76-22c-10.76-11.72-33.76-31.65-46-42.29-35.12-30.45-37-28.27-51.61-43.51s-38-39.8-46.63-76.47c-3.58-15.29-2.12-22.16-1.45-30.42.48-6.17.54-13.11-2.28-24.92a164.69,164.69,0,0,0-11.64-33.36Q822.78,215,818,209.48a48.53,48.53,0,0,1-5,10.57c-6.28,9.75-8.9,5.39-27,23-2.5,2.42-4.18,4.21-6.53,4-7-.48-15.18-18.31-10.87-32,2.79-8.9,8.43-8.32,10.25-17.09,1.92-9.28-3.24-15.4-2.36-20.59-16.42-2.57-31.26.75-33.39-5.83-1.88-5.86,9.07-10.86,7.46-18.65-2.09-10.19-21.92-7.46-30.46-21.77-5.09-8.52-4-19.57-1.25-26.73,5-12.81,16.81-15.78,15.56-19.9-1.7-5.54-23,.43-47.26-5.59a89.87,89.87,0,0,1-26.69-11.55c-1,1.72-1.94,3.49-2.84,5.34-7,14.37-9.66,30.81-11.19,40.09-2.44,14.85-4,24.9-.93,37.31a45.23,45.23,0,0,0,3.82,10.44c2.05,4,4.29,7,6.32,11.88-.31,1.92-.72,4-1.28,6.12-1.31,5.13-3.66,14.25-10.26,23.31-8.9,12.22-11.66,15.39-11.66,15.39-1.42,1.62-3.34,3.77-3.73,7-.6,4.9,2.82,8.82,3.27,9.32"/><path class="cls-1" d="M736.06,315.12c17.89-9.45,39.75-22.47,48.08-41.77,1.42-3.3,6.24-.45,4.83,2.82-8.67,20.1-31.49,34-50.09,43.79-3.18,1.68-6-3.15-2.82-4.84"/><path class="cls-3" d="M667.83,297a17.08,17.08,0,0,1-5.09-.44,2.8,2.8,0,0,1,1.49-5.39,9.5,9.5,0,0,0,2.22.27,12.72,12.72,0,0,0,1.38,0,2.81,2.81,0,0,1,2.8,2.8,2.88,2.88,0,0,1-2.8,2.8"/><path class="cls-3" d="M768.55,215.07c-4.31,13.71,3.82,31.54,10.87,32,2.35.17,4-1.62,6.53-4,18.14-17.61,20.76-13.24,27-23a48.45,48.45,0,0,0,5-10.58c.3-.87.58-1.8.84-2.78a42.4,42.4,0,0,0,1-18.35c-.82-4.64-2-11.28-7.46-15.53-6.27-4.87-32.59-1.29-34.83,1.86a6.26,6.26,0,0,0-1.11,2.72c-.88,5.19,4.28,11.31,2.36,20.6-1.82,8.76-7.46,8.18-10.25,17.08m16.17,9.64c-5.06-.5-10-5.15-9.65-8.39.34-2.69,4.18-2.87,5.28-6.85.92-3.26-1.12-5.14.32-7.14s4-.76,5.6-2.8c1.15-1.49.39-3,.31-7.77-.07-4-.11-6.08.62-7.46,2.31-4.37,12.48-6.2,17.4-2.17,6.69,5.45,1.83,20-1.55,26.73-.86,1.7-8.49,16.82-18.33,15.85"/><path class="cls-4" d="M784.72,224.71c9.84,1,17.47-14.15,18.33-15.85,3.38-6.7,8.24-21.28,1.55-26.73-4.92-4-15.09-2.2-17.4,2.17-.73,1.38-.69,3.41-.62,7.46.08,4.81.84,6.28-.31,7.77-1.57,2-4.15.79-5.6,2.8s.6,3.88-.32,7.14c-1.1,4-4.94,4.16-5.28,6.85-.39,3.24,4.59,7.89,9.65,8.39"/><path class="cls-3" d="M900.28,475.57C857.15,465,812,470.33,771.74,488.52c-4.26,1.92-10.19-5-5.15-7.24C809,462.13,856.34,457,901.66,468.12c5.33,1.3,4.51,8.89-1.38,7.45"/><path class="cls-4" d="M660.47,245c-3.22-20.09-5.09-45.23,14-57.87,3-2,5.82,2.85,2.82,4.83-16.53,10.93-14.21,34.35-11.46,51.55.57,3.53-4.82,5-5.39,1.49"/><path class="cls-1" d="M684.5,164.83C676,154.72,661.16,157,650.69,163c-3.14,1.78-6-3.05-2.82-4.83,12.66-7.2,30.35-9.46,40.59,2.73,2.3,2.74-1.64,6.72-4,4"/><path class="cls-2" d="M740.67,91.41c1.61,7.29,4,14.71,9.24,20.25,4.72,5,11.2,6.35,16.85,9.79,10.76,6.55,14.94,18.2,15.57,30.27.29,5.57-8.67,4.68-8.92-.11-.43-8.33-2.1-17.5-9.26-22.84-5.41-4-12.24-5.31-17.55-9.67-8.52-7-12.54-17.31-14.84-27.8-1.19-5.41,7.89-4.55,8.91.11"/><path class="cls-2" d="M684.33,57.72c29.74-1.2,57.65,6.24,80.59,25.5C793,106.79,818.33,133.49,846.56,157c4.72,3.92-1.58,7.63-5.58,4.31-26.24-21.83-50.45-45.68-75.72-68.56-22.2-20.11-47.74-28.63-77.87-27.41-4.36.17-8.82-7.36-3.06-7.59"/><path class="cls-2" d="M880.06,286.83c.52,35.35,10.32,75.43,33,103.4,9.3,11.49,20.51,18.35,32.17,26.91,15.47,11.36,29.58,24.73,42.64,38.76,2.7,2.89-6.34,3-8.35.8-13.87-14.9-29-29.08-45.75-40.68-12.56-8.68-23.58-17.14-32.7-29.74-20.62-28.48-29.62-66.53-30.13-101.2,0-2.89,9.11-1.72,9.16,1.75"/><path class="cls-4" d="M869.79,592.87H1023c.34-48.38-10-79.64-21.13-99.67-2-1.05-4.2-2-6.41-2.93-.45-.19-.92-.37-1.39-.54-1.38-.52-2.77-1.05-4.21-1.51-.88-.3-1.75-.56-2.67-.84l-.85-.24c-.9-.27-1.83-.51-2.77-.73q-3.6-.9-7.44-1.49c-.58-.1-1.15-.19-1.75-.26-1.87-.25-3.77-.43-5.71-.56-.82-.06-1.64-.1-2.46-.13-4.72-.17-45.23-1.14-65.28,25.17-10.18,13.4-7,23.19-20.52,58.76-3.74,9.83-7.47,18.26-10.66,25"/><rect class="cls-5" x="366.4" y="557.04" width="29.14" height="11.46" transform="translate(-286.45 434.71) rotate(-45.04)"/><polygon class="cls-4" points="446.28 475.33 418.02 500.54 450.09 495.95 446.28 475.33"/><polygon class="cls-6" points="1054.5 193.73 1023.79 183.59 1027 232.62 1054.5 193.73"/><path class="cls-3" d="M447.42,534.33a7.07,7.07,0,1,1-7.06-7.06A7.07,7.07,0,0,1,447.42,534.33Z"/><path class="cls-4" d="M1136.94,367.83a32.75,32.75,0,1,1-32.74-32.75A32.74,32.74,0,0,1,1136.94,367.83Z"/><path class="cls-3" d="M1013.14,424.8l-2.64-2c-.6-2.12.67-3,4.88-5.82,2.36-1.6,5.83-3.86,10.33-6.75,7.55-4.83,18.1-11.47,31.37-19.74,22.57-14.06,45.48-28.14,45.71-28.28l2.82,4.59c-34.68,21.3-87.39,54.05-90.5,57a2.59,2.59,0,0,0,.48-2.71l-2.45,1Z"/><rect class="cls-3" x="968.83" y="169.63" width="40.27" height="8.51" transform="translate(418.51 1000.24) rotate(-65.35)"/><rect class="cls-5" x="421.34" y="409.86" width="94.71" height="19.5" transform="matrix(0.85, -0.53, 0.53, 0.85, -150.51, 308.55)"/><polygon class="cls-4" points="535 452.61 509 513.72 575.31 464.45 535 452.61"/><path class="cls-3" d="M583.11,373.3a13,13,0,1,1-13-13A13,13,0,0,1,583.11,373.3Z"/><rect class="cls-3" x="519.08" y="442.3" width="7.8" height="102.52" transform="translate(-136.49 780.26) rotate(-66.84)"/><path class="cls-4" d="M1136.56,115.49a58,58,0,1,1-58-58.14A58,58,0,0,1,1136.56,115.49Z"/><circle class="cls-7" cx="1078.53" cy="115.49" r="19.99" transform="translate(718.33 1138.63) rotate(-76.72)"/><path class="cls-3" d="M687.26,515.16a37.34,37.34,0,1,1-37.33-37.33A37.34,37.34,0,0,1,687.26,515.16Z"/><polygon class="cls-6" points="240.92 461.16 232.31 487 267.59 487 267.59 458.54 240.92 461.16"/><polygon class="cls-6" points="240.64 461.24 267.59 487.17 267.59 458.54 240.64 461.24"/><rect class="cls-4" x="153.4" y="502.19" width="53.09" height="6.14" transform="translate(-287.82 242.83) rotate(-41.1)"/><polygon class="cls-6" points="1120.95 431.09 1158.63 406.81 1162.87 434.61 1145.15 427.39 1142.3 458.26 1120.95 431.09"/><rect class="cls-4" x="342.25" y="458.73" width="26.96" height="4.25" transform="translate(-223.46 519.66) rotate(-58.13)"/><rect class="cls-4" x="266.21" y="528.28" width="4.25" height="26.96" transform="translate(-332.97 604.54) rotate(-69.61)"/><path class="cls-8" d="M1149.59,203c-115.93-3.66-284.22,366-284.22,366S781.23,356.72,603.59,450.05"/><rect class="cls-5" x="14.81" y="211.89" width="21.79" height="59.16" transform="translate(-131.91 56.73) rotate(-34.39)"/><polygon class="cls-4" points="86.08 192.39 107.86 235.97 136.92 192.7 86.08 192.39"/><path class="cls-3" d="M85.26,349.06a10.54,10.54,0,1,1-10.54-10.53A10.53,10.53,0,0,1,85.26,349.06Z"/><rect class="cls-3" x="31.73" y="291.3" width="127.39" height="8.72" transform="translate(-36.34 14.31) rotate(-7.21)"/><rect class="cls-5" x="977.08" y="457.21" width="68.99" height="31.79" transform="translate(79.56 1088.29) rotate(-58.49)"/><rect class="cls-3" x="979.69" y="519.73" width="173.97" height="12.72" transform="translate(-102.66 308.78) rotate(-15.73)"/></g></g></svg>