<?xml version="1.0" encoding="utf-8"?>
<!-- Generator: Adobe Illustrator 23.0.1, SVG Export Plug-In . SVG Version: 6.00 Build 0)  -->
<svg version="1.1" id="Layer_1" xmlns="http://www.w3.org/2000/svg" xmlns:xlink="http://www.w3.org/1999/xlink" x="0px" y="0px"
	 viewBox="0 0 672 515.1" style="enable-background:new 0 0 672 515.1;" xml:space="preserve">
<style type="text/css">
	.st0{fill:none;}
	.st1{fill:#E96BBC;}
	.st2{fill:#274490;}
	.st3{fill:#E4D91B;}
	.st4{fill:url(#SVGID_1_);}
	.st5{fill:#1AB687;}
	.st6{fill:#FFFFFF;}
	.st7{fill:#B1D3D3;}
	.st8{fill:#F83C2D;}
</style>
<pattern  y="515.1" width="630" height="620" patternUnits="userSpaceOnUse" id="New_Pattern_4" viewBox="44.7 -666.9 630 620" style="overflow:visible;">
	<g>
		<rect x="44.7" y="-666.9" class="st0" width="630" height="620"/>
		<rect x="44.7" y="-666.9" class="st0" width="630" height="620"/>
		<polygon class="st1" points="79,-672.4 83.1,-663.3 131.5,-685.2 127.4,-694.3 		"/>
		<polygon class="st1" points="501.1,-660.3 511.1,-660.2 511.4,-713.3 501.4,-713.4 		"/>
		<polygon class="st1" points="694.9,-304.3 703.9,-308.6 680.9,-356.5 671.9,-352.2 		"/>
		<polygon class="st1" points="686.2,-239.5 695.2,-243.9 672.2,-291.7 663.2,-287.4 		"/>
		<polygon class="st1" points="698.8,-133.4 701.6,-143 650.5,-157.5 647.8,-147.9 		"/>
		<polygon class="st1" points="692.8,-523.5 668.3,-508 673.6,-499.5 698.1,-515.1 		"/>
		<polygon class="st1" points="675.4,-468.5 671.1,-459.4 700.4,-445.4 704.8,-454.5 		"/>
		<polygon class="st1" points="66.7,-394.9 64.8,-385.1 113.3,-376.1 115.2,-385.9 		"/>
		<polygon class="st1" points="329.6,-377.2 311.2,-334.3 320.4,-330.4 338.8,-373.2 		"/>
		<polygon class="st1" points="314.6,-486.2 296.2,-443.3 305.4,-439.4 323.8,-482.2 		"/>
		<polygon class="st1" points="152.6,-274.2 134.2,-231.3 143.4,-227.4 161.8,-270.2 		"/>
		<polygon class="st1" points="509.6,-363.2 491.2,-320.3 500.5,-316.4 518.8,-359.2 		"/>
		<polygon class="st1" points="359.3,-164 353.2,-156.1 395.2,-123.6 401.3,-131.5 		"/>
		<polygon class="st1" points="566.5,-402 562.5,-411.1 514,-389.5 518,-380.4 		"/>
		<polygon class="st1" points="406.2,-233.7 414.7,-239 386.2,-283.9 377.8,-278.5 		"/>
		<polygon class="st1" points="127.9,-256.1 127.7,-266.1 74.6,-265.5 74.8,-255.5 		"/>
		<polygon class="st1" points="393.3,-363.3 384.6,-358.3 411.2,-312.3 419.9,-317.3 		"/>
		<polygon class="st1" points="283.3,-344.3 274.6,-339.3 301.2,-293.3 309.9,-298.3 		"/>
		<polygon class="st1" points="233.3,-395.3 224.7,-390.3 251.2,-344.3 259.9,-349.3 		"/>
		<polygon class="st1" points="151.3,-466.3 142.6,-461.3 169.2,-415.3 177.9,-420.3 		"/>
		<polygon class="st1" points="159.3,-158.3 150.6,-153.3 177.2,-107.3 185.9,-112.3 		"/>
		<polygon class="st1" points="147.9,-442.2 137.9,-442.4 136.6,-389.4 146.6,-389.1 		"/>
		<polygon class="st1" points="49.2,-375.4 45.2,-366.2 94,-345.2 97.9,-354.4 		"/>
		<polygon class="st1" points="318.3,-574.3 309.6,-569.3 336.2,-523.3 344.9,-528.3 		"/>
		<polygon class="st1" points="497.3,-523.3 488.6,-518.3 515.2,-472.3 523.8,-477.3 		"/>
		<polygon class="st1" points="399.3,-637.3 390.6,-632.3 417.2,-586.3 425.9,-591.3 		"/>
		<polygon class="st1" points="451.3,-411.3 442.6,-406.3 469.2,-360.3 477.9,-365.3 		"/>
		<polygon class="st1" points="371.1,-556.3 361.2,-557.8 353.4,-505.2 363.3,-503.8 		"/>
		<polygon class="st1" points="578.3,-647.3 569.6,-642.3 596.2,-596.3 604.8,-601.3 		"/>
		<polygon class="st1" points="221.3,-622.3 212.7,-617.3 239.2,-571.3 247.9,-576.3 		"/>
		<polygon class="st1" points="190,-148.4 194.1,-139.3 242.5,-161.2 238.4,-170.3 		"/>
		<polygon class="st1" points="79,-52.4 83.1,-43.3 131.5,-65.2 127.4,-74.3 		"/>
		<polygon class="st1" points="179.2,-201.9 174,-193.4 219.2,-165.6 224.5,-174.1 		"/>
		<polygon class="st1" points="238.2,-188.5 233,-180 278.2,-152.1 283.5,-160.7 		"/>
		<polygon class="st1" points="262.9,-311 257.7,-302.5 302.9,-274.7 308.2,-283.2 		"/>
		<polygon class="st1" points="248,-123.2 242.8,-114.6 288,-86.8 293.2,-95.3 		"/>
		<polygon class="st1" points="392,-524.4 396.1,-515.3 444.5,-537.2 440.4,-546.3 		"/>
		<polygon class="st1" points="454.3,-641.3 464,-643.5 452.2,-695.3 442.5,-693.1 		"/>
		<polygon class="st1" points="376,-646.4 380.1,-637.3 428.5,-659.2 424.4,-668.3 		"/>
		<polygon class="st1" points="630,-472.4 634.1,-463.3 682.5,-485.2 678.4,-494.3 		"/>
		<polygon class="st1" points="114.3,-200.3 105.6,-195.3 132.2,-149.3 140.9,-154.3 		"/>
		<polygon class="st1" points="562.3,-315.3 553.6,-310.3 580.2,-264.3 588.8,-269.3 		"/>
		<polygon class="st1" points="409.3,-116.3 400.6,-111.3 427.2,-65.3 435.9,-70.3 		"/>
		<polygon class="st1" points="441.2,-260.5 447.3,-252.5 489.3,-285.1 483.2,-293 		"/>
		<polygon class="st1" points="632.2,-198.5 638.3,-190.5 680.3,-223.1 674.2,-231 		"/>
		<polygon class="st1" points="563.2,-142.4 569.3,-134.5 611.3,-167.1 605.2,-175 		"/>
		<polygon class="st1" points="502.2,-162.4 508.3,-154.5 550.3,-187.1 544.2,-195 		"/>
		<polygon class="st1" points="332.7,-250.5 326.8,-242.4 369.8,-211.1 375.7,-219.2 		"/>
		<polygon class="st1" points="539.2,-62.5 545.3,-54.5 587.3,-87.1 581.2,-95 		"/>
		<polygon class="st1" points="514.2,-428.4 520.3,-420.5 562.3,-453.1 556.2,-461 		"/>
		<polygon class="st1" points="501.1,-40.3 511.1,-40.2 511.4,-93.3 501.4,-93.4 		"/>
		<polygon class="st1" points="519.1,-283.3 529.1,-283.2 529.4,-336.3 519.4,-336.4 		"/>
		<polygon class="st1" points="448.1,-527.3 458.1,-527.2 458.4,-580.3 448.4,-580.4 		"/>
		<polygon class="st1" points="545.1,-620.3 555.1,-620.2 555.4,-673.3 545.4,-673.4 		"/>
		<polygon class="st1" points="566.2,-366.4 572.3,-358.5 614.3,-391.1 608.2,-399 		"/>
		<polygon class="st1" points="542.1,-335.9 539.6,-326.3 590.9,-312.8 593.5,-322.5 		"/>
		<polygon class="st1" points="545.2,-431.1 542.7,-421.4 594.1,-407.9 596.6,-417.6 		"/>
		<polygon class="st1" points="632.2,-408.4 638.3,-400.5 680.3,-433.1 674.2,-441 		"/>
		<polygon class="st1" points="176.3,-342.7 185.3,-347 162.2,-394.9 153.2,-390.5 		"/>
		<polygon class="st1" points="64.9,-304.3 74,-308.6 50.9,-356.5 41.9,-352.2 		"/>
		<polygon class="st1" points="157.7,-319.1 166.7,-323.4 143.6,-371.3 134.6,-367 		"/>
		<polygon class="st1" points="120.3,-272.7 129.3,-277 106.2,-324.9 97.2,-320.5 		"/>
		<polygon class="st1" points="72.3,-148.7 81.3,-153 58.2,-200.9 49.2,-196.5 		"/>
		<polygon class="st1" points="197.3,-200.7 206.3,-205 183.2,-252.9 174.2,-248.5 		"/>
		<polygon class="st1" points="56.2,-239.5 65.2,-243.9 42.2,-291.7 33.2,-287.4 		"/>
		<polygon class="st1" points="68.8,-133.4 71.6,-143 20.5,-157.5 17.8,-147.9 		"/>
		<polygon class="st1" points="248.3,-55.7 257.3,-60 234.2,-107.9 225.2,-103.5 		"/>
		<polygon class="st1" points="476.9,-402.9 470.5,-395.3 489.6,-379.1 496,-386.8 		"/>
		<polygon class="st1" points="251.8,-207.3 248.7,-197.8 289.2,-184.3 292.3,-193.8 		"/>
		<polygon class="st1" points="240.8,-477.3 237.7,-467.8 278.2,-454.3 281.3,-463.8 		"/>
		<polygon class="st1" points="267.7,-248.6 247.7,-239.6 251.8,-230.5 271.8,-239.5 		"/>
		<polygon class="st1" points="261.7,-441.6 241.7,-432.6 245.8,-423.5 265.8,-432.5 		"/>
		<polygon class="st1" points="299.7,-371.6 279.7,-362.6 283.8,-353.5 303.8,-362.5 		"/>
		<polygon class="st1" points="205.7,-394.6 185.7,-385.6 189.8,-376.5 209.8,-385.5 		"/>
		<polygon class="st1" points="122.7,-362.6 102.7,-353.6 106.8,-344.5 126.8,-353.5 		"/>
		<polygon class="st1" points="309.7,-550.6 289.7,-541.6 293.8,-532.5 313.8,-541.5 		"/>
		<polygon class="st1" points="198.7,-606.6 178.7,-597.6 182.8,-588.5 202.8,-597.5 		"/>
		<polygon class="st1" points="290.7,-610.6 270.7,-601.6 274.8,-592.5 294.8,-601.5 		"/>
		<polygon class="st1" points="290.4,-664.3 277.1,-646.8 285.1,-640.8 298.4,-658.3 		"/>
		<polygon class="st1" points="359.4,-622.3 346.1,-604.8 354.1,-598.8 367.4,-616.3 		"/>
		<polygon class="st1" points="399.4,-461.3 386.1,-443.8 394.1,-437.8 407.4,-455.3 		"/>
		<polygon class="st1" points="461.7,-512.6 441.7,-503.6 445.8,-494.5 465.8,-503.5 		"/>
		<polygon class="st1" points="141.7,-506.6 121.7,-497.6 125.8,-488.5 145.8,-497.5 		"/>
		<polygon class="st1" points="355.8,-342.4 336,-351.7 331.7,-342.7 351.5,-333.3 		"/>
		<polygon class="st1" points="538.5,-533.4 516.9,-537.5 515,-527.7 536.6,-523.5 		"/>
		<polygon class="st1" points="623.5,-488.4 601.9,-492.5 600,-482.7 621.6,-478.5 		"/>
		<polygon class="st1" points="552,-475.1 530.4,-479.3 528.5,-469.5 550.1,-465.3 		"/>
		<polygon class="st1" points="556.8,-567.8 535.3,-572 533.4,-562.2 554.9,-558 		"/>
		<polygon class="st1" points="350.5,-486.4 328.9,-490.5 327,-480.7 348.6,-476.5 		"/>
		<polygon class="st1" points="594.5,-340.4 572.9,-344.5 571,-334.7 592.6,-330.5 		"/>
		<polygon class="st1" points="577.5,-249.4 555.9,-253.5 554,-243.7 575.6,-239.5 		"/>
		<polygon class="st1" points="489.5,-340.4 467.9,-344.5 466,-334.7 487.6,-330.5 		"/>
		<polygon class="st1" points="373.7,-376.6 353.7,-367.6 357.8,-358.5 377.8,-367.5 		"/>
		<polygon class="st1" points="627.7,-309.6 607.7,-300.6 611.8,-291.5 631.8,-300.5 		"/>
		<polygon class="st1" points="669.8,-383.9 649.8,-374.9 653.8,-365.8 673.8,-374.8 		"/>
		<polygon class="st1" points="378.8,-431 380.8,-409.1 390.7,-410.1 388.7,-431.9 		"/>
		<polygon class="st1" points="197.7,-339.6 177.7,-330.6 181.8,-321.5 201.8,-330.5 		"/>
		<polygon class="st1" points="73.2,-423.6 53.2,-414.6 57.3,-405.5 77.3,-414.5 		"/>
		<polygon class="st1" points="108.9,-163.6 88.9,-154.6 93,-145.5 113,-154.5 		"/>
		<polygon class="st1" points="614.7,-214.6 594.7,-205.6 598.8,-196.5 618.8,-205.5 		"/>
		<polygon class="st1" points="236.7,-143.6 216.7,-134.6 220.8,-125.5 240.8,-134.5 		"/>
		<polygon class="st1" points="191.1,-167.3 171.1,-158.3 175.2,-149.2 195.2,-158.2 		"/>
		<polygon class="st1" points="97.7,-90.6 77.7,-81.6 81.8,-72.5 101.8,-81.5 		"/>
		<polygon class="st1" points="657.7,-282.6 637.7,-273.6 641.8,-264.5 661.8,-273.5 		"/>
		<polygon class="st1" points="490.7,-261.6 470.7,-252.6 474.8,-243.5 494.8,-252.5 		"/>
		<polygon class="st1" points="467.7,-183.6 447.7,-174.6 451.8,-165.5 471.8,-174.5 		"/>
		<polygon class="st1" points="427.8,-141.4 407.8,-132.4 411.9,-123.3 431.9,-132.3 		"/>
		<polygon class="st1" points="450.6,-118 430.6,-109 434.7,-99.9 454.7,-108.9 		"/>
		<polygon class="st1" points="390.9,-184.1 370.9,-175.1 375,-166 395,-175 		"/>
		<polygon class="st1" points="392.7,-214.6 372.7,-205.6 376.8,-196.5 396.8,-205.5 		"/>
		<polygon class="st1" points="448.6,-154.5 443.9,-145.7 471.4,-131 476.1,-139.9 		"/>
		<polygon class="st1" points="203.1,-280.5 201.4,-270.6 228.9,-265.6 230.6,-275.5 		"/>
		<polygon class="st1" points="319.7,-283.7 317.9,-273.8 345.4,-268.8 347.2,-278.7 		"/>
		<polygon class="st1" points="173,-269 171.2,-259.2 198.7,-254.2 200.5,-264 		"/>
		<polygon class="st1" points="193.4,-415.3 191.6,-405.4 219.1,-400.4 220.9,-410.3 		"/>
		<polygon class="st1" points="510.3,-564.6 506.2,-555.5 534.7,-542.5 538.8,-551.6 		"/>
		<polygon class="st1" points="635.5,-554.4 613.9,-558.5 612,-548.7 633.6,-544.5 		"/>
		<polygon class="st1" points="607.3,-585.6 603.2,-576.5 631.7,-563.5 635.8,-572.6 		"/>
		<polygon class="st1" points="651.8,-609.8 647.6,-600.7 676.1,-587.7 680.3,-596.8 		"/>
		<polygon class="st1" points="587,-684.4 578.3,-679.6 593.4,-652.2 602.2,-657 		"/>
		<polygon class="st1" points="428.3,-639.6 424.2,-630.5 452.7,-617.5 456.8,-626.6 		"/>
		<polygon class="st1" points="624.3,-650.6 620.2,-641.5 648.7,-628.5 652.8,-637.6 		"/>
		<polygon class="st1" points="471.3,-557.6 467.2,-548.5 495.7,-535.5 499.8,-544.6 		"/>
		<polygon class="st1" points="378.4,-517.6 374.2,-508.5 402.7,-495.5 406.9,-504.6 		"/>
		<polygon class="st1" points="405,-583.2 390.5,-539.5 400,-536.4 414.5,-580 		"/>
		<polygon class="st1" points="193,-554.2 178.5,-510.5 188,-507.4 202.5,-551 		"/>
		<polygon class="st1" points="76.4,-514.3 62,-470.7 71.5,-467.5 85.9,-511.2 		"/>
		<polygon class="st1" points="92,-241.2 77.5,-197.5 87,-194.4 101.5,-238 		"/>
		<polygon class="st1" points="347,-198.2 332.5,-154.5 342,-151.4 356.5,-195 		"/>
		<polygon class="st1" points="587.4,-101.3 604.3,-58.6 613.6,-62.3 596.7,-105 		"/>
		<polygon class="st1" points="380,-98.2 365.5,-54.5 375,-51.4 389.5,-95 		"/>
		<polygon class="st1" points="574,-219.2 559.5,-175.5 569,-172.4 583.5,-216 		"/>
		<polygon class="st1" points="93,-441 87.5,-432.6 120.9,-410.9 126.3,-419.3 		"/>
		<polygon class="st1" points="199.4,-314.8 198.4,-304.9 252.4,-299.5 253.4,-309.5 		"/>
		<polygon class="st1" points="324.4,-314.8 323.4,-304.9 377.4,-299.5 378.4,-309.5 		"/>
		<polygon class="st1" points="587.8,-291.5 586.8,-281.6 640.8,-276.3 641.8,-286.2 		"/>
		<polygon class="st1" points="354.4,-407.8 353.4,-397.9 407.4,-392.5 408.4,-402.5 		"/>
		<polygon class="st1" points="469.4,-649.8 468.4,-639.9 522.4,-634.5 523.4,-644.5 		"/>
		<polygon class="st1" points="402.1,-161.6 411.2,-157.4 433.7,-206.8 424.6,-211 		"/>
		<polygon class="st1" points="183.1,-59.6 192.2,-55.4 214.7,-104.8 205.6,-109 		"/>
		<polygon class="st1" points="275.6,-83.4 274.4,-73.5 328.3,-67 329.5,-76.9 		"/>
		<polygon class="st1" points="52.6,-115.4 51.4,-105.5 105.3,-99 106.4,-108.9 		"/>
		<polygon class="st1" points="611.6,-98.4 610.4,-88.5 664.3,-82 665.4,-91.9 		"/>
		<polygon class="st1" points="294.1,-167.6 303.2,-163.4 325.7,-212.8 316.6,-217 		"/>
		<polygon class="st1" points="137.1,-563.6 146.2,-559.4 168.7,-608.8 159.6,-613 		"/>
		<polygon class="st1" points="473.1,-583.6 482.2,-579.4 504.7,-628.8 495.6,-633 		"/>
		<polygon class="st1" points="49.1,-559.6 58.2,-555.4 80.7,-604.8 71.6,-609 		"/>
		<polygon class="st1" points="515.9,-254.5 524.4,-259.7 495.9,-305.9 487.4,-300.7 		"/>
		<polygon class="st1" points="259.1,-531.6 268.2,-527.4 290.7,-576.8 281.6,-581 		"/>
		<polygon class="st1" points="455.1,-426.6 464.2,-422.4 486.7,-471.8 477.6,-476 		"/>
		<polygon class="st1" points="595.1,-410.6 604.2,-406.4 626.7,-455.8 617.6,-460 		"/>
		<polygon class="st1" points="412.6,-296.7 405.2,-289.9 422.6,-271.1 429.9,-277.9 		"/>
		<polygon class="st1" points="365.6,-252.7 358.2,-245.9 375.6,-227.1 382.9,-233.9 		"/>
		<polygon class="st1" points="424.9,-171.1 417.6,-164.3 434.9,-145.5 442.3,-152.3 		"/>
		<polygon class="st1" points="532.1,-236.9 524.8,-230.1 542.1,-211.3 549.5,-218.1 		"/>
		<polygon class="st1" points="449.7,-241.2 442.4,-234.4 459.7,-215.7 467,-222.5 		"/>
		<polygon class="st1" points="287.2,-231.9 279.9,-225.1 297.2,-206.4 304.6,-213.2 		"/>
		<polygon class="st1" points="342.2,-142.2 334.9,-135.4 352.2,-116.7 359.5,-123.4 		"/>
		<polygon class="st1" points="265.6,-143.7 258.2,-136.9 275.6,-118.1 282.9,-124.9 		"/>
		<polygon class="st1" points="231.6,-239.7 224.2,-232.9 241.6,-214.1 248.9,-220.9 		"/>
		<polygon class="st1" points="134.7,-142.6 114.7,-133.6 118.8,-124.5 138.8,-133.5 		"/>
		<polygon class="st1" points="98.6,-133.7 91.2,-126.9 108.6,-108.1 115.9,-114.9 		"/>
		<polygon class="st1" points="140.2,-639.9 110.9,-607.9 118.3,-601.1 147.6,-633.1 		"/>
		<polygon class="st1" points="103.7,-517.9 94.2,-514.9 110.1,-464 119.7,-467 		"/>
		<polygon class="st1" points="437.7,-369.9 428.1,-366.9 444.1,-316 453.7,-319 		"/>
		<polygon class="st1" points="616.9,-374.8 607.4,-371.8 623.4,-320.9 632.9,-323.9 		"/>
		<polygon class="st1" points="421.4,-438.2 411.9,-435.2 427.9,-384.3 437.4,-387.3 		"/>
		<polygon class="st1" points="609.5,-247.8 606.8,-238.1 658.3,-224.1 661,-233.7 		"/>
		<polygon class="st1" points="581.3,-518.3 585.2,-509.1 634.5,-529.5 630.6,-538.8 		"/>
		<polygon class="st1" points="503.8,-577.8 510.5,-570.3 550.1,-606.1 543.4,-613.5 		"/>
		<polygon class="st1" points="526.8,-500.8 533.5,-493.3 573.1,-529.1 566.4,-536.5 		"/>
		<polygon class="st1" points="280.8,-488.8 287.5,-481.3 327.1,-517.1 320.4,-524.5 		"/>
		<polygon class="st1" points="437.7,-494.9 428.1,-491.9 444.1,-441 453.7,-444 		"/>
		<polygon class="st1" points="95.5,-304 74.2,-290 79.7,-281.7 101,-295.6 		"/>
		<polygon class="st1" points="102.5,-582 81.2,-568 86.7,-559.7 108,-573.6 		"/>
		<polygon class="st1" points="141.9,-324.4 135.3,-316.8 166.6,-289.7 173.2,-297.3 		"/>
		<polygon class="st1" points="568.5,-597.7 560.7,-591.4 598.7,-544.4 606.5,-550.7 		"/>
		<polygon class="st1" points="641.5,-673.3 633.7,-667 671.7,-620 679.5,-626.3 		"/>
		<polygon class="st1" points="562.5,-494.7 554.7,-488.4 592.7,-441.4 600.5,-447.7 		"/>
		<polygon class="st1" points="641.5,-364.7 633.7,-358.4 671.7,-311.4 679.5,-317.7 		"/>
		<polygon class="st1" points="641.5,-591.7 633.7,-585.4 671.7,-538.4 679.5,-544.7 		"/>
		<polygon class="st1" points="221.5,-541.7 213.7,-535.4 251.7,-488.4 259.5,-494.7 		"/>
		<polygon class="st1" points="244.5,-666.7 236.7,-660.4 274.7,-613.4 282.5,-619.7 		"/>
		<polygon class="st1" points="160.7,-571.9 160.1,-561.9 220.4,-558.2 221.1,-568.2 		"/>
		<polygon class="st1" points="326,-579.4 327.8,-569.6 387.2,-580.7 385.4,-590.5 		"/>
		<polygon class="st1" points="336.5,-626.2 344.8,-631.8 311,-681.9 302.7,-676.3 		"/>
		<polygon class="st1" points="56.5,-673.7 48.7,-667.4 86.7,-620.4 94.5,-626.7 		"/>
		<polygon class="st1" points="173.3,-502.5 148.8,-487 154.2,-478.5 178.7,-494.1 		"/>
		<polygon class="st1" points="216.3,-469.5 191.8,-454 197.2,-445.5 221.7,-461.1 		"/>
		<polygon class="st1" points="62.8,-523.5 38.3,-508 43.6,-499.5 68.1,-515.1 		"/>
		<polygon class="st1" points="258.4,-402 254.1,-393 283.4,-379 287.7,-388 		"/>
		<polygon class="st1" points="297.1,-404.1 292.8,-395 322.1,-381 326.4,-390.1 		"/>
		<polygon class="st1" points="190.2,-353 196.1,-344.9 222.4,-364 216.5,-372.1 		"/>
		<polygon class="st1" points="173.4,-654 169.1,-645 198.4,-631 202.7,-640 		"/>
		<polygon class="st1" points="45.4,-468.5 41.1,-459.4 70.4,-445.4 74.8,-454.5 		"/>
		<polygon class="st1" points="222.9,-518.4 212.9,-519.6 209,-487.1 218.9,-485.9 		"/>
		<polygon class="st1" points="159.9,-679.9 149.9,-681.1 146,-648.6 155.9,-647.4 		"/>
		<polygon class="st1" points="222.9,-665.5 212.9,-666.7 209,-634.2 218.9,-633 		"/>
		<rect x="290.2" y="-424.5" class="st1" width="39" height="10"/>
		<rect x="55.2" y="-542.5" class="st1" width="39" height="10"/>
		<rect x="372.2" y="-488.5" class="st1" width="39" height="10"/>
		<polygon class="st1" points="322.9,-620.4 300.4,-588.5 308.6,-582.7 331.1,-614.6 		"/>
		<polygon class="st1" points="342.7,-685.2 348.3,-646.6 358.2,-648.1 352.6,-686.7 		"/>
		<polygon class="st1" points="509.1,-228.5 475.8,-202.1 482,-194.3 515.3,-220.6 		"/>
		<polygon class="st1" points="537.1,-145.1 495.3,-152.3 493.6,-142.4 535.4,-135.3 		"/>
		<polygon class="st1" points="501.1,-130.4 467.8,-104.1 474,-96.3 507.4,-122.6 		"/>
		<polygon class="st1" points="657,-122.4 624.7,-149.9 618.2,-142.3 650.5,-114.8 		"/>
		<polygon class="st1" points="570,-108.4 537.7,-135.9 531.2,-128.3 563.5,-100.8 		"/>
		<polygon class="st1" points="353.3,-113.1 314.1,-96.8 317.9,-87.6 357.1,-103.9 		"/>
		<polygon class="st1" points="329,-129.4 296.7,-156.9 290.2,-149.3 322.5,-121.8 		"/>
		<polygon class="st1" points="165,-169 166.2,-211.5 156.2,-211.7 155,-169.3 		"/>
		<polygon class="st1" points="268,-263.4 235.7,-290.9 229.2,-283.3 261.5,-255.8 		"/>
		<polygon class="st1" points="155.5,-129.4 145.7,-127.7 153,-84.9 162.8,-86.6 		"/>
		<polygon class="st1" points="117.9,-237.8 109.7,-232.1 134.6,-196.5 142.8,-202.2 		"/>
		<polygon class="st1" points="373.5,-457.5 350.5,-430.8 358,-424.3 381,-450.9 		"/>
		<polygon class="st1" points="499.6,-453.4 507.5,-432.9 516.8,-436.5 509,-457 		"/>
		<polygon class="st1" points="474.4,-490.9 494,-481 498.5,-489.9 478.9,-499.8 		"/>
		<polygon class="st1" points="489.2,-429.4 499.6,-395.7 509.2,-398.7 498.7,-432.3 		"/>
		<polygon class="st1" points="124.1,-530.7 121.8,-521 161.1,-511.5 163.4,-521.2 		"/>
		<polygon class="st1" points="234.7,-347.9 225.8,-343.2 238.5,-319.2 247.3,-323.9 		"/>
		<polygon class="st1" points="0,-472.4 4.1,-463.3 52.5,-485.2 48.4,-494.3 		"/>
		<polygon class="st1" points="2.2,-198.5 8.3,-190.5 50.3,-223.1 44.2,-231 		"/>
		<polygon class="st1" points="2.2,-408.4 8.3,-400.5 50.3,-433.1 44.2,-441 		"/>
		<polygon class="st1" points="21.8,-609.8 17.6,-600.7 46.1,-587.7 50.3,-596.8 		"/>
		<polygon class="st1" points="11.5,-673.3 3.7,-667 41.7,-620 49.5,-626.3 		"/>
		<polygon class="st1" points="11.5,-364.7 3.7,-358.4 41.7,-311.4 49.5,-317.7 		"/>
		<polygon class="st1" points="11.5,-591.7 3.7,-585.4 41.7,-538.4 49.5,-544.7 		"/>
		<polygon class="st1" points="454.3,-21.3 464,-23.5 452.2,-75.3 442.5,-73.1 		"/>
		<polygon class="st1" points="376,-26.4 380.1,-17.3 428.5,-39.2 424.4,-48.3 		"/>
		<polygon class="st1" points="545.1,-0.3 555.1,-0.2 555.4,-53.3 545.4,-53.4 		"/>
		<polygon class="st1" points="587,-64.4 578.3,-59.6 593.4,-32.2 602.2,-37 		"/>
		<polygon class="st1" points="641.5,-53.3 633.7,-47 671.7,0 679.5,-6.3 		"/>
		<polygon class="st1" points="336.5,-6.2 344.8,-11.8 311,-61.9 302.7,-56.3 		"/>
		<polygon class="st1" points="56.5,-53.7 48.7,-47.4 86.7,-0.4 94.5,-6.7 		"/>
		<polygon class="st1" points="159.9,-59.9 149.9,-61.1 146,-28.6 155.9,-27.4 		"/>
		<polygon class="st1" points="342.7,-65.2 348.3,-26.6 358.2,-28.1 352.6,-66.7 		"/>
		<polygon class="st1" points="11.5,-53.3 3.7,-47 41.7,0 49.5,-6.3 		"/>
	</g>
</pattern>
<title>tucan</title>
<g>
	<g id="Layer_1-2">
		<polygon class="st2" points="386.3,91.6 386.3,490.3 109.3,490.3 		"/>
		<polygon class="st3" points="386.3,96.6 386.3,490.3 663.3,490.3 		"/>
		<pattern  id="SVGID_1_" xlink:href="#New_Pattern_4" patternTransform="matrix(1 0 0 -1 563 -17419.0996)">
		</pattern>
		<polygon class="st4" points="386.3,96.6 386.3,490.3 663.3,490.3 		"/>
		<path class="st3" d="M671.5,433c0-1,5.9-241.7-22.5-308.2c-13-30.5-44.6-83.4-77.7-91.8c-15.8-4-80-41.6-93-31.1
			c-11.3,9.1-20.6,95.6-28.3,109.3c-13.7,24.4-30.1,41.1-46,62.7c-26.8,36.4-7.8,90.2,23.1,120.6c49.1,48.4,99.5,165,166.2,159.2
			C594.8,450.2,671.5,433,671.5,433z"/>
		<path class="st2" d="M654.8,149.1c-38.4,17.6-71.2,4-106.2-9c-5.7,21.2-18.6,36.8-31.2,54c-15.1,20.6-43,28.3-54.1,46.8
			c-24.6,41,7,119.4,35.3,147.9C462.1,340,416,256.5,436.8,192.7c6.9-21.1,23.4-38.4,32.6-58.7c11.6-25.7,12.7-54.2,24.5-79.7
			c25.9-56.1,53.2-15.5,76,19.3C589.5,103.7,654.8,149.1,654.8,149.1z"/>
		<path class="st2" d="M658.8,225.3c-13.9,1.6-34.7-16.4-45.6-23.8s-21.2-15.9-32.9-21.6c-19.3-9.5-20.2,2.7-31.6,18.6
			c-9.3,12.9-22.4,22.6-30.5,36.5c-14.3,24.7-20.3,63.8-18.7,92.3c1,18.6-2.2,59,13.6,72.2c2.3-33.4,18.9-54.8,30.8-85.6
			c5.5-14.4,12.8-29.4,15.8-44.5c2.4-12.1,2-32.4,9.4-42.5c32.2,32.6,61.6,62.9,101.7,84.3c0-12.2-0.7-24.8-1.7-37
			c-1.3-15-7.8-28.8-8.8-43.7"/>
		<path class="st2" d="M667.8,397.2c-1.2-24.2-11.6-32-23.4-46.7c-11.4-14.2-25.2-27.7-38-40.5c-17.4,24.8-27.2,59.4-35.8,88.1
			c-3.6,12.3-12.6,39-1.5,45.7c9,5.5,29.2,5.6,37.5-0.5c9.7-7,18.2-29.4,19-40c5.5,7.6,24.5,22.9,34.5,24
			C666.2,414.5,658.6,409,667.8,397.2"/>
		<path class="st5" d="M157.3,250.2c3.3,6.5,6.9,12.8,9.1,19.8c3.6,11.6,7.2,22.6,19.8,26.8c18.2,6,37.4,7.1,56.1,11
			c17,3.5,34.7,8.2,43.4,24.5c5.5,10.2,10.7,24.9,23.8,26.5c7.7,0.9,14.4-0.2,21.9,2.9c6.1,2.5,13.5,7,20.4,6
			c7.8-1.1,17-8.1,15.4-15.1c4.3-3.4,7.7-7.6,11.8-12.5s8.6-6.6,13.3-10.4c2.7-2.3,4.3-5.6,4.4-9.1c0.7-13-1.4-34.5,12.5-41.5
			c9.3-4.6,15.2-14.4,20.7-22.9c4.5-7,8.7-14.9,14.4-21c3.5-3.7,7.6-7.1,10.3-11.5c5.7-9.6,2.1-15.7-3.4-24.1
			c-8-12.2,2.4-21.8,5.2-33.5c2.5-10.2-1.5-20.5-5.4-29.9c-3.1-7.4-6.5-15.1-11.6-21.4s-12.2-11.4-18.6-16.3
			c-7.9-6-15.6-12.2-22.9-19c-5.3-5.2-11.2-9.8-17.5-13.7c-14.1-8.4-30.4-12-45.9-16.8c-17.6-5.5-36.1-10.5-54.7-7.3
			c-16.9,3-34.2,14.1-48.3,23.2c-15.7,10.2-30.4,21.9-43.8,35c-10.1,9.8-20.3,20.4-25.5,33.8c-6.2,15.9-6.4,32-5.5,48.8
			c0.5,9.7,1.8,19.3,2.2,29c0.2,5.5-1.6,9.4-4.2,14c-1.3,2.4-2.9,5.1-3,7.8C151.4,239.3,154.6,244.9,157.3,250.2z"/>
		<path class="st3" d="M270.6,126c8.9,11.3,49,62.6,49,61.5c-0.7-32.2,5.3-62.8,10.7-94.3c3-17.9,18.2-30.5,2.6-44.5
			c-0.6-0.5-23.6-7.7-23.3-6.3s-3.1,82.9-3.3,120.7c-15.5-37.8-49.8-113.2-50-111.4C253.2,77.4,254,104.8,270.6,126z"/>
		<path class="st3" d="M151.9,230.8c6.6,7.6,14.9,13.6,23.2,19.2c10.2,6.9,20.5,14.2,31.1,20.5c25.7,15.2,54.7,23.9,82.3,35.1
			c10.4,4.3,21.1,8,31.4,12.6c2.6,1.1,22,10,15.7,13.5c-10.6,5.9-21-8.3-29.2-13.3c-9.9-6-35.3-3.9-34-3.2
			c14.8,7.6,31.8,13.8,41,28.3c2.4,3.8,5,8.8,9.6,10.1c3.3,0.9,5.5-2.4,6.9-5.4c4.2,9.6,7.3,21.3,18.3,24.6c3.2,1,7.6,2.4,10.1-0.7
			c2.2-2.8,0.8-7.9,1.4-11c4.2-22.9,39-31.1,34-57.5c-0.3-1.5-13.1,15.5-19,21.4c-5.4,5.4-11.1,10.6-17,15.4
			c-1.3-13.5,6.5-25.7,14.7-35.9s66.2-68.8,72-95.8c0.3-1.3-80,78.8-88.7,87.4c-2.9,2.8-5.3,6.1-7,9.8c-0.1-0.1-7.2-16.2-10.2-23.5
			c1.2-8.4,4.2-16.4,8.7-23.4c5.5-8.6,12-18.1,21.2-23.2c7.6-4.2,16-5.9,23.8-9.5c7.1-3.3,13.6-8,19-13.7
			c23.4-24.7,29.4-60.2,26.7-93c-0.1-1.4-10.6,18.4-13.5,28.3c-3.3,10.8-7.3,21.4-12,31.7c-4.5,10.3-9.6,21.7-17.7,29.8
			c-4.9,4.9-10.8,8.6-16.9,11.8c-14.2,7.6-33.8,14.9-44.2,27.8c-0.5-1.6-1.1-3.1-1.8-4.6c1.1-2.3,29.5-33.6,39.4-43.9
			c13.3-13.8,21.1-31.2,27.5-49.1c3.6-10.2,12.2-46.3,13.6-51.1c0.4-1.5-30.3,61.3-50.1,86.3c-8.4,10.6-19.4,21.3-27.9,33.1
			c-0.8-2.8-1.9-5.6-3.4-8.1c14.9-21.8,34.5-40.2,48.5-62.7c14.3-22.9,11.3-72.2,11.2-73.8c-0.3-2.9-12.9,50.8-17.5,59.4
			c-9.4,17.4-28.6,26.6-38.4,44.1c-3.8,6.8-8.4,14.9-11.1,23.3c-0.1-0.1,55.3-88.5,47-141.3c-0.1-0.6-15.8-8-19.7-6.9
			C350.3,54,322.7,178,319.6,198c-4.7-4.5-73.3-122.4-75-140c-0.1-1.4-28.1,9.4-15.3,30c8.3,13.3,35.6,69.3,46.7,79.9
			c-28.6-20.7-60.8-87.1-60.7-85.3c1.1,16.1,3.3,32.8,9.8,47.7s16.4,26.3,29.7,35.7c13.8,9.7,58.4,36.8,65,43.2
			c2.4,2.3-9.9,3.8-11.9,3.5c-11.5-1.8-22.3-8.1-31.9-14.5c-9.6-6.3-18.6-13.5-27-21.3c-11.4-10.9-50.6-85.5-51.1-84.7
			c-10.9,16.2-6.9,34.4,0.6,51.4s18.9,34.1,34,45c23.1,16.6,61,40,88.6,26.4c0,2.4,2.4,23.1,0.7,31.7c-2.7-2.4-5.4-4.8-8.2-7
			c-6-4.9-12.3-9.5-19.4-12.7c-16.1-7.4-34.1-9.8-49.9-18.1c-33.1-17.4-70.9-84.1-70.9-82.8c-0.2,30.4,17.7,57.3,41.9,74.4
			c7.3,5.3,15.1,9.8,23.4,13.3c8,3.3,43.3,25.2,51.7,33.3c-9.2-4.8-18.8-8.2-29.6-8c-9,0.1-17.8,3.1-26.8,2.8
			c-8.2-0.3-16.3-3.4-23.1-7.9c-23.7-15.7-49.1-70.6-49.1-69.1c-0.2,36.2,25.2,68.9,56.8,84.6c17.9,8.9,37.4,10.4,56.3,16.1
			c11.2,3.3,21.8,8,31.8,14c5.9,3.8,12,7.2,18.4,10.2c0,0-43.3-7-53.5-10.5c-40.5-14-79.6-32.4-117.1-53.2
			C153.6,227.5,152.7,229.1,151.9,230.8z"/>
		<path class="st5" d="M294.8,127.3c5.8,36.8,49.5,248.6,55.4,257.5c3.5,5.3,14.8,1.4,14.3-1.3c-2.2-12-79.6-340.5-79.8-339.3
			C280.5,66.4,293.7,120.1,294.8,127.3z"/>
		<path class="st6" d="M400.2,128.8c0.7,1.8,1.6,3.7,3.3,4.8c1.5,0.9,3.2,1.2,4.9,0.8c-6.1,5.3-5.7,15.3-8.3,22.6
			c3.3-0.2,6.6-0.7,9.8-1.6c3.3-1,6.7-2.1,9.9-3.5c2.8-1.2,5.2-3.1,7-5.5c1.6-2.5,3.1-5.1,4.5-7.8c3.8,3.5,6.6,8.1,10.3,11.8
			s14,5.6,13.9,5.4c-0.3-2.4-0.7-4.9-1.3-7.2c-0.6-2.7-1.5-5.4-1.5-8.2c0.1-1.9-0.3-3.8-1-5.5c-0.7-1.2-1.5-2.4-2.4-3.5
			c-0.6-0.8-2.5-2.7-2.1-3.8c0.5-1.3,2-1.7,3.2-2.1c2.2-0.8,4.5-1.9,4.8-4.7c0.3-2.4-0.7-4-2.3-5.6c-1-0.8-1.6-1.9-1.8-3.1
			c0-1.5,0.4-2.9,1.2-4.2c1.4-2,3.7-3.1,4.7-5.4c0.8-2,0-5.2-1.9-6.2c-1.1-0.6-2.5-0.2-3.6-0.1c-1.8,0.3-3.6-0.2-5.1-1.2
			c-1.1-1-2.2-2-3.2-3.2c-0.5-0.6-1.2-1-2-1.2c-0.8,0-1.6,0.3-2.2,0.8c-4.6-7.1-12-11.7-15.9-19.3c-0.1-0.2-3.3,5.9-4.2,9
			c-1,3.3-1.8,6.6-2.3,10c-0.4,3.6,0.1,7.3,1.5,10.6c1.3,3.3,2.8,6.4,3.5,9.9c-5.4-3.2-10.4-8.2-17-8.2c-2.6,0-4.9,0.7-6.3,3.1
			c-1.7,2.7-2.7,5.6-4.9,8C393.2,114.8,398.4,124.1,400.2,128.8z"/>
		<path class="st3" d="M416.7,123.6c0.4,1.6,14.6,15.3,16.7,13.4c4.4-3.8,5.5-12.2,3.1-17.5c-0.7-1.4-5.8-6.2-10.1-5.8
			s-7.9,6.2-8.5,6.9C417,121.3,416.6,122.4,416.7,123.6z"/>
		<path class="st5" d="M423.1,128.3c0.7,4.2,6.1,6.7,8.3,6.1c0.6-0.2,3.9-0.9,4.8-4.2c0.4-1.3-1.3-3.4-3.3-4.5
			c-2.5-1.4-2.5,2.9-3,4.7c-0.4-0.3-3.8-4.8-5.3-4.4c-1,0.1-1.7,1-1.6,2.1C423,128.1,423.1,128.2,423.1,128.3z"/>
		<path class="st5" d="M421.4,125.9c2.1-0.5,1.6-2.1,2.3-3.1c0.5,1.6,1.8,3.3,3.5,2.8c1.5-0.4,1.1-2.4,0.8-3.8
			c1,0.9,3.1,2.3,4.3,1.5c1-0.6,0.3-3.3,0-4.6c1,1,2.9,3.3,3.6,1.9c1-2.1-1.4-4.5-2.6-5.6c-1.6-1.4-3.6-2.8-5.8-2.3
			c-0.4,0.1-5,1.2-6.5,2.8C418.1,118.6,417.7,126.7,421.4,125.9z"/>
		<path class="st5" d="M582.7,428.3c18.9-30.3,5.9-46.9-25.2-54.9c-8.1-2.1-5.6-3.7-14.3,2.2c-7.1,4.8-13.4,11.8-19.6,17.8
			c-17.3,16.8-33.6,20.1-55.2,29.3c7.6-21.6,38.1-30.2,44.9-54.6c-17.8-9-28-18.7-46.2-8.4c-9.8,5.5-22.7,12.1-31.8,19.8
			c-8,6.8-16.9,24.2-29,22.7c-3.5-15.2,15.1-35.1,22.5-47.1c11.6-18.6-0.5-14.2-5.6-30.1c-12.8,5.2-19,21.3-33.4,25.6
			c3.6-8.4,8.2-26.9,5.2-35.6c-14.3,3.2-13.2-11.4-23.1-12.3c-8.8-0.9-12,12.1-14.9,18.8c-9.3,20.9-23.3,42.4-34.4,62.3
			c0.7-13.1,21.5-31.7,12.6-42.5c-3.8-4.6-15.9-7.5-21-12.5s-6.6-12.8-15.4-13.8c-5.9-0.7-15.4,5.5-21.7,6c-4.7,0.4-16-2.5-19.3,0.8
			c-8,8.3,5.4,36.7,5.4,47.1c-14-12-13-45.6-38.1-42.8c-11.2,1.2-17.5,8.5-29.7,7.4c-9.4-0.9-18.9-8.4-28-6.7
			c4.2,14.7,15.7,26.9,17.1,42.5c-5.5-12.2-12.3-24.1-25.9-29.2c-10.4-3.9-20.5-0.6-31.8-1.2c3.3,10.6,8.5,17.5,16.5,24.4
			c-16.9-2.2-23.2-13-41.6-5.9c-18.9,7.2-13.2,15.9-5.8,31.9c12,1.9,29.1-7.2,41-10.5c12.4-3.4,25.3-4.7,38.1-3.9
			c30.2,1.5,61.6-1.1,90.4,6.6c26.1,7,50.9,6.5,77.5,9.3c24.7,2.6,46.5,18.1,68.5,28.3c24.5,11.4,45.9,24,68.8,37.8
			c11.8,7.1,47,39.3,59.4,31.2c2.5-18,7.6-24.2,23.8-33.4C582.5,443.8,582.7,428.3,582.7,428.3z"/>
		<path class="st5" d="M40,313.2c19.1,9.5,38.6,17.8,56.7,29.5c19.4,12.5,38.1,25.7,58.7,35.6c18.6,9,38.1,16.6,55.4,28.6
			c8,5.6,15.8,12,20.7,21.2c4.3,8.2,6.8,17.3,9.1,26.3c0.2,0.9-0.7,41.7,3.5,51.1c3.4,7.7,13.1,9.4,18,2.4c1.6-2.4,11-18.5,13-21.2
			c2.9-3.8,11.8-5.7,11.8-6.2c-0.1-3.5-1.3-6.9-2.3-10.2c-1.8-5.7-7.5-18.8-2.5-24.1c4.7-4.9,13.5,0.2,18.3,2.3
			c5,2.2,11.6,5.5,17.2,3.5c6.5-2.4,7.6-9.2,6.8-15.9c-0.5-4.4-1.8-8.7-2.9-13c-1.1-4.8-3.2-9.4-4.1-14.2c-0.5-2.6-0.9-4.7,1.1-6.6
			c0.6-0.6,1.3-1.2,2-1.8c1-0.8,1.8-1.8,2.3-2.9c1-2.7-0.3-6.5-1.5-8.9c-3-6.1-8.5-8.5-13.9-11.4c-3.2-1.7-6.4-3.6-8.7-6.7
			c-2.8-3.9-2.9-6.7-2.1-11.4c0.6-3.8,1.6-7.8,1.7-11.7c0.1-4.1-1.8-8.5-3.8-11.8c-5.1-8.6-10.8-16.7-16.4-24.9
			c-5.1-7.5-10.8-15.6-18.5-20.1c-4.2-2.4-8.4-4.3-13.1-4.3c-4.2,0.1-8.4,0.7-12.4,1.6c-5.5,1-11.4,1.7-16.8-0.5
			c-3.6-1.6-7-3.7-9.9-6.3c-5.8-4.8-11.6-10.3-19-11.5c-8.6-1.4-15.4,1.6-21.3,6.7c-2.5-0.5-5-0.9-7.5-1.2
			c-5.8-0.5-12.5,0.1-16.2,5.8c-4,6.3-5.1,17.8-14.4,17c-5.2-0.5-9.6-3.5-14.3-5.6c-3.8-1.8-8-2.6-12.2-2.4
			c-9.9,0.3-19.3,3.6-29.1,5.2c-12.7,2.1-24.6-0.8-37-3.4c-12.2-2.5-24.3-5.1-36.5-7.4C-0.8,284.3,30.8,308.7,40,313.2z"/>
		<path class="st5" d="M265,479.5c0.5,3.3-0.1,18,0.2,17.8c5.7-4.9,13.4-24.6,12.9-32.3c0-0.6-4.4,1.1-6.5,1.6
			c1.1-5.1,4.4-11.1,5.7-13.4c3.3-6.3,7.6-12,12.7-17c9.6-9.3,28.6-24.3,18.2-40.3c-0.2-0.4-22.4,23.6-30.7,37.3
			c2.4-5.5,4.3-11.3,5.7-17.2c4.5-20.5,4.3-41.7-0.4-62.1c-0.2-0.8-4.3,15.8-4.7,23.8c-0.6,9.6-1.8,19.1-3.7,28.5
			c-2.3,11.7-4.5,23.2-7.9,34.5C264.1,447.8,254.6,475.6,265,479.5z"/>
		<path class="st5" d="M250.5,437.3c0.2,3.8,7.2,8.3,7.3,7.8c0.8-3.3,0.2-6.5-0.6-9.6c6.1-4.8,8-14.8,8.8-22.5
			c1.1-11.7,0.9-23.5-0.5-35.1c-1.3-12.9-4.7-25.4-9.9-37.3c-6.8-15.4-24.1-45-23.9-44.2c9.8,29.6,19.2,60.4,23.5,91.6
			C257,399.7,250.3,433.7,250.5,437.3z"/>
		<path class="st5" d="M205,326.1c1.2,8.6,2.6,16.6,6.1,24.5c3.4,7.6,8,15.1,10.2,23.2c0.8,3.1,1.5,6.3,2.2,9.5
			c0.8,3.6,6.6,24.6,11.6,35c2.3,4.6,6.4,4.4,6.4,4.3c0.4-0.3-0.3-52.9-7.8-74.9c-3.3-9.8-7.6-20.1-13.4-28.4s-13.9-14.2-19.4-22.8
			C200.5,295.9,203.6,316.4,205,326.1z"/>
		<path class="st5" d="M196.6,332c0-0.9,22.1,38.2,18.6,59.6c-0.8,0.1-1.6,0.3-2.4,0.5C198.5,377.4,195.5,353.1,196.6,332z"/>
		<path class="st5" d="M117,316.1c11.5,4.9,24.1,4,36,6.9c9.7,2.3,17,8.5,23.6,16.4c8.2,9.9,21.9,29.9,14.7,43.9
			c-0.9,0.5-1.9,0.8-2.9,1.1c-12.7-2.6-22.8-14.8-30.9-25C145.2,344,116.3,315.8,117,316.1z"/>
		<path class="st7" d="M51.2,315.2c3.1,2.4,103.8,60,121.2,66.2c17.7,6.4,37.5,10.3,51.8,24.5c22.5,22.5,35.3,109.3,35.6,109.2
			c10-4.4,4.9-55.1,4.3-57.9c-3.6-16-12.2-30.3-22.1-42.4c-10.2-12.3-22.5-23.6-36.4-30.4c-7.8-3.8-16.3-5.8-24.4-8.8
			c-9.8-3.6-19.5-7.5-29.1-11.8c-12.7-5.8-23.9-14.6-35-23.5C112,336.1,50.5,314.7,51.2,315.2z"/>
		<path class="st8" d="M386.6,325.9c-1.1,4.6-1,14.5-8.5,13.5c2.5,9-5.1,23-14.4,25.5c-3.9,1-4.9,3.1-8.4,4.6
			c-3.2,1.3-7.1-0.4-10.4,1.3c-3.9,2-4.6,4.2-9.9,3.5c-3.2-0.5-6.3-1.7-8.9-3.7c-3.2-2.7-13-13.9-19-20.8c-2.1-2.5-3.8-4.4-4.4-5.2
			c-0.2-0.2-0.3-0.4-0.3-0.4c-4.1,2.9-8.7,4.8-13.6,5.8c-1.9,3.7-7.1,4.4-11,4.6c-0.8,6.2-2.4,7.5-8.5,6.7c0,3.1,0,5.8-2.2,8.1
			c-2.5,2.6-4.3,1.3-7.3,2.5c-2.5,1-4,4.1-6.4,5.3c-3.9,2-4.8-0.7-8.4-0.7c-3.9,0-3.6,2.8-6.7,3.9s-4.9-1.7-8.1-1.3
			c-6.5,0.8-6.3,9.1-14.2,4.6c-2.4,4-12.5,5.9-13.1-0.4c-0.5,2.5-4.5,7-6.7,8.3c-4.2,2.5-6.7,0-8.4-4.2c-3.1,3.5-8,10.2-13.5,9.2
			c0.6-3.1,2.1-8.3,1.6-11.5c-5.1,3.8-11.7,10.5-18.6,11.1c2-3.1,8-5.9,7.8-9.7c-8.6,0-16.2,10.9-25.8,7c0.1-0.7-0.3-1.8-0.1-2.5
			c-6-0.3-10.6-0.5-16.2-2.2c-2.2-0.7-6.3-0.7-8-2.3c-2.8-2.8-1.2-4.4,2.2-4.5c4.3-0.2,10.8,3.2,15.2,4.1c5.3,1,9.3,1.1,14.4-1.2
			c6.2-2.9,13.5-5.2,19.6-8.6c6.5-3.7,9.3-9.7,13.4-15.2c3.6-4.9,7.5-9.5,11.6-13.8c2.9-2.9,13.1-12.7,14.3-14.2c-0.6,0-1.2,0-1.8,0
			c-9.2-0.5-47.4-5.4-50.2-4.4c1.1-7.2,8.6-6.9,11.1-12.8c2.8-6.4-4.9-9.5-4.9-15.1c0-0.7,0.8-1.2,2.2-1.7c2-0.5,4-0.9,6-1
			c2.8-0.2,6.2-0.4,9.9-0.4c17.1-0.2,40.2,1.6,40.3,1.6c3.3-2.4,8.5-11.4,10.4-14.2c3.7-5.3,7.8-10.9,9.4-16.9
			c3.5-13.4,11.2-25.8,10.6-40c-0.2-4.5-6.4-18.1-3.1-21.1c2.8,2.7,2.8,9.7,5,13.3c-0.1-5.9-5.4-36.6-5-39.8c0.6-3,1.6-5.8,3-8.5
			c1.3,5.8,5.1,25.9,5.6,31.3c1.4-4.4-0.6-13-1.5-17.8c-1-5.3-2.5-9.8-3.1-15.3c-1-9.9-5.8-21.6-9.2-30.9
			c7.4,5.3,11.3,18.6,13.6,26.8c1.4,5,2.3,10.2,3.7,15.2c1.2,4.3,1.2,10.3,3.2,14.2c-0.2-11.5,0-55.7-2.6-65.8
			c2.8,9,9.4,16.6,11.1,26.1c2,10.7,0.3,21,1.3,31.7c0-5.3,5.3-50.3,6-60.3c3.8,6.4,4.9,18.9,5.3,26.4c0.5,9.9-2.1,18.3-3.4,27.6
			c5.4-1.5,18.6-39.4,21.2-41.6c2.3,6.2-0.5,14.6-1.8,20.6c-1.7,7.4-4.9,14-6.7,21.4c2.1-4.5,23.3-37.6,24.5-40.2
			c0.9,6.6,0,12.5-2,18.8c-2.2,6.9-3.2,14.3-7.2,20.4c6.3-7.5,9.8-15.3,17.3-21.8c0.6,10-4.5,15.1-7.9,23.6
			c4.2-0.8,9.5-8.7,14.7-11.2c-1.2,5.7-5.9,14-7.6,19.3c3.9-0.3,8-3.9,8.9,1.9c0.7,4.4-3.5,7-4.5,10.7c11.9,7-0.7,11.4-7.1,15.8
			c5.4,0.8,10.3-6,16.4-2.9c7.7,4-3.2,10.1-3,14.9c10.6,2.1-2.9,11.9-5,14c3.2,2.5,11.6,2.7,7.5,8.9c-2.5,3.7-2.9,1.8-3.5,5.9
			c-0.4,2.6,0.8,5.8-3.1,5.5c-0.7,3.8,1,6.5-0.8,9.9c-2,3.6-4.2,3.6-3.6,7.5c0.6,3.7,3.2,5.9-0.9,9.1c-3,2.4-5.5,1.8-7.3,5.3
			c-2,4-4.4,10.8-8.8,13.6c2.2,1.4,4.8,2.3,7.4,2.5c7.3,0.4,51.6-13.5,57.8-16.1c9.2-3.9,8.4,4.4,2.8,9.3c5.4-0.2,11.4-0.7,10.2,7.2
			c-2.6-0.4-5.3-0.5-8-0.3c1.5,3.2,5.2,1.4,7.5,3.1C389.6,318.6,387.4,323,386.6,325.9z"/>
		<path class="st8" d="M258.6,129.5c-0.2-0.7-0.4-1.3-0.6-2C258.2,128.2,258.4,128.9,258.6,129.5z"/>
		<path class="st3" d="M204.3,332.7c-6.1-0.4-24.8-2.6-37.7-3.8c-4-0.4-7.4-0.6-9.6-0.7c-1-0.1-1.9-0.1-2.9,0.1
			c1.1-7.2,8.6-6.9,11.1-12.8c2.8-6.4-4.9-9.5-4.9-15.1c0-0.6,0.7-1.1,1.9-1.6c2-0.6,4-0.9,6.1-1.1h0.2c17.6,2.9,39.2,9,45.9,20.6
			C217.9,324.6,212.7,331.3,204.3,332.7z"/>
		<path class="st1" d="M332.3,340.7c-1.6,0.3-2.9-0.9-4.1-1c-1.4,0.4-2.7,0.8-4,1.4c-1.4,0.9-1.9,2.8-3.4,3.7c-1.3,0.5-2.6,1-4,1.4
			c-3.1,1.3-5.5,3.6-9.1,3.6h-0.6c-2.1-2.5-3.5-4.4-4.2-5.2c6.4-6.2,10.3-12.3,12.3-29.8v0.3c4-1.5,14.8,5.6,14.9,11
			c-1.4,0.1-2.7-0.5-4-0.5C329,330.8,332.6,334.3,332.3,340.7z"/>
		<path class="st3" d="M164.8,328.7c-1.6,2-15.6-2.2-32-0.3s-35.7,8.4-44,13.5c-3.3-5.2-3.3-8.7-2.6-15c0.8-7,9.2-13.2,14.8-16.1
			c19.9-10.5,44.5-13,67-13C168.1,297.7,173.4,318.1,164.8,328.7z"/>
		<path class="st1" d="M172.1,321.6c-2,2.7-3,4.8-5.4,7.3c-3.5,1.4-3.1,1.8-11-0.1c1.6-1,4.4-2.5,4.7-3c1.8-2.8,2.3-6.4,5-8.9
			c1.1-1,3.9-1.7,4.6-2.4c1.2-1.3-0.7-2.9-1.4-4c-2.2-2.9-3.2-5.9-5-8.9c-0.7-1.2-1.3-2.4-1.8-3.6c2.2-0.5,4.4-0.5,6.6-0.1
			c0.1,0.4,0.1,0.8,0.2,1.2c0.5,1.6,1.2,3.1,2.1,4.5C174.6,309.9,176.8,315.1,172.1,321.6z"/>
		<path class="st1" d="M167,311.5c-0.7-0.7-0.6-2.7-0.8-3.5c-0.4-1.2-0.8-2.4-1.5-3.5c-0.8-1.3-2.4-3.8-2.2-5.7c2-0.5,4-0.9,6-1
			c2.8-0.2,6.2-0.4,9.9-0.4c2.6,1.5,5,3.2,5.8,3.7C185.7,302.2,169.1,313.6,167,311.5z"/>
		<path class="st5" d="M293,329.6c1.6-1.7,4.3,2.3,5.4,3.1c1.1,1,2.5,1.6,4,1.7c1.3-0.1,3-0.7,2.8-2.1c-0.4-3.9-14.1-8.6-16.5-9
			c-2-0.4-4.6-1.2-6.4,0.3c-0.9,0.8-1.4,1.8-1.5,3c0,1.3,0.7,1.2,1.5,2.1c1.4,1.6,1,5.3,3.7,5.4c1.3,0.1,1.3-0.8,2.1-1.3
			s1.8-0.3,2.8-0.4c1,0.1,1.9-0.3,2.6-1C294,330.9,293,329.6,293,329.6z"/>
		<path class="st5" d="M290.2,342.6c1.6-1.7,4.3,2.3,5.4,3.1c1.1,1,2.5,1.6,4,1.7c1.3-0.1,3-0.7,2.8-2.1c-0.4-3.9-14.1-8.5-16.5-9
			c-2-0.4-4.5-1.2-6.4,0.3c-0.9,0.8-1.4,1.8-1.5,3c0,1.3,0.7,1.2,1.5,2.1c1.4,1.6,0.9,5.2,3.7,5.4c1.2,0.1,1.3-0.8,2.1-1.3
			s1.8-0.3,2.8-0.4c1,0.1,1.9-0.3,2.6-1C291.3,343.9,290.2,342.6,290.2,342.6z"/>
		<path class="st5" d="M90.2,322.9c1.9-3.3,11.9-9.5,15.7-7.7c1.2,0.6,4.4,5.9,3.2,7.4c-1.5,1.8-15.3,13.9-20.2,17.9
			C88.9,340.5,84.6,332.7,90.2,322.9z"/>
		<path class="st5" d="M172.4,301.1c-1-1.3-2.4-2.2-4-2.6c-4.1-1-4.8,1.3-5.1,3.8s1.8,4.9,3.9,5.8c2.2,1.1,4.8,0.4,6.2-1.6
			C174.5,304.8,173.6,302.5,172.4,301.1z"/>
		<path class="st1" d="M166.6,300.7c-0.5,0.8-0.7,1.7-0.7,2.6c0.2,0.9,0.9,1.7,1.8,2c1,0.3,2.1-0.1,2.9-0.8
			C171.4,303.7,171.6,298.8,166.6,300.7z"/>
		<path class="st5" d="M165.1,305.9c-0.5-1.7-1.3-3.3-1.7-5c-0.1-1.2,0.1-2.3,0.4-3.4c0.1-0.3-1.7,0.1-2.1,0.4l0.3,1.9
			c0.1,1.6,0.5,3.3,1.1,4.8c1.1,3.2,1.1,6.6,2.2,9.8c0.1,0.3,1.3,0.5,1.3,0.1C166.4,311.5,166,308.7,165.1,305.9z"/>
		<path class="st5" d="M162.1,304.8c-0.7-1.8-1.2-5.9-1.7-6.9c-0.1-0.3-1.8-0.3-1.9,0.1c-0.1,2.1,0.4,4.1,1.3,6
			c1.7,3.2,2.7,6.7,3,10.4c0,0.4,1.4,0.4,1.3,0.1C164.1,311,163.4,307.8,162.1,304.8z"/>
	</g>
</g>
</svg>
